<svg width="40" height="40" viewBox="0 0 40 40" fill="none" xmlns="http://www.w3.org/2000/svg">
<path d="M10.7147 4.02154C10.9249 3.77075 11.0283 3.44757 11.0028 3.12139C10.9773 2.7952 10.825 2.49201 10.5784 2.2769C10.3319 2.06179 10.0109 1.95191 9.68424 1.97085C9.35761 1.98979 9.05142 2.13604 8.83141 2.37821L6.67808 4.84487C5.45705 6.24415 4.76681 8.02816 4.72808 9.88487L4.63308 14.4165C4.62969 14.5807 4.65866 14.7439 4.71834 14.8969C4.77803 15.0498 4.86725 15.1895 4.98093 15.308C5.0946 15.4265 5.2305 15.5214 5.38086 15.5873C5.53122 15.6533 5.69309 15.689 5.85725 15.6924C6.0214 15.6958 6.18461 15.6668 6.33757 15.6071C6.49052 15.5474 6.63022 15.4582 6.7487 15.3445C6.86717 15.2308 6.96209 15.095 7.02804 14.9446C7.094 14.7942 7.12969 14.6324 7.13308 14.4682L7.22641 9.93821C7.25315 8.66775 7.7257 7.44714 8.56141 6.48987L10.7147 4.02154Z" fill="black"/>
<path fill-rule="evenodd" clip-rule="evenodd" d="M10.3952 12.832C10.5072 11.0489 11.2944 9.3755 12.5968 8.15243C13.8991 6.92935 15.6186 6.24858 17.4052 6.2487H18.3336V4.9987C18.3336 4.55667 18.5092 4.13275 18.8217 3.82019C19.1343 3.50763 19.5582 3.33203 20.0002 3.33203C20.4423 3.33203 20.8662 3.50763 21.1788 3.82019C21.4913 4.13275 21.6669 4.55667 21.6669 4.9987V6.2487H22.5952C24.3819 6.24858 26.1014 6.92935 27.4037 8.15243C28.706 9.3755 29.4933 11.0489 29.6052 12.832L29.9736 18.722C30.1139 20.9678 30.868 23.132 32.1536 24.9787C32.4192 25.3605 32.5815 25.8045 32.6247 26.2676C32.6679 26.7306 32.5905 27.197 32.4001 27.6213C32.2096 28.0456 31.9126 28.4134 31.538 28.689C31.1633 28.9645 30.7237 29.1384 30.2619 29.1937L24.5836 29.8737V31.6654C24.5836 32.8809 24.1007 34.0467 23.2411 34.9063C22.3816 35.7658 21.2158 36.2487 20.0002 36.2487C18.7847 36.2487 17.6189 35.7658 16.7593 34.9063C15.8998 34.0467 15.4169 32.8809 15.4169 31.6654V29.8737L9.73857 29.192C9.27707 29.1366 8.83775 28.9626 8.46332 28.6872C8.08888 28.4118 7.79205 28.0442 7.60166 27.6201C7.41127 27.1961 7.3338 26.73 7.37678 26.2671C7.41975 25.8043 7.58171 25.3605 7.84691 24.9787C9.13241 23.1319 9.88646 20.9678 10.0269 18.722L10.3952 12.8337V12.832ZM17.4052 8.7487C16.2545 8.74856 15.147 9.18698 14.3082 9.97471C13.4694 10.7624 12.9623 11.8402 12.8902 12.9887L12.5236 18.8787C12.3541 21.5803 11.4468 24.1837 9.90024 26.4054C9.88102 26.433 9.86927 26.4651 9.86613 26.4986C9.863 26.5321 9.86858 26.5658 9.88233 26.5965C9.89609 26.6272 9.91755 26.6538 9.94464 26.6738C9.97172 26.6937 10.0035 26.7063 10.0369 26.7104L16.2652 27.4587C18.7469 27.7554 21.2536 27.7554 23.7352 27.4587L29.9636 26.7104C29.997 26.7063 30.0288 26.6937 30.0558 26.6738C30.0829 26.6538 30.1044 26.6272 30.1182 26.5965C30.1319 26.5658 30.1375 26.5321 30.1343 26.4986C30.1312 26.4651 30.1195 26.433 30.1002 26.4054C28.5542 24.1836 27.6474 21.5802 27.4786 18.8787L27.1102 12.9887C27.0382 11.8402 26.5311 10.7624 25.6923 9.97471C24.8535 9.18698 23.746 8.74856 22.5952 8.7487H17.4052ZM20.0002 33.7487C18.8502 33.7487 17.9169 32.8154 17.9169 31.6654V30.4154H22.0836V31.6654C22.0836 32.8154 21.1502 33.7487 20.0002 33.7487Z" fill="black"/>
<path d="M29.4045 2.2572C29.1549 2.47516 29.002 2.78335 28.9794 3.11402C28.9569 3.44469 29.0667 3.77076 29.2845 4.02053L31.4379 6.4872C32.2733 7.44514 32.7453 8.66638 32.7712 9.9372L32.8662 14.4655C32.8731 14.7971 33.0113 15.1123 33.2506 15.3419C33.4899 15.5714 33.8105 15.6966 34.142 15.6897C34.4736 15.6828 34.7888 15.5446 35.0184 15.3053C35.2479 15.0661 35.3731 14.7454 35.3662 14.4139L35.2712 9.88387C35.2325 8.02715 34.5422 6.24314 33.3212 4.84387L31.1679 2.3772C30.9499 2.12751 30.6417 1.97461 30.3111 1.95211C29.9804 1.9296 29.6543 2.03934 29.4045 2.2572Z" fill="black"/>
</svg>
