<svg width="40" height="40" viewBox="0 0 40 40" fill="none" xmlns="http://www.w3.org/2000/svg">
<rect x="0.5" y="0.5" width="39" height="39" rx="19.5" fill="white"/>
<rect x="0.5" y="0.5" width="39" height="39" rx="19.5" stroke="#D5E0D5"/>
<path fill-rule="evenodd" clip-rule="evenodd" d="M16.938 14.683C15.732 14.683 14.75 15.682 14.75 16.91C14.75 17.397 14.903 17.86 15.191 18.249L20.001 24.245L24.83 18.224C25.098 17.86 25.251 17.397 25.251 16.91C25.251 15.682 24.269 14.683 23.063 14.683C21.857 14.683 20.876 15.682 20.876 16.91H19.126C19.126 15.682 18.144 14.683 16.938 14.683ZM20.001 27L13.785 19.252C13.2757 18.5774 13.0001 17.7552 13 16.91C13 14.754 14.767 13 16.938 13C18.174 13 19.278 13.568 20.001 14.455C20.3709 13.9999 20.8378 13.6331 21.3675 13.3813C21.8972 13.1296 22.4765 12.9993 23.063 13C25.234 13 27.001 14.754 27.001 16.91C27.001 17.749 26.736 18.551 26.235 19.226L20.001 27Z" fill="#108A00"/>
</svg>
