<svg width="24" height="24" viewBox="0 0 24 24" fill="none" xmlns="http://www.w3.org/2000/svg">
<path d="M11.7184 21.9371C6.41782 21.9371 2.12109 17.5887 2.12109 12.2244C2.12109 6.86008 6.41782 2.51172 11.7184 2.51172C17.019 2.51172 21.3158 6.86008 21.3158 12.2244C21.3158 17.5887 17.019 21.9371 11.7184 21.9371ZM11.7184 19.9945C13.7547 19.9945 15.7076 19.1759 17.1475 17.7187C18.5874 16.2615 19.3963 14.2852 19.3963 12.2244C19.3963 10.1636 18.5874 8.18726 17.1475 6.73007C15.7076 5.27289 13.7547 4.45425 11.7184 4.45425C9.68213 4.45425 7.72923 5.27289 6.28936 6.73007C4.84948 8.18726 4.04056 10.1636 4.04056 12.2244C4.04056 14.2852 4.84948 16.2615 6.28936 17.7187C7.72923 19.1759 9.68213 19.9945 11.7184 19.9945ZM12.6782 12.2244H16.5171V14.1669H10.7587V7.36805H12.6782V12.2244Z" fill="#08BC1A"/>
</svg>
