<svg width="45" height="40" viewBox="0 0 45 40" fill="none" xmlns="http://www.w3.org/2000/svg">
<rect x="0.5" y="0.5" width="39" height="39" rx="19.5" fill="white"/>
<rect x="0.5" y="0.5" width="39" height="39" rx="19.5" stroke="#D5E0D5"/>
<path fill-rule="evenodd" clip-rule="evenodd" d="M16.2373 14.368H22.1333V19.743C22.1333 19.928 22.0363 20.295 21.9333 20.5L19.3693 23.302C19.1643 23.522 19.0523 23.81 19.0523 24.112V25.462C18.7023 25.188 18.1063 24.405 18.8373 22.488C18.9056 22.307 18.9292 22.1121 18.906 21.92C18.8828 21.7279 18.8135 21.5443 18.7039 21.3848C18.5944 21.2252 18.448 21.0946 18.277 21.0039C18.1061 20.9132 17.9158 20.8652 17.7223 20.864H14.5403L16.2373 14.368ZM13.1503 21.948C13.2923 22.131 13.5103 22.232 13.7643 22.232H17.4803C16.2863 25.654 18.4453 26.724 18.7003 26.837C18.958 26.9496 19.2372 27.0049 19.5184 26.9992C19.7996 26.9935 20.0762 26.9269 20.3293 26.804C20.3563 26.7888 20.3788 26.7667 20.3946 26.74C20.4104 26.7134 20.4189 26.683 20.4193 26.652L20.4213 24.177C20.4213 24.177 22.9983 21.387 23.0083 21.387H26.7883C26.9043 21.387 26.9983 21.309 26.9983 21.215V13.172C26.9983 13.078 26.9033 13.002 26.7883 13.002L16.0853 13C15.5903 13 15.0803 13.404 14.9473 13.903L13.0323 21.243C12.9964 21.362 12.9886 21.4876 13.0094 21.6101C13.0302 21.7326 13.0791 21.8486 13.1523 21.949L13.1503 21.948Z" fill="#108A00"/>
</svg>
