<svg width="50" height="50" viewBox="0 0 50 50" fill="none" xmlns="http://www.w3.org/2000/svg">
<circle cx="25" cy="25" r="25" fill="white"/>
<path d="M44.9933 25.5492C44.9933 14.2477 36.0402 5.08594 24.9962 5.08594C13.9521 5.08594 4.99902 14.2476 4.99902 25.5492C4.99902 35.763 12.3117 44.2288 21.8716 45.7639V31.4644H16.7942V25.5492H21.8716V21.0409C21.8716 15.9123 24.8571 13.0794 29.4248 13.0794C31.6127 13.0794 33.9012 13.4791 33.9012 13.4791V18.515H31.3796C28.8953 18.515 28.1207 20.0924 28.1207 21.7108V25.5492H33.6668L32.7802 31.4644H28.1207V45.7639C37.6806 44.2288 44.9933 35.7631 44.9933 25.5492Z" fill="#1877F2"/>
</svg>
