<svg width="50" height="50" viewBox="0 0 50 50" fill="none" xmlns="http://www.w3.org/2000/svg">
<path d="M45.4285 20.9211H43.7503V20.8346H25.0003V29.168H36.7743C35.0566 34.019 30.441 37.5013 25.0003 37.5013C18.0972 37.5013 12.5003 31.9044 12.5003 25.0013C12.5003 18.0982 18.0972 12.5013 25.0003 12.5013C28.1868 12.5013 31.0857 13.7034 33.293 15.6669L39.1857 9.77422C35.4649 6.30651 30.4878 4.16797 25.0003 4.16797C13.4951 4.16797 4.16699 13.4961 4.16699 25.0013C4.16699 36.5065 13.4951 45.8346 25.0003 45.8346C36.5055 45.8346 45.8337 36.5065 45.8337 25.0013C45.8337 23.6044 45.6899 22.2409 45.4285 20.9211Z" fill="#FFC107"/>
<path d="M6.56836 15.3044L13.4132 20.3242C15.2652 15.7388 19.7507 12.5013 24.9996 12.5013C28.1861 12.5013 31.085 13.7034 33.2923 15.6669L39.185 9.77422C35.4642 6.30651 30.4871 4.16797 24.9996 4.16797C16.9975 4.16797 10.0579 8.68568 6.56836 15.3044Z" fill="#FF3D00"/>
<path d="M25 45.8331C30.3812 45.8331 35.2708 43.7737 38.9677 40.4247L32.5198 34.9685C30.3579 36.6126 27.7161 37.5019 25 37.4997C19.5812 37.4997 14.9802 34.0445 13.2469 29.2227L6.45312 34.457C9.90104 41.2039 16.9031 45.8331 25 45.8331Z" fill="#4CAF50"/>
<path d="M45.4281 20.9185H43.75V20.832H25V29.1654H36.774C35.9523 31.4741 34.4722 33.4916 32.5167 34.9685L32.5198 34.9664L38.9677 40.4227C38.5115 40.8372 45.8333 35.4154 45.8333 24.9987C45.8333 23.6018 45.6896 22.2383 45.4281 20.9185Z" fill="#1976D2"/>
</svg>
