<svg width="515" height="369" viewBox="0 0 515 369" fill="none" xmlns="http://www.w3.org/2000/svg">
<g clip-path="url(#clip0_1200_454)">
<path d="M13.6357 368.185C13.6357 368.637 13.9989 368.999 14.4512 368.999H514.184C514.636 368.999 515 368.637 515 368.185C515 367.734 514.636 367.371 514.184 367.371H14.4512C13.9989 367.371 13.6357 367.734 13.6357 368.185Z" fill="#3F3D58"/>
<path d="M173.659 65.0896H13.383C7.27068 65.0896 2.2959 60.1232 2.2959 54.0213C2.2959 47.9195 7.27068 42.9531 13.383 42.9531H173.659C179.771 42.9531 184.746 47.9195 184.746 54.0213C184.746 60.1232 179.771 65.0896 173.659 65.0896ZM13.383 44.3213C8.02444 44.3213 3.66636 48.6719 3.66636 54.0213C3.66636 59.3708 8.02444 63.7214 13.383 63.7214H173.659C179.017 63.7214 183.375 59.3708 183.375 54.0213C183.375 48.6719 179.017 44.3213 173.659 44.3213H13.383Z" fill="#E2E3E4"/>
<path d="M173.658 194.616H13.3821C7.45488 194.616 2.6377 189.807 2.6377 183.89C2.6377 177.973 7.45488 173.164 13.3821 173.164H173.658C179.585 173.164 184.402 177.973 184.402 183.89C184.402 189.807 179.585 194.616 173.658 194.616Z" fill="#488A4C"/>
<path d="M121.135 21.4524H10.7444C4.81718 21.4524 0 16.6434 0 10.7262C0 4.809 4.81718 0 10.7444 0H121.135C127.063 0 131.88 4.809 131.88 10.7262C131.88 16.6434 127.063 21.4524 121.135 21.4524Z" fill="#E2E3E4"/>
<path d="M173.659 108.379H13.383C7.27068 108.379 2.2959 103.412 2.2959 97.3104C2.2959 91.2085 7.27068 86.2422 13.383 86.2422H173.659C179.771 86.2422 184.746 91.2085 184.746 97.3104C184.746 103.412 179.771 108.379 173.659 108.379ZM13.383 87.6103C8.02444 87.6103 3.66636 91.961 3.66636 97.3104C3.66636 102.66 8.02444 107.01 13.383 107.01H173.659C179.017 107.01 183.375 102.66 183.375 97.3104C183.375 91.961 179.017 87.6103 173.659 87.6103H13.383Z" fill="#E2E3E4"/>
<path d="M173.659 151.672H13.383C7.27068 151.672 2.2959 146.705 2.2959 140.603C2.2959 134.501 7.27068 129.535 13.383 129.535H173.659C179.771 129.535 184.746 134.501 184.746 140.603C184.746 146.705 179.771 151.672 173.659 151.672ZM13.383 130.903C8.02444 130.903 3.66636 135.254 3.66636 140.603C3.66636 145.953 8.02444 150.303 13.383 150.303H173.659C179.017 150.303 183.375 145.953 183.375 140.603C183.375 135.254 179.017 130.903 173.659 130.903H13.383Z" fill="#E2E3E4"/>
<path d="M7.87348 35.0039H49.8782C50.8787 35.0039 51.6941 35.8111 51.6941 36.8167C51.6941 37.8154 50.8787 38.6295 49.8782 38.6295H7.87348C6.87304 38.6295 6.05762 37.8223 6.05762 36.8167C6.05762 35.8179 6.87304 35.0039 7.87348 35.0039Z" fill="#E2E3E4"/>
<path d="M7.87348 79.3164H49.8782C50.8787 79.3164 51.6941 80.1236 51.6941 81.1223C51.6941 82.1211 50.8787 82.9351 49.8782 82.9351H7.87348C6.87304 82.9351 6.05762 82.1279 6.05762 81.1292C6.05762 80.1304 6.87304 79.3164 7.87348 79.3164Z" fill="#E2E3E4"/>
<path d="M7.87348 123.637H49.8782C50.8787 123.637 51.6941 124.444 51.6941 125.449C51.6941 126.448 50.8787 127.255 49.8782 127.255H7.87348C6.87304 127.255 6.05762 126.448 6.05762 125.443C6.05762 124.444 6.87304 123.637 7.87348 123.637Z" fill="#E2E3E4"/>
<path d="M306.354 90.4776L291.032 95.5123V73.4922H304.936L306.354 90.4776Z" fill="#9F616A"/>
<path d="M292.93 79.5875C301.362 79.5875 308.197 72.7639 308.197 64.3465C308.197 55.9291 301.362 49.1055 292.93 49.1055C284.498 49.1055 277.663 55.9291 277.663 64.3465C277.663 72.7639 284.498 79.5875 292.93 79.5875Z" fill="#9F616A"/>
<path d="M297.124 62.8332C294.568 62.758 292.889 60.179 291.896 57.8258C290.902 55.4726 289.881 52.7706 287.51 51.7992C285.571 51.0057 282.152 56.3756 280.624 54.9459C279.027 53.4546 280.582 45.7999 282.275 44.4249C283.967 43.05 286.284 42.7832 288.463 42.6806C293.78 42.4343 299.132 42.8653 304.346 43.9529C307.574 44.6233 310.89 45.6357 313.22 47.9616C316.167 50.9167 316.92 55.37 317.133 59.536C317.352 63.7977 317.105 68.2579 315.029 71.986C312.953 75.7142 308.608 78.4642 304.442 77.5133C304.024 75.2559 304.449 72.9369 304.614 70.6384C304.771 68.3468 304.607 65.8705 303.202 64.044C301.804 62.2176 298.803 61.4924 297.172 63.1137" fill="#2F2E43"/>
<path d="M315.906 68.1132C317.434 66.9981 319.264 66.061 321.141 66.2935C323.17 66.5398 324.89 68.2089 325.41 70.1859C325.931 72.1628 325.349 74.3382 324.088 75.9526C322.834 77.567 320.963 78.6341 318.99 79.1677C317.845 79.4755 316.591 79.6055 315.502 79.1403C313.898 78.4494 313.028 76.4041 313.659 74.776" fill="#2F2E43"/>
<path d="M257.483 211.513C256.462 216.521 258.333 221.097 261.649 221.733C264.966 222.369 268.481 218.819 269.495 213.812C269.927 211.814 269.858 209.748 269.296 207.778L281.925 129.281L266.131 126.312L260.032 206.006C258.737 207.621 257.867 209.509 257.483 211.52V211.513Z" fill="#9F616A"/>
<path d="M290.867 85.4062H280.088C272.469 86.5623 270.399 90.6188 268.666 98.1162C266.021 109.554 262.642 124.781 263.314 125.007C264.39 125.363 282.74 133.982 292.094 132.012L290.867 85.4062Z" fill="#E2E3E4"/>
<path d="M301.29 335.441H286.941V355.765H301.29V335.441Z" fill="#9F616A"/>
<path d="M272.969 368.063C271.461 368.063 270.118 368.029 269.104 367.933C265.294 367.584 261.656 364.773 259.826 363.131C259.004 362.392 258.743 361.215 259.168 360.203C259.477 359.478 260.086 358.931 260.847 358.719L270.92 355.846L287.228 344.859L287.413 345.188C287.482 345.311 289.085 348.191 289.62 350.134C289.825 350.872 289.771 351.488 289.462 351.967C289.25 352.295 288.948 352.487 288.709 352.596C289.003 352.904 289.928 353.533 292.779 353.985C296.938 354.642 297.815 350.339 297.85 350.161L297.877 350.017L298 349.935C299.981 348.663 301.2 348.081 301.618 348.204C301.879 348.28 302.317 348.417 303.503 360.135C303.619 360.504 304.448 363.199 303.886 365.778C303.277 368.583 290.997 367.618 288.537 367.399C288.469 367.406 279.273 368.063 272.976 368.063H272.969Z" fill="#2F2E43"/>
<path d="M342.148 319.475L329.973 327.055L340.746 344.3L352.921 336.719L342.148 319.475Z" fill="#9F616A"/>
<path d="M325.979 365.282C324.293 365.282 322.745 365.077 321.641 364.885C320.559 364.694 319.709 363.832 319.531 362.751C319.408 361.971 319.634 361.184 320.168 360.603L327.192 352.846L335.209 334.909L335.538 335.087C335.661 335.156 338.546 336.749 340.033 338.118C340.602 338.637 340.883 339.192 340.869 339.759C340.862 340.156 340.711 340.471 340.561 340.697C340.972 340.806 342.089 340.847 344.747 339.725C348.626 338.09 347.091 333.972 347.022 333.801L346.968 333.664L347.029 333.534C348.037 331.407 348.756 330.271 349.181 330.155C349.448 330.08 349.887 329.964 357.102 339.287C357.397 339.534 359.528 341.387 360.419 343.871C361.385 346.573 350.455 352.244 348.256 353.352C348.187 353.407 336.751 361.704 332.05 364.064C330.186 365.001 327.98 365.289 325.972 365.289L325.979 365.282Z" fill="#2F2E43"/>
<path d="M311.856 165.484H271.681L268.035 202.793L283.987 340.647H304.496L296.294 261.028L329.562 332.91L347.789 320.173L321.812 253.066C321.812 253.066 331.09 194.605 323.799 180.041C316.508 165.484 311.856 165.484 311.856 165.484Z" fill="#2F2E43"/>
<path d="M331.844 167.754H268.035L287.181 85.4062H314.98L331.844 167.754Z" fill="#E2E3E4"/>
<path d="M337.587 211.517C338.608 216.524 336.737 221.101 333.421 221.737C330.104 222.373 326.589 218.823 325.575 213.816C325.143 211.818 325.211 209.752 325.773 207.782L313.145 129.285L328.939 126.316L335.038 206.01C336.333 207.625 337.203 209.513 337.587 211.524V211.517Z" fill="#9F616A"/>
<path d="M304.202 85.4062H314.981C322.601 86.5623 324.67 90.6188 326.404 98.1162C329.049 109.554 332.427 124.781 331.755 125.007C330.68 125.363 312.329 133.982 302.976 132.012L304.202 85.4062Z" fill="#E2E3E4"/>
</g>
<defs>
<clipPath id="clip0_1200_454">
<rect width="515" height="369" fill="white"/>
</clipPath>
</defs>
</svg>
