<svg width="45" height="45" viewBox="0 0 45 45" fill="none" xmlns="http://www.w3.org/2000/svg">
<rect width="45" height="45" rx="22.5" fill="#228B22" fill-opacity="0.88"/>
<path d="M35.6736 31.0347L30.9998 26.3617C30.7889 26.1508 30.5029 26.0336 30.2029 26.0336H29.4388C30.7326 24.3791 31.5014 22.298 31.5014 20.0342C31.5014 14.6488 27.137 10.2852 21.7507 10.2852C16.3644 10.2852 12 14.6488 12 20.0342C12 25.4196 16.3644 29.7833 21.7507 29.7833C24.0149 29.7833 26.0963 29.0146 27.7512 27.721V28.4849C27.7512 28.7849 27.8683 29.0708 28.0793 29.2817L32.7531 33.9547C33.1937 34.3953 33.9063 34.3953 34.3423 33.9547L35.6689 32.6283C36.1096 32.1877 36.1096 31.4753 35.6736 31.0347ZM21.7507 26.0336C18.4364 26.0336 15.7503 23.3526 15.7503 20.0342C15.7503 16.7205 18.4317 14.0348 21.7507 14.0348C25.065 14.0348 27.7512 16.7158 27.7512 20.0342C27.7512 23.3479 25.0697 26.0336 21.7507 26.0336Z" fill="#FFFAFA"/>
</svg>
