<svg width="38" height="48" viewBox="0 0 38 48" fill="none" xmlns="http://www.w3.org/2000/svg">
<path d="M0 0H30C34.4183 0 38 3.58172 38 8V44C38 46.2091 36.2091 48 34 48H0V0Z" fill="#0AA419" fill-opacity="0.75"/>
<path d="M32.304 33.7865L27.1109 28.6547C26.8765 28.4231 26.5588 28.2944 26.2254 28.2944H25.3764C26.814 26.4775 27.6682 24.1922 27.6682 21.7061C27.6682 15.792 22.8189 11 16.8341 11C10.8493 11 6 15.792 6 21.7061C6 27.6202 10.8493 32.4122 16.8341 32.4122C19.3499 32.4122 21.6626 31.568 23.5013 30.1474V30.9864C23.5013 31.3158 23.6315 31.6298 23.8659 31.8614L29.059 36.9931C29.5486 37.477 30.3403 37.477 30.8247 36.9931L32.2988 35.5365C32.7884 35.0527 32.7884 34.2703 32.304 33.7865ZM16.8341 28.2944C13.1516 28.2944 10.167 25.3503 10.167 21.7061C10.167 18.067 13.1464 15.1177 16.8341 15.1177C20.5167 15.1177 23.5013 18.0619 23.5013 21.7061C23.5013 25.3451 20.5219 28.2944 16.8341 28.2944Z" fill="#FFFAFA"/>
</svg>
