<svg width="45" height="38" viewBox="0 0 45 38" fill="none" xmlns="http://www.w3.org/2000/svg">
<rect width="45" height="37.9765" rx="18.9882" fill="#228B22" fill-opacity="0.88"/>
<path d="M32.7144 28.3795L28.6248 23.943C28.4403 23.7427 28.1901 23.6315 27.9275 23.6315H27.2589C28.391 22.0606 29.0637 20.0849 29.0637 17.9355C29.0637 12.8226 25.2449 8.67969 20.5319 8.67969C15.8188 8.67969 12 12.8226 12 17.9355C12 23.0485 15.8188 27.1914 20.5319 27.1914C22.5131 27.1914 24.3343 26.4616 25.7823 25.2334V25.9588C25.7823 26.2436 25.8848 26.515 26.0694 26.7153L30.1589 31.1518C30.5445 31.5701 31.168 31.5701 31.5495 31.1518L32.7103 29.8925C33.0959 29.4742 33.0959 28.7978 32.7144 28.3795ZM20.5319 23.6315C17.6319 23.6315 15.2815 21.0861 15.2815 17.9355C15.2815 14.7894 17.6278 12.2396 20.5319 12.2396C23.4319 12.2396 25.7823 14.785 25.7823 17.9355C25.7823 21.0816 23.436 23.6315 20.5319 23.6315Z" fill="#FFFAFA"/>
</svg>
