<svg width="120" height="120" viewBox="0 0 120 120" fill="none" xmlns="http://www.w3.org/2000/svg">
<circle cx="60" cy="60" r="60" fill="#D9D9D9"/>
<path fill-rule="evenodd" clip-rule="evenodd" d="M76.6654 47.5026C76.6654 51.9229 74.9094 56.1621 71.7838 59.2877C68.6582 62.4133 64.419 64.1693 59.9987 64.1693C55.5784 64.1693 51.3392 62.4133 48.2136 59.2877C45.088 56.1621 43.332 51.9229 43.332 47.5026C43.332 43.0823 45.088 38.8431 48.2136 35.7175C51.3392 32.5919 55.5784 30.8359 59.9987 30.8359C64.419 30.8359 68.6582 32.5919 71.7838 35.7175C74.9094 38.8431 76.6654 43.0823 76.6654 47.5026ZM68.332 47.5026C68.332 49.7127 67.4541 51.8324 65.8913 53.3952C64.3284 54.958 62.2088 55.8359 59.9987 55.8359C57.7886 55.8359 55.6689 54.958 54.1061 53.3952C52.5433 51.8324 51.6654 49.7127 51.6654 47.5026C51.6654 45.2925 52.5433 43.1728 54.1061 41.61C55.6689 40.0472 57.7886 39.1693 59.9987 39.1693C62.2088 39.1693 64.3284 40.0472 65.8913 41.61C67.4541 43.1728 68.332 45.2925 68.332 47.5026Z" fill="white"/>
<path fill-rule="evenodd" clip-rule="evenodd" d="M59.9993 14.168C34.6868 14.168 14.166 34.6888 14.166 60.0013C14.166 85.3138 34.6868 105.835 59.9993 105.835C85.3118 105.835 105.833 85.3138 105.833 60.0013C105.833 34.6888 85.3118 14.168 59.9993 14.168ZM22.4993 60.0013C22.4993 68.7096 25.4702 76.7263 30.4493 83.093C33.9461 78.5009 38.4573 74.7794 43.6303 72.2193C48.8034 69.6591 54.4983 68.3296 60.2702 68.3346C65.9674 68.3292 71.5907 69.6243 76.7116 72.1212C81.8325 74.6181 86.3159 78.251 89.8202 82.743C93.4304 78.008 95.8612 72.4814 96.9114 66.6204C97.9616 60.7595 97.6011 54.7327 95.8597 49.0387C94.1183 43.3448 91.0461 38.1473 86.8972 33.8765C82.7483 29.6056 77.6421 26.384 72.0009 24.4784C66.3598 22.5728 60.346 22.0379 54.4571 22.9179C48.5682 23.7979 42.9735 26.0675 38.1359 29.539C33.2983 33.0105 29.3569 37.5841 26.6378 42.8813C23.9187 48.1785 22.5001 54.047 22.4993 60.0013ZM59.9993 97.5013C51.3908 97.5142 43.0421 94.5527 36.366 89.118C39.0532 85.271 42.6299 82.1301 46.7918 79.9625C50.9537 77.7949 55.5776 76.6646 60.2702 76.668C64.9042 76.6643 69.4722 77.7662 73.5949 79.8822C77.7175 81.9983 81.2759 85.0674 83.9743 88.8346C77.2464 94.4459 68.7601 97.5136 59.9993 97.5013Z" fill="white"/>
</svg>
