<svg width="140" height="24" viewBox="0 0 140 24" fill="none" xmlns="http://www.w3.org/2000/svg">
<path d="M122.999 20.4951L128.001 17.3209L133.002 20.5368L131.692 14.5226L136.099 10.5132L130.303 9.97021L128.001 4.29013L125.698 9.92844L119.903 10.4714L124.309 14.5226L122.999 20.4951ZM120.578 24L122.547 15.124L116 9.15662L124.623 8.37143L128.001 0L131.378 8.36976L140 9.15495L133.455 15.1224L135.424 23.9983L128.001 19.2872L120.578 24Z" fill="#E4A951"/>
<path d="M93.9991 20.4951L99.0008 17.3209L104.002 20.5368L102.692 14.5226L107.099 10.5132L101.303 9.97021L99.0008 4.29013L96.6984 9.92844L90.9029 10.4714L95.3091 14.5226L93.9991 20.4951ZM91.5777 24L93.5466 15.124L87 9.15662L95.6235 8.37143L99.0008 0L102.378 8.36976L111 9.15495L104.455 15.1224L106.424 23.9983L99.0008 19.2872L91.5777 24Z" fill="#E4A951"/>
<path d="M64.9991 20.4951L70.0008 17.3209L75.0024 20.5368L73.6925 14.5226L78.0987 10.5132L72.3031 9.97021L70.0008 4.29013L67.6984 9.92844L61.9029 10.4714L66.3091 14.5226L64.9991 20.4951ZM62.5777 24L64.5466 15.124L58 9.15662L66.6235 8.37143L70.0008 0L73.3781 8.36976L82 9.15495L75.455 15.1224L77.4239 23.9983L70.0008 19.2872L62.5777 24Z" fill="#E4A951"/>
<path d="M35.9991 19.595L41.0008 16.5602L46.0024 19.6349L44.6925 13.8849L49.0987 10.0515L43.3031 9.53236L41.0008 4.10173L38.6984 9.49243L32.9029 10.0115L37.3091 13.8849L35.9991 19.595ZM33.5777 22.946L35.5466 14.4599L29 8.7545L37.6235 8.0038L41.0008 0L44.3781 8.0022L53 8.75291L46.455 14.4583L48.4239 22.9444L41.0008 18.4402L33.5777 22.946Z" fill="#E4A951"/>
<path d="M6.99914 19.595L12.0008 16.5602L17.0024 19.6349L15.6925 13.8849L20.0987 10.0515L14.3031 9.53236L12.0008 4.10173L9.69845 9.49243L3.90288 10.0115L8.3091 13.8849L6.99914 19.595ZM4.5777 22.946L6.54661 14.4599L0 8.7545L8.62349 8.0038L12.0008 0L15.3781 8.0022L24 8.75291L17.455 14.4583L19.4239 22.9444L12.0008 18.4402L4.5777 22.946Z" fill="#E4A951"/>
</svg>
