<svg width="131" height="131" viewBox="0 0 131 131" fill="none" xmlns="http://www.w3.org/2000/svg">
<path d="M22.6054 117.271C-1.08201 103.595 -1.08201 81.4193 22.6054 67.7534C46.2928 54.0875 84.6994 54.077 108.395 67.7534C132.09 81.4298 132.082 103.605 108.395 117.271C84.7073 130.937 46.2954 130.95 22.6054 117.271Z" fill="#F5F5F5"/>
<path d="M41.5637 117.935C51.843 117.935 60.1761 113.124 60.1761 107.19C60.1761 101.256 51.843 96.4453 41.5637 96.4453C31.2843 96.4453 22.9512 101.256 22.9512 107.19C22.9512 113.124 31.2843 117.935 41.5637 117.935Z" fill="#E0E0E0"/>
<path d="M84.5829 102.166C97.4892 95.2051 105.144 84.3556 101.68 77.933C98.2157 71.5105 84.945 71.9469 72.0388 78.9078C59.1325 85.8688 51.478 96.7182 54.942 103.141C58.406 109.563 71.6767 109.127 84.5829 102.166Z" fill="#E0E0E0"/>
<path d="M97.4243 86.909C100.005 83.8331 104.048 81.8288 108.593 80.6445C113.084 79.4786 113.888 76.7146 110.912 75.8211C107.54 74.8046 103.332 76.67 100.618 79.2664C95.8916 83.7912 95.2969 87.247 95.2969 87.247L97.4243 86.909Z" fill="#92E3A9"/>
<path opacity="0.15" d="M97.4243 86.909C100.005 83.8331 104.048 81.8288 108.593 80.6445C113.084 79.4786 113.888 76.7146 110.912 75.8211C107.54 74.8046 103.332 76.67 100.618 79.2664C95.8916 83.7912 95.2969 87.247 95.2969 87.247L97.4243 86.909Z" fill="black"/>
<path d="M96.0962 86.7245C96.0771 86.7285 96.0575 86.7285 96.0385 86.7245C96.023 86.717 96.0092 86.7064 95.9977 86.6935C95.9863 86.6806 95.9775 86.6656 95.9719 86.6493C95.9663 86.6329 95.964 86.6157 95.9651 86.5985C95.9662 86.5813 95.9707 86.5644 95.9783 86.549C99.8087 78.689 108.292 76.7554 110.346 76.9021C110.381 76.9048 110.413 76.9209 110.435 76.9469C110.458 76.9728 110.469 77.0067 110.467 77.041C110.464 77.0755 110.447 77.1074 110.421 77.1299C110.394 77.1524 110.36 77.1637 110.325 77.1615C108.313 77.0095 99.9842 78.9248 96.2141 86.6642C96.2012 86.6835 96.1836 86.6991 96.1629 86.7097C96.1423 86.7202 96.1193 86.7253 96.0962 86.7245Z" fill="white"/>
<path d="M95.2969 87.7276C95.297 87.8539 95.3307 87.978 95.3944 88.0871C95.4581 88.1963 95.5496 88.2866 95.6595 88.3489C95.7695 88.4112 95.894 88.4433 96.0203 88.4418C96.1467 88.4403 96.2704 88.4054 96.3789 88.3406C98.7788 86.9442 102.279 86.1713 107.944 87.7852C110.957 88.6419 112.44 88.0682 113.074 86.842C113.781 85.4796 112.288 84.1617 110.585 83.5408C104.787 81.4212 99.5544 82.8675 95.2969 87.0961V87.7276Z" fill="#92E3A9"/>
<path d="M95.6294 87.84C95.6108 87.8404 95.5924 87.8368 95.5752 87.8296C95.5581 87.8224 95.5426 87.8117 95.5299 87.7981C95.5057 87.7732 95.4922 87.7398 95.4922 87.7051C95.4922 87.6704 95.5057 87.637 95.5299 87.6121C100.537 83.1371 108.292 84.0096 111.226 85.7545C111.256 85.772 111.278 85.8005 111.286 85.8339C111.295 85.8673 111.291 85.9028 111.273 85.9327C111.255 85.9626 111.226 85.9843 111.193 85.9931C111.159 86.0019 111.123 85.9972 111.093 85.9798C108.211 84.269 100.613 83.4175 95.7054 87.8138C95.6832 87.8297 95.6568 87.8388 95.6294 87.84Z" fill="white"/>
<path d="M39.2783 98.1604C37.0775 94.8015 33.2995 92.3335 28.9241 90.6226C24.6063 88.9354 24.1321 86.0979 27.1923 85.5582C30.6612 84.9477 34.62 87.2979 37.0094 90.1956C41.17 95.2469 41.3508 98.7551 41.3508 98.7551L39.2783 98.1604Z" fill="#92E3A9"/>
<path opacity="0.15" d="M39.2783 98.1604C37.0775 94.8015 33.2995 92.3335 28.9241 90.6226C24.6063 88.9354 24.1321 86.0979 27.1923 85.5582C30.6612 84.9477 34.62 87.2979 37.0094 90.1956C41.17 95.2469 41.3508 98.7551 41.3508 98.7551L39.2783 98.1604Z" fill="black"/>
<path d="M40.6093 98.1408C40.6284 98.1446 40.6479 98.1446 40.667 98.1408C40.6997 98.129 40.7265 98.1048 40.7416 98.0735C40.7568 98.0422 40.7591 98.0062 40.7482 97.9731C37.8662 89.7175 29.6813 86.7962 27.6167 86.7071C27.5824 86.7057 27.5489 86.7178 27.5234 86.7408C27.498 86.7639 27.4825 86.796 27.4805 86.8303C27.4797 86.8651 27.4923 86.8989 27.5157 86.9248C27.5391 86.9506 27.5715 86.9665 27.6063 86.9691C29.6237 87.053 37.6671 89.9376 40.4993 98.0675C40.5095 98.0884 40.525 98.1062 40.5444 98.119C40.5637 98.1319 40.5861 98.1395 40.6093 98.1408Z" fill="white"/>
<path d="M41.3695 98.5972C41.349 98.7834 41.2808 98.9611 41.1715 99.1133C41.0623 99.2655 40.9157 99.3869 40.7458 99.4659C40.576 99.5449 40.3886 99.5788 40.2019 99.5643C40.0151 99.5498 39.8353 99.4874 39.6796 99.3832C37.4579 97.895 34.1488 96.9282 28.728 97.8112C25.6364 98.3064 24.2321 97.5492 23.75 96.268C23.2103 94.8322 24.8504 93.703 26.6137 93.2864C32.6213 91.8664 37.6465 93.9205 41.3748 98.6181L41.3695 98.5972Z" fill="#92E3A9"/>
<path d="M40.9553 99.3C40.9736 99.3026 40.9923 99.3011 41.0099 99.2957C41.0276 99.2902 41.0438 99.281 41.0575 99.2686C41.0817 99.2436 41.0952 99.2103 41.0952 99.1756C41.0952 99.1408 41.0817 99.1075 41.0575 99.0825C36.6035 94.0495 28.809 93.9997 25.6886 95.3857C25.6566 95.4 25.6316 95.4263 25.6191 95.459C25.6066 95.4917 25.6075 95.528 25.6218 95.56C25.636 95.5919 25.6624 95.6169 25.6951 95.6294C25.7277 95.642 25.764 95.641 25.796 95.6268C28.8535 94.267 36.5039 94.3168 40.861 99.2555C40.8724 99.2695 40.8868 99.2808 40.9031 99.2885C40.9194 99.2962 40.9373 99.3001 40.9553 99.3Z" fill="white"/>
<path d="M99.775 38.2955L99.7331 38.2746L89.7456 32.5263L89.6854 32.4975C85.0191 30.1395 78.794 30.8495 72.0973 35.1777C58.6462 43.8761 48.3968 63.8982 49.2037 79.8985C49.6046 87.8712 52.6805 93.3391 57.3257 95.7443L57.365 95.7652L67.3551 101.516L67.4023 101.542C72.0685 103.9 78.2988 103.201 85.0008 98.8673C98.4519 90.1689 108.701 70.1469 107.894 54.1465C107.499 46.1686 104.423 40.7007 99.775 38.2955Z" fill="#37474F"/>
<path d="M67.0122 101.331L57.3785 95.7611L57.3313 95.7323C52.6861 93.3219 49.6128 87.8539 49.2093 79.8918C48.8504 72.7549 50.6923 64.8241 54.0301 57.4593L54.0956 57.2969L64.0202 63.2076C60.6771 70.5724 58.8405 78.5032 59.1994 85.64C59.5793 93.445 62.532 98.8475 67.0122 101.331Z" fill="#263238"/>
<path d="M85.0063 98.8603C98.4573 90.1619 108.707 70.1398 107.9 54.1395C107.093 38.1392 95.5334 32.2232 82.0823 40.9216C68.6313 49.62 58.3792 69.642 59.1862 85.6398C59.9931 101.637 71.5552 107.559 85.0063 98.8603Z" fill="#455A64"/>
<path d="M96.3974 37.0547L79.5377 71.788L75.909 67.858C74.827 66.7315 73.3464 66.0743 71.7851 66.0275C70.2239 65.9807 68.7065 66.5481 67.559 67.6077C66.4115 68.6674 65.7254 70.1349 65.648 71.6949C65.5706 73.255 66.1081 74.7831 67.1451 75.9512L76.7055 86.3081C77.7567 87.4502 79.2137 88.1349 80.7638 88.2154C80.8739 88.2154 80.9839 88.2154 81.094 88.2154C81.3833 88.2151 81.6722 88.1941 81.9586 88.1525C82.9209 88.0124 83.8343 87.6388 84.619 87.0642C85.4036 86.4897 86.0356 85.7317 86.4597 84.8566L105.795 45.0326C103.812 40.61 100.511 37.8695 96.3974 37.0547Z" fill="#37474F"/>
<path d="M110.09 25.615C109.985 25.5548 109.875 25.4971 109.765 25.4447C108.529 24.8459 107.106 24.7618 105.808 25.2107C104.511 25.6597 103.444 26.605 102.843 27.8394L81.3901 72.0283L80.1691 70.7183C79.8167 70.3333 79.4066 70.0054 78.9535 69.7463C78.3142 69.3795 75.5946 67.8049 75.1545 67.5508C74.0816 66.9301 72.8217 66.7147 71.6036 66.9437C70.3855 67.1727 69.2899 67.8309 68.5157 68.7988C67.7414 69.7667 67.34 70.9802 67.3842 72.2189C67.4283 73.4575 67.9152 74.6393 68.7564 75.5496L78.3168 85.9039C78.6752 86.2928 79.0915 86.6242 79.5508 86.8864C80.1744 87.2401 82.8835 88.8121 83.3289 89.0688C83.9449 89.4256 84.6279 89.6515 85.3352 89.7325C86.0425 89.8135 86.7589 89.7478 87.4396 89.5396C88.1204 89.3313 88.751 88.985 89.2919 88.5222C89.8328 88.0594 90.2726 87.49 90.5836 86.8497L115.964 34.5728C116.534 33.3946 116.638 32.0442 116.255 30.7925C115.871 29.5408 115.029 28.4803 113.896 27.8237L110.09 25.615Z" fill="#92E3A9"/>
<path opacity="0.15" d="M110.09 25.615C109.985 25.5548 109.875 25.4971 109.765 25.4447C108.529 24.8459 107.106 24.7618 105.808 25.2107C104.511 25.6597 103.444 26.605 102.843 27.8394L81.3901 72.0283L80.1691 70.7183C79.8167 70.3333 79.4066 70.0054 78.9535 69.7463C78.3142 69.3795 75.5946 67.8049 75.1545 67.5508C74.0816 66.9301 72.8217 66.7147 71.6036 66.9437C70.3855 67.1727 69.2899 67.8309 68.5157 68.7988C67.7414 69.7667 67.34 70.9802 67.3842 72.2189C67.4283 73.4575 67.9152 74.6393 68.7564 75.5496L78.3168 85.9039C78.6752 86.2928 79.0915 86.6242 79.5508 86.8864C80.1744 87.2401 82.8835 88.8121 83.3289 89.0688C83.9449 89.4256 84.6279 89.6515 85.3352 89.7325C86.0425 89.8135 86.7589 89.7478 87.4396 89.5396C88.1204 89.3313 88.751 88.985 89.2919 88.5222C89.8328 88.0594 90.2726 87.49 90.5836 86.8497L115.964 34.5728C116.534 33.3946 116.638 32.0442 116.255 30.7925C115.871 29.5408 115.029 28.4803 113.896 27.8237L110.09 25.615Z" fill="black"/>
<path opacity="0.15" d="M83.3164 89.06C82.8762 88.798 80.1724 87.2259 79.5409 86.8775C79.0817 86.6151 78.6655 86.2838 78.3069 85.895L68.7465 75.5408C68.325 75.0808 67.9903 74.5481 67.7588 73.9688L71.5604 76.1617C71.7909 76.7428 72.1276 77.2759 72.5534 77.7337L82.1111 88.0879C82.4628 88.4695 82.8689 88.7971 83.3164 89.06Z" fill="black"/>
<path opacity="0.15" d="M107.847 28.4417C107.348 28.8899 106.94 29.4309 106.647 30.0346L84.5818 75.4864L81.3906 72.028L102.843 27.8391C103.136 27.2342 103.544 26.6929 104.046 26.2461L107.847 28.4417Z" fill="black"/>
<path d="M113.569 27.6422C112.333 27.0448 110.911 26.9614 109.614 27.4102C108.317 27.859 107.25 28.8035 106.647 30.0369L84.5817 75.4886L80.1722 70.7098C79.2286 69.7512 77.9489 69.1975 76.6041 69.166C75.2594 69.1345 73.9552 69.6275 72.9677 70.5408C71.9801 71.4541 71.3868 72.7159 71.3134 74.059C71.24 75.4021 71.6921 76.7211 72.5742 77.7366L82.132 88.0935C82.7041 88.7125 83.4187 89.1824 84.2137 89.4627C85.0087 89.7429 85.86 89.8248 86.6939 89.7014C87.5277 89.578 88.3189 89.253 88.9986 88.7546C89.6784 88.2561 90.2262 87.5993 90.5946 86.8411L115.974 34.5642C116.573 33.3272 116.655 31.9034 116.204 30.6056C115.753 29.3077 114.806 28.2419 113.569 27.6422Z" fill="#92E3A9"/>
<path d="M41.194 32.7477C39.1949 32.7477 37.8273 33.2717 36.4073 35.2891C35.0973 37.144 31.5236 43.3272 31.5236 43.3272C31.5236 43.3272 28.9036 37.951 28.6416 36.8794C28.3796 35.8078 28.3953 35.331 28.6416 34.8646C29.0022 34.3134 29.2283 33.6852 29.3018 33.0306C29.404 31.7416 29.7184 30.6386 29.4302 30.6019C28.6311 30.5574 28.5997 31.5844 28.1804 32.1896C28.1272 32.248 28.0609 32.2931 27.987 32.3211C27.9131 32.3492 27.8336 32.3594 27.7551 32.351C27.6765 32.3425 27.6009 32.3157 27.5347 32.2727C27.4684 32.2296 27.4131 32.1715 27.3735 32.1032C27.198 31.7442 27.2923 31.1547 27.2084 30.7303C27.2311 30.4941 27.2688 30.2596 27.3211 30.0281C27.6237 30.0826 27.9328 30.0914 28.2381 30.0543C28.5839 30.5967 28.8197 30.8246 29.3018 30.6045C29.3647 30.505 29.0948 29.8185 28.7778 29.2945C28.7302 29.2144 28.6531 29.156 28.563 29.1321C27.9817 28.9849 27.3752 28.9679 26.7866 29.0823C26.7421 29.0869 26.699 29.1004 26.6598 29.122C26.6207 29.1436 26.5863 29.1729 26.5587 29.2081C26.3375 29.5321 26.1612 29.8847 26.0347 30.2561C26.0006 30.3687 25.8958 30.3661 25.8696 30.2692C25.6076 29.0037 25.6076 27.2064 25.6076 26.3654C25.6076 25.7025 24.6408 25.5977 24.6068 26.5461C24.5493 27.8187 24.5712 29.0936 24.6723 30.3635C24.6723 30.4788 24.557 30.5338 24.5098 30.408C24.3422 29.96 23.9308 28.6055 23.7579 26.2684C23.7107 25.6396 22.6942 25.5374 22.7099 26.4204C22.7497 27.9858 22.9534 29.5427 23.3177 31.0656C23.3492 31.1757 23.247 31.2726 23.171 31.1469C22.6941 30.2278 22.313 29.262 22.0339 28.2649C21.8165 27.5051 20.8025 27.6989 20.9859 28.6448C21.303 30.3399 21.806 32.4831 22.5579 34.0158C23.3597 35.6533 24.0513 36.4733 24.4496 37.7597C24.8478 39.0462 26.4958 46.3324 28.2591 49.1725C29.6398 51.3995 31.2197 51.1925 32.92 50.0187C34.6204 48.845 40.6962 40.3797 40.6962 40.3797L41.194 32.7477Z" fill="#9E6767"/>
<path d="M31.5234 43.3269C31.5234 43.3269 32.3749 44.7705 32.5059 45.9259C32.7224 44.8041 32.5072 43.6418 31.9033 42.6719L31.5234 43.3269Z" fill="#874C4C"/>
<path d="M41.6185 32.748C40.602 32.6432 39.3365 32.6092 37.9269 33.4973C36.5174 34.3855 36.0248 35.6222 35.341 36.7042C34.6572 37.7863 32.2939 41.6193 32.2939 41.6193C32.2939 41.6193 33.1612 45.2585 36.6091 46.0078L41.7731 39.002L41.6185 32.748Z" fill="#455A64"/>
<path d="M46.2479 96.7392C46.5099 96.7052 46.8583 97.5986 46.8636 97.8894C46.8688 98.1802 46.5754 98.8064 46.1902 99.3933C45.6755 100.092 45.2487 100.851 44.9195 101.654C44.6235 102.461 44.351 102.991 43.5257 104.046C42.6087 105.223 40.4551 107.19 37.1853 106.336C36.3862 106.127 35.988 105.875 35.6971 105.584C35.5695 105.455 35.4806 105.293 35.4403 105.116C35.4 104.94 35.41 104.755 35.4692 104.584L46.2479 96.7392Z" fill="#263238"/>
<path d="M39.8236 95.7147V95.7435C39.7861 95.9882 39.7932 96.2376 39.8446 96.4797C39.9345 97.2012 39.8705 97.9336 39.6569 98.6286C39.4433 99.3235 39.0849 99.9654 38.6053 100.512C38.1498 100.987 37.6357 101.403 37.0752 101.749C35.4194 102.797 35.2412 103.512 35.4744 104.581C36.0299 105.825 39.7843 106.582 41.9432 104.73C42.8747 104.007 43.5868 103.039 43.9999 101.935C44.3132 101.143 44.6773 100.373 45.0898 99.629C45.5064 98.843 46.2976 97.9574 46.3212 97.1478C46.3343 96.7024 45.8942 95.8745 45.4671 95.1933C45.0741 94.5671 44.668 93.9724 44.3143 94.0405L44.4139 94.3942C44.1178 94.7007 43.6907 94.816 43.434 95.1802C43.1143 95.623 43.1248 96.2282 42.9283 96.726C42.9219 96.7516 42.9099 96.7755 42.8931 96.7959C42.8764 96.8162 42.8553 96.8327 42.8314 96.8439C42.8037 96.8485 42.7753 96.8442 42.7503 96.8314C42.7253 96.8187 42.705 96.7983 42.6925 96.7732C42.6711 96.7218 42.6613 96.6663 42.6637 96.6107L42.6401 95.8483C42.6519 95.7018 42.6131 95.5557 42.5301 95.4343C42.3257 95.2038 41.8227 95.23 41.5423 95.2195C41.165 95.2224 40.7881 95.2452 40.4131 95.2876C40.2832 95.2747 40.1529 95.3091 40.0463 95.3846C39.9392 95.4685 39.8613 95.584 39.8236 95.7147Z" fill="#37474F"/>
<path d="M34.2742 80.4835C35.1467 83.3524 39.226 93.2848 39.4697 93.8822L40.2819 95.8525C40.8167 96.0283 41.3898 96.0528 41.9377 95.9232C42.0242 96.8743 42.1683 98.365 42.2233 99.117C42.2443 99.9894 42.3202 101.069 42.1316 101.931C41.9718 102.664 41.7858 103.435 41.6469 104.171C41.5866 104.496 41.5264 104.823 41.4766 105.151C41.3921 105.494 41.4206 105.855 41.5578 106.18C41.6414 106.323 41.7517 106.447 41.8827 106.547C42.4646 107.004 43.2001 107.22 43.9368 107.15C44.3263 107.131 44.7032 107.006 45.0267 106.788C45.6607 106.335 45.8834 105.546 46.2057 104.876C46.5568 104.15 46.4441 104.069 46.4677 103.291C46.4886 102.746 46.6406 101.362 46.8581 99.9161C47.0755 98.4698 48.0135 93.387 48.4641 88.3226C48.6478 86.0731 48.6478 83.8124 48.4641 81.563C52.043 71.8401 53.636 66.0578 54.105 62.83C54.5792 59.5497 54.3513 58.376 54.291 56.4922L36.8863 56.9114C35.4925 65.9085 33.1031 76.6374 34.2742 80.4835Z" fill="#9E6767"/>
<path d="M34.0023 73.3051C34.3612 69.9987 36.8345 57.2891 36.8345 57.2891H54.3676C54.3676 57.2891 54.4802 59.7283 54.4488 60.8496C54.4173 61.971 54.0558 64.0172 53.4296 66.6136C52.8034 69.2101 50.4821 76.5382 50.0236 77.6176C49.5651 78.6971 48.7136 81.828 48.7136 81.828C49.1433 87.7073 48.0245 92.9839 47.1861 99.9977C47.1861 99.9977 46.9425 100.944 44.4587 100.757C42.0431 100.574 41.5558 99.6833 41.5558 99.6833L41.3959 93.6337C41.3959 93.6337 40.0859 94.0372 39.2999 93.8538C39.2999 93.8538 34.1097 81.0394 33.8582 80.2691C33.6067 79.4988 33.6434 76.6116 34.0023 73.3051Z" fill="#92E3A9"/>
<path opacity="0.45" d="M34.0023 73.3051C34.3612 69.9987 36.8345 57.2891 36.8345 57.2891H54.3676C54.3676 57.2891 54.4802 59.7283 54.4488 60.8496C54.4173 61.971 54.0558 64.0172 53.4296 66.6136C52.8034 69.2101 50.4821 76.5382 50.0236 77.6176C49.5651 78.6971 48.7136 81.828 48.7136 81.828C49.1433 87.7073 48.0245 92.9839 47.1861 99.9977C47.1861 99.9977 46.9425 100.944 44.4587 100.757C42.0431 100.574 41.5558 99.6833 41.5558 99.6833L41.3959 93.6337C41.3959 93.6337 40.0859 94.0372 39.2999 93.8538C39.2999 93.8538 34.1097 81.0394 33.8582 80.2691C33.6067 79.4988 33.6434 76.6116 34.0023 73.3051Z" fill="black"/>
<path opacity="0.2" d="M41.4399 65.5738C38.9561 63.3363 38.4033 61.5547 38.4033 61.5547C39.6521 62.9615 41.1307 64.146 42.7761 65.0576C42.7761 65.0576 40.4181 77.5079 40.591 80.0676C40.7639 82.6273 41.3954 93.634 41.3954 93.634C41.3954 93.7388 39.7238 81.9933 39.674 81.058C39.5614 78.5821 41.4399 65.5738 41.4399 65.5738Z" fill="black"/>
<path d="M46.8977 106.23C47.1413 106.301 47.1099 107.03 46.9999 107.302C46.7272 107.778 46.3411 108.178 45.8759 108.468C45.1942 108.932 44.6256 109.544 44.2122 110.257C43.5395 111.286 42.6497 112.156 41.6053 112.804C40.2142 113.593 38.5746 113.823 37.0203 113.446C35.3749 112.98 35.223 112.576 35.2361 111.955L46.8977 106.23Z" fill="#263238"/>
<path d="M41.8147 102.419C41.3825 104.515 40.6305 106.055 38.8882 107.35C37.4996 108.382 36.4935 108.906 35.3853 109.826C34.9163 110.219 34.877 111.054 35.2359 111.956C35.9852 112.556 37.049 112.901 38.4769 112.899C40.0751 112.899 40.6881 112.613 41.6051 111.987C42.0556 111.679 42.475 111.328 42.8575 110.939C43.6252 110.169 44.1675 109.218 44.7125 108.607C45.2574 107.997 46.4652 107.373 46.8085 106.637C46.9971 106.234 46.9185 105.298 46.7927 104.502C46.6775 103.771 46.9002 102.487 46.5491 102.406L46.4993 102.93C46.4705 103.048 46.3971 103.108 46.1508 103.192C45.9295 103.24 45.7011 103.246 45.4775 103.21C45.398 103.181 45.3115 103.178 45.2302 103.201C45.1489 103.224 45.0768 103.272 45.0243 103.338C44.7885 103.616 44.7256 104.009 44.4216 104.24C44.402 104.257 44.3787 104.27 44.3535 104.276C44.3418 104.283 44.3286 104.286 44.3152 104.286C44.3018 104.285 44.2888 104.281 44.2775 104.274C44.2694 104.261 44.2641 104.247 44.2618 104.232C44.2595 104.217 44.2604 104.202 44.2644 104.187L44.3509 103.401C44.3614 103.323 44.3614 103.244 44.3509 103.166C44.3345 103.093 44.3026 103.024 44.2574 102.964C44.2122 102.905 44.1547 102.855 44.0889 102.82C43.8682 102.691 43.6311 102.593 43.3841 102.529C43.1271 102.459 42.8638 102.414 42.5981 102.395C42.3374 102.362 42.073 102.37 41.8147 102.419Z" fill="#455A64"/>
<path d="M52.7853 33.4993C52.7853 33.4993 53.5058 34.4897 54.0953 36.5307C54.8128 39.8826 55.1816 43.2998 55.1957 46.7277C55.1957 51.3572 54.5721 58.8583 54.5721 58.8583C49.1985 61.5517 40.5315 59.9587 36.7168 57.3308C36.8714 56.4977 37.0024 52.117 37.3037 49.2272C37.5054 44.2701 37.6731 41.6737 37.7072 39.4677C37.7779 35.0608 39.9708 32.7841 41.6372 32.75L45.8449 32.8155L52.7853 33.4993Z" fill="#92E3A9"/>
<path d="M54.111 57.5C53.3119 58.1576 51.753 59.4205 51.4569 60.0571C51.1268 60.7855 50.9329 61.8911 50.7102 62.3051C50.4875 62.719 50.8229 62.9286 51.284 62.7793C51.7451 62.63 52.0202 62.2396 52.3765 61.2859C52.7328 60.3322 53.7232 59.5855 53.7232 59.5855L54.111 57.5Z" fill="#874C4C"/>
<path d="M51.1917 66.0745C51.3829 66.4439 51.8283 66.4465 52.2397 66.4779C52.7411 66.5354 53.2491 66.4781 53.7252 66.3103C54.2973 66.145 54.7991 65.7961 55.1531 65.3173C55.5566 64.7356 55.6614 64.0073 55.8919 63.3392C56.374 61.9375 57.8098 60.9262 58.0456 59.4406C58.1425 58.8275 58.1425 58.1044 58.3076 57.7245C58.4098 57.4992 60.7704 53.4356 61.614 51.6749C62.421 49.9824 63.0262 49.1859 62.2926 47.1528C61.559 45.1197 59.0621 37.9645 57.2936 35.4781C56.2928 34.0685 54.7024 33.6651 52.7741 33.5C51.3069 37.32 53.0125 41.2683 53.0125 41.2683L56.9059 48.7563C56.9059 48.7563 55.3967 53.9124 54.4535 56.7787C54.1915 57.5647 53.6676 58.0677 53.0676 58.9507C52.8056 59.3332 52.2135 59.9987 52.0039 60.4153C51.7419 60.9393 51.7419 61.2851 51.6109 62.0266C51.4065 63.2082 51.0895 65.8989 51.1917 66.0745Z" fill="#9E6767"/>
<path d="M52.5781 33.4805C53.592 33.5198 55.0487 33.6927 55.9186 34.1328C56.7884 34.573 57.3936 35.1153 58.3945 37.1223C59.3953 39.1292 60.8599 43.0277 60.8599 43.0277C60.8599 43.0277 60.3752 45.97 55.7221 46.7324L52.5781 40.9344C52.5781 40.9344 51.1764 37.3214 52.5781 33.4805Z" fill="#455A64"/>
<path d="M40.4893 24.1162C40.6268 24.3648 40.7459 24.6231 40.8456 24.8891C41.0006 25.2365 41.1987 25.5631 41.4351 25.8611C42.0377 26.5554 42.884 27.0637 43.6569 27.5562C44.1233 27.8549 44.6577 28.1353 45.2289 28.054C45.8001 27.9728 46.4367 28.096 47.0262 28.1484L49.0882 28.3344L48.9729 30.5011C48.9729 30.5011 49.2349 29.9273 49.5781 29.2409C49.8768 28.6514 51.1291 25.662 51.1344 25.6489C51.7553 24.1686 52.4915 22.1931 51.7501 20.6368C51.5815 20.2536 51.3 19.9309 50.9431 19.712C51.0149 19.4727 51.0381 19.2215 51.0112 18.9731C50.97 18.6205 50.8502 18.2817 50.6607 17.9815C50.4711 17.6813 50.2167 17.4275 49.9161 17.2387C49.3293 16.8421 48.6678 16.5693 47.972 16.437C47.0493 16.2247 46.105 16.1201 45.1582 16.1252C44.2304 16.1535 43.3067 16.2595 42.3967 16.4422C41.889 16.536 41.3748 16.5894 40.8587 16.602C40.6364 16.6166 40.4132 16.606 40.1933 16.5706C39.9199 16.4889 39.6513 16.3918 39.3889 16.2798C39.3661 16.2702 39.3416 16.2652 39.3169 16.2652C39.2921 16.2652 39.2676 16.2702 39.2448 16.2798C39.224 16.2936 39.2064 16.3117 39.1933 16.333C39.1802 16.3543 39.1719 16.3781 39.1688 16.4029C39.1007 16.73 39.1036 17.0679 39.1772 17.3938C39.2509 17.7197 39.3937 18.026 39.5959 18.2919C39.478 18.2758 39.3633 18.2423 39.2553 18.1924C39.1327 18.1356 39.0145 18.0699 38.9016 17.9959C38.7093 17.8669 38.5409 17.7056 38.4038 17.519C38.3849 17.4898 38.356 17.4684 38.3226 17.4588C38.2702 17.4588 38.2283 17.4954 38.1968 17.5374C38.0554 17.7477 37.9591 17.985 37.914 18.2343C37.8689 18.4837 37.876 18.7397 37.9348 18.9862C38.0504 19.481 38.2841 19.9404 38.616 20.325C38.4541 20.5866 38.3606 20.8848 38.3441 21.192C38.3276 21.4992 38.3887 21.8056 38.5217 22.0831C38.6382 22.3291 38.7949 22.554 38.9854 22.7485C39.2212 22.9896 39.5094 23.1861 39.7479 23.4114C40.0213 23.6171 40.27 23.8536 40.4893 24.1162Z" fill="#37474F"/>
<path d="M46.7695 20.504C46.7619 20.8952 46.8122 21.2855 46.9189 21.662C47.0432 21.9927 47.2433 22.2898 47.5031 22.5292C47.7971 22.7786 48.0688 23.053 48.3153 23.3493C48.5814 23.8105 48.7375 24.327 48.7712 24.8584C48.7727 25.0149 48.8093 25.1691 48.8782 25.3097C48.9471 25.4502 49.0466 25.5735 49.1695 25.6706C49.7301 26.0191 50.0655 25.3457 50.3642 25.0156C50.7493 24.6593 51.8943 24.2296 52.4235 25.44C52.9711 26.6976 51.9598 28.364 51.0401 28.6207C49.455 29.0635 49.1092 27.9841 49.1092 27.9841L48.8053 33.6433C47.9119 35.3384 45.8106 35.8781 44.4299 35.6083C43.2378 35.3751 42.5828 34.5393 43.7041 33.3289L43.7644 31.6049C43.7644 31.6049 42.3339 31.7752 41.6448 31.6442C40.4946 31.4294 39.9261 30.4521 39.6143 29.1919C39.1191 27.1666 38.8912 25.0366 39.5069 20.4751C39.7872 20.3206 40.9217 21.2035 42.6509 21.3214C44.0721 21.4216 45.4943 21.1393 46.7695 20.504Z" fill="#9E6767"/>
<path d="M43.754 31.6011C43.754 31.6011 46.3478 31.1662 47.2648 30.7155C47.803 30.4564 48.2504 30.0409 48.5486 29.5234C48.3955 30.046 48.1389 30.5325 47.7941 30.954C47.1076 31.774 43.7305 32.2875 43.7305 32.2875L43.754 31.6011Z" fill="#874C4C"/>
<path d="M45.1035 22.5315L46.3113 22.9009C46.3575 22.7359 46.338 22.5595 46.2569 22.4085C46.1759 22.2576 46.0395 22.1439 45.8764 22.0914C45.7968 22.068 45.7132 22.061 45.6308 22.0706C45.5483 22.0802 45.4687 22.1064 45.3966 22.1474C45.3244 22.1885 45.2613 22.2437 45.211 22.3097C45.1606 22.3757 45.1241 22.4511 45.1035 22.5315Z" fill="#263238"/>
<path d="M44.6843 28.2539L42.9053 28.8565C42.9399 28.9754 42.9981 29.0861 43.0763 29.1821C43.1546 29.2781 43.2513 29.3575 43.3608 29.4154C43.4702 29.4733 43.5902 29.5086 43.7136 29.5193C43.837 29.5299 43.9613 29.5157 44.079 29.4774C44.3184 29.3911 44.5151 29.2156 44.6279 28.9875C44.7407 28.7594 44.7609 28.4965 44.6843 28.2539Z" fill="#874C4C"/>
<path d="M44.5393 28.6875C44.3071 28.6877 44.0816 28.765 43.898 28.9072C43.7145 29.0495 43.5834 29.2487 43.5254 29.4735C43.7049 29.5325 43.8987 29.5325 44.0782 29.4735C44.2439 29.4149 44.3905 29.3122 44.5023 29.1765C44.614 29.0407 44.6866 28.8771 44.7123 28.7032C44.6552 28.6928 44.5973 28.6876 44.5393 28.6875Z" fill="#F28F8F"/>
<path d="M39.7106 22.7212L40.9394 22.5613C40.9301 22.4818 40.9049 22.4049 40.8654 22.3352C40.8259 22.2656 40.7728 22.2045 40.7093 22.1557C40.6459 22.1068 40.5732 22.0712 40.4958 22.0509C40.4183 22.0306 40.3375 22.026 40.2582 22.0373C40.0962 22.0584 39.9487 22.1413 39.8466 22.2688C39.7444 22.3964 39.6957 22.5585 39.7106 22.7212Z" fill="#263238"/>
<path d="M47.2646 23.2461L51.3178 24.6268C51.0907 24.6295 50.8672 24.6842 50.6646 24.7869C50.462 24.8895 50.2857 25.0374 50.1493 25.219L47.2804 24.129L47.2646 23.2461Z" fill="#263238"/>
<path d="M40.3167 24.8298C40.312 24.895 40.3205 24.9605 40.3416 25.0224C40.3627 25.0842 40.3959 25.1413 40.4394 25.1901C40.4828 25.2389 40.5356 25.2786 40.5947 25.3067C40.6537 25.3348 40.7177 25.3508 40.783 25.3538C40.848 25.3545 40.9126 25.3424 40.9729 25.3181C41.0333 25.2939 41.0882 25.258 41.1347 25.2125C41.1812 25.167 41.2182 25.1128 41.2437 25.053C41.2693 24.9932 41.2827 24.9289 41.2834 24.8639C41.288 24.7987 41.2796 24.7332 41.2585 24.6713C41.2374 24.6094 41.2042 24.5524 41.1607 24.5036C41.1172 24.4547 41.0644 24.4151 41.0054 24.387C40.9464 24.3589 40.8824 24.3429 40.8171 24.3399C40.752 24.3392 40.6875 24.3513 40.6272 24.3756C40.5668 24.3998 40.5119 24.4357 40.4654 24.4812C40.4189 24.5267 40.3819 24.5809 40.3563 24.6407C40.3308 24.7005 40.3173 24.7648 40.3167 24.8298Z" fill="#263238"/>
<path d="M44.9463 24.8272C44.9469 24.9223 44.9754 25.0151 45.0283 25.0941C45.0812 25.173 45.1562 25.2347 45.2439 25.2714C45.3316 25.3081 45.4281 25.3182 45.5215 25.3005C45.6149 25.2827 45.701 25.2379 45.7691 25.1716C45.8373 25.1052 45.8844 25.0203 45.9046 24.9274C45.9248 24.8345 45.9173 24.7378 45.8829 24.6491C45.8485 24.5605 45.7889 24.4839 45.7113 24.4289C45.6337 24.3739 45.5417 24.343 45.4467 24.3399C45.3158 24.3385 45.1897 24.3889 45.0959 24.4803C45.0022 24.5716 44.9484 24.6963 44.9463 24.8272Z" fill="#263238"/>
<path d="M37.9238 23.539C37.9535 23.7509 38.0445 23.9494 38.1858 24.1101C38.2345 24.1699 38.2694 24.2397 38.288 24.3145C38.3823 24.7049 38.4635 25.4437 38.6495 25.8577C38.7759 26.1913 39.0041 26.4767 39.3018 26.6733C39.5995 26.8699 39.9515 26.9677 40.308 26.9528C40.4978 26.96 40.6879 26.9441 40.8739 26.9057H40.9158C41.0774 26.8676 41.2326 26.8068 41.377 26.7249L41.4032 26.7065L41.4425 26.683L41.4922 26.6489L41.5368 26.6122L41.5866 26.5729C41.604 26.5611 41.6199 26.547 41.6337 26.531C41.6654 26.5024 41.6951 26.4718 41.7228 26.4393C41.8774 26.2663 42.0023 26.0689 42.0922 25.855C42.3333 25.3153 42.2704 24.5608 42.6634 24.4717H42.7105H42.7629C43.2869 24.4717 43.2398 25.3022 43.5489 25.8891C43.8581 26.476 44.3349 27.0498 45.5061 27.0655H45.6554C45.6955 27.0682 45.7358 27.0682 45.7759 27.0655C45.8703 27.0597 45.964 27.0466 46.0563 27.0262L46.1427 27.0052C46.1711 26.9989 46.1991 26.991 46.2266 26.9816L46.2816 26.9659C46.3913 26.9273 46.4967 26.8772 46.596 26.8166C46.6325 26.7954 46.6675 26.7718 46.7008 26.7458C46.7658 26.6982 46.8264 26.6447 46.8816 26.586C47.031 26.4269 47.1507 26.2423 47.2353 26.0411C47.4161 25.635 47.4632 24.8961 47.5523 24.511C47.5679 24.4319 47.5981 24.3563 47.6414 24.2883C47.7813 24.1349 47.8725 23.9434 47.9034 23.7381C47.9096 23.6329 47.8813 23.5285 47.8226 23.441C47.7639 23.3535 47.6782 23.2876 47.5785 23.2534L47.2929 23.2167C46.3759 23.104 45.1812 23.0569 44.4659 23.2508C43.5699 23.4944 43.2581 23.7748 42.7577 23.7748C42.2573 23.7748 41.9874 23.4656 41.1359 23.1879C40.46 22.9678 39.3412 22.9757 38.4871 23.0543L38.2251 23.0805C38.1319 23.1138 38.0521 23.1766 37.9977 23.2593C37.9434 23.342 37.9174 23.4402 37.9238 23.539ZM43.824 24.1023C43.8948 24.0145 43.9843 23.9438 44.086 23.8953C44.1 23.8851 44.1149 23.8763 44.1306 23.8691H44.1568C44.1961 23.8481 44.238 23.8272 44.2825 23.8088L44.4004 23.7617C44.5255 23.7141 44.6532 23.6739 44.783 23.6411L44.9349 23.6045C45.0659 23.5783 45.1969 23.5573 45.3279 23.5442C45.3593 23.5417 45.3908 23.5417 45.4222 23.5442C46.2842 23.4735 46.8239 23.6778 47.0204 23.8534C47.2169 24.0289 47.1305 24.8359 47.0493 25.242V25.2708C47.0493 25.2708 47.0493 25.2917 47.0493 25.3022C47.0493 25.352 47.0283 25.407 47.0126 25.4673C46.9969 25.5275 46.9942 25.5328 46.9838 25.5668C46.9654 25.6219 46.9471 25.6769 46.9261 25.7345C46.9185 25.7542 46.9097 25.7735 46.8999 25.7922C46.8963 25.8038 46.8919 25.8152 46.8868 25.8262L46.8685 25.8655L46.8449 25.9127L46.8161 25.9677C46.8161 25.986 46.7925 26.0044 46.7794 26.0227C46.7687 26.0429 46.7565 26.0622 46.7427 26.0804C46.6076 26.2715 46.4254 26.4245 46.2138 26.5245C46.0022 26.6246 45.7684 26.6683 45.5349 26.6515C45.3003 26.6643 45.0657 26.6276 44.8463 26.5436C44.6269 26.4596 44.4277 26.3303 44.2616 26.1642C44.0547 25.9321 43.9113 25.6505 43.845 25.3468C43.7166 24.8883 43.6564 24.3485 43.824 24.1023ZM38.7465 23.6804C38.8088 23.6251 38.8796 23.58 38.9561 23.5468H38.9718L39.0661 23.5101L39.1238 23.4918H39.1709H39.2024H39.2155H39.2626C39.3229 23.4918 39.3884 23.4682 39.4617 23.4577H39.5692H39.9176C40.0434 23.4577 40.1796 23.4761 40.3159 23.4944C40.9316 23.5835 41.5761 23.8691 41.7438 24.1232C41.9114 24.3774 41.8748 24.9092 41.7935 25.352C41.7759 25.4553 41.7496 25.557 41.7149 25.6559C41.7142 25.6638 41.7142 25.6717 41.7149 25.6795C41.7149 25.6795 41.7149 25.6978 41.7149 25.7083V25.7293L41.6992 25.766L41.6678 25.8393C41.6678 25.8603 41.6468 25.8839 41.6337 25.9048C41.6342 25.9118 41.6342 25.9188 41.6337 25.9258L41.6075 25.9703L41.5839 26.007C41.4442 26.213 41.2505 26.3766 41.0242 26.4801C40.7978 26.5836 40.5473 26.6229 40.3001 26.5939C40.0764 26.5891 39.8564 26.5354 39.6556 26.4367C39.0425 26.1275 38.8853 25.4385 38.8146 25.1267C38.6836 24.6577 38.5631 23.8534 38.7465 23.6778V23.6804Z" fill="#263238"/>
<path d="M42.9048 24.4842L42.8131 27.8535L40.9346 27.3085L42.6873 24.4553C42.7611 24.4483 42.8355 24.4581 42.9048 24.4842Z" fill="#874C4C"/>
<path d="M69.1729 24.914C74.534 24.914 78.88 21.1075 78.88 16.4121C78.88 11.7166 74.534 7.91016 69.1729 7.91016C63.8118 7.91016 59.4658 11.7166 59.4658 16.4121C59.4658 21.1075 63.8118 24.914 69.1729 24.914Z" fill="#92E3A9"/>
<path d="M61.4257 21.3281C61.3707 22.4678 60.4065 24.5062 58.6642 25.2581C58.6409 25.268 58.6213 25.285 58.6082 25.3066C58.5951 25.3283 58.5892 25.3535 58.5912 25.3787C58.5932 25.4039 58.6032 25.4279 58.6195 25.4471C58.6359 25.4664 58.658 25.48 58.6825 25.4861C59.6785 25.7068 60.7173 25.632 61.6714 25.2708C62.6254 24.9097 63.4534 24.2779 64.0535 23.4529L61.4257 21.3281Z" fill="#92E3A9"/>
<path d="M62.592 15.7368C62.6139 15.3642 62.7026 14.9986 62.854 14.6574C62.9966 14.3236 63.2093 14.0242 63.4775 13.7797C63.761 13.5203 64.0919 13.3184 64.4522 13.1849C65.3161 12.8915 66.2528 12.8915 67.1167 13.1849C67.4804 13.3178 67.8149 13.5197 68.1018 13.7797C68.369 14.0293 68.5798 14.333 68.7202 14.6705C68.8715 15.0117 68.9603 15.3773 68.9822 15.7499C68.9953 16.0434 69.0005 16.3499 69.0005 16.6695C69.0005 16.9892 69.0005 17.2905 68.9822 17.5682C68.9603 17.9408 68.8715 18.3064 68.7202 18.6476C68.5759 18.9821 68.3636 19.2828 68.0966 19.5306C67.8116 19.793 67.4765 19.9953 67.1115 20.1253C66.2464 20.4117 65.312 20.4117 64.4469 20.1253C64.0834 19.9955 63.75 19.7932 63.4671 19.5306C63.1992 19.2836 62.9867 18.9827 62.8435 18.6476C62.6922 18.3064 62.6034 17.9408 62.5815 17.5682C62.5684 17.2905 62.5605 16.9892 62.5605 16.6695C62.5605 16.3499 62.5789 16.0303 62.592 15.7368ZM67.0722 17.5053C67.0722 17.3822 67.0853 17.2433 67.0931 17.0966C67.101 16.9499 67.0931 16.7927 67.0931 16.6355C67.0931 16.4783 67.0931 16.3263 67.0931 16.1796C67.0931 16.0329 67.0774 15.9176 67.0722 15.7866C67.0609 15.6257 67.0247 15.4674 66.9648 15.3176C66.9084 15.1776 66.8246 15.0503 66.7185 14.943C66.6065 14.8332 66.4726 14.7484 66.3255 14.6941C65.968 14.5719 65.58 14.5719 65.2225 14.6941C65.0749 14.7489 64.9402 14.8337 64.8268 14.943C64.7215 15.0504 64.6386 15.1777 64.5832 15.3176C64.5233 15.4674 64.487 15.6257 64.4758 15.7866C64.4596 15.917 64.4509 16.0482 64.4496 16.1796C64.4496 16.3263 64.4496 16.4783 64.4496 16.6355C64.4496 16.7927 64.4496 16.9446 64.4496 17.0966C64.4509 17.2332 64.4597 17.3697 64.4758 17.5053C64.4916 17.8202 64.6156 18.1201 64.8268 18.3542C64.9524 18.473 65.1014 18.5641 65.2643 18.6219C65.4272 18.6797 65.6003 18.7027 65.7727 18.6896C65.9442 18.7033 66.1168 18.6805 66.2789 18.6227C66.441 18.5649 66.5891 18.4734 66.7132 18.3542C66.9226 18.1182 67.0487 17.8199 67.0722 17.5053Z" fill="#FAFAFA"/>
<path d="M76.2415 19.888C76.2632 19.9214 76.2734 19.961 76.2703 20.0007C76.2707 20.03 76.2651 20.059 76.2538 20.086C76.2425 20.1131 76.2258 20.1375 76.2048 20.1579C76.1846 20.1793 76.1602 20.1964 76.1332 20.2081C76.1062 20.2198 76.077 20.2259 76.0476 20.226H74.4075C74.3244 20.229 74.2422 20.2071 74.1717 20.1631C74.1035 20.1134 74.0419 20.0553 73.9883 19.9902L72.0495 17.5536V19.9457C72.0484 20.0163 72.0209 20.084 71.9724 20.1354C71.9239 20.1868 71.8579 20.2182 71.7875 20.2234H70.446C70.4097 20.2236 70.3737 20.2163 70.3403 20.2019C70.3069 20.1874 70.2769 20.1662 70.2522 20.1395C70.226 20.1146 70.2052 20.0845 70.1912 20.0511C70.1773 20.0177 70.1704 19.9818 70.1709 19.9457V13.3459C70.1704 13.3097 70.1773 13.2738 70.1912 13.2404C70.2052 13.2071 70.226 13.177 70.2522 13.152C70.2769 13.1253 70.3069 13.1041 70.3403 13.0897C70.3737 13.0752 70.4097 13.0679 70.446 13.0682H71.7875C71.8579 13.0734 71.9239 13.1048 71.9724 13.1562C72.0209 13.2076 72.0484 13.2752 72.0495 13.3459V15.5021L73.8494 13.2935C73.8907 13.2441 73.9344 13.1969 73.9804 13.152C74.0584 13.0887 74.1581 13.0586 74.2581 13.0682H75.8511C75.881 13.0679 75.9106 13.0738 75.9381 13.0856C75.9656 13.0973 75.9904 13.1145 76.0109 13.1363C76.032 13.1566 76.0486 13.1811 76.0599 13.2081C76.0712 13.2351 76.0768 13.2642 76.0764 13.2935C76.0791 13.3335 76.068 13.3733 76.045 13.4061L73.5298 16.5056L76.2415 19.888Z" fill="#FAFAFA"/>
<path d="M94.2204 24.4485L92.7506 24.8913L91.6895 21.3464L93.154 20.9062L94.2204 24.4485Z" fill="#E0E0E0"/>
<path d="M98.8084 21.3028C98.8206 21.4466 98.7869 21.5905 98.712 21.7139C98.6371 21.8373 98.525 21.9337 98.3918 21.9892C98.4872 22.0976 98.5579 22.2254 98.5988 22.3639C98.6826 22.6259 98.4599 23.0058 98.0172 23.1499L94.6557 24.1612L93.668 20.8678C93.668 20.8678 94.2365 19.4137 94.2653 19.1937C94.2941 18.9736 93.9588 18.1666 93.9116 18.0147C93.8645 17.8627 94.4094 17.6636 94.8391 17.8365C94.939 17.8809 95.0283 17.9461 95.1011 18.0278C95.2557 18.1923 95.3854 18.3786 95.4862 18.5806C95.6289 18.8685 95.699 19.1869 95.6906 19.5081L97.7263 18.8871C97.8669 18.8363 98.0207 18.8363 98.1613 18.8871C98.2532 18.9235 98.3343 18.983 98.3965 19.0598C98.4587 19.1367 98.5 19.2284 98.5163 19.3259C98.5327 19.4235 98.5235 19.5236 98.4898 19.6166C98.456 19.7095 98.3988 19.7922 98.3237 19.8565C98.4449 19.8477 98.5655 19.8799 98.6662 19.9478C98.7669 20.0158 98.8419 20.1155 98.8791 20.2312C98.9102 20.3656 98.8938 20.5067 98.8327 20.6304C98.7715 20.7541 98.6695 20.8528 98.5438 20.9098C98.6797 21.0014 98.7746 21.1424 98.8084 21.3028Z" fill="#E0E0E0"/>
<path d="M115.279 61.2034L113.396 60.7501L114.493 56.207L116.377 56.6603L115.279 61.2034Z" fill="#E0E0E0"/>
<path d="M122.293 60.6938C122.215 60.8583 122.086 60.9939 121.926 61.081C121.766 61.1681 121.583 61.2022 121.402 61.1785C121.436 61.3573 121.432 61.5412 121.389 61.7182C121.305 62.0719 120.826 62.3313 120.26 62.1924L115.947 61.1444L116.964 56.9236C116.964 56.9236 118.512 55.7 118.683 55.4773C118.853 55.2546 119 54.1673 119.047 53.9656C119.094 53.7639 119.814 53.9001 120.173 54.3638C120.26 54.4765 120.321 54.6072 120.351 54.7464C120.415 55.0236 120.438 55.3087 120.42 55.5926C120.391 55.9982 120.265 56.391 120.053 56.7376L122.657 57.3664C122.842 57.4055 123.007 57.5085 123.123 57.6572C123.188 57.742 123.234 57.8396 123.258 57.9435C123.282 58.0474 123.283 58.1552 123.262 58.2598C123.227 58.3975 123.155 58.5227 123.052 58.6214C122.95 58.72 122.822 58.788 122.683 58.8178C122.821 58.8853 122.932 58.9972 122.999 59.1355C123.065 59.2738 123.083 59.4304 123.05 59.5803C122.997 59.7459 122.889 59.8882 122.743 59.9836C122.598 60.079 122.424 60.1216 122.251 60.1043C122.341 60.2878 122.356 60.4993 122.293 60.6938Z" fill="#E0E0E0"/>
<path d="M20.127 58.4896L22.1837 59.1079L23.6718 54.1457L21.6177 53.5273L20.127 58.4896Z" fill="#E0E0E0"/>
<path d="M13.6996 54.0805C13.6825 54.282 13.7298 54.4838 13.8349 54.6566C13.9399 54.8295 14.0971 54.9644 14.2839 55.042C14.1519 55.1944 14.0536 55.373 13.9957 55.566C13.8778 55.9512 14.1922 56.4673 14.8079 56.6507L19.5239 58.0681L20.902 53.4491C20.902 53.4491 20.1029 51.4107 20.0636 51.0911C20.0243 50.7714 20.4959 49.6553 20.5588 49.4405C20.6112 49.2676 19.8619 48.9505 19.2488 49.1942C19.103 49.2513 18.9722 49.3409 18.8663 49.4562C18.6486 49.6901 18.4667 49.955 18.3266 50.2422C18.1258 50.6491 18.0269 51.0986 18.0384 51.5522L15.2088 50.6981C15.0092 50.6325 14.7929 50.6399 14.5983 50.719C14.4694 50.7698 14.3558 50.8531 14.2686 50.9608C14.1814 51.0686 14.1237 51.1971 14.101 51.3338C14.0783 51.4705 14.0914 51.6107 14.1391 51.7408C14.1868 51.871 14.2673 51.9865 14.373 52.0762C14.202 52.0615 14.0311 52.1054 13.8882 52.2006C13.7454 52.2958 13.6392 52.4367 13.587 52.6002C13.5434 52.7889 13.5663 52.9868 13.6517 53.1605C13.7372 53.3343 13.88 53.4732 14.056 53.5539C13.8765 53.6796 13.7496 53.8671 13.6996 54.0805Z" fill="#E0E0E0"/>
</svg>
