<svg width="131" height="131" viewBox="0 0 131 131" fill="none" xmlns="http://www.w3.org/2000/svg">
<path d="M131 100.188H0V100.254H131V100.188Z" fill="#EBEBEB"/>
<path d="M114.145 104.406H109.196V104.472H114.145V104.406Z" fill="#EBEBEB"/>
<path d="M84.5004 103.949H76.7793V104.015H84.5004V103.949Z" fill="#EBEBEB"/>
<path d="M108.935 101.973H96.5918V102.039H108.935V101.973Z" fill="#EBEBEB"/>
<path d="M16.6183 102.414H13.7441V102.48H16.6183V102.414Z" fill="#EBEBEB"/>
<path d="M29.0529 102.414H18.9502V102.48H29.0529V102.414Z" fill="#EBEBEB"/>
<path d="M58.9891 103.52H44.8018V103.586H58.9891V103.52Z" fill="#EBEBEB"/>
<path d="M62.0937 88.5038H11.5068C11.11 88.5038 10.7295 88.3461 10.4489 88.0656C10.1684 87.785 10.0107 87.4045 10.0107 87.0077V15.8931C10.0142 15.4986 10.1733 15.1214 10.4535 14.8437C10.7337 14.566 11.1123 14.4101 11.5068 14.4102H62.0937C62.4905 14.4102 62.871 14.5678 63.1516 14.8483C63.4321 15.1289 63.5897 15.5094 63.5897 15.9062V87.0077C63.5897 87.4045 63.4321 87.785 63.1516 88.0656C62.871 88.3461 62.4905 88.5038 62.0937 88.5038ZM11.5068 14.4626C11.1276 14.4632 10.7641 14.6142 10.496 14.8823C10.2279 15.1504 10.0769 15.5139 10.0762 15.8931V87.0077C10.0769 87.3869 10.2279 87.7504 10.496 88.0185C10.7641 88.2866 11.1276 88.4376 11.5068 88.4383H62.0937C62.4729 88.4376 62.8364 88.2866 63.1045 88.0185C63.3726 87.7504 63.5235 87.3869 63.5242 87.0077V15.8931C63.5235 15.5139 63.3726 15.1504 63.1045 14.8823C62.8364 14.6142 62.4729 14.4632 62.0937 14.4626H11.5068Z" fill="#EBEBEB"/>
<path d="M118.767 88.5038H68.1747C67.7782 88.5031 67.3981 88.3452 67.1177 88.0648C66.8372 87.7844 66.6794 87.4043 66.6787 87.0077V15.8931C66.6828 15.4988 66.8422 15.122 67.1222 14.8444C67.4023 14.5669 67.7804 14.4108 68.1747 14.4102H118.767C119.161 14.4115 119.538 14.5679 119.817 14.8455C120.096 15.1231 120.254 15.4995 120.258 15.8931V87.0077C120.258 87.4036 120.101 87.7833 119.821 88.0637C119.542 88.3441 119.163 88.5024 118.767 88.5038ZM68.1747 14.4626C67.7955 14.4632 67.4321 14.6142 67.164 14.8823C66.8958 15.1504 66.7449 15.5139 66.7442 15.8931V87.0077C66.7449 87.3869 66.8958 87.7504 67.164 88.0185C67.4321 88.2866 67.7955 88.4376 68.1747 88.4383H118.767C119.146 88.4376 119.51 88.2866 119.778 88.0185C120.046 87.7504 120.197 87.3869 120.197 87.0077V15.8931C120.197 15.5139 120.046 15.1504 119.778 14.8823C119.51 14.6142 119.146 14.4632 118.767 14.4626H68.1747Z" fill="#EBEBEB"/>
<path d="M114.145 104.406H109.196V104.472H114.145V104.406Z" fill="#EBEBEB"/>
<path d="M84.5004 103.949H76.7793V104.015H84.5004V103.949Z" fill="#EBEBEB"/>
<path d="M108.935 101.973H96.5918V102.039H108.935V101.973Z" fill="#EBEBEB"/>
<path d="M16.6183 102.414H13.7441V102.48H16.6183V102.414Z" fill="#EBEBEB"/>
<path d="M29.0529 102.414H18.9502V102.48H29.0529V102.414Z" fill="#EBEBEB"/>
<path d="M58.9891 103.52H44.8018V103.586H58.9891V103.52Z" fill="#EBEBEB"/>
<path d="M51.5986 22.4336H36.041V57.8141H51.5986V22.4336Z" fill="#E6E6E6"/>
<path d="M52.5497 22.4336H36.9922V57.8141H52.5497V22.4336Z" fill="#F5F5F5"/>
<path d="M50.8438 56.2219V24.0273H38.6974V56.2219H50.8438Z" fill="white"/>
<path d="M50.8408 56.2219V24.0273H50.1229V56.2219H50.8408Z" fill="#E6E6E6"/>
<path d="M51.8417 46.6602H37.6963V48.7981H51.8417V46.6602Z" fill="#F5F5F5"/>
<path d="M51.8417 26.8359H37.6963V28.9739H51.8417V26.8359Z" fill="#F5F5F5"/>
<path d="M72.5742 22.4336H57.0166V57.8141H72.5742V22.4336Z" fill="#E6E6E6"/>
<path d="M73.5224 22.4336H57.9648V57.8141H73.5224V22.4336Z" fill="#F5F5F5"/>
<path d="M71.8164 56.2219V24.0273H59.6701V56.2219H71.8164Z" fill="white"/>
<path d="M71.8164 56.2219V24.0273H71.0985V56.2219H71.8164Z" fill="#E6E6E6"/>
<path d="M72.8173 46.6602H58.6719V48.7981H72.8173V46.6602Z" fill="#F5F5F5"/>
<path d="M72.8173 26.8359H58.6719V28.9739H72.8173V26.8359Z" fill="#F5F5F5"/>
<path d="M30.623 22.4336H15.0654V57.8141H30.623V22.4336Z" fill="#E6E6E6"/>
<path d="M31.5732 22.4336H16.0156V57.8141H31.5732V22.4336Z" fill="#F5F5F5"/>
<path d="M29.8682 56.2219L29.8682 24.0273H17.7218V56.2219H29.8682Z" fill="white"/>
<path d="M29.8652 56.218L29.8652 24.0234H29.1474L29.1474 56.218H29.8652Z" fill="#E6E6E6"/>
<path d="M30.8661 46.6602H16.7207V48.7981H30.8661V46.6602Z" fill="#F5F5F5"/>
<path d="M30.8661 26.8359H16.7207V28.9739H30.8661V26.8359Z" fill="#F5F5F5"/>
<path d="M86.2559 64.8477H83.7119V100.189H86.2559V64.8477Z" fill="#E6E6E6"/>
<path d="M86.9371 64.8477H85.4385V100.189H86.9371V64.8477Z" fill="#F0F0F0"/>
<path d="M51.2758 67.4961H87.4004V64.8447H51.2758V67.4961Z" fill="#F0F0F0"/>
<path d="M17.0587 64.8477H14.5146V100.189H17.0587V64.8477Z" fill="#E6E6E6"/>
<path d="M17.5357 64.8477H16.0371V100.189H17.5357V64.8477Z" fill="#F0F0F0"/>
<path d="M14.062 67.4961H50.1865V64.8447H14.062V67.4961Z" fill="#E6E6E6"/>
<path d="M51.0587 64.8477H48.5146V100.189H51.0587V64.8477Z" fill="#E6E6E6"/>
<path d="M51.7399 64.8477H50.2412V100.189H51.7399V64.8477Z" fill="#F0F0F0"/>
<path d="M44.585 53.0938H63.449L64.9293 64.2314H46.0679L44.585 53.0938Z" fill="#E6E6E6"/>
<path d="M46.0674 64.2305L46.1434 64.8462H65.0074L64.9314 64.2305H46.0674Z" fill="#E6E6E6"/>
<path d="M45.166 53.0938H64.0274L65.5103 64.2314H46.6463L45.166 53.0938Z" fill="#F0F0F0"/>
<path d="M47.1019 63.7226L45.7578 53.6016H63.5712L64.9179 63.7226H47.1019Z" fill="white"/>
<path d="M51.5615 64.2305L51.6375 64.8462H72.4115L72.3329 64.2305H51.5615Z" fill="#F0F0F0"/>
<path d="M85.6475 55.2815H76.3098C74.7203 55.2672 73.1807 55.836 71.9824 56.8804C70.784 57.9247 70.0101 59.3721 69.8069 60.9486L68.4419 71.2635L63.3696 71.2452H63.3539C62.2229 71.2184 61.1247 71.6266 60.2858 72.3856C59.4468 73.1446 58.9311 74.1965 58.8449 75.3245L58.5462 78.8615C58.0543 78.931 57.5989 79.1602 57.25 79.5138C56.9011 79.8675 56.6781 80.3259 56.6152 80.8187H81.6651C83.2532 80.833 84.7914 80.2647 85.9888 79.2213C87.1862 78.178 87.9596 76.732 88.1627 75.1568L90.1277 60.3538C90.2025 59.7195 90.1426 59.0766 89.952 58.4669C89.7614 57.8573 89.4444 57.2948 89.0215 56.8161C88.5987 56.3374 88.0796 55.9532 87.4982 55.6888C86.9168 55.4244 86.2862 55.2856 85.6475 55.2815ZM63.6395 78.8248H59.8929L60.1758 75.5708C60.2374 74.7369 60.6171 73.9586 61.2365 73.3968C61.8558 72.8351 62.6673 72.5328 63.5032 72.5526H63.5163L68.2742 72.5683L67.9415 75.0756C67.8068 76.1199 67.2936 77.0784 66.4992 77.7695C65.7048 78.4605 64.6844 78.836 63.6316 78.8248H63.6395Z" fill="#E0E0E0"/>
<path d="M62.4006 80.8086H61.1011L58.0566 100.189H59.3562L62.4006 80.8086Z" fill="#F0F0F0"/>
<path d="M67.2792 80.8086H65.9797L62.9326 100.189H64.2321L67.2792 80.8086Z" fill="#F0F0F0"/>
<path d="M78.7227 80.8086H80.0222L83.0692 100.189H81.7697L78.7227 80.8086Z" fill="#F0F0F0"/>
<path d="M73.8477 80.8086H75.1472L78.1916 100.189H76.8921L73.8477 80.8086Z" fill="#F0F0F0"/>
<path d="M115.177 23.0547H89.8447V75.9813H115.177V23.0547Z" fill="#E6E6E6"/>
<path d="M116.939 23.0547H90.3145V75.9813H116.939V23.0547Z" fill="#F0F0F0"/>
<path d="M114.706 73.7499V25.2852H92.5408V73.7499H114.706Z" fill="#FAFAFA"/>
<path d="M100.401 73.7486L103.147 25.2812H106.852L104.106 73.7486H100.401Z" fill="white"/>
<path d="M104.806 73.7486L107.551 25.2812H111.256L108.51 73.7486H104.806Z" fill="white"/>
<path d="M65.5004 112.022C93.556 112.022 116.3 110.694 116.3 109.056C116.3 107.418 93.556 106.09 65.5004 106.09C37.4447 106.09 14.7012 107.418 14.7012 109.056C14.7012 110.694 37.4447 112.022 65.5004 112.022Z" fill="#F5F5F5"/>
<path d="M63.0919 31.8579L59.0283 91.1983H108.578L113.066 25.6406H69.7363L63.0919 31.8579Z" fill="#92E3A9"/>
<path opacity="0.8" d="M63.0919 31.8579L59.0283 91.1983H108.578L113.066 25.6406H69.7363L63.0919 31.8579Z" fill="white"/>
<path d="M104.523 45.675C107.861 42.4493 108.125 37.3072 105.112 34.1898C102.099 31.0724 96.9513 31.1602 93.6133 34.3859C90.2753 37.6116 90.0115 42.7537 93.024 45.8711C96.0366 48.9885 101.185 48.9007 104.523 45.675Z" fill="#92E3A9"/>
<path d="M104.235 45.3756C107.398 42.3198 107.648 37.4488 104.794 34.4957C101.94 31.5427 97.0635 31.6261 93.9014 34.6818C90.7392 37.7376 90.4891 42.6087 93.3428 45.5617C96.1965 48.5147 101.073 48.4314 104.235 45.3756Z" fill="white"/>
<mask id="mask0_1123_384" style="mask-type:luminance" maskUnits="userSpaceOnUse" x="91" y="32" width="16" height="16">
<path d="M104.235 45.3756C107.398 42.3198 107.648 37.4488 104.794 34.4957C101.94 31.5427 97.0635 31.6261 93.9014 34.6818C90.7392 37.7376 90.4891 42.6087 93.3428 45.5617C96.1965 48.5147 101.073 48.4314 104.235 45.3756Z" fill="white"/>
</mask>
<g mask="url(#mask0_1123_384)">
<path d="M97.0471 42.7011L95.5327 42.6016C95.5327 42.6016 94.8279 46.2276 94.3773 46.5316C93.7616 46.9586 92.5433 47.9909 91.7337 48.3656C91.6502 48.6109 91.633 48.8739 91.6839 49.128C92.9415 49.128 95.2681 47.8756 95.6689 47.3307C96.5886 46.1071 97.0471 42.7011 97.0471 42.7011Z" fill="#FFC3BD"/>
<path d="M97.7699 40.4281C98.2284 41.2822 96.8005 44.3581 96.8005 44.3581L94.8564 43.7503C94.9123 42.8046 95.1312 41.8756 95.5036 41.0045C95.9857 40.0011 97.2669 39.4902 97.7699 40.4281Z" fill="#263238"/>
<path opacity="0.2" d="M96.2847 42C96.5467 42.6183 96.2035 44.1117 95.9336 45.0575C95.276 43.9309 95.1843 42.8829 96.2847 42Z" fill="black"/>
<path d="M96.2764 40.5825C95.9777 41.675 95.3908 44.544 95.8703 49.0477H100.987C101.105 48.191 100.956 44.0068 102.158 39.9694C101.549 39.8488 100.932 39.77 100.311 39.7336C99.5206 39.6877 98.728 39.6877 97.9375 39.7336C97.5999 39.765 97.2659 39.8263 96.9393 39.917C96.7805 39.9609 96.6359 40.0453 96.5197 40.1619C96.4034 40.2786 96.3196 40.4236 96.2764 40.5825Z" fill="#263238"/>
<path opacity="0.2" d="M100.854 40.9649C100.699 41.6303 100.759 43.2207 101.223 45.0599C101.36 43.4759 101.635 41.9068 102.043 40.3701C101.679 40.3256 101 40.3465 100.854 40.9649Z" fill="black"/>
<path d="M100.207 37.5117C99.9867 38.2768 99.8243 39.2226 100.312 39.7335C100.312 39.7335 99.9317 40.5195 98.5143 40.5195C97.2174 40.5195 97.9379 39.7335 97.9379 39.7335C98.8077 39.5291 98.8627 38.4759 98.7684 37.8838L100.207 37.5117Z" fill="#FFC3BD"/>
<path d="M98.5117 40.504C98.6439 40.7259 98.7145 40.9792 98.7161 41.2376C98.7161 41.2376 100.55 40.6114 100.55 39.6918C100.55 39.6918 100.312 39.5424 100.162 39.4298C100.168 39.4219 100.044 40.1372 98.5117 40.504Z" fill="white"/>
<path d="M98.462 40.5056C98.297 40.7051 98.174 40.9359 98.1004 41.1841C97.8844 41.0189 97.7265 40.7891 97.6498 40.5282C97.573 40.2672 97.5812 39.9886 97.6734 39.7327C97.8257 39.6717 97.9825 39.6226 98.1423 39.5859C98.1423 39.5859 97.9196 40.3091 98.462 40.5056Z" fill="white"/>
<path opacity="0.2" d="M98.7735 37.8838C98.849 38.3046 98.8064 38.7381 98.6504 39.1361C98.7854 39.1168 98.9169 39.078 99.0408 39.0208C99.5438 38.7929 99.8137 38.4366 100.11 37.91C100.139 37.7737 100.175 37.648 100.212 37.5117L98.7735 37.8838Z" fill="black"/>
<path d="M97.529 37.1759C97.5679 37.2919 97.6306 37.3984 97.7132 37.4887C97.7958 37.579 97.8964 37.6509 98.0085 37.6999C98.315 37.8309 98.5325 37.5505 98.5141 37.2283C98.4958 36.906 98.3019 36.5183 97.9639 36.5235C97.8877 36.5272 97.8135 36.5486 97.7471 36.5862C97.6808 36.6238 97.6241 36.6765 97.5818 36.7399C97.5395 36.8034 97.5127 36.8759 97.5035 36.9516C97.4944 37.0273 97.5031 37.1041 97.529 37.1759Z" fill="#FFC3BD"/>
<path opacity="0.2" d="M97.529 37.1759C97.5679 37.2919 97.6306 37.3984 97.7132 37.4887C97.7958 37.579 97.8964 37.6509 98.0085 37.6999C98.315 37.8309 98.5325 37.5505 98.5141 37.2283C98.4958 36.906 98.3019 36.5183 97.9639 36.5235C97.8877 36.5272 97.8135 36.5486 97.7471 36.5862C97.6808 36.6238 97.6241 36.6765 97.5818 36.7399C97.5395 36.8034 97.5127 36.8759 97.5035 36.9516C97.4944 37.0273 97.5031 37.1041 97.529 37.1759Z" fill="black"/>
<path d="M98.8998 35.0361C98.8002 34.4309 97.9068 35.4946 98.098 36.0553C98.2893 36.6159 99.0098 35.7173 98.8998 35.0361Z" fill="#263238"/>
<path d="M100.812 36.5677C100.485 37.5816 100.343 38.1868 99.7015 38.6217C99.5073 38.7703 99.2746 38.8599 99.0309 38.8799C98.7872 38.9 98.5429 38.8496 98.3271 38.7348C98.1112 38.6199 97.9329 38.4455 97.8134 38.2323C97.6938 38.019 97.638 37.7759 97.6527 37.5318C97.6789 36.5729 98.2107 35.0769 99.2954 34.8411C100.38 34.6053 101.132 35.5537 100.812 36.5677Z" fill="#FFC3BD"/>
<path d="M100.514 35.9696C99.408 35.8124 97.8203 35.608 98.3967 34.7041C98.9443 33.8421 101.129 33.9993 100.467 34.3819C101.323 34.4316 102.413 34.843 101.591 35.1259C102.253 35.5975 101.991 36.8604 100.726 37.3005C100.362 36.7713 100.084 36.5381 100.514 35.9696Z" fill="#263238"/>
<path d="M100.969 37.7774C100.783 37.9689 100.532 38.0846 100.265 38.1023C99.9188 38.1206 99.8532 37.7905 100.039 37.5049C100.225 37.2194 100.587 36.9285 100.891 37.0464C101.195 37.1643 101.203 37.5364 100.969 37.7774Z" fill="#FFC3BD"/>
<path d="M99.2218 36.5907C99.2009 36.6746 99.1406 36.7322 99.0856 36.7244C99.0306 36.7165 99.007 36.6405 99.0306 36.5567C99.0542 36.4728 99.1118 36.4126 99.1642 36.4231C99.2166 36.4335 99.2454 36.5069 99.2218 36.5907Z" fill="#263238"/>
<path d="M98.302 36.4262C98.2811 36.51 98.2208 36.5703 98.1684 36.5598C98.116 36.5493 98.0898 36.476 98.1108 36.3921C98.1317 36.3083 98.192 36.2507 98.247 36.2585C98.302 36.2664 98.3256 36.3424 98.302 36.4262Z" fill="#263238"/>
<path d="M98.5852 36.5234C98.4206 36.7614 98.227 36.9779 98.0088 37.168C98.0553 37.2184 98.1129 37.2574 98.1769 37.282C98.241 37.3065 98.3099 37.3159 98.3782 37.3094L98.5852 36.5234Z" fill="#ED847E"/>
<path d="M98.5561 37.5815C98.553 37.5809 98.55 37.5796 98.5474 37.5778C98.5448 37.576 98.5425 37.5737 98.5408 37.571C98.5391 37.5683 98.5379 37.5653 98.5374 37.5621C98.5369 37.559 98.537 37.5558 98.5378 37.5527C98.5401 37.5462 98.5444 37.5407 98.55 37.5369C98.5557 37.5332 98.5624 37.5313 98.5692 37.5317C98.674 37.5501 98.7816 37.5449 98.884 37.5163C98.9865 37.4877 99.0812 37.4366 99.1614 37.3666C99.1636 37.3643 99.1662 37.3625 99.1691 37.3613C99.1721 37.36 99.1752 37.3594 99.1784 37.3594C99.1816 37.3594 99.1847 37.36 99.1877 37.3613C99.1906 37.3625 99.1932 37.3643 99.1954 37.3666C99.2002 37.3715 99.2029 37.3781 99.2029 37.385C99.2029 37.3918 99.2002 37.3984 99.1954 37.4033C99.1095 37.4798 99.0072 37.5356 98.8964 37.5665C98.7856 37.5973 98.6692 37.6025 98.5561 37.5815Z" fill="#263238"/>
<path d="M99.5782 36.3329C99.5711 36.3318 99.5644 36.3288 99.5588 36.3242C99.5533 36.3196 99.5491 36.3135 99.5468 36.3067C99.5251 36.2512 99.4897 36.2021 99.4439 36.1641C99.3981 36.126 99.3433 36.1003 99.2848 36.0892C99.2785 36.0891 99.2723 36.0874 99.2667 36.0845C99.2612 36.0816 99.2563 36.0775 99.2525 36.0725C99.2488 36.0675 99.2462 36.0616 99.2449 36.0555C99.2437 36.0493 99.2439 36.0429 99.2455 36.0368C99.248 36.0237 99.2553 36.0119 99.2659 36.0037C99.2765 35.9955 99.2897 35.9914 99.3031 35.9923C99.3772 36.0032 99.4473 36.033 99.5065 36.0789C99.5657 36.1248 99.6121 36.1852 99.6411 36.2543C99.6455 36.2668 99.645 36.2806 99.6396 36.2927C99.6343 36.3049 99.6245 36.3146 99.6123 36.3198C99.6079 36.3243 99.6025 36.3277 99.5966 36.33C99.5908 36.3323 99.5845 36.3333 99.5782 36.3329Z" fill="#263238"/>
<path d="M97.988 36.0213C97.982 36.0235 97.9755 36.0235 97.9696 36.0213C97.965 36.0169 97.9614 36.0116 97.9589 36.0057C97.9564 35.9999 97.9551 35.9936 97.9551 35.9872C97.9551 35.9808 97.9564 35.9745 97.9589 35.9687C97.9614 35.9628 97.965 35.9576 97.9696 35.9532C98.022 35.8914 98.0876 35.8422 98.1615 35.8091C98.2354 35.776 98.3157 35.7599 98.3967 35.7619C98.4029 35.7628 98.4089 35.765 98.4143 35.7683C98.4196 35.7716 98.4243 35.776 98.4279 35.7811C98.4316 35.7862 98.4342 35.792 98.4356 35.7982C98.437 35.8043 98.4371 35.8107 98.436 35.8169C98.4334 35.8306 98.4258 35.8428 98.4146 35.851C98.4034 35.8593 98.3895 35.863 98.3757 35.8614C98.3118 35.8607 98.2486 35.8741 98.1906 35.9009C98.1326 35.9276 98.0813 35.967 98.0404 36.016C98.0331 36.022 98.0243 36.0257 98.015 36.0266C98.0056 36.0276 97.9962 36.0257 97.988 36.0213Z" fill="#263238"/>
<path d="M102.609 41.3711L101.223 42.1073C101.223 42.1073 102.562 45.4085 102.334 45.9037C102.022 46.5797 101.506 48.0652 100.998 48.8014C101.058 49.0468 101.186 49.2702 101.367 49.4459C102.478 48.7752 103.843 46.5089 103.904 45.8539C104.04 44.3579 102.609 41.3711 102.609 41.3711Z" fill="#FFC3BD"/>
<path d="M102.158 39.969C103.128 40.1393 103.84 43.5925 103.84 43.5925L101.451 44.2763C101.111 43.4822 100.83 42.6643 100.61 41.8292C100.293 40.5507 101.131 39.783 102.158 39.969Z" fill="#263238"/>
</g>
<path d="M101.886 84.2063C105.224 80.9805 105.488 75.8384 102.475 72.721C99.4627 69.6036 94.3146 69.6914 90.9766 72.9171C87.6386 76.1429 87.3748 81.285 90.3873 84.4024C93.3999 87.5198 98.548 87.432 101.886 84.2063Z" fill="#92E3A9"/>
<path d="M101.599 83.903C104.761 80.8472 105.011 75.9761 102.157 73.0231C99.3036 70.0701 94.4268 70.1534 91.2646 73.2092C88.1025 76.265 87.8524 81.1361 90.7061 84.0891C93.5598 87.0421 98.4366 86.9588 101.599 83.903Z" fill="white"/>
<mask id="mask1_1123_384" style="mask-type:luminance" maskUnits="userSpaceOnUse" x="88" y="70" width="17" height="17">
<path d="M101.599 83.903C104.761 80.8472 105.011 75.9761 102.157 73.0231C99.3036 70.0701 94.4268 70.1534 91.2646 73.2092C88.1025 76.265 87.8524 81.1361 90.7061 84.0891C93.5598 87.0421 98.4366 86.9588 101.599 83.903Z" fill="white"/>
</mask>
<g mask="url(#mask1_1123_384)">
<path d="M93.7539 81.3075L92.3312 80.8438C92.3312 80.8438 90.7828 84.2497 90.2772 84.4541C89.5855 84.7161 88.1812 85.4523 87.3139 85.6279C87.1732 85.8508 87.092 86.1061 87.0781 86.3693C88.2781 86.6785 90.8012 85.9973 91.3173 85.5545C92.4858 84.5484 93.7539 81.3075 93.7539 81.3075Z" fill="#FFB573"/>
<path d="M94.9927 79.2266C95.2232 80.1803 93.1168 82.8815 93.1168 82.8815L91.4111 81.802C91.6921 80.8848 92.1252 80.0213 92.6923 79.2475C93.3945 78.3751 94.7385 78.1812 94.9927 79.2266Z" fill="#92E3A9"/>
<path opacity="0.3" d="M94.9927 79.2266C95.2232 80.1803 93.1168 82.8815 93.1168 82.8815L91.4111 81.802C91.6921 80.8848 92.1252 80.0213 92.6923 79.2475C93.3945 78.3751 94.7385 78.1812 94.9927 79.2266Z" fill="black"/>
<path opacity="0.2" d="M93.6618 80.4141C93.8216 81.0743 93.6775 82.1302 93.2557 83.0341C92.881 82.4655 92.4435 81.111 93.6618 80.4141Z" fill="black"/>
<path d="M93.6385 79.1216C93.3399 80.2141 92.7556 83.083 93.2324 87.5868H98.3519C98.4698 86.73 98.3179 82.5459 99.5204 78.5085C98.9108 78.3879 98.2937 78.3091 97.6733 78.2727C96.8828 78.2268 96.0902 78.2268 95.2996 78.2727C94.9621 78.3043 94.6281 78.3656 94.3014 78.4561C94.1429 78.5004 93.9985 78.5849 93.8824 78.7016C93.7662 78.8182 93.6822 78.9629 93.6385 79.1216Z" fill="#92E3A9"/>
<path opacity="0.3" d="M93.6385 79.1216C93.3399 80.2141 92.7556 83.083 93.2324 87.5868H98.3519C98.4698 86.73 98.3179 82.5459 99.5204 78.5085C98.9108 78.3879 98.2937 78.3091 97.6733 78.2727C96.8828 78.2268 96.0902 78.2268 95.2996 78.2727C94.9621 78.3043 94.6281 78.3656 94.3014 78.4561C94.1429 78.5004 93.9985 78.5849 93.8824 78.7016C93.7662 78.8182 93.6822 78.9629 93.6385 79.1216Z" fill="black"/>
<path opacity="0.2" d="M98.2343 80.3498C98.0797 81.0152 97.9435 82.5951 98.5854 83.5855C98.7238 82.0014 98.9991 80.4323 99.4081 78.8957C99.036 78.859 98.381 79.7262 98.2343 80.3498Z" fill="black"/>
<g opacity="0.95">
<path d="M95.811 80.3138L95.5307 80.4369L95.3159 80.243C95.0429 80.0168 94.8446 79.7134 94.7469 79.3727C94.6492 79.0319 94.6566 78.6695 94.7683 78.333C94.9415 78.2986 95.1164 78.2733 95.2923 78.2571C96.0828 78.2112 96.8754 78.2112 97.666 78.2571C97.8494 78.2571 98.0328 78.2806 98.211 78.299L98.0328 78.5269C97.4317 79.2778 96.6733 79.8877 95.811 80.3138Z" fill="white"/>
</g>
<path d="M97.5711 76.0352C97.3484 76.8002 97.1859 77.746 97.6732 78.2569C97.1222 78.9389 96.4305 79.4938 95.6454 79.8839C95.4053 79.6969 95.239 79.4312 95.1757 79.1335C95.1124 78.8358 95.1563 78.5254 95.2995 78.2569C96.172 78.0526 96.2244 76.9993 96.1301 76.4072L97.5711 76.0352Z" fill="#FFB573"/>
<path opacity="0.2" d="M96.13 76.4072C96.2054 76.828 96.1628 77.2615 96.0068 77.6596C96.1426 77.6399 96.275 77.6011 96.3998 77.5443C96.9003 77.3163 97.1701 76.96 97.4662 76.4334C97.4976 76.2972 97.5317 76.1714 97.571 76.0352L96.13 76.4072Z" fill="black"/>
<path d="M94.8913 75.7149C94.9301 75.8313 94.9932 75.9382 95.0762 76.0285C95.1593 76.1188 95.2606 76.1905 95.3733 76.2389C95.6799 76.3699 95.8973 76.0896 95.8764 75.7673C95.8554 75.4451 95.6642 75.0573 95.3288 75.0626C95.2524 75.0658 95.1778 75.087 95.1111 75.1244C95.0444 75.1619 94.9875 75.2145 94.9449 75.278C94.9023 75.3415 94.8753 75.4141 94.8659 75.4901C94.8566 75.566 94.8653 75.643 94.8913 75.7149Z" fill="#FFB573"/>
<path opacity="0.2" d="M94.8913 75.7149C94.9301 75.8313 94.9932 75.9382 95.0762 76.0285C95.1593 76.1188 95.2606 76.1905 95.3733 76.2389C95.6799 76.3699 95.8973 76.0896 95.8764 75.7673C95.8554 75.4451 95.6642 75.0573 95.3288 75.0626C95.2524 75.0658 95.1778 75.087 95.1111 75.1244C95.0444 75.1619 94.9875 75.2145 94.9449 75.278C94.9023 75.3415 94.8753 75.4141 94.8659 75.4901C94.8566 75.566 94.8653 75.643 94.8913 75.7149Z" fill="black"/>
<path d="M96.1038 73.9084C96.0043 73.2245 95.2445 74.0079 95.158 74.5083C95.0715 75.0088 95.4907 75.5144 95.7763 75.0323C96.0619 74.5503 96.1536 74.2778 96.1038 73.9084Z" fill="#263238"/>
<path d="M98.1737 75.095C97.8462 76.109 97.7048 76.7116 97.0629 77.1491C96.8687 77.2976 96.6359 77.3873 96.3922 77.4073C96.1485 77.4273 95.9043 77.3769 95.6884 77.2621C95.4726 77.1473 95.2943 76.9729 95.1747 76.7596C95.0551 76.5463 94.9994 76.3032 95.014 76.0592C95.0402 75.1003 95.5721 73.6042 96.6568 73.3684C97.7414 73.1326 98.5117 74.0811 98.1737 75.095Z" fill="#FFB573"/>
<path d="M97.6791 76.1573C97.2861 75.8953 97.2153 75.7957 97.4171 75.5599C97.7577 75.1774 97.252 75.1224 97.5192 74.6482C97.8913 73.9879 96.7044 74.4517 96.6835 73.9722C96.6651 73.5818 95.6355 74.284 95.528 73.8333C95.3735 73.1574 96.3638 73.2831 96.5367 72.953C96.7097 72.6229 97.7262 72.5731 97.8887 73.0552C98.0511 73.5373 98.562 73.1521 98.8947 73.739C99.2275 74.3259 98.5384 74.3704 98.8712 74.9416C99.1332 75.4001 98.6275 75.7276 98.2686 76.0918C98.0537 76.3276 97.9227 76.3223 97.6791 76.1573Z" fill="#263238"/>
<path d="M98.3962 76.1636C98.2265 76.3715 97.9856 76.5088 97.7202 76.5487C97.3744 76.5959 97.28 76.2867 97.4425 75.9749C97.6049 75.6632 97.9403 75.3566 98.2547 75.4509C98.5691 75.5453 98.6084 75.9042 98.3962 76.1636Z" fill="#FFB573"/>
<path d="M96.5833 75.1181C96.5623 75.2019 96.502 75.2596 96.4496 75.2517C96.3972 75.2438 96.371 75.1679 96.392 75.084C96.413 75.0002 96.4732 74.9399 96.5282 74.9504C96.5833 74.9609 96.6068 75.0342 96.5833 75.1181Z" fill="#263238"/>
<path d="M95.6669 74.9536C95.6434 75.0374 95.5831 75.0977 95.5307 75.0872C95.4783 75.0767 95.4521 75.0033 95.4731 74.9195C95.494 74.8357 95.5569 74.778 95.6093 74.7859C95.6617 74.7937 95.6879 74.8697 95.6669 74.9536Z" fill="#263238"/>
<path d="M95.9468 75.0508C95.7835 75.2889 95.5907 75.5055 95.373 75.6953C95.4196 75.7458 95.4771 75.7848 95.5412 75.8093C95.6053 75.8338 95.6742 75.8432 95.7425 75.8368L95.9468 75.0508Z" fill="#ED893E"/>
<path d="M95.9178 76.1086C95.9147 76.1081 95.9117 76.1068 95.9091 76.105C95.9066 76.1032 95.9045 76.1008 95.903 76.098C95.9014 76.0952 95.9006 76.0922 95.9004 76.089C95.9003 76.0858 95.9008 76.0827 95.902 76.0798C95.9033 76.0733 95.907 76.0675 95.9123 76.0637C95.9177 76.0598 95.9243 76.058 95.9309 76.0588C96.0356 76.0773 96.1432 76.072 96.2456 76.0434C96.3481 76.0149 96.4429 75.9637 96.523 75.8938C96.5252 75.8915 96.5279 75.8898 96.5308 75.8885C96.5337 75.8873 96.5369 75.8867 96.54 75.8867C96.5432 75.8867 96.5463 75.8873 96.5492 75.8885C96.5522 75.8898 96.5548 75.8915 96.557 75.8938C96.5593 75.896 96.5611 75.8987 96.5623 75.9016C96.5635 75.9045 96.5641 75.9076 96.5641 75.9108C96.5641 75.914 96.5635 75.9171 96.5623 75.92C96.5611 75.9229 96.5593 75.9256 96.557 75.9278C96.4713 76.0047 96.3692 76.061 96.2584 76.0924C96.1476 76.1237 96.0311 76.1293 95.9178 76.1086Z" fill="#263238"/>
<path d="M96.9399 74.8602C96.9328 74.8592 96.9261 74.8562 96.9205 74.8516C96.915 74.8469 96.9108 74.8409 96.9085 74.8341C96.8868 74.7786 96.8514 74.7295 96.8056 74.6914C96.7598 74.6534 96.705 74.6276 96.6465 74.6166C96.6404 74.616 96.6344 74.6141 96.6291 74.6111C96.6237 74.608 96.619 74.6039 96.6154 74.599C96.6117 74.5941 96.609 74.5884 96.6076 74.5824C96.6062 74.5765 96.6061 74.5702 96.6072 74.5642C96.6097 74.551 96.617 74.5392 96.6276 74.531C96.6382 74.5228 96.6514 74.5188 96.6648 74.5196C96.739 74.5305 96.809 74.5603 96.8682 74.6062C96.9275 74.6521 96.9738 74.7126 97.0028 74.7816C97.0072 74.7942 97.0067 74.8079 97.0013 74.8201C96.996 74.8322 96.9862 74.8419 96.974 74.8471C96.9696 74.8516 96.9642 74.8551 96.9584 74.8573C96.9525 74.8596 96.9462 74.8606 96.9399 74.8602Z" fill="#263238"/>
<path d="M95.3385 74.5488C95.3326 74.5505 95.3262 74.5505 95.3202 74.5488C95.3156 74.5444 95.312 74.5391 95.3095 74.5333C95.307 74.5274 95.3057 74.5211 95.3057 74.5147C95.3057 74.5084 95.307 74.5021 95.3095 74.4962C95.312 74.4904 95.3156 74.4851 95.3202 74.4807C95.3714 74.4183 95.4364 74.3685 95.51 74.3353C95.5836 74.3022 95.6639 74.2864 95.7446 74.2894C95.7509 74.2904 95.7569 74.2926 95.7622 74.2959C95.7676 74.2992 95.7723 74.3035 95.7759 74.3086C95.7796 74.3138 95.7822 74.3196 95.7836 74.3257C95.7849 74.3319 95.7851 74.3382 95.7839 74.3444C95.7814 74.3576 95.7742 74.3694 95.7636 74.3776C95.7529 74.3858 95.7397 74.3899 95.7263 74.389C95.6624 74.3878 95.599 74.4011 95.5409 74.4279C95.4829 74.4547 95.4316 74.4942 95.3909 74.5436C95.3835 74.549 95.3747 74.5523 95.3655 74.5532C95.3563 74.5542 95.347 74.5526 95.3385 74.5488Z" fill="#263238"/>
<path d="M100.084 80.0156L98.6273 80.5711C98.6273 80.5711 99.5155 84.0478 99.2273 84.5142C98.8343 85.1508 98.1348 86.5709 97.54 87.2416C97.5662 87.494 97.6634 87.7339 97.8204 87.9333C98.9968 87.4093 100.634 85.3133 100.778 84.6661C101.101 83.1858 100.084 80.0156 100.084 80.0156Z" fill="#FFB573"/>
<path d="M99.8222 78.5512C100.752 78.8473 101.006 82.3921 101.006 82.3921L98.5699 82.7694C98.3387 81.9314 98.1688 81.0776 98.0616 80.2149C97.9096 78.8944 98.8214 78.2342 99.8222 78.5512Z" fill="#92E3A9"/>
<path opacity="0.3" d="M99.8222 78.5512C100.752 78.8473 101.006 82.3921 101.006 82.3921L98.5699 82.7694C98.3387 81.9314 98.1688 81.0776 98.0616 80.2149C97.9096 78.8944 98.8214 78.2342 99.8222 78.5512Z" fill="black"/>
</g>
<path d="M78.9778 64.9406C82.3158 61.7149 82.5796 56.5728 79.5671 53.4554C76.5545 50.338 71.4064 50.4258 68.0684 53.6515C64.7304 56.8772 64.4666 62.0193 67.4791 65.1368C70.4917 68.2542 75.6398 68.1664 78.9778 64.9406Z" fill="#92E3A9"/>
<path d="M78.6895 64.6452C81.8517 61.5894 82.1018 56.7183 79.2481 53.7653C76.3944 50.8123 71.5176 50.8956 68.3555 53.9514C65.1933 57.0072 64.9432 61.8783 67.7969 64.8313C70.6506 67.7843 75.5274 67.701 78.6895 64.6452Z" fill="white"/>
<mask id="mask2_1123_384" style="mask-type:luminance" maskUnits="userSpaceOnUse" x="65" y="51" width="17" height="16">
<path d="M78.6895 64.6452C81.8517 61.5894 82.1018 56.7183 79.2481 53.7653C76.3944 50.8123 71.5176 50.8956 68.3555 53.9514C65.1933 57.0072 64.9432 61.8783 67.7969 64.8313C70.6506 67.7843 75.5274 67.701 78.6895 64.6452Z" fill="white"/>
</mask>
<g mask="url(#mask2_1123_384)">
<path d="M76.7417 61.1094C76.781 61.7329 76.8125 62.3617 76.8361 62.9879L76.912 64.8586L76.9251 65.0865L76.9435 65.2857C76.9644 65.4219 76.9802 65.5634 77.009 65.7101C77.064 65.9983 77.1347 66.2917 77.2186 66.5852C77.3758 67.1747 77.567 67.7694 77.7426 68.3563L77.2002 68.6183C76.8722 68.0632 76.5825 67.4863 76.333 66.8917C76.2125 66.5904 76.0998 66.2839 76.0029 65.9616C75.9512 65.7981 75.9083 65.6319 75.8745 65.4638L75.83 65.2018L75.8038 64.9608C75.6649 63.6927 75.5732 62.443 75.5234 61.1827L76.7417 61.1094Z" fill="#FF8B7B"/>
<path d="M76.4538 59.7336C76.9306 59.8567 77.135 61.8637 77.135 61.8637L75.1936 63.1396C75.1936 63.1396 74.5884 60.7632 74.9997 60.2288C75.4111 59.6943 75.7543 59.5554 76.4538 59.7336Z" fill="#92E3A9"/>
<path opacity="0.2" d="M76.378 60.1836L76.6138 62.2036L75.8252 62.7171L76.378 60.1836Z" fill="black"/>
<path d="M71.1325 54.568C70.3125 54.6859 68.5964 58.6054 71.3945 60.4341C74.1927 62.2629 76.2573 60.1853 76.2573 60.1853C76.2573 60.1853 74.5543 58.1626 74.8005 56.8421C75.0468 55.5217 76.1105 53.8579 73.9307 53.3025C72.3954 52.9226 70.3308 53.2894 71.1325 54.568Z" fill="#263238"/>
<path d="M76.4536 59.7329C76.4536 59.7329 77.0012 59.932 75.4056 66.8697H70.5979C70.8127 64.9152 70.8966 63.71 70.2363 59.6988C70.9156 59.5624 71.6038 59.4748 72.2957 59.4368C73.0214 59.3856 73.7498 59.3856 74.4755 59.4368C75.4056 59.518 76.4536 59.7329 76.4536 59.7329Z" fill="#92E3A9"/>
<path opacity="0.2" d="M70.5249 61.2891C70.952 61.3965 71.3109 61.8707 71.214 62.7458C71.1566 63.1487 70.9919 63.5288 70.7371 63.8462C70.7083 63.1728 70.6323 62.3921 70.4961 61.3939L70.5249 61.2891Z" fill="black"/>
<path d="M74.1166 60.9728C74.1166 60.9728 73.2861 61.6226 73.2389 62.3117C72.618 61.8322 71.8241 60.5275 71.79 59.6917C71.79 59.6222 71.8176 59.5555 71.8668 59.5064C71.9159 59.4573 71.9826 59.4297 72.052 59.4297C72.111 59.4252 72.1696 59.4174 72.2276 59.4061C72.2518 59.4008 72.2769 59.4011 72.301 59.407C72.325 59.4129 72.3474 59.4243 72.3664 59.4401L74.1166 60.9728Z" fill="#FAFAFA"/>
<path d="M74.1172 60.9729C74.338 61.1106 74.5225 61.2993 74.6552 61.5232C74.7879 61.747 74.8649 61.9995 74.8796 62.2593C75.5765 61.7746 75.3381 60.3258 75.0158 59.6157C74.9909 59.5605 74.9519 59.5128 74.9027 59.4774C74.8535 59.442 74.7958 59.4201 74.7355 59.414C74.6412 59.414 74.5678 59.3904 74.518 59.3799C74.5 59.3768 74.4815 59.3808 74.4663 59.3911C74.4512 59.4013 74.4406 59.4171 74.4368 59.435L74.1172 60.9729Z" fill="#FAFAFA"/>
<path d="M72.6784 56.9766C72.7675 57.6787 72.8173 58.9651 72.2959 59.4315C72.7848 60.0695 73.406 60.5942 74.1168 60.9694C75.1438 60.1834 74.4757 59.4315 74.4757 59.4315C73.7055 59.2455 73.7657 58.6665 73.9386 58.1215L72.6784 56.9766Z" fill="#FF8B7B"/>
<path opacity="0.2" d="M73.1922 57.4453L73.9389 58.1213C73.8964 58.2476 73.8648 58.3773 73.8446 58.509C73.5485 58.4645 73.0979 58.2104 73.0586 57.8855C73.0681 57.7303 73.1138 57.5796 73.1922 57.4453Z" fill="black"/>
<path d="M71.5809 55.8531C71.8272 56.9824 71.9084 57.4644 72.5844 57.9229C72.8108 58.0834 73.0757 58.1811 73.3522 58.2061C73.6286 58.231 73.9067 58.1823 74.1582 58.065C74.4097 57.9476 74.6257 57.7657 74.7841 57.5378C74.9426 57.3099 75.0378 57.0442 75.0603 56.7675C75.152 55.6855 74.7328 54.0218 73.5276 53.8174C73.2543 53.7747 72.9746 53.7988 72.7126 53.8875C72.4506 53.9762 72.2139 54.127 72.0227 54.3269C71.8315 54.5269 71.6915 54.7701 71.6145 55.0358C71.5376 55.3016 71.5261 55.582 71.5809 55.8531Z" fill="#FF8B7B"/>
<path d="M71.9033 56.8684C72.629 56.1767 72.6552 55.32 72.4718 55.0527C73.0954 55.0003 74.7093 54.6073 74.4499 54.0047C74.1906 53.4021 71.678 53.0773 71.3321 54.6178C70.499 55.3147 71.0308 56.7112 71.9033 56.8684Z" fill="#263238"/>
<path d="M73.4781 55.7482C73.4938 55.8425 73.5541 55.9054 73.617 55.8923C73.6798 55.8792 73.7165 55.7928 73.7008 55.7011C73.6851 55.6094 73.6248 55.5412 73.5646 55.557C73.5043 55.5727 73.465 55.6565 73.4781 55.7482Z" fill="#263238"/>
<path d="M74.5469 55.5159C74.56 55.6102 74.6229 55.6731 74.6832 55.66C74.7434 55.6469 74.7854 55.5605 74.7696 55.4661C74.7539 55.3718 74.6937 55.3089 74.6334 55.322C74.5981 55.3386 74.57 55.3673 74.5541 55.4029C74.5383 55.4385 74.5357 55.4786 74.5469 55.5159Z" fill="#263238"/>
<path d="M74.6045 55.334L74.8219 55.2188C74.8219 55.2188 74.7329 55.4179 74.6045 55.334Z" fill="#263238"/>
<path d="M74.2432 55.7578C74.3596 55.9521 74.5034 56.1286 74.6702 56.2818C74.6282 56.3261 74.5773 56.3611 74.5209 56.3846C74.4645 56.4081 74.4038 56.4195 74.3427 56.418L74.2432 55.7578Z" fill="#FF5652"/>
<path d="M73.884 56.888C73.9316 56.8854 73.9789 56.8793 74.0255 56.8697C74.0329 56.8678 74.0393 56.8633 74.0437 56.8571C74.048 56.8508 74.0499 56.8432 74.0491 56.8356C74.0489 56.832 74.0478 56.8284 74.046 56.8252C74.0442 56.822 74.0417 56.8193 74.0386 56.8173C74.0355 56.8152 74.0321 56.8139 74.0284 56.8135C74.0248 56.813 74.0211 56.8134 74.0176 56.8147C73.9041 56.8442 73.7851 56.8455 73.671 56.8185C73.5568 56.7916 73.451 56.7372 73.3626 56.6601C73.3573 56.6551 73.3503 56.6523 73.343 56.6523C73.3357 56.6523 73.3287 56.6551 73.3233 56.6601C73.3205 56.6625 73.3183 56.6656 73.3168 56.669C73.3152 56.6723 73.3145 56.676 73.3145 56.6797C73.3145 56.6834 73.3152 56.6871 73.3168 56.6905C73.3183 56.6939 73.3205 56.6969 73.3233 56.6994C73.3983 56.7684 73.487 56.8209 73.5836 56.8534C73.6802 56.8859 73.7825 56.8977 73.884 56.888Z" fill="#263238"/>
<path d="M71.4291 56.9793C71.4867 57.0722 71.563 57.1522 71.6532 57.214C71.7435 57.2758 71.8456 57.3181 71.9531 57.3382C72.2466 57.3932 72.3854 57.1207 72.299 56.8561C72.2125 56.5915 71.9741 56.3033 71.6833 56.3688C71.6199 56.3827 71.5608 56.4117 71.511 56.4533C71.4612 56.4949 71.4221 56.5479 71.3972 56.6078C71.3723 56.6678 71.3621 56.7328 71.3677 56.7975C71.3732 56.8621 71.3943 56.9245 71.4291 56.9793Z" fill="#FF8B7B"/>
<path d="M72.9772 55.5423C72.9891 55.541 73.0002 55.536 73.0092 55.528C73.0181 55.52 73.0243 55.5095 73.0269 55.4978C73.0955 55.3207 73.231 55.1776 73.4042 55.0996C73.4113 55.0967 73.4178 55.0924 73.4232 55.087C73.4286 55.0817 73.4329 55.0752 73.4359 55.0682C73.4388 55.0611 73.4403 55.0535 73.4402 55.0458C73.4402 55.0382 73.4386 55.0306 73.4357 55.0236C73.4328 55.0171 73.4287 55.0113 73.4236 55.0065C73.4185 55.0016 73.4125 54.9979 73.4058 54.9955C73.3992 54.993 73.3922 54.9919 73.3852 54.9922C73.3782 54.9926 73.3713 54.9943 73.3649 54.9974C73.262 55.0433 73.1693 55.1094 73.0924 55.1918C73.0154 55.2741 72.9558 55.371 72.9169 55.4768C72.915 55.4839 72.9145 55.4913 72.9156 55.4986C72.9167 55.5058 72.9194 55.5127 72.9233 55.5189C72.9273 55.5251 72.9325 55.5304 72.9386 55.5344C72.9447 55.5384 72.9516 55.5411 72.9588 55.5423C72.9617 55.5437 72.9648 55.5444 72.968 55.5444C72.9712 55.5444 72.9743 55.5437 72.9772 55.5423Z" fill="#263238"/>
<path d="M74.8064 54.7733C74.8162 54.7733 74.8259 54.7709 74.8346 54.7664C74.8432 54.7618 74.8507 54.7552 74.8562 54.7471C74.8662 54.7364 74.8717 54.7224 74.8717 54.7078C74.8717 54.6932 74.8662 54.6792 74.8562 54.6685C74.7836 54.6184 74.7001 54.5864 74.6126 54.575C74.5251 54.5636 74.4362 54.5732 74.3532 54.603C74.3394 54.6088 74.3283 54.6196 74.322 54.6331C74.3157 54.6467 74.3147 54.6621 74.3191 54.6764C74.3217 54.6834 74.3257 54.6898 74.3308 54.6952C74.336 54.7006 74.3422 54.7049 74.349 54.7078C74.3559 54.7108 74.3633 54.7123 74.3708 54.7123C74.3782 54.7123 74.3856 54.7107 74.3925 54.7078C74.4579 54.6838 74.5282 54.6763 74.5972 54.6859C74.6662 54.6955 74.7317 54.7219 74.7881 54.7628L74.8064 54.7733Z" fill="#263238"/>
<path d="M73.5381 55.5684L73.7556 55.4531C73.7556 55.4531 73.6638 55.6549 73.5381 55.5684Z" fill="#263238"/>
<path d="M70.5464 66.5917L70.3944 67.0214C70.3734 67.0554 70.4127 67.0895 70.4678 67.0895H75.4091C75.4536 67.0895 75.4903 67.0685 75.4955 67.0397L75.5663 66.61C75.5663 66.5812 75.5375 66.555 75.4877 66.555H70.6276C70.612 66.5537 70.5964 66.5564 70.5822 66.5628C70.568 66.5692 70.5557 66.5792 70.5464 66.5917Z" fill="#92E3A9"/>
<path opacity="0.2" d="M70.5464 66.5917L70.3944 67.0214C70.3734 67.0554 70.4127 67.0895 70.4678 67.0895H75.4091C75.4536 67.0895 75.4903 67.0685 75.4955 67.0397L75.5663 66.61C75.5663 66.5812 75.5375 66.555 75.4877 66.555H70.6276C70.612 66.5537 70.5964 66.5564 70.5822 66.5628C70.568 66.5692 70.5557 66.5792 70.5464 66.5917Z" fill="white"/>
<path d="M71.1771 67.1352H71.0461C71.0199 67.1352 71.0015 67.1221 71.0042 67.1064L71.1037 66.5484C71.1037 66.5326 71.1299 66.5195 71.1561 66.5195H71.2871C71.3133 66.5195 71.3317 66.5326 71.329 66.5484L71.2295 67.1064C71.2269 67.1221 71.2033 67.1352 71.1771 67.1352Z" fill="#92E3A9"/>
<path opacity="0.4" d="M71.1771 67.1352H71.0461C71.0199 67.1352 71.0015 67.1221 71.0042 67.1064L71.1037 66.5484C71.1037 66.5326 71.1299 66.5195 71.1561 66.5195H71.2871C71.3133 66.5195 71.3317 66.5326 71.329 66.5484L71.2295 67.1064C71.2269 67.1221 71.2033 67.1352 71.1771 67.1352Z" fill="black"/>
<path d="M75.0394 67.1352H74.9084C74.8822 67.1352 74.8638 67.1221 74.8665 67.1064L74.966 66.5484C74.966 66.5326 74.9922 66.5195 75.0184 66.5195H75.1494C75.1756 66.5195 75.194 66.5326 75.1913 66.5484L75.0918 67.1064C75.0892 67.1221 75.0656 67.1352 75.0394 67.1352Z" fill="#92E3A9"/>
<path opacity="0.4" d="M75.0394 67.1352H74.9084C74.8822 67.1352 74.8638 67.1221 74.8665 67.1064L74.966 66.5484C74.966 66.5326 74.9922 66.5195 75.0184 66.5195H75.1494C75.1756 66.5195 75.194 66.5326 75.1913 66.5484L75.0918 67.1064C75.0892 67.1221 75.0656 67.1352 75.0394 67.1352Z" fill="black"/>
<path d="M73.1165 67.1352H72.9855C72.9593 67.1352 72.941 67.1221 72.9436 67.1064L73.0432 66.5484C73.0432 66.5326 73.0694 66.5195 73.0956 66.5195H73.2266C73.2528 66.5195 73.2711 66.5326 73.2685 66.5484L73.1689 67.1064C73.1663 67.1221 73.1427 67.1352 73.1165 67.1352Z" fill="#92E3A9"/>
<path opacity="0.4" d="M73.1165 67.1352H72.9855C72.9593 67.1352 72.941 67.1221 72.9436 67.1064L73.0432 66.5484C73.0432 66.5326 73.0694 66.5195 73.0956 66.5195H73.2266C73.2528 66.5195 73.2711 66.5326 73.2685 66.5484L73.1689 67.1064C73.1663 67.1221 73.1427 67.1352 73.1165 67.1352Z" fill="black"/>
<path d="M70.7712 61.3072C70.635 62.0932 70.4804 62.9028 70.3232 63.6993C70.2472 64.0975 70.1607 64.4853 70.0769 64.8914L69.9538 65.4861L69.8987 65.7481C69.8921 65.7668 69.8921 65.7871 69.8987 65.8057C69.9415 65.9162 70.0097 66.0149 70.0979 66.094C70.2196 66.2128 70.353 66.319 70.4961 66.411C70.8172 66.6156 71.1525 66.7968 71.4996 66.9533C71.8533 67.1184 72.2201 67.2703 72.5921 67.4092C72.9641 67.5481 73.344 67.6712 73.7187 67.8074L73.5825 68.3917C72.7603 68.257 71.9512 68.0519 71.1642 67.7786C70.7559 67.6386 70.3605 67.4632 69.9826 67.2546C69.7775 67.1403 69.5837 67.0069 69.4036 66.8564C69.1739 66.6753 68.9937 66.4392 68.8796 66.1699C68.8158 66.0031 68.7907 65.8239 68.8062 65.6459C68.8193 65.5333 68.8245 65.5097 68.8324 65.4547L68.856 65.3027L68.9477 64.7027C69.0132 64.3019 69.0708 63.901 69.1416 63.5001C69.2752 62.701 69.4036 61.9019 69.5686 61.1055L70.7712 61.3072Z" fill="#FF8B7B"/>
<path d="M70.2363 59.7017C69.7464 59.8484 69.0547 61.5042 69.0547 61.5042L70.6267 63.236C70.6267 63.236 71.6118 61.4544 71.4546 60.8335C71.2974 60.2126 70.797 59.534 70.2363 59.7017Z" fill="#92E3A9"/>
</g>
<path opacity="0.3" d="M67.4172 39.2605H86.1973C86.3721 39.2578 86.5396 39.1899 86.6671 39.0702C86.7945 38.9506 86.8727 38.7876 86.8864 38.6134C86.8934 38.5305 86.8829 38.4471 86.8556 38.3686C86.8284 38.29 86.785 38.218 86.7282 38.1573C86.6714 38.0966 86.6025 38.0484 86.526 38.016C86.4494 37.9835 86.3669 37.9674 86.2838 37.9688H67.5063C67.3316 37.9714 67.1641 38.0388 67.0363 38.1579C66.9085 38.277 66.8295 38.4393 66.8146 38.6134C66.8076 38.6963 66.8181 38.7798 66.8453 38.8585C66.8726 38.9372 66.9159 39.0093 66.9727 39.0703C67.0294 39.1312 67.0983 39.1796 67.1748 39.2124C67.2514 39.2451 67.3339 39.2615 67.4172 39.2605Z" fill="#92E3A9"/>
<path opacity="0.3" d="M72.6047 42.1003H85.9955C86.1704 42.0971 86.3379 42.0291 86.4656 41.9096C86.5934 41.7901 86.6723 41.6275 86.6872 41.4532C86.6941 41.3703 86.6837 41.287 86.6564 41.2084C86.6292 41.1299 86.5858 41.0579 86.529 40.9972C86.4722 40.9364 86.4033 40.8883 86.3268 40.8558C86.2502 40.8233 86.1677 40.8073 86.0846 40.8087H72.6938C72.5191 40.8113 72.3516 40.8787 72.2238 40.9978C72.096 41.1168 72.017 41.2792 72.0021 41.4532C71.9951 41.5362 72.0056 41.6197 72.0328 41.6984C72.0601 41.777 72.1034 41.8492 72.1602 41.9101C72.2169 41.971 72.2858 42.0194 72.3623 42.0522C72.4389 42.085 72.5214 42.1014 72.6047 42.1003Z" fill="#92E3A9"/>
<path d="M75.7339 36.4167H86.3868C86.5614 36.4146 86.7289 36.3473 86.8564 36.2281C86.9839 36.1088 87.0622 35.9462 87.0759 35.7722C87.0828 35.6894 87.0724 35.6061 87.0453 35.5276C87.0183 35.4491 86.9751 35.3771 86.9187 35.3162C86.8622 35.2553 86.7937 35.2069 86.7174 35.174C86.6412 35.141 86.5589 35.1244 86.4759 35.125H75.823C75.6482 35.1277 75.4807 35.1956 75.3532 35.3153C75.2258 35.4349 75.1476 35.5979 75.1339 35.7722C75.127 35.8548 75.1374 35.938 75.1645 36.0163C75.1916 36.0947 75.2348 36.1665 75.2913 36.2272C75.3478 36.2879 75.4163 36.3361 75.4926 36.3687C75.5688 36.4014 75.651 36.4177 75.7339 36.4167Z" fill="white"/>
<path opacity="0.3" d="M75.7572 80.754H83.3552C83.4384 80.7526 83.5209 80.7687 83.5974 80.8011C83.674 80.8336 83.7428 80.8817 83.7996 80.9425C83.8564 81.0032 83.8998 81.0752 83.9271 81.1537C83.9543 81.2323 83.9648 81.3157 83.9578 81.3985C83.9441 81.5732 83.8655 81.7365 83.7376 81.8563C83.6096 81.976 83.4414 82.0436 83.2662 82.0456H75.6682C75.5849 82.0467 75.5023 82.0303 75.4258 81.9975C75.3493 81.9648 75.2804 81.9164 75.2237 81.8554C75.1669 81.7945 75.1235 81.7224 75.0963 81.6437C75.0691 81.565 75.0586 81.4815 75.0656 81.3985C75.0799 81.2242 75.1587 81.0616 75.2867 80.9424C75.4146 80.8232 75.5824 80.756 75.7572 80.754Z" fill="#92E3A9"/>
<path opacity="0.3" d="M65.4682 80.754H73.0662C73.1493 80.7526 73.2318 80.7687 73.3083 80.8011C73.3849 80.8336 73.4538 80.8817 73.5106 80.9425C73.5673 81.0032 73.6108 81.0752 73.638 81.1537C73.6653 81.2323 73.6757 81.3157 73.6688 81.3985C73.6539 81.5728 73.575 81.7354 73.4472 81.8549C73.3195 81.9744 73.152 82.0424 72.9771 82.0456H65.3791C65.2958 82.0467 65.2133 82.0303 65.1367 81.9975C65.0602 81.9648 64.9913 81.9164 64.9346 81.8554C64.8779 81.7945 64.8345 81.7224 64.8073 81.6437C64.78 81.565 64.7696 81.4815 64.7765 81.3985C64.7903 81.224 64.8689 81.061 64.997 80.9417C65.125 80.8224 65.2932 80.7554 65.4682 80.754Z" fill="#92E3A9"/>
<path opacity="0.3" d="M70.1533 77.9141H83.5441C83.6272 77.9128 83.7097 77.9288 83.7863 77.9613C83.8628 77.9937 83.9317 78.0419 83.9885 78.1026C84.0453 78.1634 84.0887 78.2353 84.116 78.3139C84.1432 78.3924 84.1537 78.4758 84.1467 78.5587C84.133 78.733 84.0548 78.8959 83.9274 79.0156C83.8 79.1352 83.6325 79.2031 83.4577 79.2058H70.0642C69.9811 79.2069 69.8986 79.1905 69.8222 79.1577C69.7458 79.1249 69.6771 79.0764 69.6205 79.0155C69.564 78.9545 69.5209 78.8823 69.4939 78.8036C69.467 78.725 69.4569 78.6415 69.4642 78.5587C69.478 78.3846 69.5562 78.222 69.6837 78.1027C69.8112 77.9835 69.9787 77.9162 70.1533 77.9141Z" fill="#92E3A9"/>
<path d="M68.3822 75.0704H83.7354C83.8186 75.0693 83.901 75.0857 83.9774 75.1185C84.0539 75.1513 84.1226 75.1997 84.1791 75.2607C84.2356 75.3217 84.2788 75.3938 84.3057 75.4725C84.3326 75.5512 84.3427 75.6347 84.3354 75.7175C84.3217 75.8915 84.2434 76.0542 84.1159 76.1734C83.9884 76.2927 83.8209 76.3599 83.6463 76.362H68.301C68.2178 76.3634 68.1353 76.3474 68.0588 76.3149C67.9823 76.2824 67.9134 76.2343 67.8566 76.1735C67.7998 76.1128 67.7564 76.0408 67.7291 75.9623C67.7019 75.8837 67.6914 75.8004 67.6984 75.7175C67.712 75.5441 67.7894 75.3819 67.9158 75.2623C68.0421 75.1428 68.2083 75.0744 68.3822 75.0704Z" fill="white"/>
<path opacity="0.3" d="M100.293 61.4883H86.3025C86.1277 61.4911 85.9602 61.5589 85.8327 61.6786C85.7053 61.7983 85.6271 61.9612 85.6134 62.1355C85.6065 62.2181 85.6169 62.3013 85.644 62.3796C85.6711 62.458 85.7143 62.5298 85.7708 62.5905C85.8273 62.6512 85.8958 62.6994 85.972 62.7321C86.0483 62.7647 86.1305 62.781 86.2134 62.78H100.204C100.379 62.7779 100.546 62.7106 100.674 62.5914C100.801 62.4721 100.88 62.3095 100.893 62.1355C100.901 62.0526 100.89 61.9692 100.864 61.8905C100.837 61.8118 100.794 61.7397 100.737 61.6787C100.68 61.6177 100.612 61.5692 100.535 61.5365C100.459 61.5037 100.376 61.4873 100.293 61.4883Z" fill="#92E3A9"/>
<path opacity="0.3" d="M93.0992 58.6485H86.4968C86.322 58.6512 86.1545 58.719 86.0271 58.8387C85.8996 58.9584 85.8214 59.1213 85.8078 59.2956C85.8008 59.3785 85.8113 59.4619 85.8385 59.5404C85.8658 59.619 85.9092 59.6909 85.966 59.7517C86.0228 59.8124 86.0916 59.8605 86.1682 59.893C86.2447 59.9255 86.3272 59.9415 86.4104 59.9401H93.0101C93.1848 59.9375 93.3523 59.8702 93.4801 59.7511C93.6079 59.632 93.6869 59.4697 93.7018 59.2956C93.7088 59.2127 93.6983 59.1291 93.6711 59.0505C93.6438 58.9718 93.6005 58.8996 93.5437 58.8387C93.487 58.7778 93.4181 58.7294 93.3416 58.6966C93.265 58.6639 93.1825 58.6475 93.0992 58.6485Z" fill="#92E3A9"/>
<path d="M96.9632 55.8048H86.6928C86.5181 55.8074 86.3506 55.8748 86.2228 55.9939C86.095 56.1129 86.016 56.2752 86.0011 56.4493C85.9942 56.5323 86.0046 56.6158 86.0319 56.6945C86.0591 56.7731 86.1025 56.8453 86.1592 56.9062C86.216 56.9671 86.2848 57.0155 86.3614 57.0483C86.4379 57.0811 86.5204 57.0974 86.6037 57.0964H96.8767C97.0517 57.0943 97.2195 57.0267 97.3471 56.9069C97.4747 56.7871 97.5527 56.6238 97.5658 56.4493C97.5728 56.3664 97.5623 56.283 97.535 56.2045C97.5078 56.1259 97.4644 56.054 97.4076 55.9932C97.3508 55.9325 97.2819 55.8844 97.2054 55.8519C97.1288 55.8194 97.0463 55.8034 96.9632 55.8048Z" fill="white"/>
<path opacity="0.3" d="M105.272 58.6485H95.892C95.7171 58.6517 95.5496 58.7197 95.4219 58.8392C95.2941 58.9587 95.2152 59.1213 95.2003 59.2956C95.1934 59.3785 95.2038 59.4619 95.2311 59.5404C95.2583 59.619 95.3018 59.6909 95.3586 59.7517C95.4153 59.8124 95.4842 59.8605 95.5608 59.893C95.6373 59.9255 95.7198 59.9415 95.8029 59.9401H105.183C105.357 59.9375 105.525 59.8702 105.652 59.7511C105.78 59.632 105.859 59.4697 105.874 59.2956C105.881 59.2127 105.871 59.1291 105.843 59.0505C105.816 58.9718 105.773 58.8996 105.716 58.8387C105.659 58.7778 105.591 58.7294 105.514 58.6966C105.437 58.6639 105.355 58.6475 105.272 58.6485Z" fill="#92E3A9"/>
<path opacity="0.3" d="M63.0918 31.8579H70.1082L69.7361 25.6406L63.0918 31.8579Z" fill="#92E3A9"/>
<path d="M63.0918 31.8579L70.6033 30.9592L69.7361 25.6406L63.0918 31.8579Z" fill="#92E3A9"/>
<path d="M34.7883 50.2758C34.5656 50.7998 34.3194 51.3814 34.1019 51.9421C33.8844 52.5028 33.6617 53.0766 33.46 53.6451C33.0497 54.7572 32.7128 55.895 32.4513 57.0511C32.4146 57.1926 32.3963 57.3315 32.3701 57.4703L32.3334 57.6799L32.3046 57.845C32.2787 58.0781 32.2734 58.3131 32.2889 58.5471C32.334 59.1197 32.4119 59.6891 32.522 60.2528C32.7474 61.4291 33.046 62.6474 33.3421 63.8422L32.0111 64.4055C31.3499 63.2747 30.7922 62.0865 30.3448 60.8554C30.1056 60.2081 29.9207 59.5421 29.792 58.8642C29.7153 58.4743 29.681 58.0772 29.6898 57.6799V57.5096C29.6898 57.4546 29.6898 57.4205 29.6898 57.3734L29.716 57.1114C29.7344 56.9411 29.7448 56.7655 29.7737 56.5874C29.9679 55.2661 30.2738 53.9637 30.688 52.6941C30.8924 52.0679 31.102 51.4496 31.3457 50.8443C31.5893 50.2391 31.8251 49.6444 32.1317 49.0234L34.7883 50.2758Z" fill="#7F3E3B"/>
<path d="M33.2973 63.5195L34.3191 64.5151L32.0895 65.5631C32.0895 65.5631 31.5498 64.6199 31.9218 63.7658L33.2973 63.5195Z" fill="#7F3E3B"/>
<path d="M35.1421 65.9973L33.261 66.7675L32.0898 65.5492L34.3195 64.5117L35.1421 65.9973Z" fill="#7F3E3B"/>
<path d="M83.7871 60.2688C86.7308 53.1622 83.356 45.0148 76.2494 42.0711C69.1427 39.1274 60.9953 42.5022 58.0517 49.6088C55.108 56.7155 58.4828 64.8629 65.5894 67.8065C72.696 70.7502 80.8434 67.3755 83.7871 60.2688Z" fill="#92E3A9"/>
<path d="M70.918 68.1308C78.205 68.1308 84.1123 62.2235 84.1123 54.9365C84.1123 47.6495 78.205 41.7422 70.918 41.7422C63.6309 41.7422 57.7236 47.6495 57.7236 54.9365C57.7236 62.2235 63.6309 68.1308 70.918 68.1308Z" fill="white"/>
<mask id="mask3_1123_384" style="mask-type:luminance" maskUnits="userSpaceOnUse" x="57" y="41" width="28" height="28">
<path d="M70.918 68.1308C78.205 68.1308 84.1123 62.2235 84.1123 54.9365C84.1123 47.6495 78.205 41.7422 70.918 41.7422C63.6309 41.7422 57.7236 47.6495 57.7236 54.9365C57.7236 62.2235 63.6309 68.1308 70.918 68.1308Z" fill="white"/>
</mask>
<g mask="url(#mask3_1123_384)">
<path d="M76.6453 57.9727C76.792 59.0521 76.9073 60.1368 77.0356 61.2188L77.392 64.4493L77.4391 64.8371L77.4941 65.1855L77.5701 65.5471L77.6618 65.9165C77.7981 66.4117 77.9526 66.9147 78.1256 67.4178C78.4609 68.4265 78.8539 69.4378 79.2391 70.4439L78.3378 70.9312C77.7195 70 77.1612 69.0304 76.6662 68.0282C76.4226 67.5199 76.1894 67.0038 75.9903 66.4562L75.8435 66.0423L75.7125 65.61C75.6732 65.4606 75.6392 65.306 75.6025 65.1541L75.5213 64.7349C75.3195 63.6397 75.1545 62.5603 74.9973 61.4756C74.8401 60.3909 74.7012 59.3062 74.5859 58.2163L76.6453 57.9727Z" fill="#FF8B7B"/>
<path d="M75.9927 55.6925C76.8285 55.9048 77.4127 59.3448 77.4127 59.3448L74.219 61.5168C74.219 61.5168 72.909 57.4401 73.5456 56.5231C74.2163 55.5668 74.7744 55.3834 75.9927 55.6925Z" fill="#92E3A9"/>
<path opacity="0.2" d="M75.92 56.4609L76.5619 59.9272L75.2676 60.8049L75.92 56.4609Z" fill="black"/>
<path d="M66.2626 46.8317C64.874 47.0334 62.3876 53.7537 67.4049 56.8899C72.4222 60.026 75.7182 56.4628 75.7182 56.4628C75.7182 56.4628 72.5611 52.9913 72.8362 50.7276C73.1113 48.4639 74.7331 45.6108 70.9288 44.6597C68.2329 43.9864 64.7404 44.6361 66.2626 46.8317Z" fill="#263238"/>
<path d="M75.9928 55.6921C75.9928 55.6921 76.9596 56.0327 75.026 67.9275H66.7914C66.9302 64.5765 66.9329 62.512 65.332 55.6345C66.4842 55.3952 67.6524 55.2411 68.8271 55.1733C70.0717 55.0828 71.3212 55.0828 72.5659 55.1733C74.1719 55.3201 75.9928 55.6921 75.9928 55.6921Z" fill="#92E3A9"/>
<path opacity="0.2" d="M66.024 58.3555C66.7707 58.5415 67.4597 59.3537 67.3759 60.8523C67.3304 61.5335 67.0924 62.1877 66.6895 62.7387C66.5585 61.5859 66.3358 60.2497 65.9873 58.5467L66.024 58.3555Z" fill="black"/>
<path d="M72.1341 57.809C72.1341 57.809 70.7848 58.9199 70.7848 60.1015C69.6634 59.2814 68.1517 57.0439 67.9918 55.6134C67.9868 55.5557 67.9935 55.4976 68.0116 55.4425C68.0296 55.3875 68.0586 55.3367 68.0968 55.2931C68.1349 55.2495 68.1815 55.2141 68.2337 55.189C68.286 55.1639 68.3427 55.1497 68.4006 55.1471C68.501 55.1415 68.6008 55.1284 68.6992 55.1078C68.7414 55.0988 68.785 55.0996 68.8267 55.11C68.8685 55.1205 68.9073 55.1403 68.9403 55.168L72.1341 57.809Z" fill="#FAFAFA"/>
<path d="M72.1338 57.809C72.527 58.043 72.8624 58.3626 73.115 58.7441C73.3677 59.1256 73.5311 59.5591 73.5931 60.0124C74.7276 59.1819 74.1486 56.6981 73.5171 55.4824C73.4676 55.3878 73.3956 55.3068 73.3074 55.2465C73.2193 55.1862 73.1176 55.1484 73.0115 55.1366C72.8438 55.1156 72.7181 55.0947 72.6342 55.0763C72.619 55.0733 72.6034 55.0735 72.5882 55.0768C72.5731 55.0802 72.5588 55.0866 72.5463 55.0957C72.5337 55.1048 72.5232 55.1164 72.5153 55.1297C72.5075 55.1431 72.5025 55.1579 72.5006 55.1733L72.1338 57.809Z" fill="#FAFAFA"/>
<path d="M69.1992 50.9648C69.435 52.1674 69.6708 54.3708 68.8271 55.1752C69.7409 56.2671 70.8654 57.1636 72.1336 57.8109C73.8025 56.4799 72.5659 55.1752 72.5659 55.1752C71.2244 54.8555 71.2559 53.8652 71.4943 52.9246L69.1992 50.9648Z" fill="#FF8B7B"/>
<path opacity="0.2" d="M70.1343 51.7617L71.4914 52.9224C71.4342 53.1396 71.3956 53.3614 71.3762 53.5852C70.8653 53.5119 70.0662 53.0743 69.9483 52.5163C69.9471 52.2533 70.011 51.9941 70.1343 51.7617Z" fill="black"/>
<path d="M67.1825 49.0317C67.7379 50.9652 67.9318 51.7931 69.1475 52.5818C70.9815 53.7634 73.2268 52.6577 73.2582 50.5958C73.287 48.7408 72.3727 45.8798 70.2819 45.5366C69.8208 45.4565 69.3468 45.4956 68.905 45.6503C68.4633 45.8049 68.0684 46.0699 67.7578 46.4201C67.4473 46.7702 67.2314 47.194 67.1307 47.6511C67.03 48.1082 67.0478 48.5834 67.1825 49.0317Z" fill="#FF8B7B"/>
<path d="M67.8576 50.7767C69.0235 49.5872 68.9659 48.12 68.62 47.6615C69.6838 47.5724 72.4059 46.8991 71.8898 45.8694C71.3737 44.8397 67.0297 44.2791 66.6157 46.9174C65.2664 48.1095 66.3406 50.5068 67.8576 50.7767Z" fill="#263238"/>
<path d="M70.423 48.8551C70.4597 49.015 70.5723 49.1171 70.685 49.1014C70.7976 49.0857 70.8448 48.9311 70.8107 48.7713C70.7767 48.6115 70.6614 48.5093 70.5487 48.525C70.4361 48.5407 70.3889 48.6953 70.423 48.8551Z" fill="#263238"/>
<path d="M72.228 48.4706C72.2647 48.6304 72.3773 48.7326 72.49 48.7169C72.6026 48.7011 72.6498 48.5466 72.6131 48.3867C72.5764 48.2269 72.4638 48.1247 72.3511 48.1378C72.2385 48.1509 72.1939 48.2977 72.228 48.4706Z" fill="#263238"/>
<path d="M72.3115 48.1457L72.6705 47.9492C72.6705 47.9492 72.5368 48.2924 72.3115 48.1457Z" fill="#263238"/>
<path d="M71.7354 48.8672C71.9556 49.1985 72.22 49.4982 72.5214 49.758C72.453 49.8342 72.3688 49.8946 72.2747 49.9349C72.1805 49.9752 72.0787 49.9944 71.9764 49.9912L71.7354 48.8672Z" fill="#FF5652"/>
<path d="M71.2637 50.8101C71.3448 50.8047 71.4253 50.7933 71.5047 50.776C71.517 50.7729 71.5277 50.7652 71.5345 50.7545C71.5413 50.7438 71.5438 50.7309 71.5414 50.7184C71.5383 50.7061 71.5306 50.6954 71.5199 50.6886C71.5092 50.6818 71.4962 50.6793 71.4838 50.6817C71.2861 50.7297 71.08 50.7311 70.8817 50.6856C70.6834 50.6401 70.4984 50.5491 70.3415 50.4197C70.3322 50.4111 70.32 50.4062 70.3074 50.4062C70.2947 50.4062 70.2826 50.4111 70.2733 50.4197C70.2687 50.4241 70.2651 50.4294 70.2626 50.4353C70.2601 50.4411 70.2588 50.4474 70.2588 50.4538C70.2588 50.4602 70.2601 50.4665 70.2626 50.4723C70.2651 50.4782 70.2687 50.4834 70.2733 50.4878C70.4087 50.6047 70.566 50.6935 70.736 50.7488C70.9061 50.8041 71.0855 50.825 71.2637 50.8101Z" fill="#263238"/>
<path d="M67.0533 50.9609C67.1614 51.1203 67.2999 51.2567 67.4609 51.3623C67.6218 51.468 67.8021 51.5408 67.9913 51.5766C68.4996 51.671 68.7065 51.2072 68.5153 50.7513C68.3528 50.3426 67.8943 49.8029 67.4044 49.9129C67.2987 49.9413 67.2016 49.9953 67.1219 50.0703C67.0421 50.1453 66.9822 50.2389 66.9474 50.3426C66.9126 50.4464 66.9041 50.5572 66.9226 50.6651C66.9411 50.773 66.986 50.8746 67.0533 50.9609Z" fill="#FF8B7B"/>
<path d="M69.5397 48.5042C69.5595 48.5018 69.5781 48.4931 69.5927 48.4794C69.6073 48.4658 69.6172 48.4478 69.6209 48.4282C69.6681 48.2786 69.7458 48.1403 69.8491 48.0222C69.9523 47.9041 70.0789 47.8086 70.2209 47.7418C70.2326 47.7367 70.2432 47.7293 70.252 47.72C70.2608 47.7107 70.2676 47.6997 70.272 47.6877C70.2764 47.6757 70.2783 47.6629 70.2777 47.6501C70.277 47.6374 70.2737 47.6248 70.268 47.6134C70.2627 47.6019 70.2551 47.5915 70.2457 47.583C70.2363 47.5745 70.2253 47.568 70.2133 47.5638C70.2013 47.5596 70.1886 47.5579 70.176 47.5588C70.1633 47.5597 70.151 47.5631 70.1396 47.5688C69.9695 47.6478 69.8183 47.7623 69.6963 47.9047C69.5743 48.047 69.4842 48.214 69.4323 48.3941C69.43 48.4064 69.4301 48.4189 69.4327 48.4311C69.4353 48.4432 69.4403 48.4547 69.4474 48.465C69.4544 48.4752 69.4634 48.4839 69.4739 48.4906C69.4843 48.4974 69.496 48.502 69.5082 48.5042C69.5185 48.5068 69.5294 48.5068 69.5397 48.5042Z" fill="#263238"/>
<path d="M72.5736 47.1784C72.5951 47.1808 72.6169 47.1758 72.6352 47.1641C72.6534 47.1524 72.6671 47.1347 72.6739 47.1141C72.6807 47.0934 72.6801 47.0711 72.6723 47.0508C72.6646 47.0306 72.65 47.0136 72.6312 47.0028C72.506 46.9154 72.3615 46.8595 72.2101 46.8399C72.0586 46.8203 71.9047 46.8375 71.7614 46.8901C71.7383 46.9005 71.7202 46.9194 71.7109 46.9429C71.7016 46.9664 71.7018 46.9926 71.7116 47.0159C71.7164 47.0275 71.7235 47.0381 71.7325 47.0469C71.7415 47.0558 71.7522 47.0627 71.7639 47.0674C71.7757 47.072 71.7882 47.0742 71.8008 47.074C71.8134 47.0737 71.8258 47.0709 71.8373 47.0657C71.9516 47.0258 72.0738 47.0138 72.1936 47.0306C72.3135 47.0475 72.4276 47.0928 72.5264 47.1626C72.54 47.1728 72.5565 47.1784 72.5736 47.1784Z" fill="#263238"/>
<path d="M70.5039 48.5442L70.8628 48.3477C70.8628 48.3477 70.7397 48.6909 70.5039 48.5442Z" fill="#263238"/>
<path d="M66.6682 67.4469L66.456 68.1831C66.4298 68.2407 66.4953 68.2984 66.5922 68.2984H75.0653C75.1387 68.2984 75.2016 68.2617 75.2068 68.2172L75.2802 67.4783C75.2802 67.4285 75.2199 67.384 75.1387 67.384H66.8097C66.7826 67.3806 66.7551 67.3846 66.7302 67.3957C66.7052 67.4068 66.6838 67.4245 66.6682 67.4469Z" fill="#92E3A9"/>
<path opacity="0.2" d="M66.6682 67.4469L66.456 68.1831C66.4298 68.2407 66.4953 68.2984 66.5922 68.2984H75.0653C75.1387 68.2984 75.2016 68.2617 75.2068 68.2172L75.2802 67.4783C75.2802 67.4285 75.2199 67.384 75.1387 67.384H66.8097C66.7826 67.3806 66.7551 67.3846 66.7302 67.3957C66.7052 67.4068 66.6838 67.4245 66.6682 67.4469Z" fill="white"/>
<path d="M67.8157 68.3814H67.5957C67.5511 68.3814 67.5171 68.3578 67.5197 68.329L67.6245 67.3727C67.6245 67.3439 67.6664 67.3203 67.7109 67.3203H67.9336C67.9782 67.3203 68.0122 67.3439 68.0096 67.3727L67.9048 68.329C67.8996 68.3552 67.8577 68.3814 67.8157 68.3814Z" fill="#92E3A9"/>
<path opacity="0.4" d="M67.8157 68.3814H67.5957C67.5511 68.3814 67.5171 68.3578 67.5197 68.329L67.6245 67.3727C67.6245 67.3439 67.6664 67.3203 67.7109 67.3203H67.9336C67.9782 67.3203 68.0122 67.3439 68.0096 67.3727L67.9048 68.329C67.8996 68.3552 67.8577 68.3814 67.8157 68.3814Z" fill="black"/>
<path d="M74.4398 68.3814H74.2145C74.17 68.3814 74.1359 68.3578 74.1412 68.329L74.246 67.3727C74.246 67.3439 74.2879 67.3203 74.3324 67.3203H74.5551C74.5997 67.3203 74.6337 67.3439 74.6311 67.3727L74.5263 68.329C74.5196 68.346 74.5075 68.3602 74.4919 68.3697C74.4762 68.3792 74.458 68.3833 74.4398 68.3814Z" fill="#92E3A9"/>
<path opacity="0.4" d="M74.4398 68.3814H74.2145C74.17 68.3814 74.1359 68.3578 74.1412 68.329L74.246 67.3727C74.246 67.3439 74.2879 67.3203 74.3324 67.3203H74.5551C74.5997 67.3203 74.6337 67.3439 74.6311 67.3727L74.5263 68.329C74.5196 68.346 74.5075 68.3602 74.4919 68.3697C74.4762 68.3792 74.458 68.3833 74.4398 68.3814Z" fill="black"/>
<path d="M71.1406 68.3814H70.9179C70.8734 68.3814 70.8393 68.3578 70.8419 68.329L70.9467 67.3727C70.9467 67.3439 70.9887 67.3203 71.0332 67.3203H71.2638C71.3083 67.3203 71.3424 67.3439 71.3397 67.3727L71.2349 68.329C71.2245 68.3552 71.1852 68.3814 71.1406 68.3814Z" fill="#92E3A9"/>
<path opacity="0.4" d="M71.1406 68.3814H70.9179C70.8734 68.3814 70.8393 68.3578 70.8419 68.329L70.9467 67.3727C70.9467 67.3439 70.9887 67.3203 71.0332 67.3203H71.2638C71.3083 67.3203 71.3424 67.3439 71.3397 67.3727L71.2349 68.329C71.2245 68.3552 71.1852 68.3814 71.1406 68.3814Z" fill="black"/>
<path d="M66.4323 58.31C66.3642 59.0069 66.2777 59.7039 66.2018 60.406L65.9398 62.502C65.8559 63.1963 65.7459 63.8906 65.6516 64.598L65.5022 65.646L65.4551 65.9761C65.458 66.0275 65.4723 66.0777 65.497 66.1229C65.6111 66.3233 65.7612 66.5009 65.9398 66.6469C66.1729 66.8394 66.4198 67.0145 66.6786 67.1709C67.2438 67.5149 67.831 67.8213 68.4366 68.0879C69.0549 68.3682 69.6916 68.6119 70.3387 68.8555C70.9859 69.0992 71.6487 69.3219 72.2906 69.5341L72.0601 70.5349C70.6411 70.3062 69.2434 69.9609 67.8812 69.5027C67.1761 69.272 66.4909 68.9846 65.8323 68.6433C65.4797 68.4597 65.1431 68.2468 64.8263 68.0066C64.4463 67.7298 64.1256 67.3797 63.8831 66.977C63.7402 66.7133 63.6511 66.4239 63.6211 66.1255C63.6211 66.0443 63.608 65.963 63.6211 65.8818C63.6342 65.8006 63.6211 65.6984 63.6342 65.6722L63.6577 65.4102L63.7468 64.3622C63.8123 63.6653 63.8621 62.9658 63.9381 62.2662L64.1503 60.1702C64.2341 59.4733 64.3049 58.7764 64.3966 58.0742L66.4323 58.31Z" fill="#FF8B7B"/>
<path d="M65.3323 55.6358C64.507 55.8978 63.5166 58.7274 63.5166 58.7274L66.3986 61.6985C66.3986 61.6985 67.8789 58.6435 67.5304 57.5772C67.1767 56.4663 66.2859 55.3476 65.3323 55.6358Z" fill="#92E3A9"/>
</g>
<path opacity="0.2" d="M58.3004 58.3357C57.6282 55.8405 57.711 53.2021 58.5383 50.7539C59.3656 48.3058 60.9003 46.158 62.9483 44.582C64.9963 43.0061 67.4656 42.0728 70.044 41.9003C72.6223 41.7277 75.194 42.3236 77.4337 43.6125C79.6735 44.9015 81.4807 46.8256 82.6269 49.1417C83.7731 51.4577 84.2068 54.0616 83.8731 56.6241C83.5394 59.1866 82.4534 61.5927 80.7523 63.538C79.0512 65.4833 76.8115 66.8805 74.3164 67.5529C72.6596 67.9994 70.931 68.1152 69.2294 67.8936C67.5278 67.672 65.8866 67.1175 64.3993 66.2616C62.9121 65.4057 61.608 64.2652 60.5615 62.9053C59.515 61.5453 58.7467 59.9926 58.3004 58.3357Z" fill="#92E3A9"/>
<path opacity="0.2" d="M80.3869 45.9339L69.6266 67.9419C70.5495 68.0361 71.48 68.0282 72.4012 67.9183L82.0768 48.1373C81.5944 47.3442 81.0279 46.6054 80.3869 45.9339ZM83.5309 51.5355L83.4602 51.2735L75.7338 67.0773C78.7136 65.8942 81.1545 63.657 82.5922 60.7913C84.0299 57.9256 84.364 54.6314 83.5309 51.5355ZM67.5149 42.3209C65.2342 42.9357 63.1627 44.1571 61.5209 45.8553C59.879 47.5535 58.7281 49.665 58.1905 51.9651C57.653 54.2652 57.7489 56.6681 58.4681 58.918C59.1873 61.168 60.5029 63.181 62.2749 64.7429L73.3601 42.0982C71.4201 41.7276 69.4211 41.8037 67.5149 42.3209Z" fill="white"/>
<path d="M56.2151 53.5185L55.9531 53.4923C55.995 53.0443 56.0605 52.5936 56.1444 52.1535L56.4064 52.2032C56.3304 52.6355 56.2597 53.0783 56.2151 53.5185ZM56.7234 50.8592L56.4614 50.7858C56.8065 49.6187 57.2903 48.4972 57.9024 47.4453L58.1303 47.5763C57.5319 48.6105 57.0596 49.7126 56.7234 50.8592Z" fill="#92E3A9"/>
<path d="M84.5369 51.2641C83.8111 48.5705 82.3029 46.1526 80.203 44.3161C78.1031 42.4796 75.5059 41.3069 72.7396 40.9464C69.9734 40.5859 67.1623 41.0537 64.6619 42.2907C62.1614 43.5276 60.0839 45.4782 58.692 47.8958C57.3 50.3134 56.6562 53.0894 56.8418 55.8729C57.0274 58.6563 58.0342 61.3223 59.7349 63.5336C61.4355 65.745 63.7536 67.4024 66.3962 68.2964C69.0387 69.1903 71.887 69.2807 74.5809 68.5561C76.3702 68.0747 78.0472 67.2456 79.516 66.116C80.9848 64.9864 82.2167 63.5785 83.1413 61.9726C84.0658 60.3668 84.665 58.5946 84.9044 56.7572C85.1439 54.9198 85.019 53.0532 84.5369 51.2641ZM58.3002 58.3381C57.628 55.8429 57.7108 53.2044 58.5382 50.7563C59.3655 48.3081 60.9002 46.1603 62.9482 44.5844C64.9961 43.0084 67.4654 42.0752 70.0438 41.9026C72.6222 41.73 75.1939 42.3259 77.4336 43.6149C79.6733 44.9038 81.4805 46.828 82.6267 49.144C83.7729 51.46 84.2066 54.064 83.8729 56.6265C83.5393 59.189 82.4532 61.595 80.7522 63.5403C79.0511 65.4856 76.8114 66.8828 74.3163 67.5552C72.6593 68.0017 70.9305 68.1173 69.2288 67.8956C67.5271 67.6739 65.8857 67.1191 64.3984 66.2629C62.9112 65.4068 61.6071 64.266 60.5608 62.9058C59.5144 61.5456 58.7463 59.9926 58.3002 58.3354V58.3381Z" fill="#92E3A9"/>
<path d="M58.51 60.4967C58.51 61.0967 58.3554 61.1753 58.1904 61.1936L57.7161 61.3194L56.7651 61.5814L54.8629 62.0844L51.0509 63.0617C48.506 63.7009 45.9576 64.3236 43.4057 64.9297L35.75 66.7637L31.9275 67.6912C30.6542 68.0082 29.3756 68.3017 28.1154 68.6685C27.9876 68.706 27.8536 68.7179 27.7212 68.7037C27.5887 68.6894 27.4604 68.6492 27.3435 68.5853C27.2266 68.5215 27.1234 68.4352 27.0398 68.3315C26.9563 68.2277 26.894 68.1085 26.8565 67.9807C26.819 67.8529 26.807 67.7189 26.8213 67.5865C26.8355 67.4541 26.8757 67.3257 26.9396 67.2088C27.0035 67.0919 27.0897 66.9888 27.1935 66.9052C27.2972 66.8216 27.4164 66.7593 27.5442 66.7218H27.5861C28.8621 66.4074 30.1144 66.017 31.372 65.6528L35.1448 64.5341L42.6826 62.2652C45.196 61.5054 47.7121 60.7622 50.2308 60.0356L54.0167 58.9483L55.9136 58.4243L56.862 58.1623L57.3362 58.0313C57.4882 57.9658 57.6559 57.9579 57.965 58.4741C58.3284 59.0857 58.5169 59.7853 58.51 60.4967Z" fill="#92E3A9"/>
<path d="M42.0254 40.947C42.0254 41.1016 42.1066 41.2274 42.2088 41.2274C42.311 41.2274 42.3922 41.1016 42.3922 40.947C42.3922 40.7924 42.311 40.6641 42.2088 40.6641C42.1066 40.6641 42.0254 40.7898 42.0254 40.947Z" fill="#263238"/>
<path d="M42.0934 41.2305C42.2776 41.7051 42.5262 42.1521 42.8323 42.5588C42.7263 42.6346 42.605 42.6863 42.4769 42.7103C42.3488 42.7343 42.2171 42.73 42.0908 42.6977L42.0934 41.2305Z" fill="#630F0F"/>
<path d="M41.4749 40.0861C41.4558 40.0856 41.4375 40.0791 41.4223 40.0677C41.4071 40.0562 41.3958 40.0403 41.39 40.0222C41.3843 40.004 41.3843 39.9845 41.3901 39.9664C41.3959 39.9483 41.4072 39.9324 41.4225 39.921C41.5382 39.8343 41.6729 39.7762 41.8155 39.7516C41.958 39.727 42.1044 39.7366 42.2425 39.7795C42.265 39.7883 42.2832 39.8056 42.293 39.8277C42.3028 39.8498 42.3035 39.8749 42.2949 39.8974C42.2861 39.92 42.2688 39.9381 42.2468 39.9479C42.2247 39.9577 42.1996 39.9584 42.177 39.9498C42.0671 39.9171 41.951 39.9108 41.8381 39.9312C41.7252 39.9517 41.6187 39.9985 41.5273 40.0677C41.5125 40.0798 41.4939 40.0863 41.4749 40.0861Z" fill="#263238"/>
<path d="M37.0257 41.9531C37.1646 43.4701 37.1829 46.229 36.1113 47.1329C36.1113 47.1329 36.355 48.6813 38.9593 48.9223C41.8229 49.1843 40.4684 47.5363 40.4684 47.5363C38.9409 46.994 39.0955 45.7626 39.4754 44.6308L37.0257 41.9531Z" fill="#7F3E3B"/>
<path d="M32.8363 104.095C32.611 104.19 32.0948 103.962 31.9298 103.865C31.9222 103.861 31.9161 103.855 31.9124 103.847C31.9086 103.84 31.9073 103.831 31.9088 103.823C31.9095 103.814 31.9128 103.805 31.9184 103.798C31.9241 103.791 31.9317 103.786 31.9402 103.784C31.9664 103.784 32.5795 103.579 32.8284 103.723C32.8558 103.738 32.8796 103.759 32.8981 103.783C32.9167 103.808 32.9296 103.837 32.9358 103.867C32.9489 103.904 32.9502 103.944 32.9393 103.981C32.9285 104.018 32.9062 104.051 32.8756 104.074C32.8634 104.083 32.8502 104.09 32.8363 104.095ZM32.0739 103.833C32.3359 103.964 32.7105 104.074 32.8206 103.996C32.8206 103.996 32.8651 103.964 32.8468 103.881C32.8429 103.863 32.8353 103.846 32.8245 103.832C32.8136 103.817 32.7998 103.805 32.7839 103.797C32.5482 103.741 32.3014 103.756 32.0739 103.839V103.833Z" fill="#92E3A9"/>
<path d="M32.0982 103.826C32.055 103.844 32.0103 103.859 31.9645 103.868C31.9567 103.871 31.9481 103.871 31.9401 103.869C31.9321 103.867 31.9251 103.862 31.92 103.855C31.9161 103.848 31.9141 103.84 31.9141 103.832C31.9141 103.823 31.9161 103.815 31.92 103.808C31.92 103.787 32.1322 103.268 32.3995 103.158C32.4312 103.144 32.4656 103.137 32.5003 103.137C32.5351 103.137 32.5695 103.144 32.6012 103.158C32.6342 103.167 32.6628 103.188 32.682 103.216C32.7012 103.245 32.7097 103.279 32.706 103.313C32.6798 103.488 32.3418 103.724 32.0982 103.826ZM32.0353 103.753C32.2711 103.664 32.5933 103.433 32.6091 103.305C32.6091 103.292 32.6091 103.266 32.5567 103.24C32.5362 103.23 32.5138 103.225 32.4912 103.225C32.4685 103.225 32.4461 103.23 32.4257 103.24C32.2554 103.313 32.1034 103.604 32.0353 103.75V103.753Z" fill="#92E3A9"/>
<path d="M44.7395 107.186C44.5418 107.185 44.3446 107.168 44.15 107.134C44.1409 107.132 44.1326 107.127 44.1261 107.121C44.1196 107.114 44.1151 107.106 44.1133 107.097C44.1112 107.088 44.1124 107.078 44.1167 107.069C44.121 107.061 44.1281 107.054 44.1369 107.05C44.1657 107.031 44.8364 106.649 45.1587 106.735C45.219 106.751 45.2708 106.789 45.3028 106.843C45.3233 106.872 45.3343 106.907 45.3343 106.942C45.3343 106.978 45.3233 107.013 45.3028 107.042C45.2268 107.157 44.9884 107.186 44.7395 107.186ZM44.2967 107.065C44.6556 107.115 45.1429 107.113 45.232 106.989C45.232 106.974 45.2556 106.945 45.232 106.887C45.2224 106.871 45.2095 106.857 45.1942 106.846C45.1788 106.836 45.1614 106.828 45.1429 106.824C44.936 106.769 44.5403 106.945 44.2967 107.065Z" fill="#92E3A9"/>
<path d="M44.1572 107.134C44.1486 107.136 44.1396 107.136 44.131 107.134C44.1244 107.129 44.1193 107.123 44.116 107.115C44.1128 107.108 44.1116 107.1 44.1127 107.092C44.1127 107.071 44.1677 106.552 44.4113 106.35C44.4475 106.32 44.4893 106.298 44.5343 106.284C44.5793 106.271 44.6266 106.266 44.6733 106.272C44.7965 106.285 44.8332 106.348 44.841 106.4C44.8777 106.618 44.4166 107.034 44.186 107.139L44.1572 107.134ZM44.6288 106.348C44.5703 106.349 44.514 106.371 44.469 106.408C44.3235 106.574 44.2322 106.781 44.207 107C44.4454 106.859 44.7572 106.531 44.731 106.4C44.731 106.4 44.731 106.358 44.6419 106.35L44.6288 106.348Z" fill="#92E3A9"/>
<path d="M42.043 107.089H43.966L44.1573 102.633H42.2342L42.043 107.089Z" fill="#7F3E3B"/>
<path d="M29.7812 103.412L31.6729 103.768L33.803 99.631L31.9113 99.2773L29.7812 103.412Z" fill="#7F3E3B"/>
<path d="M31.8805 103.568L29.8107 102.944C29.7743 102.934 29.7352 102.936 29.7 102.95C29.6648 102.964 29.6354 102.99 29.6168 103.023L28.7575 104.553C28.7369 104.591 28.7252 104.632 28.723 104.675C28.7209 104.717 28.7284 104.76 28.745 104.799C28.7617 104.839 28.787 104.874 28.8191 104.902C28.8512 104.93 28.8892 104.95 28.9304 104.962C29.6561 105.166 30.0203 105.224 30.9294 105.504C31.4901 105.672 32.9626 106.29 33.7381 106.518C34.5136 106.746 34.8411 106.015 34.545 105.85C33.2193 105.114 32.4779 104.317 32.1451 103.772C32.0856 103.674 31.9912 103.601 31.8805 103.568Z" fill="#263238"/>
<path d="M43.9532 106.867H41.8572C41.8192 106.867 41.7822 106.88 41.7526 106.904C41.723 106.928 41.7026 106.961 41.6947 106.998L41.3148 108.709C41.3053 108.75 41.3052 108.793 41.3146 108.834C41.3241 108.875 41.3428 108.914 41.3693 108.946C41.3958 108.979 41.4295 109.006 41.4677 109.024C41.5059 109.041 41.5477 109.05 41.5899 109.05C42.3497 109.05 43.4449 108.995 44.3986 108.995C45.5121 108.995 46.4736 109.055 47.781 109.055C48.567 109.055 48.7897 108.256 48.4596 108.182C46.9531 107.855 45.7243 107.818 44.4222 107.017C44.2829 106.924 44.1204 106.872 43.9532 106.867Z" fill="#263238"/>
<path d="M32.4879 47.6204C30.8163 48.4064 30.1299 53.7932 30.1299 53.7932L33.9682 55.2997C34.5638 53.8413 35.0455 52.3391 35.4092 50.8064C35.9594 48.375 34.204 46.803 32.4879 47.6204Z" fill="#92E3A9"/>
<path opacity="0.3" d="M32.4879 47.6204C30.8163 48.4064 30.1299 53.7932 30.1299 53.7932L33.9682 55.2997C34.5638 53.8413 35.0455 52.3391 35.4092 50.8064C35.9594 48.375 34.204 46.803 32.4879 47.6204Z" fill="black"/>
<path opacity="0.2" d="M34.9851 49.2001C35.116 49.1366 35.2529 49.0866 35.3939 49.0508C35.547 49.6252 35.5524 50.2291 35.4096 50.8062C35.0459 52.3389 34.5642 53.8412 33.9686 55.2995L32.7031 54.8043C32.9363 53.3974 33.6516 49.8394 34.9851 49.2001Z" fill="black"/>
<path d="M43.6286 47.5818C43.6286 47.5818 45.6775 49.8952 43.7413 64.2188H33.4473C33.3766 62.6468 34.3696 54.9283 32.8447 47.4822C33.9835 47.2632 35.1352 47.1179 36.2926 47.0473C37.7499 46.9634 39.2108 46.9634 40.668 47.0473C41.6673 47.148 42.6572 47.3267 43.6286 47.5818Z" fill="#92E3A9"/>
<path opacity="0.3" d="M43.6286 47.5818C43.6286 47.5818 45.6775 49.8952 43.7413 64.2188H33.4473C33.3766 62.6468 34.3696 54.9283 32.8447 47.4822C33.9835 47.2632 35.1352 47.1179 36.2926 47.0473C37.7499 46.9634 39.2108 46.9634 40.668 47.0473C41.6673 47.148 42.6572 47.3267 43.6286 47.5818Z" fill="black"/>
<path opacity="0.2" d="M41.5558 50.6519C42.0222 49.2528 43.1435 48.8048 44.2858 49.6354C44.5164 50.9925 44.6788 53.1802 44.4928 56.6491L42.4833 56.6308C42.4833 56.6308 40.872 52.7348 41.5558 50.6519Z" fill="black"/>
<path d="M44.8175 49.6953C44.9171 50.2953 45.0271 50.9503 45.1503 51.5739C45.2734 52.1974 45.4123 52.8315 45.559 53.4498C45.8303 54.6661 46.1992 55.8585 46.662 57.0156C46.7799 57.2776 46.9004 57.5553 47.0341 57.8016L47.2044 58.1108C47.2473 58.1804 47.2973 58.2454 47.3537 58.3046C47.7438 58.6748 48.185 58.9871 48.6637 59.2321C49.7949 59.8203 50.9613 60.3383 52.1562 60.7832L51.8706 62.198C50.4613 62.1004 49.0711 61.8167 47.7362 61.3543C47.3777 61.2295 47.0276 61.0816 46.6882 60.9115C46.3165 60.7219 45.9654 60.4945 45.6402 60.233C45.449 60.0757 45.2735 59.9002 45.1162 59.709L44.9905 59.5439L44.9092 59.4208C44.8542 59.3395 44.7992 59.2583 44.7494 59.1771C44.5451 58.8496 44.3643 58.5221 44.1966 58.192C43.5832 56.909 43.0971 55.569 42.7451 54.1912C42.5696 53.5179 42.4071 52.8472 42.2761 52.1686C42.1451 51.49 42.0141 50.8272 41.9355 50.104L44.8175 49.6953Z" fill="#7F3E3B"/>
<path d="M41.0557 48.9924C40.5134 50.7504 42.7142 55.9904 42.7142 55.9904L47.3489 54.8245C47.0652 53.1682 46.5877 51.5511 45.9263 50.0063C44.4224 46.7366 41.7081 46.8728 41.0557 48.9924Z" fill="#92E3A9"/>
<path opacity="0.3" d="M41.0557 48.9924C40.5134 50.7504 42.7142 55.9904 42.7142 55.9904L47.3489 54.8245C47.0652 53.1682 46.5877 51.5511 45.9263 50.0063C44.4224 46.7366 41.7081 46.8728 41.0557 48.9924Z" fill="black"/>
<path d="M52.1855 60.7833L54.174 61.6768L52.2457 63.2671C52.2457 63.2671 51.3968 62.9894 51.258 61.5955L50.9619 60.4375L51.8344 60.6602C51.9549 60.6906 52.0724 60.7318 52.1855 60.7833Z" fill="#7F3E3B"/>
<path d="M55.2293 62.6387L53.2931 63.7941L52.2451 63.2544L54.1708 61.6641L55.2293 62.6387Z" fill="#7F3E3B"/>
<path d="M41.5431 46.8747C40.7126 46.1726 38.6952 45.6669 36.4367 45.5411C35.1451 45.4704 33.8167 45.6826 33.2639 45.9289C32.7111 46.1752 33.3661 47.9542 34.0892 47.9935C33.7067 48.5961 34.2621 49.7593 35.0927 49.9873C34.9617 50.9934 37.4978 51.0877 39.0227 50.2755C40.2541 49.6283 42.5387 47.7157 41.5431 46.8747Z" fill="#263238"/>
<path opacity="0.2" d="M44.1574 102.633L44.0605 104.931H42.1348L42.2317 102.633H44.1574Z" fill="black"/>
<path opacity="0.2" d="M31.9093 99.2773L33.8036 99.6337L32.7058 101.764L30.8115 101.407L31.9093 99.2773Z" fill="black"/>
<path d="M36.8476 40.6093C36.9628 42.5167 36.9314 43.6381 37.8956 44.618C39.3418 46.0904 41.6972 45.2206 42.1531 43.308C42.5644 41.5945 42.305 38.7649 40.4396 38.0025C40.0282 37.8323 39.5801 37.7704 39.1381 37.8227C38.696 37.875 38.2747 38.0398 37.9145 38.3013C37.5542 38.5627 37.267 38.9122 37.0802 39.3162C36.8934 39.7203 36.8133 40.1655 36.8476 40.6093Z" fill="#7F3E3B"/>
<path d="M40.4159 41.6708C41.1364 40.9424 42.3207 39.3547 41.9067 38.1626C41.2962 36.3994 39.4753 36.9967 39.7662 37.3478C38.7182 36.6561 36.6012 36.6221 37.044 37.5495C35.1392 37.8115 34.9847 38.5844 35.5139 38.8753C34.1567 40.1695 34.2222 41.5084 35.2519 41.4088C34.4659 42.1948 35.9121 43.7511 37.5287 44.4925C38.0789 43.0515 41.0238 42.7895 40.4159 41.6708Z" fill="#263238"/>
<path d="M39.5804 42.3611C39.5684 42.3646 39.5557 42.3646 39.5437 42.3611C39.5366 42.3562 39.5306 42.3499 39.5259 42.3425C39.5213 42.3352 39.5182 42.3271 39.5167 42.3186C39.5153 42.31 39.5155 42.3013 39.5174 42.2929C39.5194 42.2844 39.5229 42.2765 39.528 42.2694C39.9419 41.6616 40.3454 41.1743 40.7017 40.7446C41.3829 39.9219 41.8755 39.3272 41.9174 38.5202C41.9272 38.1896 41.8335 37.8642 41.6494 37.5894C41.4652 37.3146 41.1999 37.1042 40.8904 36.9875C40.4031 36.7674 39.879 36.7543 39.6721 36.9587C39.562 37.0661 39.5515 37.2207 39.6406 37.4355C39.6445 37.4432 39.6466 37.4516 39.6469 37.4601C39.6473 37.4687 39.6458 37.4772 39.6426 37.4852C39.6393 37.4931 39.6345 37.5002 39.6283 37.5061C39.622 37.512 39.6147 37.5166 39.6066 37.5194C39.5987 37.5228 39.5901 37.5247 39.5815 37.5249C39.5729 37.525 39.5643 37.5235 39.5563 37.5203C39.5482 37.5172 39.5409 37.5124 39.5347 37.5064C39.5285 37.5004 39.5235 37.4932 39.5201 37.4853C39.4623 37.389 39.4369 37.2767 39.4478 37.1649C39.4586 37.0531 39.5051 36.9477 39.5804 36.8644C39.8267 36.6233 40.4004 36.6233 40.9454 36.8644C41.2789 36.9909 41.5646 37.2186 41.7623 37.5155C41.9601 37.8124 42.0601 38.1637 42.0484 38.5202C42.0039 39.3717 41.5008 39.9796 40.8039 40.8206C40.4476 41.2503 40.0467 41.735 39.6354 42.3402C39.6285 42.3477 39.6199 42.3535 39.6104 42.3572C39.6008 42.3608 39.5905 42.3622 39.5804 42.3611Z" fill="#263238"/>
<path d="M39.6748 41.459C39.7097 41.9321 39.8994 42.3805 40.2146 42.735C40.6338 43.1961 41.0739 42.9079 41.1473 42.3472C41.2128 41.8389 41.0765 40.9874 40.563 40.7333C40.0495 40.4792 39.6408 40.8879 39.6748 41.459Z" fill="#7F3E3B"/>
<path d="M40.086 64.2188C40.086 64.2188 40.7357 77.193 39.4703 82.6897C37.466 91.3934 33.6329 101.488 33.6329 101.488L30.0645 100.815C30.0645 100.815 33.0696 90.7069 33.7325 83.46C34.3167 76.9519 33.4521 69.4771 33.4521 64.2188H40.086Z" fill="#263238"/>
<path opacity="0.2" d="M39.1241 68.0596C39.3861 67.554 39.897 69.0605 40.2534 70.994C40.2534 73.6612 40.2062 76.6952 39.973 79.2654C38.1914 75.9773 38.5713 69.1076 39.1241 68.0596Z" fill="black"/>
<path d="M34.5085 100.39C34.5242 100.39 33.9504 101.627 33.9504 101.627L29.8213 100.823L30.2719 99.5781L34.5085 100.39Z" fill="#2C6BDB"/>
<path d="M43.7545 64.2188C43.7545 64.2188 46.6365 76.5039 46.8461 82.3753C47.074 88.9594 44.7763 104.486 44.7763 104.486H41.517C41.517 104.486 41.1162 88.8389 40.9694 82.8417C40.8122 76.3048 36.9766 64.2188 36.9766 64.2188H43.7545Z" fill="#263238"/>
<path d="M45.405 103.184C45.4207 103.184 45.2216 104.538 45.2216 104.538H41.2549L41.1475 103.33L45.405 103.184Z" fill="#2C6BDB"/>
</svg>
