<svg width="31" height="32" viewBox="0 0 31 32" fill="none" xmlns="http://www.w3.org/2000/svg">
<path d="M12.3497 31.6495L11.7132 26.5645C11.1517 26.3945 10.5451 26.1284 9.89332 25.7662C9.2404 25.4028 8.68478 25.0136 8.22645 24.5987L3.53705 26.5943L0.257812 20.8799L4.3107 17.8239C4.25913 17.5051 4.21634 17.1769 4.18235 16.8393C4.14952 16.5029 4.13311 16.1758 4.13311 15.8581C4.13311 15.5627 4.14952 15.2521 4.18235 14.9262C4.21517 14.6004 4.25795 14.2335 4.3107 13.8255L0.257812 10.7696L3.53705 5.12194L8.19304 7.08597C8.71818 6.64873 9.2867 6.25429 9.89859 5.90263C10.5081 5.55097 11.1019 5.27901 11.6798 5.08677L12.3479 0H18.9081L19.5446 5.12018C20.2187 5.35579 20.8141 5.62716 21.3311 5.93428C21.8492 6.24139 22.382 6.6247 22.9294 7.08421L27.7208 5.12194L31 10.7696L26.8117 13.9275C26.9078 14.2909 26.9618 14.6238 26.9735 14.9262C26.9852 15.231 26.9911 15.5305 26.9911 15.8247C26.9911 16.0979 26.9793 16.3856 26.9559 16.6881C26.9336 16.9917 26.8821 17.3586 26.8012 17.7888L30.9226 20.8799L27.6434 26.5943L22.9294 24.5653C22.382 25.0248 21.831 25.4192 21.2766 25.7486C20.721 26.078 20.1436 26.3382 19.5446 26.5293L18.9081 31.6495H12.3497ZM13.8706 29.8912H17.3098L17.9587 25.1297C18.8448 24.8952 19.6419 24.5735 20.35 24.1644C21.0591 23.7553 21.7812 23.195 22.5162 22.4834L26.9032 24.3525L28.6509 21.3634L24.802 18.4727C24.9485 17.9722 25.0458 17.5115 25.0939 17.0907C25.1407 16.6711 25.1642 16.2491 25.1642 15.8247C25.1642 15.3793 25.1407 14.9573 25.0939 14.5588C25.047 14.1602 24.9497 13.7224 24.802 13.2453L28.7177 10.2861L26.97 7.29696L22.4828 9.17835C21.9506 8.59342 21.2514 8.046 20.3851 7.53609C19.5189 7.02618 18.6983 6.68742 17.9235 6.51979L17.3872 1.7583H13.8812L13.3326 6.48462C12.4464 6.67452 11.6317 6.97929 10.8885 7.39894C10.1465 7.82094 9.40803 8.39883 8.67305 9.13263L4.28785 7.29696L2.54009 10.2861L6.35385 13.1345C6.20733 13.5284 6.10476 13.9562 6.04615 14.4181C5.98754 14.8799 5.95823 15.3605 5.95823 15.8599C5.95823 16.3053 5.98754 16.7478 6.04615 17.1874C6.10476 17.627 6.19619 18.0548 6.32044 18.471L2.54009 21.3634L4.28785 24.3525L8.63965 22.5063C9.3289 23.2026 10.0451 23.7611 10.7883 24.182C11.5315 24.6028 12.3684 24.9304 13.2992 25.1648L13.8706 29.8912ZM15.5814 20.2205C16.8076 20.2205 17.8467 19.7944 18.6989 18.9422C19.5511 18.09 19.9772 17.0509 19.9772 15.8247C19.9772 14.5986 19.5511 13.5595 18.6989 12.7073C17.8467 11.8551 16.8076 11.429 15.5814 11.429C14.3483 11.429 13.3074 11.8551 12.4587 12.7073C11.61 13.5595 11.1857 14.5986 11.1857 15.8247C11.1857 17.0509 11.61 18.09 12.4587 18.9422C13.3074 19.7944 14.3483 20.2205 15.5814 20.2205Z" fill="black"/>
</svg>
