<svg width="17" height="17" viewBox="0 0 17 17" fill="none" xmlns="http://www.w3.org/2000/svg">
<path d="M4.66032 11.3827C4.32408 13.0054 6.12819 14.2168 7.50379 13.2927C8.13021 12.8719 8.94985 12.8742 9.5737 13.2988C10.9455 14.2325 12.7572 13.0245 12.4227 11.3991L12.3136 10.8686C12.1707 10.1742 12.3936 9.45507 12.9042 8.96326L13.1805 8.69717C14.4145 7.50861 13.6466 5.41571 11.9417 5.24664C11.2189 5.17496 10.5846 4.69491 10.3248 4.01656C9.69981 2.3844 7.38324 2.3594 6.7542 3.99001C6.49491 4.66215 5.87917 5.13095 5.16227 5.20204L5.09314 5.20889C3.38301 5.37847 2.65153 7.46964 3.88308 8.66822L4.18585 8.96288C4.69171 9.4552 4.91125 10.1717 4.76802 10.8629L4.66032 11.3827ZM7.01206 15.621C4.97062 16.9929 2.29504 15.1904 2.79952 12.7831L2.95963 12.0191C3.17545 10.9893 2.84686 9.92079 2.08965 9.19019L1.67667 8.79172C-0.1538 7.02558 0.927817 3.92573 3.45968 3.68171L3.56709 3.67136C4.62833 3.56907 5.53997 2.87392 5.91968 1.87767C6.83749 -0.530421 10.2445 -0.531403 11.1624 1.87663C11.5421 2.87262 12.4535 3.56737 13.5145 3.66965L13.6221 3.68002C16.1537 3.92406 17.2354 7.02349 15.4053 8.78969L14.9923 9.18826C14.2351 9.91901 13.9066 10.9876 14.1224 12.0175L14.2827 12.7825C14.7872 15.1897 12.1118 16.9923 10.0701 15.6207C9.1454 14.9995 7.93669 14.9996 7.01206 15.621Z" fill="#0AA419" fill-opacity="0.75"/>
</svg>
