<svg width="24" height="24" viewBox="0 0 24 24" fill="none" xmlns="http://www.w3.org/2000/svg">
<g clip-path="url(#clip0_947_433)">
<path d="M2.66667 3.33203C1.95942 3.33203 1.28115 3.61298 0.781049 4.11308C0.280952 4.61318 0 5.29145 0 5.9987L0 17.9987C0 18.7059 0.280952 19.3842 0.781049 19.8843C1.28115 20.3844 1.95942 20.6654 2.66667 20.6654H8V3.33203H2.66667Z" fill="#009A49"/>
<path d="M8 3.33203H16V20.6654H8V3.33203Z" fill="#EEEEEE"/>
<path d="M21.3333 3.33203H16V20.6654H21.3333C22.0406 20.6654 22.7189 20.3844 23.219 19.8843C23.719 19.3842 24 18.7059 24 17.9987V5.9987C24 5.29145 23.719 4.61318 23.219 4.11308C22.7189 3.61298 22.0406 3.33203 21.3333 3.33203Z" fill="#009A49"/>
</g>
<defs>
<clipPath id="clip0_947_433">
<rect width="24" height="24" fill="white"/>
</clipPath>
</defs>
</svg>
