<svg width="539" height="292" viewBox="0 0 539 292" fill="none" xmlns="http://www.w3.org/2000/svg">
<g clip-path="url(#clip0_1200_397)">
<path d="M412.671 288.698C405.771 283.415 401.579 275.068 402.678 266.942C403.777 258.817 410.586 251.347 419.417 249.622C428.249 247.896 438.316 252.673 440.998 260.49C442.474 245.418 444.175 229.716 453.018 216.881C461.025 205.26 474.893 196.944 489.924 195.457C504.954 193.969 520.778 199.588 530.152 210.337C539.526 221.087 541.821 236.714 535.256 249.056C530.419 258.147 521.509 264.913 512.174 270.418C482.007 288.055 445.826 295.227 410.288 290.615L412.671 288.698Z" fill="#F2F2F2"/>
<path d="M515.288 199.9C502.887 209.053 491.509 219.29 481.321 230.463C465.377 247.889 452.474 267.426 443.063 288.395C442.374 289.924 445.116 290.59 445.797 289.078C461.195 254.999 485.776 224.963 517.293 201.716C518.708 200.672 516.692 198.864 515.288 199.9Z" fill="white"/>
<path d="M173.513 287.263C182.991 280.006 188.748 268.541 187.238 257.381C185.728 246.221 176.377 235.961 164.247 233.591C152.117 231.221 138.29 237.781 134.606 248.518C132.578 227.818 130.242 206.25 118.096 188.622C107.098 172.66 88.0505 161.238 67.4067 159.195C46.7629 157.152 25.0277 164.869 12.1529 179.634C-0.721824 194.398 -3.87415 215.863 5.14299 232.813C11.7856 245.301 24.0237 254.594 36.8461 262.154C77.754 286.274 128.5 296.334 176.786 289.895" fill="#F2F2F2"/>
<path d="M32.5675 165.296C49.6012 177.868 65.2278 191.929 79.2213 207.275C93.217 222.605 105.539 239.13 116.013 256.616C121.868 266.425 127.128 276.516 131.769 286.845C132.715 288.946 128.95 289.86 128.014 287.783C119.794 269.574 109.624 252.138 97.6508 235.727C85.7355 219.375 72.0978 204.109 56.9292 190.143C48.3499 182.248 39.2979 174.786 29.8143 167.791C27.8704 166.357 30.6397 163.874 32.5675 165.296Z" fill="white"/>
<path d="M386.904 291.361H160.771V81.1207C160.771 36.3905 200.931 0 250.295 0H297.38C346.744 0 386.904 36.3905 386.904 81.1207V291.361Z" fill="#F2F2F2"/>
<path d="M339.817 291.361H160.77V81.1205C160.72 63.9809 166.71 47.2745 177.866 33.4337C178.278 32.9257 178.688 32.4244 179.111 31.9285C184.507 25.5152 190.929 19.8671 198.164 15.1707C198.573 14.9012 198.983 14.6364 199.4 14.3717C205.454 10.5752 212.003 7.4717 218.898 5.13175C219.308 4.99113 219.724 4.85023 220.141 4.71509C226.377 2.69862 232.841 1.31735 239.414 0.596785C239.822 0.546344 240.24 0.506873 240.658 0.467402C247.064 -0.153197 253.524 -0.153197 259.93 0.467402C260.347 0.506873 260.765 0.546339 261.177 0.597324C267.749 1.31794 274.211 2.69904 280.445 4.71512C280.862 4.85026 281.279 4.99115 281.69 5.13205C288.5 7.44248 294.972 10.4997 300.962 14.2354C301.378 14.4945 301.794 14.7593 302.205 15.0241C306.26 17.6473 310.07 20.5697 313.594 23.7615C316.42 26.3217 319.054 29.0507 321.477 31.9302C321.899 32.4244 322.309 32.9257 322.72 33.4329C333.876 47.2738 339.866 63.9805 339.817 81.1205V291.361Z" fill="#CCCCCC"/>
<path d="M325.258 197.328C330.733 197.328 335.171 193.306 335.171 188.346C335.171 183.385 330.733 179.363 325.258 179.363C319.784 179.363 315.346 183.385 315.346 188.346C315.346 193.306 319.784 197.328 325.258 197.328Z" fill="#488A4C"/>
<path d="M368.377 285.065H360.782L357.168 258.518L368.379 258.518L368.377 285.065Z" fill="#FFB8B8"/>
<path d="M355.358 283.098H370.006V291.455H346.135C346.135 290.357 346.373 289.271 346.837 288.257C347.3 287.243 347.98 286.322 348.836 285.545C349.693 284.769 350.709 284.154 351.828 283.734C352.947 283.314 354.147 283.098 355.358 283.098Z" fill="#2F2E41"/>
<path d="M406.17 285.065H398.575L394.961 258.518L406.172 258.518L406.17 285.065Z" fill="#FFB8B8"/>
<path d="M393.149 283.098H407.797V291.455H383.926C383.926 290.357 384.164 289.271 384.628 288.257C385.091 287.243 385.771 286.322 386.627 285.545C387.484 284.769 388.5 284.154 389.619 283.734C390.738 283.314 391.938 283.098 393.149 283.098Z" fill="#2F2E41"/>
<path d="M330.276 190.125C329.729 189.396 329.366 188.566 329.211 187.696C329.057 186.825 329.115 185.935 329.381 185.087C329.648 184.239 330.116 183.454 330.753 182.788C331.391 182.122 332.182 181.59 333.07 181.231L358.89 116.746L371.595 123.029L342.114 184.653C342.681 186.045 342.665 187.578 342.069 188.961C341.472 190.343 340.337 191.479 338.877 192.154C337.418 192.828 335.736 192.994 334.151 192.62C332.566 192.247 331.187 191.359 330.276 190.125Z" fill="#FFB8B8"/>
<path d="M402.289 202.242C401.445 201.803 400.717 201.202 400.157 200.481C399.597 199.76 399.218 198.937 399.047 198.069C398.877 197.201 398.918 196.31 399.168 195.458C399.419 194.606 399.872 193.814 400.497 193.138L392.498 124.924L406.957 125.522L410.281 192.62C411.465 193.646 412.192 195.03 412.325 196.51C412.457 197.989 411.987 199.461 411.001 200.647C410.016 201.833 408.585 202.651 406.98 202.945C405.374 203.238 403.705 202.988 402.289 202.242Z" fill="#FFB8B8"/>
<path d="M379.224 104.801C387.628 104.801 394.441 98.628 394.441 91.0129C394.441 83.3978 387.628 77.2246 379.224 77.2246C370.82 77.2246 364.008 83.3978 364.008 91.0129C364.008 98.628 370.82 104.801 379.224 104.801Z" fill="#FFB8B8"/>
<path d="M402.193 186.728H356.318L356.374 186.405C356.456 185.921 364.55 137.879 358.58 122.162C357.981 120.617 358.034 118.927 358.728 117.415C359.422 115.904 360.709 114.678 362.34 113.975C370.873 110.334 387.251 105.851 401.074 116.731C403.108 118.358 404.697 120.392 405.714 122.672C406.731 124.951 407.149 127.414 406.935 129.865L402.193 186.728Z" fill="#488A4C"/>
<path d="M365.128 144.98L344.475 141.183L354.156 120.395C354.735 118.381 356.172 116.658 358.151 115.604C360.131 114.549 362.491 114.249 364.715 114.769C366.938 115.289 368.843 116.587 370.012 118.378C371.18 120.169 371.517 122.307 370.949 124.323L365.128 144.98Z" fill="#488A4C"/>
<path d="M391.58 152.028L390.338 126.238C389.396 121.389 392.459 116.806 397.17 116.057C401.882 115.31 406.483 118.673 407.428 123.557L412.096 147.656L391.58 152.028Z" fill="#488A4C"/>
<path d="M400.666 183.641C408.047 209.115 408.853 241.503 406.861 276.831L396.949 275.708L378.982 208.342L369.069 276.831L357.917 276.27C354.586 239.201 351.342 207.379 356.678 186.448L400.666 183.641Z" fill="#2F2E41"/>
<path d="M389.25 101.67C386.412 104.41 381.14 102.939 380.77 99.1958C380.741 98.9051 380.743 98.6127 380.776 98.3224C380.967 96.6643 382.024 95.1589 381.771 93.4082C381.714 92.9725 381.535 92.5573 381.251 92.2019C378.988 89.4571 373.678 93.4296 371.543 90.9448C370.234 89.4211 371.773 87.0222 370.769 85.3193C369.443 83.0718 365.516 84.1805 363.053 82.9496C360.313 81.5801 360.477 77.7707 362.28 75.4536C364.48 72.6278 368.337 71.1199 372.146 70.9026C375.954 70.6853 379.737 71.6182 383.293 72.8739C387.333 74.3006 391.339 76.2723 393.825 79.4913C396.849 83.406 397.14 88.6688 395.627 93.2463C394.708 96.0308 391.568 99.4324 389.25 101.67Z" fill="#2F2E41"/>
<path d="M520.402 291.722H62.9992C62.8039 291.721 62.6169 291.65 62.479 291.525C62.3411 291.4 62.2637 291.23 62.2637 291.053C62.2637 290.876 62.3411 290.707 62.479 290.581C62.6169 290.456 62.8039 290.385 62.9992 290.385H520.402C520.597 290.385 520.784 290.456 520.922 290.581C521.06 290.707 521.138 290.876 521.138 291.053C521.138 291.23 521.06 291.4 520.922 291.525C520.784 291.65 520.597 291.721 520.402 291.722Z" fill="#3F3D56"/>
<path d="M290.565 230.451H210.025C208.964 230.456 207.945 230.079 207.19 229.404C206.435 228.729 206.006 227.81 205.998 226.849V63.9511C206.006 62.99 206.435 62.0711 207.19 61.3959C207.945 60.7207 208.964 60.3445 210.025 60.3497H290.565C291.626 60.3445 292.646 60.7207 293.401 61.3959C294.156 62.0711 294.584 62.99 294.592 63.9511V226.849C294.584 227.81 294.156 228.729 293.401 229.404C292.646 230.079 291.626 230.456 290.565 230.451Z" fill="white"/>
<path d="M294.592 113.059H205.998V114.181H294.592V113.059Z" fill="#CCCCCC"/>
<path d="M294.901 177.119H206.307V178.242H294.901V177.119Z" fill="#CCCCCC"/>
<path d="M235.116 60.3496H233.877V231.012H235.116V60.3496Z" fill="#CCCCCC"/>
<path d="M266.093 60.3496H264.854V231.012H266.093V60.3496Z" fill="#CCCCCC"/>
</g>
<defs>
<clipPath id="clip0_1200_397">
<rect width="539" height="292" fill="white"/>
</clipPath>
</defs>
</svg>
