<svg width="419" height="423" viewBox="0 0 419 423" fill="none" xmlns="http://www.w3.org/2000/svg">
<g clip-path="url(#clip0_1200_423)">
<path d="M209.5 422.999C325.204 422.999 419 417.484 419 410.679C419 403.875 325.204 398.359 209.5 398.359C93.7963 398.359 0 403.875 0 410.679C0 417.484 93.7963 422.999 209.5 422.999Z" fill="#E6E6E6"/>
<path d="M237.495 97.5934H235.241V35.7772C235.241 26.2885 231.476 17.1884 224.775 10.4789C218.073 3.76938 208.984 0 199.506 0H68.6959C59.2184 0 50.1291 3.76938 43.4275 10.4789C36.7259 17.1884 32.9609 26.2885 32.9609 35.7772V374.903C32.9609 384.392 36.7259 393.492 43.4275 400.202C50.1291 406.911 59.2184 410.681 68.6959 410.681H199.506C208.984 410.681 218.073 406.911 224.775 400.202C231.476 393.492 235.241 384.392 235.241 374.903V141.595H237.495V97.5934Z" fill="#3F3D56"/>
<path d="M227.635 36.0276V374.654C227.635 381.74 224.824 388.536 219.819 393.547C214.814 398.558 208.026 401.373 200.948 401.373H69.51C62.4324 401.373 55.6447 398.558 50.64 393.547C45.6353 388.536 42.8236 381.741 42.8232 374.655V36.0276C42.8234 28.9413 45.6352 22.1453 50.64 17.1346C55.6448 12.1238 62.4328 9.30876 69.5107 9.30859H85.456C84.6724 11.2362 84.374 13.327 84.5869 15.3972C84.7999 17.4674 85.5177 19.4534 86.6773 21.1807C87.8368 22.9079 89.4025 24.3234 91.2367 25.3026C93.0709 26.2818 95.1174 26.7947 97.196 26.7962H172.136C174.215 26.7948 176.261 26.2819 178.096 25.3028C179.93 24.3236 181.496 22.9082 182.655 21.1809C183.815 19.4537 184.533 17.4676 184.746 15.3974C184.959 13.3271 184.66 11.2362 183.877 9.30859H200.948C208.026 9.30876 214.814 12.1238 219.819 17.1346C224.824 22.1453 227.635 28.9413 227.635 36.0276Z" fill="white"/>
<path d="M103.542 292.409H100.777L101.7 238.352H102.623L103.542 292.409Z" fill="#E6E6E6"/>
<path d="M105.845 204.319L110.307 197.416C108.983 193.756 107.455 190.175 105.729 186.687L102.844 189.021L105.129 185.486C102.951 181.196 101.238 178.492 101.238 178.492C101.238 178.492 92.2909 192.609 89.3 207.558L95.0258 216.417L88.6885 211.292C88.4627 213.033 88.3466 214.787 88.3408 216.542C88.3408 234.246 94.1158 248.597 101.239 248.597C108.363 248.597 114.138 234.244 114.138 216.542C114.138 211.055 112.898 205.313 111.185 200.001L105.845 204.319Z" fill="#CCCCCC"/>
<path d="M175.503 292.409H172.738L173.661 238.352H174.584L175.503 292.409Z" fill="#E6E6E6"/>
<path d="M177.806 204.319L182.268 197.416C180.945 193.756 179.417 190.175 177.69 186.687L174.805 189.021L177.09 185.486C174.912 181.196 173.2 178.492 173.2 178.492C173.2 178.492 164.251 192.61 161.263 207.558L166.985 216.416L160.647 211.29C160.422 213.032 160.306 214.785 160.3 216.541C160.3 234.244 166.075 248.595 173.198 248.595C180.322 248.595 186.097 234.243 186.097 216.541C186.097 211.053 184.857 205.312 183.144 200L177.806 204.319Z" fill="#CCCCCC"/>
<path d="M101.438 113.22C115.466 113.22 126.837 101.835 126.837 87.7917C126.837 73.748 115.466 62.3633 101.438 62.3633C87.4113 62.3633 76.04 73.748 76.04 87.7917C76.04 101.835 87.4113 113.22 101.438 113.22Z" fill="#E6E6E6"/>
<path d="M136.617 284.54H130.918L132.818 173.078H134.717L136.617 284.54Z" fill="#E6E6E6"/>
<path d="M141.366 102.902L150.566 88.6689C147.838 81.1234 144.686 73.7379 141.127 66.5478L135.178 71.3581L139.889 64.0696C135.397 55.2226 131.867 49.6484 131.867 49.6484C131.867 49.6484 113.417 78.7581 107.252 109.579L119.055 127.846L105.985 117.278C105.52 120.868 105.281 124.484 105.269 128.105C105.269 164.607 117.176 194.198 131.864 194.198C146.553 194.198 158.46 164.607 158.46 128.105C158.46 116.789 155.903 104.95 152.376 93.9979L141.366 102.902Z" fill="#CCCCCC"/>
<path d="M227.635 300.607V376.38C227.635 391.749 215.687 404.207 200.947 404.208H69.5093C54.7705 404.208 42.8219 391.749 42.8213 376.38V307.994C65.6097 280.101 98.5581 263.43 133.674 262.026C168.789 260.622 202.865 274.614 227.635 300.607Z" fill="#E6E6E6"/>
<path opacity="0.2" d="M135.373 375.353C156.851 375.353 174.263 357.92 174.263 336.417C174.263 314.913 156.851 297.48 135.373 297.48C113.894 297.48 96.4824 314.913 96.4824 336.417C96.4824 357.92 113.894 375.353 135.373 375.353Z" fill="#488A4C"/>
<path d="M135.372 367.765C152.666 367.765 166.686 353.729 166.686 336.414C166.686 319.099 152.666 305.062 135.372 305.062C118.077 305.062 104.058 319.099 104.058 336.414C104.058 353.729 118.077 367.765 135.372 367.765Z" fill="#488A4C"/>
<path d="M131.72 349.819L120.684 335.614L127.101 330.616L132.326 337.342L149.978 318.688L155.881 324.286L131.72 349.819Z" fill="white"/>
<path d="M301.782 287.652C312.995 287.652 322.085 278.551 322.085 267.324C322.085 256.097 312.995 246.996 301.782 246.996C290.568 246.996 281.478 256.097 281.478 267.324C281.478 278.551 290.568 287.652 301.782 287.652Z" fill="#2F2E41"/>
<path d="M310.01 381.443L311.574 388.831L340.781 386.306L338.473 375.402L310.01 381.443Z" fill="#FFB8B8"/>
<path d="M307.735 404.531L302.821 381.312L311.781 379.411L314.797 393.659C315.046 394.837 315.062 396.053 314.842 397.237C314.622 398.421 314.171 399.55 313.515 400.559C312.859 401.569 312.012 402.439 311.02 403.121C310.028 403.802 308.912 404.282 307.735 404.531Z" fill="#2F2E41"/>
<path d="M291.712 381.049L288.425 387.847L260.676 378.387L265.528 368.355L291.712 381.049Z" fill="#FFB8B8"/>
<path d="M284.14 391.766L290.48 378.657L298.724 382.654L288.392 404.016C286.206 402.956 284.53 401.07 283.732 398.773C282.935 396.476 283.081 393.955 284.14 391.766Z" fill="#2F2E41"/>
<path d="M237.039 367.624C237.989 367.801 238.966 367.768 239.901 367.526C240.837 367.284 241.708 366.84 242.454 366.224C243.199 365.609 243.801 364.837 244.216 363.964C244.632 363.09 244.851 362.136 244.858 361.169L290.618 318.929L279.254 310.117L237.824 354.433C236.199 354.528 234.666 355.216 233.514 356.367C232.362 357.519 231.673 359.053 231.576 360.68C231.479 362.306 231.982 363.911 232.989 365.191C233.996 366.471 235.437 367.337 237.039 367.624L237.039 367.624Z" fill="#FFB8B8"/>
<path d="M299.234 288.568C307.58 288.568 314.345 281.794 314.345 273.438C314.345 265.082 307.58 258.309 299.234 258.309C290.888 258.309 284.122 265.082 284.122 273.438C284.122 281.794 290.888 288.568 299.234 288.568Z" fill="#FFB8B8"/>
<path d="M312.795 362.376C302.195 362.376 289.428 360.141 281.552 350.994L281.375 350.788L281.56 350.586C281.621 350.52 287.413 343.891 281.628 332.069L273.672 334.518L265.754 324.053L270.141 310.878L288.093 296.402C290.664 294.338 293.796 293.095 297.081 292.834C303.027 292.258 308.82 290.607 314.176 287.959C316.628 286.767 319.327 286.176 322.052 286.234L322.405 286.244C323.234 286.268 324.049 286.459 324.801 286.807C325.554 287.156 326.228 287.653 326.783 288.27C327.337 288.887 327.761 289.61 328.028 290.396C328.295 291.181 328.4 292.013 328.337 292.84C327.119 308.629 324.97 346.767 331.285 359.899L331.448 360.238L331.084 360.331C325.082 361.683 318.949 362.368 312.796 362.375L312.795 362.376Z" fill="#488A4C"/>
<path d="M283.631 350.792C283.631 350.792 243.638 347.096 239.331 358.8C235.025 370.504 239.947 376.048 247.33 378.512C254.713 380.976 272.556 384.056 272.556 384.056L280.555 374.2L301.474 375.432C301.474 375.432 324.783 388.967 331.228 403.444C332.611 406.577 334.816 409.275 337.609 411.253C340.402 413.231 343.677 414.415 347.088 414.677C352.257 415.037 356.848 413.084 356.848 404.999C356.848 386.519 331.007 360.031 331.007 360.031L283.631 350.792Z" fill="#2F2E41"/>
<path d="M253.176 368.965C253.176 368.965 263.635 365.885 280.248 373.893L253.176 368.965Z" fill="#2F2E41"/>
<path d="M284.158 263.791C290.06 267.398 296.713 269.593 303.601 270.205L301.551 267.747C303.044 268.299 304.614 268.611 306.203 268.671C306.999 268.694 307.79 268.53 308.511 268.192C309.232 267.854 309.864 267.351 310.356 266.725C310.759 266.074 310.997 265.335 311.053 264.572C311.108 263.809 310.978 263.044 310.674 262.342C310.049 260.941 309.077 259.724 307.85 258.807C305.675 257.084 303.108 255.927 300.378 255.438C297.648 254.95 294.84 255.145 292.203 256.007C290.394 256.547 288.773 257.588 287.527 259.008C286.915 259.723 286.49 260.58 286.29 261.5C286.09 262.42 286.121 263.376 286.381 264.282" fill="#2F2E41"/>
<path d="M301.673 251.698C304.358 245.456 308.377 239.879 313.447 235.36C316.703 232.464 320.506 229.974 324.797 229.222C329.087 228.471 333.923 229.758 336.555 233.233C338.708 236.075 339.11 239.882 338.873 243.44C338.636 246.998 337.842 250.524 337.917 254.087C337.995 257.724 338.979 261.285 340.78 264.446C342.58 267.606 345.141 270.266 348.229 272.185C351.317 274.103 354.835 275.219 358.463 275.431C362.091 275.643 365.715 274.945 369.005 273.399C365.3 275.45 362.413 278.696 358.976 281.165C355.539 283.634 351 285.33 347.094 283.697C342.961 281.972 341.064 277.279 339.584 273.046L332.981 254.172C331.859 250.964 330.68 247.66 328.39 245.151C326.099 242.642 322.382 241.112 319.229 242.373C316.839 243.329 315.283 245.612 313.919 247.794C312.555 249.976 311.115 252.303 308.812 253.448C306.51 254.594 303.09 253.889 302.338 251.425" fill="#2F2E41"/>
<path d="M306.858 362.427C306.597 362.427 306.337 362.413 306.078 362.384C304.358 362.19 302.778 361.344 301.662 360.02C300.546 358.696 299.979 356.994 300.077 355.265C300.176 353.535 300.933 351.909 302.192 350.72C303.451 349.532 305.117 348.871 306.847 348.874C307.149 348.876 307.451 348.898 307.749 348.942L328.409 326.923L326.252 319.725L337.081 314.863L340.117 322.292C341.135 324.809 341.315 327.587 340.631 330.214C339.947 332.841 338.435 335.177 336.319 336.876L313.578 354.986C313.602 355.207 313.615 355.429 313.615 355.651C313.615 356.604 313.414 357.547 313.026 358.417C312.637 359.287 312.07 360.066 311.361 360.702C310.126 361.818 308.521 362.433 306.858 362.427Z" fill="#FFB8B8"/>
<path d="M323.009 289.193C323.725 288.875 324.498 288.704 325.282 288.692C326.066 288.68 326.844 288.827 327.57 289.123C328.295 289.42 328.954 289.861 329.505 290.418C330.057 290.976 330.49 291.64 330.778 292.37L341.467 319.377L324.855 330.465L323.009 289.193Z" fill="#488A4C"/>
</g>
<defs>
<clipPath id="clip0_1200_423">
<rect width="419" height="423" fill="white"/>
</clipPath>
</defs>
</svg>
