<svg width="100" height="100" viewBox="0 0 100 100" fill="none" xmlns="http://www.w3.org/2000/svg">
<g clip-path="url(#clip0_1215_783)">
<path d="M22.7564 51.2757C26.0564 51.2757 28.7315 47.8902 28.7315 43.714C28.7315 39.5378 26.0564 36.1523 22.7564 36.1523C19.4564 36.1523 16.7812 39.5378 16.7812 43.714C16.7812 47.8902 19.4564 51.2757 22.7564 51.2757Z" fill="#FF6584"/>
<path d="M59.7733 52.2754C59.7733 67.1626 52.78 72.3606 44.1533 72.3606C35.5266 72.3606 28.5332 67.1626 28.5332 52.2754C28.5332 37.3881 44.1533 18.4492 44.1533 18.4492C44.1533 18.4492 59.7733 37.3881 59.7733 52.2754Z" fill="#00BFA6" fill-opacity="0.75"/>
<path d="M43.5846 70.0833L43.7445 57.624L50.4022 42.2101L43.7696 55.6696L43.8415 50.0673L48.4299 38.9156L43.8605 48.5849L43.9899 38.5091L48.9033 29.6308L44.0102 36.9246L44.091 18.4492L43.5832 42.9073L43.625 41.8984L38.6294 32.2217L43.5449 43.8352L43.0794 55.0882L43.0655 54.7895L37.3066 44.6062L43.0481 55.8446L42.9898 57.252L42.9794 57.2731L42.9842 57.3886L41.8033 85.9384H43.3811L43.5704 71.1919L49.2977 59.9809L43.5846 70.0833Z" fill="#3F3D56"/>
<path d="M74.8446 66.3379C74.8446 81.2251 67.8513 86.4231 59.2246 86.4231C50.5978 86.4231 43.6045 81.2251 43.6045 66.3379C43.6045 51.4506 59.2246 32.5117 59.2246 32.5117C59.2246 32.5117 74.8446 51.4506 74.8446 66.3379Z" fill="#3F3D56"/>
<path d="M58.6559 84.1458L58.8159 71.6866L65.4735 56.2727L58.841 69.7321L58.9128 64.13L63.5013 52.9782L58.9318 62.6474V62.6475L59.0612 52.5716L63.9746 43.6934L59.0815 50.9873L59.1624 32.5117L58.6545 56.9699L58.6963 55.961L53.7007 46.2843L58.6162 57.8978L58.1507 69.1507L58.1368 68.852L52.3779 58.6688L58.1194 69.9073L58.0612 71.3146L58.0507 71.3357L58.0555 71.4513L56.8746 100.001H58.4523L58.6417 85.2544L64.369 74.0435L58.6559 84.1458Z" fill="#F2F2F2"/>
<path d="M45.4725 66.3379C45.4725 81.2251 38.4792 86.4231 29.8525 86.4231C21.2258 86.4231 14.2324 81.2251 14.2324 66.3379C14.2324 51.4506 29.8525 32.5117 29.8525 32.5117C29.8525 32.5117 45.4725 51.4506 45.4725 66.3379Z" fill="#3F3D56"/>
<path d="M29.2838 84.1458L29.4438 71.6866L36.1015 56.2727L29.4689 69.7321L29.5408 64.13L34.1292 52.9782L29.5599 62.6474V62.6475L29.6892 52.5716L34.6026 43.6934L29.7095 50.9873L29.7903 32.5117L29.2825 56.9699L29.3242 55.961L24.3287 46.2843L29.2441 57.8978L28.7786 69.1507L28.7648 68.852L23.0059 58.6688L28.7473 69.9073L28.6891 71.3146L28.6787 71.3357L28.6835 71.4513L27.5025 100.001H29.0803L29.2696 85.2544L34.9971 74.0435L29.2838 84.1458Z" fill="#F2F2F2"/>
<path d="M44.5514 99.8756C37.0806 99.8756 29.8409 96.5974 24.0659 90.5996C18.2908 84.6018 14.3378 76.2554 12.8803 66.9826C11.4228 57.7098 12.551 48.0844 16.0727 39.7463C19.5944 31.4082 25.2917 24.8734 32.1938 21.2553C39.0959 17.6372 46.7758 17.1597 53.9249 19.9042C61.074 22.6487 67.25 28.4453 71.4006 36.3064C75.5512 44.1675 77.4195 53.6066 76.6872 63.0156C75.955 72.4245 72.6674 81.221 67.3848 87.9063C64.3932 91.7129 60.8348 94.7308 56.9154 96.7854C52.9961 98.8399 48.7936 99.8902 44.5514 99.8756ZM44.5514 18.4567C26.8818 18.4567 12.5065 36.6488 12.5065 59.0101C12.5065 81.3714 26.8818 99.5636 44.5514 99.5636C62.2209 99.5636 76.5962 81.3714 76.5962 59.0101C76.5962 36.6488 62.2209 18.4567 44.5514 18.4567Z" fill="#2F2E41"/>
<path d="M70.9555 82.3242V99.7264H18.1514V82.3242L44.5534 64.9219L44.6084 64.958L70.9555 82.3242Z" fill="#F2F2F2"/>
<path opacity="0.1" d="M70.9555 82.3232V99.7254H44.6084V64.957L70.9555 82.3232Z" fill="black"/>
<path d="M42.2984 75.5702L40.3184 76.5163V72.7859L42.2984 71.6875V75.5702Z" fill="#3F3D56"/>
<path d="M20.4071 86.0136L19.7471 86.3295V84.0646L20.4071 83.6953V86.0136Z" fill="#3F3D56"/>
<path d="M22.7164 85.0394L21.9463 85.4047V82.9512L22.7164 82.5234V85.0394Z" fill="#3F3D56"/>
<path d="M25.2473 83.7841L24.3672 84.203V81.5566L25.2473 81.0664V83.7841Z" fill="#3F3D56"/>
<path d="M28.3277 82.2524L27.2275 82.7778V80.0249L28.3277 79.4141V82.2524Z" fill="#3F3D56"/>
<path d="M32.0671 80.4432L30.7471 81.0746V78.0765L32.0671 77.3438V80.4432Z" fill="#3F3D56"/>
<path d="M36.5782 78.355L35.0381 79.0893V75.7098L36.5782 74.8555V78.355Z" fill="#3F3D56"/>
<path d="M20.4071 90.6063L19.7471 90.8163V88.5181L20.4071 88.2539V90.6063Z" fill="#3F3D56"/>
<path d="M22.7164 89.9097L21.9463 90.1537V87.6822L22.7164 87.375V89.9097Z" fill="#3F3D56"/>
<path d="M25.2473 89.0773L24.3672 89.3572V86.7107L25.2473 86.3594V89.0773Z" fill="#3F3D56"/>
<path d="M28.3277 88.1003L27.2275 88.45V85.5944L28.3277 85.1562V88.1003Z" fill="#3F3D56"/>
<path d="M32.0671 86.8464L30.7471 87.268V84.2013L32.0671 83.6758V86.8464Z" fill="#3F3D56"/>
<path d="M36.5779 85.4557L34.9277 85.9809V82.5321L36.5779 81.875V85.4557Z" fill="#3F3D56"/>
<path d="M42.2984 83.6444L40.3184 84.2743V80.4423L42.2984 79.6562V83.6444Z" fill="#3F3D56"/>
<path d="M42.2984 91.5833L40.3184 91.9023V88.1029L42.2984 87.6289V91.5833Z" fill="#3F3D56"/>
<path d="M20.4071 95.0599L19.7471 95.1673V92.9717L20.4071 92.8125V95.0599Z" fill="#3F3D56"/>
<path d="M22.7164 94.7854L21.9463 94.9082V92.5579L22.7164 92.375V94.7854Z" fill="#3F3D56"/>
<path d="M25.2473 94.3665L24.3672 94.5075V91.8607L25.2473 91.6484V94.3665Z" fill="#3F3D56"/>
<path d="M28.3277 93.8091L27.2275 93.987V91.164L28.3277 90.8984V93.8091Z" fill="#3F3D56"/>
<path d="M32.0671 93.2534L30.7471 93.4653V90.3299L32.0671 90.0117V93.2534Z" fill="#3F3D56"/>
<path d="M36.5779 92.5555L34.9277 92.8194V89.3534L36.5779 88.957V92.5555Z" fill="#3F3D56"/>
<path d="M68.8105 86.0136L69.4707 86.3295V84.0646L68.8105 83.6953V86.0136Z" fill="#3F3D56"/>
<path d="M66.5 85.0394L67.2701 85.4047V82.9512L66.5 82.5234V85.0394Z" fill="#3F3D56"/>
<path d="M63.9697 83.7841L64.8498 84.203V81.5566L63.9697 81.0664V83.7841Z" fill="#3F3D56"/>
<path d="M60.8896 82.2524L61.9898 82.7778V80.0249L60.8896 79.4141V82.2524Z" fill="#3F3D56"/>
<path d="M57.1494 80.4432L58.4695 81.0746V78.0765L57.1494 77.3438V80.4432Z" fill="#3F3D56"/>
<path d="M52.6387 78.355L54.1789 79.0893V75.7098L52.6387 74.8555V78.355Z" fill="#3F3D56"/>
<path d="M68.8105 90.6063L69.4707 90.8163V88.5181L68.8105 88.2539V90.6063Z" fill="#3F3D56"/>
<path d="M66.5 89.9097L67.2701 90.1537V87.6822L66.5 87.375V89.9097Z" fill="#3F3D56"/>
<path d="M63.9697 89.0773L64.8498 89.3572V86.7107L63.9697 86.3594V89.0773Z" fill="#3F3D56"/>
<path d="M60.8896 88.1003L61.9898 88.45V85.5944L60.8896 85.1562V88.1003Z" fill="#3F3D56"/>
<path d="M57.1494 86.8464L58.4695 87.268V84.2013L57.1494 83.6758V86.8464Z" fill="#3F3D56"/>
<path d="M52.6387 85.4557L54.2888 85.9809V82.5321L52.6387 81.875V85.4557Z" fill="#3F3D56"/>
<path d="M46.9189 83.6444L48.8991 84.2743V80.4423L46.9189 79.6562V83.6444Z" fill="#3F3D56"/>
<path d="M46.9189 91.5833L48.8991 91.9023V88.1029L46.9189 87.6289V91.5833Z" fill="#3F3D56"/>
<path d="M68.8105 95.0599L69.4707 95.1673V92.9717L68.8105 92.8125V95.0599Z" fill="#3F3D56"/>
<path d="M66.5 94.7854L67.2701 94.9082V92.5579L66.5 92.375V94.7854Z" fill="#3F3D56"/>
<path d="M63.9697 94.3665L64.8498 94.5075V91.8607L63.9697 91.6484V94.3665Z" fill="#3F3D56"/>
<path d="M60.8896 93.8091L61.9898 93.987V91.164L60.8896 90.8984V93.8091Z" fill="#3F3D56"/>
<path d="M57.1494 93.2534L58.4695 93.4653V90.3299L57.1494 90.0117V93.2534Z" fill="#3F3D56"/>
<path d="M52.6387 92.5555L54.2888 92.8194V89.3534L52.6387 88.957V92.5555Z" fill="#3F3D56"/>
<path d="M48.7887 76.5445L46.8086 75.5995V71.6719L48.7887 72.7706V76.5445Z" fill="#3F3D56"/>
<path d="M67.3821 96.625H67.2207V99.8932H67.3821V96.625Z" fill="#2F2E41"/>
<path d="M69.2833 97.5156H69.1689V99.8314H69.2833V97.5156Z" fill="#2F2E41"/>
<path d="M70.9736 97.8008H70.873V99.8361H70.9736V97.8008Z" fill="#2F2E41"/>
<path d="M62.6497 95.5916V99.796L60.5046 99.7919L58.3594 99.7876V95.0625L60.5046 95.3271L62.6497 95.5916Z" fill="#3F3D56"/>
<path d="M26.5674 99.796L30.8577 99.7873V95.0625L26.5674 95.591V99.796Z" fill="#3F3D56"/>
<path d="M96.1271 99.6562H0V99.9347H96.1271V99.6562Z" fill="#2F2E41"/>
<path opacity="0.1" d="M62.65 95.5926V99.797L60.5049 99.7929V95.3281L62.65 95.5926Z" fill="black"/>
<path d="M44.3333 95.9648H44.1133V99.863H44.3333V95.9648Z" fill="#2F2E41"/>
<path d="M45.4928 94.5791C45.4928 95.9451 44.9162 97.085 44.2231 97.1241C43.5493 97.1622 43.0166 96.14 43.0166 94.842C43.0166 93.544 44.3331 89.9805 44.3331 89.9805C44.3331 89.9805 45.4928 93.2131 45.4928 94.5791Z" fill="#00BFA6" fill-opacity="0.75"/>
<path d="M18.4496 97.2148H18.3184V99.54H18.4496V97.2148Z" fill="#2F2E41"/>
<path d="M19.141 96.3875C19.141 97.2022 18.7971 97.8822 18.3837 97.9055C17.9818 97.9282 17.6641 97.3185 17.6641 96.5443C17.6641 95.7701 18.4493 93.6445 18.4493 93.6445C18.4493 93.6445 19.141 95.5727 19.141 96.3875Z" fill="#00BFA6" fill-opacity="0.75"/>
<path d="M68.189 96.7559C68.189 97.5308 67.8031 98.1361 67.3012 98.1063C66.7683 98.0746 66.3115 97.3472 66.3115 96.4833C66.3115 95.6194 67.3012 93.4609 67.3012 93.4609C67.3012 93.4609 68.189 95.981 68.189 96.7559Z" fill="#00BFA6" fill-opacity="0.75"/>
<path d="M69.8557 97.6082C69.8557 98.1573 69.5823 98.5862 69.2267 98.5651C68.8491 98.5427 68.5254 98.0272 68.5254 97.415C68.5254 96.8029 69.2267 95.2734 69.2267 95.2734C69.2267 95.2734 69.8557 97.0592 69.8557 97.6082Z" fill="#00BFA6" fill-opacity="0.75"/>
<path d="M71.4759 97.8802C71.4759 98.3627 71.2356 98.7397 70.923 98.7211C70.5911 98.7014 70.3066 98.2484 70.3066 97.7104C70.3066 97.1723 70.923 95.8281 70.923 95.8281C70.923 95.8281 71.4759 97.3976 71.4759 97.8802Z" fill="#00BFA6" fill-opacity="0.75"/>
<path d="M72.2571 22.429C72.2571 22.429 71.1863 26.4942 71.7812 27.3976C72.376 28.301 68.2119 24.6874 68.2119 24.6874L70.4724 21.375L72.2571 22.429Z" fill="#A0616A"/>
<path d="M69.8154 22.4225C72.7655 22.4225 75.1571 19.3959 75.1571 15.6624C75.1571 11.9289 72.7655 8.90234 69.8154 8.90234C66.8652 8.90234 64.4736 11.9289 64.4736 15.6624C64.4736 19.3959 66.8652 22.4225 69.8154 22.4225Z" fill="#2F2E41"/>
<path d="M90.58 68.2005L87.8436 70.9108L86.2969 67.7488L89.0333 65.3398L90.58 68.2005Z" fill="#A0616A"/>
<path d="M86.7133 88.6001L87.4272 92.9665L89.4497 96.4295C89.4497 96.4295 94.9226 98.5374 91.2344 99.5914C87.5461 100.645 86.7133 98.8386 86.7133 98.8386L84.0959 95.9778V99.8925H82.4302L82.0733 94.3216C82.0733 94.3216 81.8354 92.6654 82.9061 90.8586L83.1441 88.1484L86.7133 88.6001Z" fill="#2F2E41"/>
<path d="M72.9122 34.5465L73.864 41.4725C73.864 41.4725 83.9768 40.1174 84.6907 42.677C85.4045 45.2366 85.6424 45.9894 85.6424 45.9894L83.6199 46.8928L82.6681 44.6343C82.3782 44.5044 82.0704 44.4508 81.7635 44.4767C81.4566 44.5025 81.1572 44.6074 80.8835 44.7849C79.9317 45.3872 71.6034 46.8928 71.0086 44.9355C70.4137 42.9781 68.748 35.751 68.748 35.751L71.2465 33.1914L72.9122 34.5465Z" fill="#A0616A"/>
<path opacity="0.1" d="M72.9122 34.5465L73.864 41.4725C73.864 41.4725 83.9768 40.1174 84.6907 42.677C85.4045 45.2366 85.6424 45.9894 85.6424 45.9894L83.6199 46.8928L82.6681 44.6343C82.3782 44.5044 82.0704 44.4508 81.7635 44.4767C81.4566 44.5025 81.1572 44.6074 80.8835 44.7849C79.9317 45.3872 71.6034 46.8928 71.0086 44.9355C70.4137 42.9781 68.748 35.751 68.748 35.751L71.2465 33.1914L72.9122 34.5465Z" fill="black"/>
<path d="M78.5039 54.5749L79.3367 58.1884L81.4783 72.0404C81.4783 72.0404 81.7162 82.2788 82.0731 83.4834C82.4301 84.6879 82.4301 84.8384 82.0731 85.2901C81.7162 85.7418 81.0024 87.2475 82.0731 88.1509C83.1439 89.0543 86.9511 90.1082 87.0701 89.0543C87.1891 88.0003 87.1891 86.3441 87.0701 85.5913C86.9511 84.8384 87.427 73.0944 87.427 73.0944L85.9993 55.1771L81.1213 52.3164L78.5039 54.5749Z" fill="#2F2E41"/>
<path opacity="0.1" d="M78.5039 54.5749L79.3367 58.1884L81.4783 72.0404C81.4783 72.0404 81.7162 82.2788 82.0731 83.4834C82.4301 84.6879 82.4301 84.8384 82.0731 85.2901C81.7162 85.7418 81.0024 87.2475 82.0731 88.1509C83.1439 89.0543 86.9511 90.1082 87.0701 89.0543C87.1891 88.0003 87.1891 86.3441 87.0701 85.5913C86.9511 84.8384 87.427 73.0944 87.427 73.0944L85.9993 55.1771L81.1213 52.3164L78.5039 54.5749Z" fill="black"/>
<path d="M83.6197 40.4219L86.2372 46.7456C86.2372 46.7456 101.228 55.1772 99.9193 58.6402C98.6106 62.1032 91.3531 68.5775 91.3531 68.5775C91.3531 68.5775 90.9962 71.1371 89.9254 70.3843C88.8546 69.6315 86.2372 65.7168 86.4751 65.2651C86.7131 64.8134 87.5459 63.7594 87.9028 63.91C88.2598 64.0606 92.4239 59.9953 92.4239 59.9953L85.2854 57.7368C85.2854 57.7368 76.7192 57.4357 76.2433 52.3165C75.7674 47.1973 76.2433 46.2939 76.2433 46.2939L75.6484 44.6377L80.5264 40.8736L83.6197 40.4219Z" fill="#2F2E41"/>
<path d="M87.308 65.4141L84.8095 68.2748C84.8095 68.2748 82.668 67.0703 81.3593 67.522C80.0506 67.9737 77.79 68.2748 77.79 68.2748L78.147 70.8344L81.1825 70.1257L78.7418 74.448C78.7418 74.448 78.7418 81.2234 80.2885 81.2234C81.8352 81.2234 81.3593 77.1581 81.3593 77.1581L86.1183 72.4906C86.1183 72.4906 88.4978 71.2861 88.7357 71.2861C88.9737 71.2861 87.308 65.4141 87.308 65.4141Z" fill="#2F2E41"/>
<path d="M71.7815 23.6329C74.0155 23.6329 75.8266 21.341 75.8266 18.5137C75.8266 15.6865 74.0155 13.3945 71.7815 13.3945C69.5474 13.3945 67.7363 15.6865 67.7363 18.5137C67.7363 21.341 69.5474 23.6329 71.7815 23.6329Z" fill="#A0616A"/>
<path d="M67.7961 22.502C67.7961 22.502 69.6997 21.8998 70.2946 22.502C70.8894 23.1043 71.0084 24.4594 71.8412 24.61C72.6741 24.7605 73.3879 24.7605 73.5069 24.9111C73.6259 25.0616 76.3623 29.2775 76.3623 29.2775C76.3623 29.2775 78.0279 30.482 78.3848 32.1382C78.7418 33.7944 82.311 39.3653 82.7869 39.9676C83.2628 40.5698 79.6936 43.5811 78.5038 44.6351C77.3141 45.689 73.8638 46.1407 72.793 43.7317C71.7223 41.3227 65.8925 25.6639 67.7961 22.502Z" fill="#575A89"/>
<path d="M72.3165 32.2887L73.2682 39.2147C73.2682 39.2147 83.3811 37.8596 84.0949 40.4192C84.8088 42.9788 85.0467 43.7316 85.0467 43.7316L83.0242 44.635L82.0724 42.3765C81.7825 42.2466 81.4747 42.193 81.1678 42.2188C80.8609 42.2447 80.5615 42.3496 80.2878 42.5271C79.336 43.1293 71.0077 44.635 70.4129 42.6777C69.818 40.7203 68.1523 33.4932 68.1523 33.4932L70.6508 30.9336L72.3165 32.2887Z" fill="#A0616A"/>
<path d="M70.0437 23.1347C70.0437 23.1347 72.9121 30.7823 72.6742 32.8902C72.4362 34.9981 71.6034 33.4924 71.6034 33.4924C71.6034 33.4924 70.5326 31.3845 70.0567 32.589C69.5808 33.7936 68.986 35.4498 68.5101 35.2992C68.0342 35.1486 65.4167 24.0068 66.8444 22.9529C68.2721 21.8989 70.0437 23.1347 70.0437 23.1347Z" fill="#575A89"/>
<path d="M64.0283 13.5202C66.9784 13.5202 69.37 10.4936 69.37 6.76009C69.37 3.02659 66.9784 0 64.0283 0C61.0781 0 58.6865 3.02659 58.6865 6.76009C58.6865 10.4936 61.0781 13.5202 64.0283 13.5202Z" fill="#2F2E41"/>
<path d="M59.4216 12.357C60.113 12.9894 60.914 13.4031 61.7576 13.5634C62.6012 13.7237 63.4629 13.626 64.2705 13.2784C65.0782 12.9309 65.8083 12.3436 66.3999 11.5658C66.9914 10.7879 67.4272 9.84209 67.6707 8.80742C67.5785 9.73465 67.3355 10.6276 66.9569 11.43C66.5783 12.2324 66.0723 12.9267 65.471 13.4691C64.8697 14.0115 64.186 14.3903 63.4632 14.5814C62.7403 14.7726 61.994 14.7721 61.2713 14.5798C60.5487 14.3875 59.8654 14.0078 59.2645 13.4644C58.6637 12.9211 58.1584 12.226 57.7806 11.4231C57.4027 10.6202 57.1605 9.72682 57.0693 8.79945C56.978 7.87209 57.0397 6.93085 57.2504 6.03516C57.1307 7.23851 57.2691 8.46044 57.6512 9.57277C58.0332 10.6851 58.6447 11.6468 59.4216 12.357Z" fill="#2F2E41"/>
<path d="M68.7171 21.7468C70.8805 21.7468 72.6344 19.5273 72.6344 16.7894C72.6344 14.0515 70.8805 11.832 68.7171 11.832C66.5536 11.832 64.7998 14.0515 64.7998 16.7894C64.7998 19.5273 66.5536 21.7468 68.7171 21.7468Z" fill="#2F2E41"/>
<path d="M71.685 18.3649C73.6026 18.3649 75.1572 16.8264 75.1572 14.9286C75.1572 13.0307 73.6026 11.4922 71.685 11.4922C69.7674 11.4922 68.2129 13.0307 68.2129 14.9286C68.2129 16.8264 69.7674 18.3649 71.685 18.3649Z" fill="#2F2E41"/>
<path d="M71.8407 20.7716C72.2678 20.7716 72.6141 19.9964 72.6141 19.0401C72.6141 18.0838 72.2678 17.3086 71.8407 17.3086C71.4136 17.3086 71.0674 18.0838 71.0674 19.0401C71.0674 19.9964 71.4136 20.7716 71.8407 20.7716Z" fill="#A0616A"/>
<path d="M82.4563 44.5707C82.4563 44.5707 84.5625 43.0415 84.9535 43.425C85.3445 43.8084 85.5182 45.0083 85.5182 45.0083L83.084 46.2175L82.3701 44.5613L82.4563 44.5707Z" fill="#2F2E41"/>
</g>
<defs>
<clipPath id="clip0_1215_783">
<rect width="100" height="100" fill="white"/>
</clipPath>
</defs>
</svg>
