<svg width="100" height="100" viewBox="0 0 100 100" fill="none" xmlns="http://www.w3.org/2000/svg">
<g clip-path="url(#clip0_1216_1005)">
<path opacity="0.1" d="M99.8522 58.0216C99.494 54.0358 98.4515 50.2651 97.0922 46.896C94.0244 39.2834 89.3752 33.6037 84.3496 29.5353C84.3012 29.4952 84.2487 29.4577 84.2033 29.4189C84.7583 28.6038 85.155 27.6416 85.3628 26.6066C86.9088 18.7537 76.4823 8.85544 62.0816 4.50055C50.5248 1.01012 39.9186 2.14607 35.3794 6.78996C24.7914 5.96427 13.7452 14.041 6.40465 26.4815C3.78085 30.9339 1.56071 36.1933 0.58688 42.1396C-0.597866 49.3406 0.11056 57.0908 1.77263 64.0404C3.05325 69.3924 4.92422 74.4066 7.27656 78.7014C7.44408 79.0067 7.61395 79.3086 7.78618 79.6072C8.08287 80.1218 8.38562 80.6222 8.69442 81.1085C10.632 84.1673 12.838 86.7644 15.264 88.7298C16.6423 89.8501 18.1222 90.7655 19.673 91.4571C23.8105 93.2937 28.2508 93.37 32.3399 91.4571C33.0252 91.1371 33.6939 90.7649 34.342 90.3424C34.7013 90.1097 35.0565 89.8595 35.4077 89.5918C36.0848 89.0764 36.7499 88.5009 37.4099 87.9029C38.3252 87.0722 39.2263 86.1965 40.1457 85.3783L40.2244 85.307C41.3042 84.3462 42.3971 83.4667 43.5364 82.8336C44.2954 82.4004 45.0988 82.0986 45.9241 81.9366C47.1455 81.7214 48.3902 81.8414 49.5702 82.2882C49.7942 82.3683 50.0182 82.4596 50.2402 82.5597C50.9621 82.8903 51.6613 83.2924 52.3312 83.7619C55.2416 85.7636 58.0269 88.955 60.8848 91.4571C61.2884 91.8149 61.7032 92.159 62.1149 92.483C65.761 95.3516 69.7714 96.7503 73.7394 98.1064C78.2382 99.6452 82.9994 101.139 87.3518 98.7432C89.8747 97.3558 92.0595 94.7249 93.8104 91.4571C94.5775 90.0169 95.2504 88.5029 95.8227 86.9296C96.1072 86.1514 96.3733 85.3591 96.6209 84.5526C98.06 79.8612 98.8966 74.7068 99.4738 69.54C99.9017 65.7368 100.192 61.8423 99.8522 58.0216Z" fill="#00BFA6" fill-opacity="0.75"/>
<g opacity="0.1">
<path d="M31.4221 66.7017C31.4534 66.813 31.4857 66.9206 31.523 67.0257C32.1884 66.3793 32.8329 65.7121 33.4565 65.024C33.8294 64.818 34.1377 64.4665 34.3345 64.0232C34.5141 63.813 34.6928 63.5978 34.8694 63.3839C34.793 63.2777 34.7111 63.1778 34.6241 63.0849C34.0267 62.4356 33.288 62.1629 32.6129 62.4394C31.9378 62.7158 31.4766 63.4802 31.3081 64.441C31.1828 65.1937 31.2221 65.9742 31.4221 66.7017Z" fill="#3F3D56"/>
<path d="M30.3147 62.5453C30.5035 63.2751 30.846 63.9294 31.3067 64.4406C31.9041 65.0874 32.6418 65.3614 33.3179 65.0836C33.3643 65.0636 33.4087 65.0424 33.4551 65.0198C33.828 64.8138 34.1363 64.4624 34.3331 64.019C34.4685 63.7268 34.5662 63.4103 34.6227 63.0807C34.7394 62.3281 34.6987 61.551 34.5044 60.8235C34.3101 60.0959 33.9686 59.4422 33.5127 58.9247C32.9142 58.2754 32.1765 58.0027 31.5014 58.2792C30.8263 58.5557 30.3651 59.3201 30.1966 60.2809C30.072 61.0352 30.1128 61.8171 30.3147 62.5453Z" fill="#3F3D56"/>
<path d="M32.2058 60.9391C33.3631 60.4648 33.8954 58.5578 33.3946 56.6796C32.8939 54.8014 31.5497 53.6632 30.3924 54.1375C29.2351 54.6117 28.7028 56.5187 29.2036 58.3969C29.7043 60.2751 31.0485 61.4133 32.2058 60.9391Z" fill="#3F3D56"/>
<path d="M31.0974 56.7828C32.2547 56.3086 32.787 54.4016 32.2862 52.5234C31.7855 50.6451 30.4413 49.507 29.284 49.9812C28.1267 50.4554 27.5944 52.3624 28.0952 54.2406C28.5959 56.1189 29.9401 57.257 31.0974 56.7828Z" fill="#3F3D56"/>
<path d="M29.99 52.6265C31.1473 52.1523 31.6796 50.2453 31.1788 48.3671C30.678 46.4889 29.3339 45.3507 28.1766 45.825C27.0193 46.2992 26.487 48.2062 26.9878 50.0844C27.4885 51.9626 28.8327 53.1008 29.99 52.6265Z" fill="#3F3D56"/>
<path d="M29.3447 17.5656C29.5112 16.9964 29.6461 16.4137 29.7484 15.8217L23.9437 16.9576L29.9129 14.5719C30.0727 12.797 29.9389 11.0005 29.5197 9.2919C29.1005 7.58334 28.4047 5.99869 27.4748 4.63479L20.8567 13.0468L26.4333 3.31368C25.3488 2.11868 24.0774 1.21327 22.6984 0.65382C21.3194 0.0943734 19.8622 -0.107126 18.4176 0.0618694C16.973 0.230865 15.572 0.766736 14.3017 1.63611C13.0314 2.50549 11.9191 3.68976 11.0341 5.11518C10.149 6.54059 9.51015 8.17663 9.15725 9.92142C8.80435 11.6662 8.74498 13.4824 8.98284 15.2568C9.2207 17.0313 9.75069 18.7261 10.5398 20.2356C11.3289 21.7451 12.3603 23.0371 13.5696 24.031C13.3107 24.9171 13.1297 25.8353 13.0297 26.7696L21.4057 28.4435L12.9399 28.3959C12.9277 30.576 13.3542 32.7254 14.1808 34.6496C15.0073 36.5739 16.2079 38.2122 17.6739 39.4164C16.999 41.7288 16.8627 44.2299 17.2804 46.6338C17.6982 49.0377 18.6531 51.2473 20.0361 53.0101C21.419 54.7729 23.1742 56.0177 25.1009 56.6022C27.0277 57.1867 29.0482 57.0873 30.9315 56.3153C32.8148 55.5433 34.4848 54.13 35.7507 52.2368C37.0166 50.3437 37.8273 48.0471 38.09 45.6098C38.3527 43.1724 38.0569 40.6926 37.2364 38.4538C36.4158 36.215 35.1037 34.3076 33.4499 32.9498C34.2574 30.1861 34.292 27.1662 33.5479 24.3753C32.8039 21.5844 31.3246 19.1847 29.3477 17.5619L29.3447 17.5656Z" fill="#00BFA6" fill-opacity="0.75"/>
<path opacity="0.1" d="M13.4687 32.6103C14.2096 35.4024 15.6892 37.8026 17.6677 39.4223C16.9943 41.7346 16.8592 44.2352 17.2778 46.6382C17.6964 49.0412 18.6519 51.2498 20.0351 53.0115C21.4183 54.7732 23.1734 56.017 25.0997 56.6008C27.0261 57.1845 29.0461 57.0847 30.9289 56.3126C32.8116 55.5406 34.4812 54.1275 35.7468 52.2348C37.0125 50.3421 37.8231 48.0462 38.086 45.6095C38.349 43.1728 38.0537 40.6935 37.2338 38.455C36.414 36.2165 35.1027 34.309 33.4499 32.9506C34.2279 30.2821 13.0993 31.2079 13.4687 32.6103Z" fill="black"/>
</g>
<path d="M39.1642 31.3031C38.913 30.6676 38.8191 29.9507 38.7283 29.2476C38.1954 25.0966 37.6969 20.6154 39.1441 16.8535C39.3721 16.2617 39.6486 15.6863 40.0523 15.2822C40.4842 14.8506 41.0201 14.6454 41.5206 14.3652C42.9738 13.5545 44.1444 12.0995 45.422 10.8922C46.6996 9.68498 48.2416 8.67789 49.8068 8.98565C50.6141 9.14453 51.3609 9.64495 52.144 9.95896C54.356 10.8472 56.9092 10.268 58.8962 11.808C59.6137 12.3647 60.199 13.1591 60.7742 13.9448L63.3405 17.4477C64.0358 18.396 64.7442 19.3681 65.1651 20.5566C65.5859 21.7451 65.6747 23.2101 65.1388 24.3185C64.8694 24.8777 64.4435 25.3619 64.3971 26.0187C64.3466 26.7318 64.7644 27.3448 64.9168 28.0328C65.3205 29.8506 63.84 31.4107 62.4898 32.1288C58.4098 34.2931 53.9211 34.0441 49.6019 33.9553C46.3857 33.8865 41.0191 35.9795 39.1642 31.3031Z" fill="#3F3D56"/>
<path d="M46.4196 40.2985C46.136 41.138 45.5265 41.731 44.924 42.2527C44.3215 42.7743 43.6787 43.271 42.9531 43.3135C44.2317 45.3515 45.9806 46.8502 47.6901 48.3177C48.4863 48.9995 49.2936 49.6801 50.2019 50.0654C51.0354 50.4182 51.9225 50.5058 52.7944 50.6534C53.9045 50.8423 55.0095 51.1338 56.1246 51.0763C58.1116 50.9737 60.0119 49.7314 61.3298 47.8849C62.6478 46.0383 63.4026 43.6313 63.6065 41.1755C62.9 41.1617 62.2481 40.6751 61.678 40.1446C60.9806 39.4978 60.3267 38.7497 59.8766 37.8252C59.3892 36.8244 59.1702 35.6634 58.9482 34.5262C56.5959 34.4386 54.2435 34.3523 51.8902 34.4086C51.0334 34.4286 50.1746 34.4699 49.339 34.7339C48.5428 34.9841 46.8797 35.6296 46.3943 36.5191C46.1148 37.032 46.3943 37.56 46.4953 38.1129C46.6244 38.8398 46.6567 39.5992 46.4196 40.2985Z" fill="#BE6F72"/>
<path opacity="0.1" d="M46.4196 40.2985C46.136 41.138 45.5265 41.731 44.924 42.2527C44.3215 42.7743 43.6787 43.271 42.9531 43.3135C44.2317 45.3515 45.9806 46.8502 47.6901 48.3177C48.4863 48.9995 49.2936 49.6801 50.2019 50.0654C51.0354 50.4182 51.9225 50.5058 52.7944 50.6534C53.9045 50.8423 55.0095 51.1338 56.1246 51.0763C58.1116 50.9737 60.0119 49.7314 61.3298 47.8849C62.6478 46.0383 63.4026 43.6313 63.6065 41.1755C62.9 41.1617 62.2481 40.6751 61.678 40.1446C60.9806 39.4978 60.3267 38.7497 59.8766 37.8252C59.3892 36.8244 59.1702 35.6634 58.9482 34.5262C56.5959 34.4386 54.2435 34.3523 51.8902 34.4086C51.0334 34.4286 50.1746 34.4699 49.339 34.7339C48.5428 34.9841 46.8797 35.6296 46.3943 36.5191C46.1148 37.032 46.3943 37.56 46.4953 38.1129C46.6244 38.8398 46.6567 39.5992 46.4196 40.2985Z" fill="black"/>
<path d="M49.0816 43.7549C49.7547 44.792 50.448 45.8504 51.3703 46.531C51.6519 46.7374 51.9667 46.9063 52.2937 46.8926C52.7781 46.8675 53.1787 46.4397 53.534 46.0293C55.3076 43.9828 56.9919 41.8204 58.5797 39.5514C59.0772 38.8396 59.5889 38.0977 60.2701 37.6836C60.8855 44.5691 61.0462 51.5055 60.7504 58.4235C60.7536 58.5541 60.7293 58.6834 60.6798 58.7988C60.5738 58.9977 60.3518 59.0265 60.159 59.0352C54.4624 59.3004 48.5376 59.5131 43.3203 56.6582C43.6826 55.3259 43.6231 53.8847 43.6584 52.4785C43.7159 50.1728 44.0388 47.8896 44.4849 45.654C44.7039 44.5569 44.9531 43.4697 45.2175 42.3888C45.4375 41.483 45.605 39.8867 46.0965 39.2024C47.2267 40.4534 48.132 42.2912 49.0816 43.7549Z" fill="#E3E8F4"/>
<path d="M51.6677 47.1055H52.3741L54.1906 50.8586L52.2732 56.7385L49.9521 50.9837L51.6677 47.1055Z" fill="#3F3D56"/>
<path d="M51.6036 53.0354C50.9468 51.8471 50.494 50.504 50.2735 49.0896C50.2029 48.6367 50.1554 48.1751 50.0263 47.7422C49.8345 47.1004 49.4733 46.5625 49.1473 46.0083C47.9386 43.9528 47.1602 41.5576 46.8817 39.0374C46.7566 37.894 46.6729 36.5841 45.9281 35.8923C45.4599 35.4582 44.8362 35.3919 44.2509 35.4044C41.9872 35.4745 39.8191 36.5503 38.1415 38.4357C37.8626 38.7787 37.5677 39.1011 37.2585 39.4015C36.9415 39.6702 36.6034 39.8982 36.2493 40.0821C35.3552 40.5825 34.4207 40.9978 33.4469 41.1242C33.1966 41.1371 32.9485 41.188 32.7082 41.2756C32.4176 41.4007 32.1784 41.6646 31.9332 41.9011C31.1498 42.6491 30.2499 43.1875 29.2902 43.4824C27.9358 47.3812 26.8882 51.4329 26.1618 55.5813C25.9792 56.6134 25.8157 57.653 25.5664 58.6639C25.2223 60.0651 24.7157 61.4012 24.3776 62.8048C23.0334 68.3908 24.4452 74.4759 23.54 80.1944L72.0864 80.277C71.3234 78.8095 71.5979 76.9454 71.5323 75.2015C71.4708 73.5951 71.1418 72.0251 70.9137 70.4412C70.5323 67.7928 70.4344 65.093 70.395 62.4033C70.3789 61.2673 70.3779 60.0938 70.7321 59.0467C71.3971 57.0813 73.1228 56.0442 74.7566 55.3774C75.5377 55.0596 76.3591 54.7694 76.9767 54.09C77.6095 53.3882 77.9384 52.3573 78.1403 51.3377C77.0393 48.648 75.6083 46.0833 73.8009 44.0654C73.1217 43.3148 72.3962 42.6104 71.823 41.7322C71.4738 41.1955 71.1842 40.5975 70.7987 40.1058C69.8339 38.8635 68.3767 38.3957 66.9881 38.3268C66.5592 38.3056 66.1243 38.3156 65.7085 38.183C64.5157 37.8077 63.7558 36.3627 62.681 35.6146C61.9333 35.0972 61.0602 34.9311 60.2217 35.1467C59.6162 35.3031 58.9966 35.7484 58.8604 36.4891C58.7847 36.9057 58.8776 37.336 58.9129 37.7601C59.0219 39.065 58.5849 40.3435 58.0561 41.4795C56.1559 45.5341 53.0487 48.698 51.6036 53.0354Z" fill="#00BFA6" fill-opacity="0.75"/>
<path d="M62.2111 28.0287C62.2106 30.8329 61.4578 33.5572 60.0711 35.7726C58.6843 37.988 56.7426 39.5685 54.5516 40.2654C52.3606 40.9623 50.0449 40.7358 47.9691 39.6217C45.8933 38.5076 44.1755 36.5691 43.0861 34.1116C41.9967 31.6541 41.5977 28.8171 41.9519 26.0476C42.3061 23.278 43.3934 20.7332 45.0426 18.814C46.6917 16.8947 48.8089 15.71 51.0609 15.4465C53.3128 15.1831 55.5715 15.8557 57.4812 17.3586C58.9307 18.4993 60.1243 20.0755 60.9512 21.9408C61.778 23.8062 62.2114 25.9003 62.2111 28.0287Z" fill="#BE6F72"/>
<path d="M96.6236 84.5477V78.6953H7.2793C7.44682 79.0006 7.61669 79.3025 7.78892 79.6011C7.91908 79.9833 8.09721 80.3375 8.31671 80.6507C8.43362 80.8164 8.56193 80.9692 8.70018 81.1073C10.6378 84.1661 12.8438 86.7633 15.2698 88.7287C16.6481 89.849 18.1279 90.7644 19.6788 91.456H93.8152L96.6236 84.5477Z" fill="#3F3D56"/>
<path d="M53.927 72.0039C52.5576 71.8688 51.1337 71.446 49.844 72.0315C49.4043 72.2491 48.9872 72.5313 48.6017 72.8722C47.2087 74.0315 45.9257 75.382 44.777 76.898C44.445 77.3347 44.1201 77.795 43.9162 78.3405C43.6286 79.1099 43.6034 79.9869 43.4116 80.8013C43.3017 81.268 43.1341 81.7408 43.2007 82.22C43.2673 82.6991 43.7134 83.1283 44.0474 82.873C44.0307 83.0066 44.038 83.1432 44.0688 83.2729C44.0995 83.4026 44.153 83.5222 44.2254 83.6233C44.2978 83.7244 44.3873 83.8045 44.4876 83.8577C44.5878 83.911 44.6963 83.9362 44.8053 83.9314C45.316 83.9096 45.8091 83.6944 46.2181 83.3147C46.2311 83.4664 46.2908 83.6061 46.3848 83.7047C46.4788 83.8032 46.5998 83.8531 46.7227 83.8439C47.5976 83.7726 48.4312 83.2183 49.18 82.6128C50.0589 81.9072 50.9319 81.1041 51.9612 80.8614C51.328 81.2193 50.7701 81.7541 50.3314 82.4239C50.1629 82.6804 50.0055 82.9806 50.1911 83.3772C50.3021 83.5999 50.473 83.7669 50.6735 83.8489C51.826 84.3493 53.0783 83.5211 53.8473 82.3726C54.1571 81.9085 54.4306 81.3718 54.8565 81.0903C55.5417 80.6337 56.3863 80.9539 57.1573 80.8213C58.0131 80.6762 58.7326 79.9844 59.5187 79.5378C60.5652 78.9448 61.7318 78.7871 62.8489 78.4343C62.983 78.4101 63.1067 78.3308 63.2001 78.2091C63.2699 78.0648 63.3001 77.8962 63.2859 77.7287C63.281 76.0153 63.1768 74.3044 62.9741 72.6094C62.9573 72.3364 62.8899 72.0719 62.7773 71.8363C62.5573 71.4485 62.1395 71.3359 61.7631 71.2583C61.1576 71.1332 60.4784 70.853 59.8689 70.8555C59.2836 70.8555 58.7195 71.2658 58.1614 71.4672C56.7877 71.9617 55.3531 72.1436 53.927 72.0039Z" fill="#BE6F72"/>
<path d="M60.3109 69.749C58.7981 69.946 57.3752 70.7347 56.248 72.0009C57.5065 71.6068 58.8607 71.2178 60.0737 71.7883C60.6646 72.0663 61.1755 72.5555 61.5418 73.1939C61.9081 73.8323 62.1132 74.5912 62.1311 75.3743C62.149 76.1574 61.979 76.9295 61.6426 77.5927C61.3061 78.2559 60.8184 78.7803 60.2413 79.0994C60.4865 79.4409 60.8468 79.6086 61.205 79.7374C63.7935 80.6732 66.5646 80.1127 69.2116 79.4747C69.696 79.3583 70.2208 79.2045 70.5165 78.7103C70.7799 78.2637 70.7718 77.6619 70.7486 77.1077C70.681 75.5076 70.5689 73.855 69.9836 72.43C69.1904 70.4959 67.8129 69.7753 66.1539 69.9993C64.2022 70.257 62.2646 69.5038 60.3109 69.749Z" fill="#E3E8F4"/>
<path d="M76.7803 49.2499C77.6169 50.237 78.2204 51.4831 78.7744 52.7391C80.6514 56.9918 82.0896 61.5203 83.0552 66.2179C83.1501 66.6795 83.2439 67.1537 83.4659 67.5427C83.7889 68.107 84.3368 68.4185 84.689 68.9514C85.1119 69.5995 85.1936 70.5127 85.0543 71.3284C84.9151 72.1441 84.5831 72.8885 84.247 73.6103C83.3277 75.5845 82.2429 77.6224 80.5545 78.5244C79.8481 78.8998 79.0761 79.0549 78.3122 79.1787C75.4429 79.6468 72.5434 79.7629 69.6557 79.5253C70.1603 78.7997 70.2087 77.7288 70.0301 76.7967C69.8515 75.8647 69.4791 75.0103 69.2228 74.1082C69.0209 73.4039 68.8786 72.6533 68.5244 72.0478C68.2634 71.6322 67.9416 71.2812 67.5758 71.0132C66.7448 70.3592 65.81 69.9342 64.835 69.7671C65.5585 69.0665 66.496 68.8338 67.378 68.5161C68.26 68.1983 69.1824 67.7104 69.6446 66.7271C69.9221 66.1378 69.9988 65.4385 70.0361 64.7579C70.1488 62.71 69.9559 60.654 69.467 58.6928C69.142 57.388 68.6819 56.0244 68.9624 54.7057C69.1057 54.0402 69.4276 53.4547 69.7435 52.8942C70.3591 51.7933 70.9969 50.6661 71.895 49.923C72.67 49.2812 73.5914 48.9797 74.5137 48.8996C75.205 48.8433 76.2555 48.6357 76.7803 49.2499Z" fill="#00BFA6" fill-opacity="0.75"/>
<path d="M40.466 87.5933C40.4579 88.8994 37.5929 90.3456 34.2779 90.3456C30.9628 90.3456 28.1957 88.9031 28.1513 87.5933C27.9969 83.0507 30.9618 85.6078 34.2779 85.6078C37.5939 85.6078 40.4963 82.3639 40.466 87.5933Z" fill="#3F3D56"/>
<path opacity="0.2" d="M40.466 87.5933C40.4579 88.8994 37.5929 90.3456 34.2779 90.3456C30.9628 90.3456 28.1957 88.9031 28.1513 87.5933C27.9969 83.0507 30.9618 85.6078 34.2779 85.6078C37.5939 85.6078 40.4963 82.3639 40.466 87.5933Z" fill="black"/>
<path d="M40.2813 85.6092C40.2813 86.9165 37.5929 88.3615 34.2779 88.3615C30.9628 88.3615 28.2744 86.9203 28.2744 85.6092C28.2744 84.2981 30.9618 83.625 34.2779 83.625C37.5939 83.625 40.2813 84.3031 40.2813 85.6092Z" fill="#3F3D56"/>
<path opacity="0.1" d="M40.2813 85.6092C40.2813 86.9165 37.5929 88.3615 34.2779 88.3615C30.9628 88.3615 28.2744 86.9203 28.2744 85.6092C28.2744 84.2981 30.9618 83.625 34.2779 83.625C37.5939 83.625 40.2813 84.3031 40.2813 85.6092Z" fill="white"/>
<path d="M39.1106 85.0938C39.1046 86.1134 36.8703 87.2368 34.2838 87.2368C31.6974 87.2368 29.5408 86.1109 29.5045 85.0938C29.3844 81.5508 31.6974 83.545 34.2838 83.545C36.8703 83.545 39.1348 81.0154 39.1106 85.0938Z" fill="#3F3D56"/>
<path opacity="0.2" d="M39.1106 85.0938C39.1046 86.1134 36.8703 87.2368 34.2838 87.2368C31.6974 87.2368 29.5408 86.1109 29.5045 85.0938C29.3844 81.5508 31.6974 83.545 34.2838 83.545C36.8703 83.545 39.1348 81.0154 39.1106 85.0938Z" fill="black"/>
<path d="M38.9665 83.2914C38.9665 84.4312 36.8705 85.6872 34.2841 85.6872C31.6976 85.6872 29.6006 84.4362 29.6006 83.2914C29.6006 82.1467 31.6976 81.5625 34.2841 81.5625C36.8705 81.5625 38.9665 82.1505 38.9665 83.2914Z" fill="#3F3D56"/>
<path opacity="0.1" d="M38.9665 83.2914C38.9665 84.4312 36.8705 85.6872 34.2841 85.6872C31.6976 85.6872 29.6006 84.4362 29.6006 83.2914C29.6006 82.1467 31.6976 81.5625 34.2841 81.5625C36.8705 81.5625 38.9665 82.1505 38.9665 83.2914Z" fill="white"/>
<path d="M23.0615 90.848C23.0615 90.848 23.9475 89.637 24.0999 88.2759C24.2523 86.9147 19.7706 84.8242 19.7706 84.8242C19.7706 84.8242 18.2165 85.9502 18.1641 87.0048C18.1641 87.0048 21.139 90.9681 23.0615 90.848Z" fill="#3F3D56"/>
<path opacity="0.2" d="M23.0615 90.848C23.0615 90.848 23.9475 89.637 24.0999 88.2759C24.2523 86.9147 19.7706 84.8242 19.7706 84.8242C19.7706 84.8242 18.2165 85.9502 18.1641 87.0048C18.1641 87.0048 21.139 90.9681 23.0615 90.848Z" fill="black"/>
<path d="M23.0203 90.9037C23.2974 90.3314 22.407 89.038 21.0317 88.0147C19.6563 86.9915 18.3168 86.6259 18.0397 87.1982C17.7627 87.7704 18.653 89.0639 20.0284 90.0872C21.4037 91.1104 22.7433 91.476 23.0203 90.9037Z" fill="#3F3D56"/>
<path opacity="0.1" d="M23.0203 90.9037C23.2974 90.3314 22.407 89.038 21.0317 88.0147C19.6563 86.9915 18.3168 86.6259 18.0397 87.1982C17.7627 87.7704 18.653 89.0639 20.0284 90.0872C21.4037 91.1104 22.7433 91.476 23.0203 90.9037Z" fill="white"/>
<path d="M24.1619 87.8616L26.711 82.5935L24.1185 79.8637L22.0972 79.3945L21.4665 80.8045L19.6924 84.8854L24.1619 87.8616Z" fill="#3F3D56"/>
<path opacity="0.1" d="M24.1619 87.8616L26.711 82.5935L24.1185 79.8637L22.0972 79.3945L21.4665 80.8045L19.6924 84.8854L24.1619 87.8616Z" fill="white"/>
<path d="M26.7458 83.1111C26.7458 83.1111 28.4674 80.8429 28.0254 79.6169C27.5834 78.3909 25.2492 75.9338 23.7627 76.3079C22.2762 76.6819 22.0381 79.3992 22.0381 79.3992L26.7458 83.1111Z" fill="#3F3D56"/>
<path opacity="0.2" d="M26.7458 83.1111C26.7458 83.1111 28.4674 80.8429 28.0254 79.6169C27.5834 78.3909 25.2492 75.9338 23.7627 76.3079C22.2762 76.6819 22.0381 79.3992 22.0381 79.3992L26.7458 83.1111Z" fill="black"/>
<path d="M7.16269 73.1457L20.3493 83.089C20.3493 83.089 21.6027 82.8876 21.4664 80.8071L8.40596 70.7562C8.14011 70.5514 7.82515 70.4674 7.51488 70.5185C7.15764 70.5785 6.73481 70.7399 6.59756 71.1615C6.56249 71.2688 6.53809 71.381 6.5249 71.4956C6.48803 71.8179 6.52891 72.1466 6.6424 72.4403C6.75589 72.7339 6.93692 72.9793 7.16269 73.1457Z" fill="#3F3D56"/>
<path opacity="0.2" d="M7.16269 73.1457L20.3493 83.089C20.3493 83.089 21.6027 82.8876 21.4664 80.8071L8.40596 70.7562C8.14011 70.5514 7.82515 70.4674 7.51488 70.5185C7.15764 70.5785 6.73481 70.7399 6.59756 71.1615C6.56249 71.2688 6.53809 71.381 6.5249 71.4956C6.48803 71.8179 6.52891 72.1466 6.6424 72.4403C6.75589 72.7339 6.93692 72.9793 7.16269 73.1457Z" fill="black"/>
<path d="M24.1605 88.601C24.2293 88.5961 24.2952 88.5641 24.3483 88.5097C24.4015 88.4552 24.4393 88.3812 24.4562 88.2982C24.5207 88.0168 24.4027 87.7465 24.2785 87.5213C24.0569 87.1196 23.7802 86.769 23.4611 86.4855C22.9243 86.0038 22.4035 85.4609 21.796 85.1093C21.4443 84.9153 21.076 84.7713 20.6981 84.6802C20.4148 84.5995 20.1249 84.56 19.8342 84.5626C19.7827 84.5644 19.7327 84.5855 19.6911 84.6233C19.6494 84.6611 19.618 84.7137 19.6011 84.7741C19.5841 84.8345 19.5823 84.8999 19.5961 84.9615C19.6098 85.0232 19.6383 85.0782 19.6778 85.1193C19.8122 85.2298 19.9621 85.3079 20.1198 85.3495C20.906 85.636 21.6336 86.1327 22.3147 86.6969C22.6816 86.9895 23.0253 87.3246 23.341 87.6977C23.5509 87.9555 23.8194 88.611 24.1605 88.601Z" fill="#3F3D56"/>
<path opacity="0.2" d="M24.1605 88.601C24.2293 88.5961 24.2952 88.5641 24.3483 88.5097C24.4015 88.4552 24.4393 88.3812 24.4562 88.2982C24.5207 88.0168 24.4027 87.7465 24.2785 87.5213C24.0569 87.1196 23.7802 86.769 23.4611 86.4855C22.9243 86.0038 22.4035 85.4609 21.796 85.1093C21.4443 84.9153 21.076 84.7713 20.6981 84.6802C20.4148 84.5995 20.1249 84.56 19.8342 84.5626C19.7827 84.5644 19.7327 84.5855 19.6911 84.6233C19.6494 84.6611 19.618 84.7137 19.6011 84.7741C19.5841 84.8345 19.5823 84.8999 19.5961 84.9615C19.6098 85.0232 19.6383 85.0782 19.6778 85.1193C19.8122 85.2298 19.9621 85.3079 20.1198 85.3495C20.906 85.636 21.6336 86.1327 22.3147 86.6969C22.6816 86.9895 23.0253 87.3246 23.341 87.6977C23.5509 87.9555 23.8194 88.611 24.1605 88.601Z" fill="black"/>
<path d="M26.2652 83.5156C26.2652 83.5156 27.559 83.5544 26.4883 81.9418C25.4176 80.3292 23.5022 78.7291 22.1388 79.0907C22.1388 79.0907 21.5737 79.6712 22.0621 79.7713C22.5253 79.8663 24.6859 80.3968 25.6789 81.8893C25.7876 82.0513 25.909 82.1997 26.0412 82.3321C26.2743 82.5673 26.5882 83.0127 26.2652 83.5156Z" fill="#3F3D56"/>
<path opacity="0.2" d="M26.2652 83.5156C26.2652 83.5156 27.559 83.5544 26.4883 81.9418C25.4176 80.3292 23.5022 78.7291 22.1388 79.0907C22.1388 79.0907 21.5737 79.6712 22.0621 79.7713C22.5253 79.8663 24.6859 80.3968 25.6789 81.8893C25.7876 82.0513 25.909 82.1997 26.0412 82.3321C26.2743 82.5673 26.5882 83.0127 26.2652 83.5156Z" fill="black"/>
<path d="M28.3738 79.9584C28.6509 79.3861 27.7605 78.0927 26.3852 77.0694C25.0098 76.0461 23.6703 75.6805 23.3932 76.2528C23.1162 76.8251 24.0065 78.1186 25.3819 79.1419C26.7572 80.1651 28.0968 80.5307 28.3738 79.9584Z" fill="#3F3D56"/>
<path opacity="0.1" d="M28.3738 79.9584C28.6509 79.3861 27.7605 78.0927 26.3852 77.0694C25.0098 76.0461 23.6703 75.6805 23.3932 76.2528C23.1162 76.8251 24.0065 78.1186 25.3819 79.1419C26.7572 80.1651 28.0968 80.5307 28.3738 79.9584Z" fill="white"/>
<path d="M19.8339 79.5472C19.8164 79.8386 19.7416 80.1203 19.616 80.3676C19.4904 80.6149 19.3178 80.8203 19.1134 80.9659C18.4362 81.4137 17.4856 81.0146 17.1667 80.1489C17.0012 79.6985 16.9982 79.1931 16.9649 78.6965C16.954 78.5345 16.9365 78.3733 16.9124 78.2136C16.8115 77.5693 16.3816 76.8849 15.8619 77.0125C15.433 77.1164 15.2069 77.7131 15.1555 78.2511C15.1422 78.399 15.1354 78.5477 15.1353 78.6965C15.1353 78.8516 15.1403 79.0067 15.1474 79.1618C15.1615 79.4796 15.1837 79.7986 15.1827 80.1164C15.1827 80.7419 15.0737 81.4062 14.7094 81.8353C14.2674 82.357 13.5893 82.3808 12.9777 82.372C11.4852 82.3533 9.82411 82.2469 8.70092 81.1085C8.56266 80.9703 8.43435 80.8175 8.31744 80.6518C8.09795 80.3387 7.91981 79.9844 7.78965 79.6022C7.68961 79.3103 7.61288 79.0069 7.56057 78.6965C7.39306 77.7269 7.43039 76.6698 7.56764 75.6864C7.65644 75.0434 7.828 74.3391 8.20744 73.9287C8.2978 73.8308 8.39995 73.751 8.51019 73.6923C8.69184 73.5972 8.8977 73.5672 9.05614 73.4183C9.21458 73.2694 9.31751 72.9992 9.48503 72.8365C9.82108 72.51 10.3317 72.6501 10.7253 72.54H10.7424L10.7636 72.5325C11.1885 72.4074 11.581 72.1197 11.9817 71.907C12.1542 71.8157 12.3268 71.7281 12.5004 71.6506C12.9325 71.4366 13.3991 71.3509 13.8627 71.4003C15.3765 71.6143 17.1929 72.7527 18.2293 74.1189C18.4847 74.4332 18.6835 74.8109 18.8126 75.2273C18.8973 75.5763 18.9441 75.9377 18.9519 76.3019C18.9791 76.8161 19.0013 77.3291 19.2072 77.7682C19.3323 78.0334 19.516 78.2498 19.6462 78.5188C19.6762 78.5793 19.7025 78.6424 19.7249 78.7077C19.8174 78.9718 19.8549 79.2604 19.8339 79.5472Z" fill="#BE6F72"/>
<path d="M16.5046 73.3713C17.1212 73.7666 17.7277 74.2133 18.2121 74.8288C18.6965 75.4443 19.0537 76.2512 19.082 77.1119C19.5053 76.477 19.8686 75.784 20.1648 75.0465C20.3989 74.4647 20.5917 73.7767 20.3838 73.1787C20.2844 72.9255 20.1447 72.6999 19.973 72.5156C19.0648 71.4497 17.8437 70.8605 16.6085 70.619C15.2734 70.3575 12.6062 69.7871 12.4014 72.1966C13.8969 72.109 15.1685 72.5181 16.5046 73.3713Z" fill="#E3E8F4"/>
<path d="M33.0463 42.5625C32.0584 43.0917 30.9019 42.7176 29.8574 43.0379C29.0864 43.2743 28.4234 43.8736 27.7977 44.4804C26.5504 45.6889 25.3213 47.04 24.6542 48.8202C24.4362 49.4032 24.2808 50.0225 24.0194 50.5717C23.5966 51.4675 22.9215 52.1343 22.2181 52.6985C20.4208 54.1347 18.3339 55.0329 16.7344 56.7919C16.0502 57.5425 15.4739 58.4333 14.9381 59.3503C14.3084 60.4262 13.7059 61.6272 13.6938 62.9558C13.6938 63.4763 13.7765 64.0042 13.6938 64.5159C13.5162 65.6606 12.5837 66.3712 12.1629 67.4146C11.7592 68.4091 11.8551 69.6377 11.406 70.5985C11.1114 71.224 10.5775 71.8495 10.7461 72.5401C11.9833 71.3879 13.4708 70.9137 14.9845 71.2891C15.7424 71.4755 16.4498 71.8946 17.1279 72.3537C17.9141 72.8866 18.6891 73.4922 19.2573 74.3554C19.8254 75.2186 20.1655 76.3671 19.9637 77.4492C20.7821 76.9488 21.2665 75.8804 21.6025 74.8295C21.9386 73.7786 22.1949 72.6565 22.753 71.767C23.0406 71.3078 23.3978 70.9263 23.7379 70.5272C25.626 68.3091 26.9874 65.5067 28.3235 62.7406C29.7013 59.8899 31.0785 57.0375 32.455 54.1835C32.8364 53.3916 33.2199 52.5947 33.4954 51.7389C34.4208 48.8615 33.8213 45.5012 33.0463 42.5625Z" fill="#00BFA6" fill-opacity="0.75"/>
<path d="M90.6926 80.7775C93.87 80.7775 96.4458 80.1636 96.4458 79.4063C96.4458 78.649 93.87 78.0352 90.6926 78.0352C87.5152 78.0352 84.9395 78.649 84.9395 79.4063C84.9395 80.1636 87.5152 80.7775 90.6926 80.7775Z" fill="#00BFA6" fill-opacity="0.75"/>
<path d="M90.5959 79.9126C90.9659 79.9126 91.2659 79.4259 91.2659 78.8254C91.2659 78.225 90.9659 77.7383 90.5959 77.7383C90.2258 77.7383 89.9258 78.225 89.9258 78.8254C89.9258 79.4259 90.2258 79.9126 90.5959 79.9126Z" fill="#3F3D56"/>
<path d="M90.5959 78.5845C90.9659 78.5845 91.2659 78.0977 91.2659 77.4973C91.2659 76.8969 90.9659 76.4102 90.5959 76.4102C90.2258 76.4102 89.9258 76.8969 89.9258 77.4973C89.9258 78.0977 90.2258 78.5845 90.5959 78.5845Z" fill="#3F3D56"/>
<path d="M90.5959 77.2564C90.9659 77.2564 91.2659 76.7696 91.2659 76.1692C91.2659 75.5688 90.9659 75.082 90.5959 75.082C90.2258 75.082 89.9258 75.5688 89.9258 76.1692C89.9258 76.7696 90.2258 77.2564 90.5959 77.2564Z" fill="#3F3D56"/>
<path d="M90.5959 75.9243C90.9659 75.9243 91.2659 75.4376 91.2659 74.8372C91.2659 74.2367 90.9659 73.75 90.5959 73.75C90.2258 73.75 89.9258 74.2367 89.9258 74.8372C89.9258 75.4376 90.2258 75.9243 90.5959 75.9243Z" fill="#3F3D56"/>
<path d="M90.5959 74.5962C90.9659 74.5962 91.2659 74.1095 91.2659 73.509C91.2659 72.9086 90.9659 72.4219 90.5959 72.4219C90.2258 72.4219 89.9258 72.9086 89.9258 73.509C89.9258 74.1095 90.2258 74.5962 90.5959 74.5962Z" fill="#3F3D56"/>
<path d="M90.5959 73.2681C90.9659 73.2681 91.2659 72.7813 91.2659 72.1809C91.2659 71.5805 90.9659 71.0938 90.5959 71.0938C90.2258 71.0938 89.9258 71.5805 89.9258 72.1809C89.9258 72.7813 90.2258 73.2681 90.5959 73.2681Z" fill="#3F3D56"/>
<path d="M90.5959 71.9399C90.9659 71.9399 91.2659 71.4532 91.2659 70.8528C91.2659 70.2524 90.9659 69.7656 90.5959 69.7656C90.2258 69.7656 89.9258 70.2524 89.9258 70.8528C89.9258 71.4532 90.2258 71.9399 90.5959 71.9399Z" fill="#3F3D56"/>
<path d="M93.1041 61.7597C93.1954 61.6156 93.2787 61.4638 93.3533 61.3056L91.5934 60.9465L93.4967 60.9641C93.6792 60.4716 93.7788 59.9381 93.7894 59.3962C93.8 58.8544 93.7213 58.3155 93.5582 57.8127L91.004 59.4553L93.3594 57.3085C93.1389 56.8354 92.8422 56.4236 92.4877 56.0989C92.1332 55.7742 91.7286 55.5435 91.299 55.4212C90.8694 55.2989 90.4241 55.2877 89.9909 55.3881C89.5576 55.4885 89.1457 55.6985 88.7808 56.005C88.4159 56.3114 88.1058 56.7078 87.8699 57.1693C87.634 57.6309 87.4774 58.1477 87.4097 58.6877C87.342 59.2276 87.3647 59.779 87.4765 60.3075C87.5883 60.8361 87.7867 61.3304 88.0593 61.7597C87.9173 61.9849 87.7948 62.2282 87.694 62.4853L89.9787 63.9578L87.5406 62.9432C87.3695 63.5701 87.3271 64.2399 87.4173 64.8922C87.5076 65.5444 87.7275 66.1585 88.0573 66.6788C87.6852 67.2657 87.4537 67.9706 87.3894 68.7128C87.3251 69.455 87.4306 70.2047 87.6938 70.8762C87.9569 71.5476 88.3672 72.1137 88.8776 72.5098C89.388 72.9058 89.978 73.1159 90.5802 73.1159C91.1824 73.1159 91.7724 72.9058 92.2828 72.5098C92.7932 72.1137 93.2035 71.5476 93.4666 70.8762C93.7298 70.2047 93.8353 69.455 93.771 68.7128C93.7067 67.9706 93.4752 67.2657 93.1031 66.6788C93.5476 65.9775 93.7893 65.1113 93.7893 64.2193C93.7893 63.3273 93.5476 62.4611 93.1031 61.7597H93.1041Z" fill="#00BFA6" fill-opacity="0.75"/>
<path opacity="0.1" d="M87.3731 64.2188C87.3719 65.1111 87.6137 65.9777 88.0593 66.6784C87.6871 67.2652 87.4557 67.9701 87.3914 68.7123C87.3271 69.4545 87.4326 70.2042 87.6957 70.8757C87.9589 71.5471 88.3691 72.1132 88.8796 72.5093C89.39 72.9053 89.98 73.1154 90.5822 73.1154C91.1843 73.1154 91.7743 72.9053 92.2848 72.5093C92.7952 72.1132 93.2054 71.5471 93.4686 70.8757C93.7317 70.2042 93.8372 69.4545 93.7729 68.7123C93.7086 67.9701 93.4772 67.2652 93.105 66.6784C93.5339 66.0015 87.3731 63.7722 87.3731 64.2188Z" fill="black"/>
<path d="M46.9728 22.5098C47.6792 22.8476 48.3685 23.333 49.1264 23.3968C50.0881 23.4769 50.9963 22.8689 51.952 22.7012C53.7029 22.3947 55.365 23.577 57.0099 24.3801C58.6548 25.1833 60.774 25.5161 61.9799 23.9135C63.0042 22.5511 62.863 20.2855 62.0395 18.7342C61.216 17.1829 59.8708 16.1795 58.5408 15.3151C57.0734 14.3618 55.5436 13.4948 53.9098 13.1582C50.4423 12.4464 46.9194 14.2241 44.0423 16.7275C43.0876 17.5582 42.144 18.5277 41.6879 19.8551C41.4296 20.6057 41.3488 21.5665 41.5739 22.3484C41.9432 23.6345 42.1854 23.4819 42.9514 23.1466C44.4146 22.5086 45.2795 21.7067 46.9728 22.5098Z" fill="#3F3D56"/>
</g>
<defs>
<clipPath id="clip0_1216_1005">
<rect width="100" height="100" fill="white"/>
</clipPath>
</defs>
</svg>
