<svg width="465" height="382" viewBox="0 0 465 382" fill="none" xmlns="http://www.w3.org/2000/svg">
<g clip-path="url(#clip0_690_2453)">
<path d="M435.117 382V338.971C435.117 338.971 451.888 369.477 435.117 382Z" fill="#F1F1F1"/>
<path d="M436.154 381.993L404.453 352.894C404.453 352.894 438.269 361.171 436.154 381.993Z" fill="#F1F1F1"/>
<path d="M141.835 13.1067C145.455 13.1067 148.389 10.1727 148.389 6.55336C148.389 2.93404 145.455 0 141.835 0C138.216 0 135.281 2.93404 135.281 6.55336C135.281 10.1727 138.216 13.1067 141.835 13.1067Z" fill="#F1F1F1"/>
<path d="M125.177 29.762C128.797 29.762 131.731 26.828 131.731 23.2086C131.731 19.5893 128.797 16.6553 125.177 16.6553C121.557 16.6553 118.623 19.5893 118.623 23.2086C118.623 26.828 121.557 29.762 125.177 29.762Z" fill="#F1F1F1"/>
<path d="M121.013 325.387C124.633 325.387 127.567 322.453 127.567 318.834C127.567 315.214 124.633 312.28 121.013 312.28C117.393 312.28 114.459 315.214 114.459 318.834C114.459 322.453 117.393 325.387 121.013 325.387Z" fill="#F1F1F1"/>
<path d="M345.07 374.23H337.941L337.533 347.164L345.07 346.737V374.23Z" fill="#9F616A"/>
<path d="M346.895 381.147L323.896 381.146V380.849C323.899 378.475 324.843 376.2 326.522 374.522C328.2 372.843 330.476 371.899 332.85 371.896H346.895V381.147Z" fill="#2F2E41"/>
<path d="M385.876 366.018L379.342 368.867L368.15 344.218L374.889 340.816L385.876 366.018Z" fill="#9F616A"/>
<path d="M369.23 380.819L369.111 380.546C368.641 379.468 368.388 378.308 368.367 377.133C368.345 375.958 368.555 374.789 368.985 373.695C369.415 372.601 370.056 371.602 370.872 370.755C371.688 369.909 372.663 369.231 373.741 368.762L386.616 363.149L390.312 371.629L369.23 380.819Z" fill="#2F2E41"/>
<path d="M357.737 160.579C366.268 160.579 373.183 153.664 373.183 145.134C373.183 136.604 366.268 129.689 357.737 129.689C349.206 129.689 342.291 136.604 342.291 145.134C342.291 153.664 349.206 160.579 357.737 160.579Z" fill="#9F616A"/>
<path d="M385.385 353.098L365.421 304.333L375.118 258.704L356.722 257.706L346.598 308.753L372.123 359.372L385.385 353.098Z" fill="#2F2E41"/>
<path d="M363.567 249.578L354.156 307.897L351.326 363.793L335.079 363.65L334.477 256.708L363.567 249.578Z" fill="#2F2E41"/>
<path d="M376.477 252.904L375.551 261.351L329.496 263.411L332.614 250.71L376.477 252.904Z" fill="#CBCBCB"/>
<path d="M332.686 268.85C332.245 268.295 331.92 267.658 331.727 266.977C331.535 266.296 331.479 265.583 331.564 264.88C331.649 264.177 331.873 263.497 332.222 262.881C332.571 262.265 333.039 261.725 333.599 261.291C333.833 261.109 334.082 260.947 334.343 260.805L352.406 192.931L363.114 197.636L341.894 263.227C342.399 264.326 342.519 265.563 342.232 266.738C341.945 267.914 341.27 268.958 340.315 269.7C339.187 270.591 337.754 271.001 336.326 270.842C334.897 270.683 333.589 269.967 332.686 268.85Z" fill="#9F616A"/>
<path d="M344.103 175.445L346.233 171.045C346.233 171.045 356.723 161.977 367.788 167.412L369.494 172.492L378.518 187.063L376.479 254.366C376.479 254.366 338.83 251.503 329.498 254.914L333.6 201.583L344.103 175.445Z" fill="#3F3D56"/>
<path d="M346.062 260.86L330.166 256.414L344.867 210.472L346.198 184.822C346.275 183.527 346.623 182.262 347.22 181.109C347.816 179.957 348.648 178.942 349.661 178.131C350.882 177.142 352.294 176.415 353.809 175.998C355.324 175.58 356.909 175.48 358.465 175.704C363.659 176.416 367.48 180.387 367.55 185.148L367.55 185.172L367.547 185.194L362.442 221.147L360.805 226.999L346.062 260.86Z" fill="#CBCBCB"/>
<path d="M364.739 157.24L368.255 158.129L373.584 152.464C373.584 152.464 383.378 129.747 361.731 126.271C340.085 122.795 344.812 131.571 341.918 137.074L350.763 139.374L358.724 147.511C358.724 147.511 363.919 143.706 365.447 147.157C366.974 150.608 364.739 157.24 364.739 157.24Z" fill="#2F2E41"/>
<path d="M241.575 288.992H0V47.4395H241.575V288.992Z" fill="white"/>
<path d="M241.575 288.992H0V47.4395H241.575V288.992ZM3.56925 285.423H238.006V51.0084H3.56925V285.423Z" fill="#E5E5E5"/>
<path d="M204.738 151.28H49.8086V156.749H204.738V151.28Z" fill="#E4E4EA"/>
<path d="M204.738 165.498H49.8086V170.967H204.738V165.498Z" fill="#E4E4EA"/>
<path d="M204.738 179.717H49.8086V185.185H204.738V179.717Z" fill="#E4E4EA"/>
<path d="M40.4052 158.385C42.3764 158.385 43.9744 156.787 43.9744 154.816C43.9744 152.845 42.3764 151.247 40.4052 151.247C38.4339 151.247 36.8359 152.845 36.8359 154.816C36.8359 156.787 38.4339 158.385 40.4052 158.385Z" fill="#E4E4EA"/>
<path d="M204.738 90.0137H49.8086V95.4823H204.738V90.0137Z" fill="#E5E5E5"/>
<path d="M204.738 104.232H49.8086V109.701H204.738V104.232Z" fill="#E5E5E5"/>
<path d="M204.738 118.45H49.8086V123.919H204.738V118.45Z" fill="#E5E5E5"/>
<path d="M40.4052 96.5236C42.3764 96.5236 43.9744 94.9257 43.9744 92.9547C43.9744 90.9836 42.3764 89.3857 40.4052 89.3857C38.4339 89.3857 36.8359 90.9836 36.8359 92.9547C36.8359 94.9257 38.4339 96.5236 40.4052 96.5236Z" fill="#E5E5E5"/>
<path d="M204.738 213.142H49.8086V218.61H204.738V213.142Z" fill="#E5E5E5"/>
<path d="M204.738 227.359H49.8086V232.828H204.738V227.359Z" fill="#E5E5E5"/>
<path d="M204.738 241.578H49.8086V247.047H204.738V241.578Z" fill="#E5E5E5"/>
<path d="M40.4052 219.651C42.3764 219.651 43.9744 218.053 43.9744 216.082C43.9744 214.111 42.3764 212.513 40.4052 212.513C38.4339 212.513 36.8359 214.111 36.8359 216.082C36.8359 218.053 38.4339 219.651 40.4052 219.651Z" fill="#E5E5E5"/>
<path d="M464.406 381.848H286.538C286.38 381.848 286.229 381.785 286.118 381.674C286.006 381.562 285.943 381.411 285.943 381.253C285.943 381.095 286.006 380.944 286.118 380.832C286.229 380.721 286.38 380.658 286.538 380.658H464.406C464.564 380.658 464.715 380.721 464.826 380.832C464.938 380.944 465.001 381.095 465.001 381.253C465.001 381.411 464.938 381.562 464.826 381.674C464.715 381.785 464.564 381.848 464.406 381.848Z" fill="#CBCBCB"/>
</g>
<defs>
<clipPath id="clip0_690_2453">
<rect width="465" height="382" fill="white"/>
</clipPath>
</defs>
</svg>
