<svg width="100" height="100" viewBox="0 0 100 100" fill="none" xmlns="http://www.w3.org/2000/svg">
<g clip-path="url(#clip0_1216_1735)">
<path d="M26.5425 22.9847L14.6465 20.9914L17.0539 5.66797L29.833 8.83957L26.5425 22.9847Z" fill="#2F2E41"/>
<path d="M15.1064 89.2768V26.0619C15.1064 24.9164 15.8479 23.9844 16.7594 23.9844H98.3467C99.2581 23.9844 99.9996 24.9164 99.9996 26.0619V89.2768C99.9996 90.4224 99.2581 91.3544 98.3467 91.3544H16.7594C15.8479 91.3544 15.1064 90.4224 15.1064 89.2768ZM99.7002 26.0619C99.7002 25.1224 99.0942 24.3607 98.3467 24.3607H16.7594C16.0119 24.3607 15.4059 25.1224 15.4059 26.0619V89.2768C15.4059 90.2164 16.0119 90.978 16.7594 90.978H74.7512C88.5301 90.978 99.7002 76.9386 99.7002 59.6201V26.0619Z" fill="#3F3D56"/>
<path d="M91.739 33.4509L90.5068 32.7173C91.0122 33.6038 91.4477 34.9883 91.6809 36.09C92.0756 35.0638 92.712 33.8081 93.3419 33.058L92.0396 33.4791C92.842 28.5359 95.8604 24.9871 99.3168 24.9871L99.3657 24.8086C95.7554 24.8086 92.5584 28.3081 91.739 33.4509Z" fill="#3F3D56"/>
<path d="M97.4109 40.982H89.6253C89.295 40.982 89.0264 40.6444 89.0264 40.2293C89.0264 39.8142 89.295 39.4766 89.6253 39.4766H97.4109C97.7411 39.4766 98.0098 39.8142 98.0098 40.2293C98.0098 40.6444 97.7411 40.982 97.4109 40.982Z" fill="#00BFA6"/>
<path d="M74.2953 46.6366V66.5842C74.2953 68.3482 73.1535 69.7833 71.75 69.7833H55.8793C54.4758 69.7833 53.334 68.3482 53.334 66.5842V46.6366C53.334 44.8726 54.4758 43.4375 55.8793 43.4375H71.75C73.1535 43.4375 74.2953 44.8726 74.2953 46.6366ZM70.7654 69.4069C72.5495 69.4069 73.9958 67.5891 73.9958 65.3467V56.5274C73.9958 49.5059 69.4671 43.8139 63.8806 43.8139H55.8793C54.6389 43.8139 53.6334 45.0777 53.6334 46.6366V63.8011C53.6334 66.8971 55.6303 69.4069 58.0936 69.4069H70.7654Z" fill="#3F3D56"/>
<path d="M65.9272 51.5849H60.8036C60.6744 51.5849 60.5693 51.4528 60.5693 51.2905C60.5693 51.1281 60.6744 50.9961 60.8036 50.9961H65.9272C66.0564 50.9961 66.1615 51.1281 66.1615 51.2905C66.1615 51.4528 66.0564 51.5849 65.9272 51.5849Z" fill="#3F3D56"/>
<path d="M65.9272 57.8623H60.8036C60.6744 57.8623 60.5693 57.7302 60.5693 57.5678C60.5693 57.4055 60.6744 57.2734 60.8036 57.2734H65.9272C66.0564 57.2734 66.1615 57.4055 66.1615 57.5678C66.1615 57.7302 66.0564 57.8623 65.9272 57.8623Z" fill="#3F3D56"/>
<path d="M63.3823 66.5185H58.2587C58.1295 66.5185 58.0244 66.3864 58.0244 66.2241C58.0244 66.0617 58.1295 65.9297 58.2587 65.9297H63.3823C63.5115 65.9297 63.6165 66.0617 63.6165 66.2241C63.6165 66.3864 63.5115 66.5185 63.3823 66.5185Z" fill="#3F3D56"/>
<path d="M68.677 54.7256H58.0546C57.9254 54.7256 57.8203 54.5935 57.8203 54.4311C57.8203 54.2688 57.9254 54.1367 58.0546 54.1367H68.677C68.8062 54.1367 68.9112 54.2688 68.9112 54.4311C68.9112 54.5935 68.8062 54.7256 68.677 54.7256Z" fill="#3F3D56"/>
<path d="M27.4924 56.9498H9.93359C11.4053 52.822 12.3102 48.8909 10.8957 45.764L27.4924 44.5547C26.663 48.7759 26.5616 52.9186 27.4924 56.9498Z" fill="#FFB6B6"/>
<path d="M33.5398 91.3563H20.6312C20.5379 91.3563 20.4527 91.2893 20.412 91.1837L20.3334 90.98L18.6179 86.5543C18.5075 86.2693 18.1676 86.3571 18.1555 86.6737L17.9902 90.98L17.9868 91.0653C17.9803 91.2284 17.8733 91.3563 17.7434 91.3563H5.03392C4.9055 91.3563 4.79903 91.2308 4.79061 91.0697C4.78904 91.0397 4.78751 91.0098 4.78607 90.98C3.97457 75.2383 6.89268 64.5683 8.60402 59.7941L8.60552 59.7922C9.27777 57.9141 9.76587 56.9487 9.76587 56.9487L9.93506 56.9468H9.93656L13.3547 56.8716H13.3562L16.3837 56.8076L18.6714 56.7605L19.5892 56.7398H19.5907L20.1657 56.7285L23.0239 56.6664L25.5767 56.6119L27.4093 56.5742H27.4602L27.7327 58.0515V58.0533L27.7432 58.1192V58.1211L27.7896 58.3639L27.7911 58.3714L27.8839 58.8814V58.8851L27.8899 58.9133V58.9152L27.9124 59.0376L27.9139 59.0432L28.1295 60.2156L28.4783 62.1219L28.938 64.6153L29.5174 67.7806L29.8108 69.3745L30.2136 71.5706L33.777 90.98C33.813 91.1722 33.6969 91.3563 33.5398 91.3563Z" fill="#2F2E41"/>
<path d="M24.9568 20.1893L17.969 19.8828L15.2069 24.5382L13.7535 24.9349C11.5749 25.5295 10.0803 28.055 10.2539 30.8487L10.9142 50.203L11.2136 52.4612L27.6832 55.8485L31.3864 26.558L26.5135 24.3577L24.9568 20.1893Z" fill="#00BFA6"/>
<path d="M22.4071 19.4546C25.8712 19.4546 28.6794 15.925 28.6794 11.5711C28.6794 7.21709 25.8712 3.6875 22.4071 3.6875C18.943 3.6875 16.1348 7.21709 16.1348 11.5711C16.1348 15.925 18.943 19.4546 22.4071 19.4546Z" fill="#FFB6B6"/>
<path d="M92.2571 90.622L86.8194 88.082C86.0038 87.701 85.5868 86.5571 85.8899 85.532L91.2322 67.4644C91.5353 66.4393 92.4454 65.9152 93.261 66.2962L98.6987 68.8362C99.5143 69.2171 99.9313 70.3611 99.6282 71.3862C97.5841 78.6888 95.3544 86.8944 94.286 89.4538C93.9829 90.4789 93.0727 91.0029 92.2571 90.622Z" fill="#3F3D56"/>
<path d="M98.2883 76.2084C98.2538 76.1923 98.2153 76.2144 98.2024 76.2578L97.4583 78.7746C97.4455 78.818 97.4631 78.8663 97.4976 78.8825C97.5321 78.8986 97.5706 78.8764 97.5834 78.833L98.3276 76.3163C98.3404 76.2729 98.3228 76.2245 98.2883 76.2084Z" fill="#3F3D56"/>
<path d="M99.4877 71.3197L94.1456 89.3869C93.8818 90.2792 93.1134 90.751 92.398 90.4813L92.3977 90.4811C92.3872 90.4771 92.3766 90.473 92.3659 90.4685C92.3471 90.461 92.3285 90.4528 92.3097 90.444C92.3097 90.444 92.2427 90.4056 92.1204 90.335C91.9969 90.2639 91.8172 90.1598 91.5935 90.0289C91.5263 89.9899 91.4556 89.9484 91.381 89.9046C91.2323 89.8173 91.0691 89.7213 90.8944 89.6173C90.8247 89.5763 90.7526 89.5332 90.6791 89.4895C90.3029 89.2659 89.8822 89.0134 89.4398 88.7432C89.3648 88.6979 89.2894 88.6519 89.2135 88.6053C89.1936 88.5929 85.9688 85.8074 86.0312 85.5967L91.3733 67.5294C91.648 66.6002 92.4698 66.127 93.2092 66.4723L94.0082 66.8456C94.1359 66.9052 94.2016 67.0782 94.1652 67.2433C94.163 67.2544 94.1608 67.2655 94.1592 67.2768C94.1348 67.4485 94.219 67.6153 94.3491 67.6761L97.1579 68.9881C97.288 69.0489 97.4385 68.9916 97.5092 68.8416C97.5139 68.8317 97.518 68.8215 97.5221 68.8113C97.5803 68.6564 97.7199 68.5793 97.8476 68.6389L98.6467 69.0122C99.386 69.3575 99.7625 70.3904 99.4877 71.3197Z" fill="#00BFA6"/>
<path d="M90.3434 70.349C90.3089 70.3329 90.2704 70.3551 90.2576 70.3984L90.0716 71.0276C90.0587 71.071 90.0764 71.1194 90.1109 71.1355C90.1454 71.1516 90.1839 71.1295 90.1967 71.0861L90.3828 70.4569C90.3956 70.4135 90.3779 70.3651 90.3434 70.349Z" fill="#3F3D56"/>
<path d="M89.7854 72.2357C89.7509 72.2196 89.7124 72.2418 89.6996 72.2852L89.3391 73.5042C89.3263 73.5476 89.344 73.596 89.3785 73.6121C89.413 73.6282 89.4515 73.606 89.4643 73.5627L89.8247 72.3436C89.8376 72.3002 89.8199 72.2519 89.7854 72.2357Z" fill="#3F3D56"/>
<path d="M89.2737 73.9662C89.2392 73.9501 89.2007 73.9722 89.1879 74.0156L88.8274 75.2347C88.8146 75.2781 88.8322 75.3264 88.8668 75.3426C88.9013 75.3587 88.9398 75.3365 88.9526 75.2931L89.313 74.0741C89.3259 74.0307 89.3082 73.9823 89.2737 73.9662Z" fill="#3F3D56"/>
<path d="M93.9044 67.1112L92.7084 66.5525C92.7017 66.5494 92.6943 66.5537 92.6918 66.5621L92.6426 66.7283C92.6402 66.7367 92.6436 66.746 92.6502 66.7491L93.8463 67.3078C93.8529 67.3109 93.8604 67.3067 93.8629 67.2983L93.912 67.132C93.9145 67.1236 93.9111 67.1143 93.9044 67.1112Z" fill="#E6E6E6"/>
<path d="M97.9519 69.2145C98.0256 69.2145 98.0854 69.1394 98.0854 69.0467C98.0854 68.954 98.0256 68.8789 97.9519 68.8789C97.8781 68.8789 97.8184 68.954 97.8184 69.0467C97.8184 69.1394 97.8781 69.2145 97.9519 69.2145Z" fill="#E6E6E6"/>
<path d="M98.2956 69.3747C98.3694 69.3747 98.4291 69.2996 98.4291 69.2069C98.4291 69.1142 98.3694 69.0391 98.2956 69.0391C98.2219 69.0391 98.1621 69.1142 98.1621 69.2069C98.1621 69.2996 98.2219 69.3747 98.2956 69.3747Z" fill="#E6E6E6"/>
<path d="M98.6403 69.5348C98.7141 69.5348 98.7739 69.4597 98.7739 69.367C98.7739 69.2744 98.7141 69.1992 98.6403 69.1992C98.5666 69.1992 98.5068 69.2744 98.5068 69.367C98.5068 69.4597 98.5666 69.5348 98.6403 69.5348Z" fill="#E6E6E6"/>
<path d="M78.9243 33.5694H74.2286C73.6244 33.5694 73.1328 32.9515 73.1328 32.1921V25.5374C73.1328 24.778 73.6244 24.1602 74.2286 24.1602H78.9243C79.5285 24.1602 80.0201 24.778 80.0201 25.5374V32.1921C80.0201 32.9515 79.5285 33.5694 78.9243 33.5694Z" fill="white"/>
<path d="M78.9244 33.5694H74.2287C73.6245 33.5694 73.1329 32.9515 73.1329 32.1921C72.8968 29.7417 72.8317 27.4595 73.1329 25.5374C73.1329 24.778 73.6245 24.1602 74.2287 24.1602H78.9244C79.5286 24.1602 80.0202 24.778 80.0202 25.5374V32.1921C80.0202 32.9515 79.5286 33.5694 78.9244 33.5694ZM74.2287 24.3483C73.707 24.3483 73.2826 24.8817 73.2826 25.5374V32.1921C73.2826 32.8478 73.707 33.3812 74.2287 33.3812H78.9244C79.446 33.3812 79.8704 32.8478 79.8704 32.1921V25.5374C79.8704 24.8817 79.446 24.3483 78.9244 24.3483H74.2287Z" fill="#3F3D56"/>
<path d="M78.4498 28.2052H74.5808C74.4167 28.2052 74.2832 28.0374 74.2832 27.8311C74.2832 27.6248 74.4167 27.457 74.5808 27.457H78.4498C78.6139 27.457 78.7475 27.6248 78.7475 27.8311C78.7475 28.0374 78.6139 28.2052 78.4498 28.2052Z" fill="#00BFA6"/>
<path d="M78.4498 30.2755H74.5808C74.4167 30.2755 74.2832 30.1077 74.2832 29.9014C74.2832 29.6952 74.4167 29.5273 74.5808 29.5273H78.4498C78.6139 29.5273 78.7475 29.6952 78.7475 29.9014C78.7475 30.1077 78.6139 30.2755 78.4498 30.2755Z" fill="#00BFA6"/>
<path d="M78.4498 26.1349H74.5808C74.4167 26.1349 74.2832 25.967 74.2832 25.7608C74.2832 25.5545 74.4167 25.3867 74.5808 25.3867H78.4498C78.6139 25.3867 78.7475 25.5545 78.7475 25.7608C78.7475 25.967 78.6139 26.1349 78.4498 26.1349Z" fill="#00BFA6"/>
<path d="M20.2747 21.9082C20.6184 22.7226 21.0799 23.3719 21.5692 23.7919L24.4535 31.8098L27.4488 29.9732L24.2005 22.0376C24.1982 21.2928 24.0294 20.4484 23.6857 19.634C22.9005 17.7736 21.5004 16.7746 20.5585 17.4026C19.6166 18.0306 19.4895 20.0478 20.2747 21.9082Z" fill="#FFB6B6"/>
<path d="M26.7697 26.9637C26.7697 26.9637 31.1627 24.0703 32.5258 27.1084C33.6887 29.7005 34.529 42.6715 34.7507 46.4236C34.7896 47.0822 34.6529 47.7363 34.362 48.2863C33.5005 49.915 31.6433 50.0702 30.6177 48.5993L21.7158 26.5691L25.9383 24.0469L26.971 27.1905L26.7697 26.9637Z" fill="#00BFA6"/>
<path d="M36.161 58.0001C36.2574 57.8283 36.3143 57.6189 36.3143 57.3927V38.0861C36.3143 37.5035 35.9385 37.0312 35.475 37.0312H12.2559C11.7923 37.0312 11.4166 37.5035 11.4166 38.0861V57.3927C11.4166 57.6189 11.4734 57.8283 11.5698 58.0001H8.66992V59.0122C18.7523 59.7209 28.8827 59.7209 39.0609 59.0122V58.0001H36.161Z" fill="#3F3D56"/>
<path d="M61.1079 99.9991H56.4122C55.808 99.9991 55.3164 99.3812 55.3164 98.6218V91.9671C55.3164 91.2077 55.808 90.5898 56.4122 90.5898H61.1079C61.7121 90.5898 62.2037 91.2077 62.2037 91.9671V98.6218C62.2037 99.3812 61.7121 99.9991 61.1079 99.9991Z" fill="white"/>
<path d="M61.1079 99.9991H56.4123C55.808 99.9991 55.3165 99.3812 55.3165 98.6218C55.0804 96.1713 55.0153 93.8892 55.3165 91.9671C55.3165 91.2077 55.808 90.5898 56.4123 90.5898H61.1079C61.7122 90.5898 62.2037 91.2077 62.2037 91.9671V98.6218C62.2037 99.3812 61.7122 99.9991 61.1079 99.9991ZM56.4123 90.778C55.8906 90.778 55.4662 91.3114 55.4662 91.9671V98.6218C55.4662 99.2775 55.8906 99.8109 56.4123 99.8109H61.1079C61.6296 99.8109 62.054 99.2775 62.054 98.6218V91.9671C62.054 91.3114 61.6296 90.778 61.1079 90.778H56.4123Z" fill="#3F3D56"/>
<path d="M60.6334 94.6349H56.7644C56.6003 94.6349 56.4668 94.467 56.4668 94.2608C56.4668 94.0545 56.6003 93.8867 56.7644 93.8867H60.6334C60.7975 93.8867 60.9311 94.0545 60.9311 94.2608C60.9311 94.467 60.7975 94.6349 60.6334 94.6349Z" fill="#00BFA6"/>
<path d="M60.6334 96.7052H56.7644C56.6003 96.7052 56.4668 96.5374 56.4668 96.3311C56.4668 96.1248 56.6003 95.957 56.7644 95.957H60.6334C60.7975 95.957 60.9311 96.1248 60.9311 96.3311C60.9311 96.5374 60.7975 96.7052 60.6334 96.7052Z" fill="#00BFA6"/>
<path d="M60.6334 92.5645H56.7644C56.6003 92.5645 56.4668 92.3967 56.4668 92.1905C56.4668 91.9842 56.6003 91.8164 56.7644 91.8164H60.6334C60.7975 91.8164 60.9311 91.9842 60.9311 92.1905C60.9311 92.3967 60.7975 92.5645 60.6334 92.5645Z" fill="#00BFA6"/>
<path d="M20.1435 55.4454C19.41 55.4503 18.7383 55.663 18.2152 56.0129L11.226 55.5047L11.1309 59.6918L18.231 59.7566C18.757 60.0996 19.4305 60.3033 20.1639 60.2984C21.8394 60.2873 23.1931 59.1919 23.1875 57.8517C23.1818 56.5116 21.819 55.4343 20.1435 55.4454Z" fill="#FFB6B6"/>
<path d="M13.4286 24.9487C13.4286 24.9487 7.48718 24.1167 5.9737 28.7494C4.81755 32.2883 1.81394 46.0812 0.12845 53.978C-0.487773 56.865 1.18749 59.7237 3.56388 59.842L14.0588 60.3644L14.6658 54.5289L7.17149 53.0252L11.3637 37.2177L13.4286 24.9487Z" fill="#00BFA6"/>
<path d="M28.6815 5.48527C28.9831 3.56542 27.132 2.81976 25.7457 1.92895L24.5687 0.677757C23.3348 -0.115133 21.892 -0.217091 20.5952 0.396952L16.5479 2.09026C14.7108 2.96009 14.0698 5.0307 13.0112 7.10861L11.2367 10.0861C10.1945 12.1317 10.5061 15.3252 10.7505 17.7346L10.8529 18.7443L9.87793 21.6746L17.3708 23.3559L18.881 18.8337L17.9385 16.6843C17.6041 15.9217 17.738 14.9692 18.2599 14.3967C20.1376 12.3371 20.4973 8.80227 20.4973 8.80227L22.0846 10.5617C23.2382 11.1056 24.3031 11.3861 25.2808 11.4074C26.3561 11.4308 27.3259 11.1407 28.1922 10.5429L28.3447 13.458C27.8969 16.9042 27.2286 17.662 24.2177 20.2983L27.8415 24.8399L28.0113 22.9905C28.4153 18.5911 30.1608 15.5291 30.6333 11.9895C30.96 9.54198 30.2058 7.06289 28.6815 5.48527Z" fill="#2F2E41"/>
</g>
<defs>
<clipPath id="clip0_1216_1735">
<rect width="100" height="100" fill="white"/>
</clipPath>
</defs>
</svg>
