<svg width="100" height="100" viewBox="0 0 100 100" fill="none" xmlns="http://www.w3.org/2000/svg">
<g clip-path="url(#clip0_1216_1105)">
<path d="M75.2138 3.86273C74.4583 4.5003 73.239 1.97847 72.9627 3.212C72.6864 4.44554 73.3556 9.42279 73.7009 10.6165C73.8725 11.2098 74.1151 11.7525 74.2835 12.3479C74.4519 12.9433 74.5422 13.628 74.3934 14.235C74.1344 15.2914 73.2794 15.7212 72.8556 16.6497C72.3619 17.7312 72.5613 19.1878 72.7921 20.4523C72.991 21.5423 73.203 22.6421 73.5859 23.615C73.9688 24.5879 74.5461 25.4351 75.2675 25.757C76.186 26.1668 77.1677 25.6798 78.0531 25.1299C78.9044 24.6012 79.7465 24.0019 80.4706 23.1465C81.1946 22.2912 81.7988 21.1559 82.0518 19.8257C82.3693 18.1572 82.1041 16.3312 81.5544 14.8048C81.0047 13.2784 80.1916 12.0067 79.3572 10.8061C77.952 8.78413 76.4566 6.90351 74.8843 5.18109L75.2138 3.86273Z" fill="#2F2E41"/>
<path d="M86.4495 89.4766L85.7362 99.474L85.7038 99.9311L77.6342 99.8839L77.5916 99.4252L76.7373 90.2644L86.4495 89.4766Z" fill="#FFB6B6"/>
<path d="M74.1113 99.4055C74.1113 99.5564 74.1103 99.7088 74.1093 99.8627L65.7323 99.8139L65.7049 99.3552L65.1885 90.6591L73.8505 89.082C73.8505 89.082 74.1296 93.6945 74.1113 99.4055Z" fill="#FFB6B6"/>
<path d="M73.1789 21.5721C74.5095 24.0894 76.8555 24.8188 78.7489 23.3205C81.4515 21.1817 85.1414 18.7305 85.7935 20.6892C86.8435 23.8428 86.8435 26.9032 86.8435 26.9032L87.8934 63.6569C87.8934 63.6569 88.4184 78.4968 81.8561 77.187C75.2938 75.8771 65.0566 81.3959 65.0566 81.3959L66.1023 65.1137L68.8945 58.9748L70.0256 41.3625L68.0753 27.1934L70.4377 25.6166C70.4377 25.6166 70.7002 22.8572 71.4877 22.8572C72.2752 22.8572 72.4653 20.2065 73.1577 21.5319C73.1646 21.5451 73.1717 21.5585 73.1789 21.5721Z" fill="#00BFA6"/>
<path d="M87.4155 99.943L85.7038 99.9323L77.6343 99.8851L76.5841 99.879L76.5232 99.4203L74.8998 87.1129L74.6461 99.4097L74.637 99.8668L74.1094 99.8638L65.7324 99.815L65.1317 99.8104L65.1297 99.3533L65.0942 90.6618L65.0617 82.6132L65.0566 81.3958L65.0577 81.3942L67.5659 73.7586L68.2974 71.5309L68.4476 71.0738L69.9127 66.6137L83.1702 63.8572L83.3731 63.8146L86.9751 63.0664L87.0015 65.2835L87.0167 66.5421L87.0705 71.0738L87.0766 71.5309L87.0827 72.0536L87.4094 99.4843L87.4155 99.943Z" fill="#2F2E41"/>
<path d="M77.1011 20.4025C80.1286 20.4025 82.583 16.7167 82.583 12.17C82.583 7.62333 80.1286 3.9375 77.1011 3.9375C74.0735 3.9375 71.6191 7.62333 71.6191 12.17C71.6191 16.7167 74.0735 20.4025 77.1011 20.4025Z" fill="#FFB6B6"/>
<path d="M83.2804 25.0649C82.0009 27.8059 81.3466 31.1925 81.4504 34.5363C79.9998 33.481 79.0207 31.2513 78.6874 28.8828C78.3542 26.5144 78.6084 24.0275 79.1439 21.7442C79.1492 21.7214 79.1546 21.6986 79.16 21.6758C79.9731 18.2487 79.2176 14.4183 77.2538 12.2879C75.9292 10.8509 74.7803 9.04806 73.8986 6.98153C73.4008 5.81488 72.9777 4.35139 73.3496 3.08331C73.6922 1.91482 74.5775 1.36868 75.3921 1.00326C77.2522 0.168839 79.2287 -0.305958 81.1379 0.222039C83.0472 0.750037 84.8851 2.39892 85.7875 4.98031C86.6898 7.5617 86.4534 11.0847 84.9888 12.9983C85.4508 13.2226 85.7776 13.9579 85.7384 14.6846C85.6991 15.4113 85.2977 16.0579 84.8177 16.1675C85.1309 16.1508 85.3157 16.7702 85.204 17.2099C85.0924 17.6495 84.8044 17.9226 84.5297 18.1489C84.1383 18.4713 83.7046 18.8084 83.7029 19.6525C83.7022 19.991 83.7826 20.3195 83.9139 20.5946C84.2321 21.2612 84.7459 21.5615 85.2405 21.8433C84.1944 22.306 83.3603 23.7101 83.173 25.3234L83.2804 25.0649Z" fill="#2F2E41"/>
<path d="M59.9052 21.8819C59.7556 19.5248 60.4441 17.4983 61.443 17.3556C62.4419 17.2129 63.3726 19.0078 63.522 21.3657C63.5903 22.3063 63.5076 23.2579 63.2809 24.1407L63.8307 34.1395L60.7008 34.427L60.491 24.5394C60.1572 23.7365 59.9563 22.8253 59.9052 21.8819Z" fill="#FFB6B6"/>
<path d="M76.9574 26.6237C76.9574 26.6237 71.8439 22.1065 70.7911 22.7841C69.7383 23.4617 64.6248 34.9806 64.6248 34.9806L64.1547 32.8785L60.5641 33.3996C60.5641 33.3996 58.4585 48.0805 63.1208 46.7253C67.7831 45.3702 75.4534 32.722 75.4534 32.722L76.9574 26.6237Z" fill="#00BFA6"/>
<path d="M29.5156 50.8937C29.5156 50.8937 32.4028 48.3517 33.1804 50.7087C33.9579 53.0658 41.1411 81.1845 41.1411 81.1845L36.5123 82.538L29.5156 50.8937Z" fill="#00BFA6"/>
<path d="M23.2186 34.0965L23.3547 34.3874C22.8473 34.8273 22.7725 35.9371 23.0105 36.7424C23.2484 37.5477 23.7089 38.1446 24.1073 38.7915C24.5056 39.4385 24.8688 40.2397 24.8319 41.1194C24.7904 42.1088 24.2533 42.9235 24.1785 43.9088C24.0703 45.3435 24.9598 46.6022 24.9157 48.0449C24.8823 49.1466 24.3182 50.0318 23.7585 50.7464C23.3205 51.3067 22.8437 51.8697 22.5481 52.5925C22.467 52.7914 22.3994 53.0039 22.3499 53.2313C22.1291 54.2572 22.3372 55.3751 22.6175 56.3672C22.8969 57.3593 23.2529 58.3283 23.3403 59.3975C23.4268 60.4667 23.1583 61.7011 22.5031 62.1396C23.8081 61.9718 25.0815 61.2883 26.1621 60.1771C26.2594 60.077 26.354 59.9741 26.4478 59.8685C27.9799 58.1361 29.0559 55.6336 30.0914 53.1947C30.1771 52.9944 30.2618 52.7928 30.3474 52.5925C30.5772 52.0498 30.8079 51.5084 31.0386 50.9657C31.6965 49.4146 32.3625 47.8406 32.7212 46.0838C33.0511 44.4638 33.107 42.7517 33.2421 41.0693C33.3079 40.2451 33.3945 39.4236 33.4107 38.5939C33.4368 37.3176 33.2917 36.0359 32.9961 34.8381C32.7068 33.6606 32.2724 32.563 31.7128 31.6291C31.1396 30.6723 30.4384 29.894 29.667 29.3337C28.9198 28.791 28.1069 28.454 27.2787 28.3606C27.0011 28.3295 26.7244 28.3241 26.4478 28.343C25.3564 28.4107 24.2776 28.8248 23.2286 29.3337C22.4571 29.894 21.756 30.6723 21.1828 31.6291C20.6231 32.563 20.1887 33.6606 19.8994 34.8381C20.9052 34.0315 22.1002 33.754 23.2186 34.0965Z" fill="#2F2E41"/>
<path d="M31.0403 48.903L25.8655 45.8555L25.7345 48.903L21.1982 49.9696L19.0674 64.4454L20.9952 73.4356L35.4033 74.0451L34.8959 70.9976C34.8959 70.9976 37.2296 67.0358 35.8091 60.636L35.6514 59.0072C35.2389 54.7487 33.5361 51.0173 31.0403 48.903Z" fill="#00BFA6"/>
<path d="M28.1598 45.7191C30.6982 45.7191 32.756 42.6287 32.756 38.8166C32.756 35.0044 30.6982 31.9141 28.1598 31.9141C25.6213 31.9141 23.5635 35.0044 23.5635 38.8166C23.5635 42.6287 25.6213 45.7191 28.1598 45.7191Z" fill="#A0616A"/>
<path d="M19.4844 38.5939C19.5007 39.4236 19.5872 40.2451 19.653 41.0693C19.7882 42.7517 19.844 44.4637 20.1739 46.0838C20.5326 47.8406 21.1986 49.4146 21.8565 50.9657C22.0872 51.5084 22.3179 52.0498 22.5477 52.5925C22.6334 52.7928 22.7181 52.9944 22.8037 53.1948C23.8392 55.6336 24.9153 58.1361 26.4474 59.8685C26.5411 59.9741 26.6357 60.077 26.7331 60.1771C27.8136 61.2883 29.0871 61.9718 30.3921 62.1396C29.7369 61.7011 29.4683 60.4668 29.5548 59.3976C29.6422 58.3283 29.9982 57.3593 30.2776 56.3672C30.5579 55.3751 30.7661 54.2572 30.5453 53.2313C30.4957 53.0039 30.4281 52.7914 30.347 52.5925C30.0514 51.8697 29.5746 51.3067 29.1366 50.7464C28.577 50.0318 28.0128 49.1466 27.9795 48.0449C27.9353 46.6022 27.3216 47.0854 27.2134 45.6507C27.1386 44.6654 26.2635 42.9858 26.2221 41.9964C26.1851 41.1167 26.5447 38.9891 26.943 38.3422C27.3414 37.6952 26.9755 35.7639 27.2134 34.9586C27.4513 34.1533 30.0478 34.8273 29.5404 34.3874L29.6765 34.0965C30.7949 33.754 31.9899 34.0315 32.9957 34.8381C33.2147 35.0127 33.4238 35.2117 33.6221 35.4364C34.1006 34.1235 33.5328 32.4574 32.7605 31.5114C32.0044 30.5829 31.0725 30.047 30.1478 29.5746C29.9883 29.4934 29.8279 29.4122 29.6666 29.3337C28.6175 28.8248 27.5388 28.4107 26.4474 28.343C26.1707 28.3241 25.894 28.3295 25.6164 28.3606C24.7882 28.454 23.9753 28.791 23.2282 29.3337C22.4567 29.894 21.7556 30.6723 21.1824 31.6291C20.6227 32.563 20.1883 33.6606 19.899 34.8381C19.6034 36.0359 19.4583 37.3176 19.4844 38.5939Z" fill="#2F2E41"/>
<path d="M99.7161 93.7737L93.3096 73.558C92.8317 72.0494 91.8039 71.0742 90.6908 71.0742H9.77033C9.46287 71.0742 9.16357 71.1458 8.88147 71.283C8.16819 71.6258 7.56143 72.3755 7.20224 73.4056L0.335063 93.0652C-0.139787 94.4228 -0.108327 96.0197 0.419287 97.3332C0.945885 98.6482 1.87024 99.4375 2.89201 99.4436L65.1317 99.8109L65.7324 99.8154L74.1094 99.8642L74.637 99.8672L76.5841 99.8794L77.6343 99.8855L85.7038 99.9328L87.4155 99.9434L97.0862 99.9998H97.0984C98.0967 99.9998 99.011 99.244 99.5467 97.9778C100.084 96.7054 100.147 95.1329 99.7161 93.7737Z" fill="white"/>
<path d="M99.7161 93.7737L93.3096 73.558C92.8317 72.0494 91.8039 71.0742 90.6908 71.0742H9.77033C9.46287 71.0742 9.16357 71.1458 8.88147 71.283C8.16819 71.6258 7.56143 72.3755 7.20224 73.4056L0.335063 93.0652C-0.139787 94.4228 -0.108327 96.0197 0.419287 97.3332C0.945885 98.6482 1.87024 99.4375 2.89201 99.4436L65.1317 99.8109L65.7324 99.8154L74.1094 99.8642L74.637 99.8672L76.5841 99.8794L77.6343 99.8855L85.7038 99.9328L87.4155 99.9434L97.0862 99.9998H97.0984C98.0967 99.9998 99.011 99.244 99.5467 97.9778C100.084 96.7054 100.147 95.1329 99.7161 93.7737ZM99.29 97.7325C98.8101 98.8677 97.9923 99.5427 97.0984 99.5427H97.0872L87.4094 99.4848L85.7363 99.4756L77.5917 99.4269L76.5232 99.4208L74.6461 99.4101L74.1114 99.4071L65.705 99.3568L65.1297 99.3537L2.89299 98.9865C1.97882 98.9804 1.15085 98.2749 0.680059 97.0986C0.208231 95.9222 0.179843 94.4929 0.604976 93.277L7.47213 73.6189C7.7197 72.9104 8.09715 72.3496 8.54869 71.9885C8.91699 71.6929 9.33504 71.5313 9.77033 71.5313H90.6908C91.6872 71.5313 92.6065 72.4045 93.0347 73.7545L99.4412 93.9688C99.8278 95.1878 99.7709 96.5942 99.29 97.7325Z" fill="#3F3D56"/>
<path d="M28.7573 85.7031L44.0786 77.3224L36.418 72.6953L21.1475 78.6938L28.7573 85.7031Z" fill="#F2F2F2"/>
<path d="M52.094 73.0547L50.3691 81.283L70.5607 83.1115L68.8358 73.8166L52.094 73.0547Z" fill="#F2F2F2"/>
<path d="M28.2929 74.462C29.7126 74.6735 30.7907 75.9449 30.701 77.3017C30.6112 78.6585 29.3877 79.5866 27.9676 79.3748C27.3995 79.3019 26.8514 79.0257 26.3689 78.5695L20.3613 77.5596L20.737 73.3359L26.6195 74.7799C27.1524 74.4748 27.7262 74.3658 28.2929 74.462Z" fill="#A0616A"/>
<path d="M22.2634 50.8068L21.1981 49.9688C21.1981 49.9688 19.5239 50.0449 18.4078 51.7211C17.2916 53.3972 8.26125 72.5966 8.26125 72.5966C8.26125 72.5966 6.02901 77.7774 11.6096 78.5393C17.1902 79.3012 23.3796 79.3012 23.3796 79.3012L23.8869 73.0538L15.4653 71.6824L21.3626 59.9494L22.2634 50.8068Z" fill="#00BFA6"/>
<path d="M53.923 48.7795C52.8992 49.2351 51.8176 49.4927 50.7004 49.5171C50.6345 49.5201 50.5685 49.5216 50.5026 49.5216C49.492 49.5216 48.5108 49.3342 47.5723 48.9807L47.5966 48.6195L48.1425 40.7127L48.177 40.2068L47.6707 37.9258H53.8824L53.783 40.1551L53.7464 40.9672L53.8002 41.2247L55.17 47.78L55.2309 48.0725C54.8067 48.3453 54.3704 48.5814 53.923 48.7795Z" fill="#00BFA6"/>
<path d="M47.5722 48.9794C46.0979 48.4263 44.7301 47.4633 43.5257 46.1788C43.0296 45.7749 42.5476 45.3376 42.0859 44.8744L42.3142 44.7022L48.0501 40.3945L48.1424 40.7115L50.6121 49.2141L50.7003 49.5158C50.6344 49.5188 50.5684 49.5204 50.5025 49.5204C49.4919 49.5204 48.5107 49.3329 47.5722 48.9794Z" fill="#2F2E41"/>
<path d="M60.0685 42.4381C60.0432 42.4899 60.0168 42.5402 59.9904 42.5905C59.5622 43.4072 59.0873 44.1661 58.5739 44.8594L58.5699 44.4525L58.5557 42.9547C58.5557 42.9547 58.9656 42.5052 59.4719 42.3878C59.5926 42.3589 59.7195 42.3497 59.8473 42.3711C59.9214 42.3817 59.9944 42.4031 60.0685 42.4381Z" fill="#2F2E41"/>
<path d="M58.5744 44.8592C57.5922 46.1895 56.4639 47.2805 55.2311 48.0698C54.807 48.3426 54.3707 48.5787 53.9232 48.7768L53.9181 48.4614L53.8005 41.222L53.7832 40.1523L59.4724 42.3877L59.7747 42.5066L59.9908 42.5904C59.5627 43.4071 59.0878 44.1659 58.5744 44.8592Z" fill="#2F2E41"/>
<path d="M50.8351 35.4521C53.3518 35.4521 55.3919 32.3883 55.3919 28.6089C55.3919 24.8294 53.3518 21.7656 50.8351 21.7656C48.3185 21.7656 46.2783 24.8294 46.2783 28.6089C46.2783 32.3883 48.3185 35.4521 50.8351 35.4521Z" fill="#A0616A"/>
<path d="M53.9183 48.462C52.8692 48.9374 51.7602 49.198 50.6126 49.2132L50.7009 49.5149C51.818 49.4905 52.8996 49.233 53.9234 48.7774L53.9183 48.462ZM42.3148 44.7013C39.976 41.4557 38.4916 36.8418 38.4317 31.7158C36.0442 35.8666 38.4165 41.1936 42.0865 44.8735C42.5482 45.3367 43.0301 45.7741 43.5263 46.1779C43.1012 45.7253 42.6963 45.2316 42.3148 44.7013ZM59.9515 20.1093C57.7375 15.9342 54.3252 13.2539 50.503 13.2539C43.8459 13.2539 38.4287 21.3878 38.4287 31.3867C38.4287 31.4964 38.4297 31.6061 38.4317 31.7158C38.4946 31.6046 38.5616 31.4949 38.6316 31.3867C41.98 26.2059 43.9575 13.5587 50.503 13.5587C54.3293 13.5587 57.7385 16.2908 59.9109 20.5253C61.4552 23.5332 62.3745 27.3015 62.3745 31.3867C62.3745 31.9794 62.3552 32.5661 62.3166 33.1436C62.2923 33.5276 62.2588 33.9085 62.2172 34.2849C61.9148 37.0505 61.1873 39.6059 60.1392 41.7894C60.0448 41.9875 59.9474 42.181 59.848 42.3715C59.8236 42.4172 59.8003 42.4629 59.7749 42.5071C59.4056 43.2004 59.0027 43.8511 58.5705 44.453C57.5792 45.8365 56.4306 46.9672 55.1704 47.7778C54.7646 48.0414 54.3465 48.27 53.9183 48.462C52.8692 48.9374 51.7602 49.198 50.6126 49.2132C50.5761 49.2147 50.5395 49.2147 50.503 49.2147C49.5838 49.2147 48.5985 49.0029 47.5971 48.6174C46.2293 48.0917 44.8301 47.2445 43.5263 46.1779C44.7307 47.4624 46.0984 48.4254 47.5727 48.9785C48.5113 49.3321 49.4924 49.5195 50.503 49.5195C50.569 49.5195 50.6349 49.5179 50.7009 49.5149C51.818 49.4905 52.8996 49.233 53.9234 48.7774C54.3709 48.5793 54.8072 48.3431 55.2313 48.0704C56.4641 47.2811 57.5924 46.1901 58.5746 44.8598C59.088 44.1665 59.5628 43.4077 59.991 42.5909C60.0174 42.5406 60.0438 42.4904 60.0692 42.4385C60.1037 42.3715 60.1382 42.3029 60.1716 42.2344C61.3192 39.938 62.1106 37.2197 62.4252 34.2651C62.4658 33.8857 62.4982 33.5017 62.5226 33.1131C62.5591 32.5447 62.5774 31.9688 62.5774 31.3867C62.5774 27.1278 61.5952 23.2071 59.9515 20.1093Z" fill="#E6E6E6"/>
<path d="M46.7542 32.2474C45.9342 31.0857 45.3624 29.5459 45.9345 26.2634C45.9771 26.019 45.863 25.7567 45.7527 25.5659C45.6425 25.3751 45.4345 25.2865 45.3037 25.4452C45.3969 25.0331 46.6738 23.5612 46.7669 23.1491C46.6581 23.3659 45.8279 23.8307 45.7613 23.5783C45.6948 23.3259 45.7531 23.0422 45.8116 22.7853L46.1601 21.2538C46.2478 20.8685 46.5936 21.3288 46.7669 21.0158C47.0775 20.4552 46.7231 19.8642 47.1973 19.707C48.7494 19.1926 50.3947 18.733 51.9025 19.4881C52.5611 19.8179 53.1601 20.3658 53.7526 20.9092L54.8368 21.9036C55.4587 22.474 56.1343 23.1506 56.3047 24.2147L55.1662 23.6037C55.4198 24.4146 55.6756 25.2355 55.7916 26.1143C55.9076 26.993 55.5939 30.3018 55.29 31.0727C55.023 31.7499 54.834 29.9311 54.7462 30.707C54.8468 29.1828 54.3899 27.6018 53.58 26.671C53.4139 26.4801 53.2245 26.2965 53.1506 26.0026C53.0682 25.6748 53.1508 25.2807 53.0383 24.9738C52.8984 24.5922 52.5331 24.5558 52.2608 24.7056C51.9884 24.8554 51.7503 25.1369 51.4681 25.2377C50.7201 25.5052 50.0396 24.4431 49.2725 24.3632C48.5417 24.2871 47.888 25.1462 47.5841 26.1471C47.2802 27.1481 46.4397 26.9314 46.3611 28.0252C46.2825 29.1189 47.4301 31.2834 46.9699 32.1393L46.7542 32.2474Z" fill="#2F2E41"/>
<path d="M46.1784 42.4531L45.8385 42.0554L45.7594 41.9639C45.6833 41.874 45.5828 41.8436 45.4884 41.8786L45.0907 42.0279C45.0491 42.0432 45.0044 42.0249 44.974 41.9792L44.5276 41.3087C44.4971 41.263 44.485 41.196 44.4951 41.1335L44.5945 40.5362C44.6189 40.3945 44.5976 40.2451 44.5377 40.1293L44.212 39.5C44.2039 39.4848 44.1948 39.4695 44.1856 39.4558C44.0618 39.2699 43.862 39.2699 43.7382 39.4558L43.5505 39.7377C43.4155 39.9389 43.3567 40.2421 43.4226 40.5225C43.591 41.2417 43.865 41.8954 44.2252 42.4333C44.353 42.6253 44.49 42.802 44.6351 42.9605C44.8989 43.247 45.1891 43.4755 45.4976 43.6386C45.6853 43.7376 45.8862 43.6492 46.0201 43.4481L46.2078 43.1647C46.3428 42.9635 46.3286 42.6298 46.1784 42.4531ZM46.0709 42.9605L45.8832 43.2424C45.7949 43.3734 45.6711 43.4222 45.5615 43.3643C45.3028 43.2287 45.0582 43.0428 44.832 42.8112C44.6635 42.642 44.5063 42.4455 44.3622 42.2276C44.0233 41.7201 43.7645 41.1045 43.6052 40.4265C43.5667 40.2619 43.5992 40.076 43.6864 39.9434L43.8752 39.6615C43.8782 39.6554 43.8823 39.6509 43.8863 39.6463C43.9401 39.5838 44.0172 39.5975 44.0588 39.6783L44.3845 40.3076C44.4078 40.3518 44.416 40.4112 44.4068 40.4661L44.3074 41.0634C44.28 41.2249 44.3125 41.3971 44.3906 41.5144L44.837 42.1849C44.9152 42.3037 45.0298 42.351 45.1374 42.3098L45.5351 42.1605C45.5716 42.1468 45.6112 42.159 45.6406 42.194L45.6457 42.2001L46.0597 42.6832C46.0638 42.6877 46.0678 42.6938 46.0709 42.6984C46.1196 42.7715 46.1196 42.8873 46.0709 42.9605Z" fill="#CCCCCC"/>
<path d="M50.1396 41.0742C50.1898 41.0742 50.2304 41.1353 50.2304 41.2106V41.4832C50.2304 42.0856 50.5556 42.574 50.9567 42.574C51.3578 42.574 51.683 42.0856 51.683 41.4832V41.2106C51.683 41.1353 51.7237 41.0742 51.7738 41.0742C51.8239 41.0742 51.8646 41.1353 51.8646 41.2106V41.4832C51.8646 42.1835 51.5114 42.7698 51.0475 42.8399V43.392H51.5922C51.6424 43.392 51.683 43.4531 51.683 43.5284C51.683 43.6037 51.6424 43.6647 51.5922 43.6647H50.3212C50.271 43.6647 50.2304 43.6037 50.2304 43.5284C50.2304 43.4531 50.271 43.392 50.3212 43.392H50.8659V42.8399C50.402 42.7698 50.0488 42.1835 50.0488 41.4832V41.2106C50.0488 41.1353 50.0895 41.0742 50.1396 41.0742Z" fill="#CCCCCC"/>
<path d="M50.957 39.3008C50.6567 39.3008 50.4121 39.6665 50.4121 40.119V41.4828C50.4121 41.9338 50.6567 42.2995 50.957 42.2995C51.2583 42.2995 51.5018 41.9338 51.5018 41.4828V40.119C51.5018 39.6665 51.2583 39.3008 50.957 39.3008ZM51.3202 41.4828C51.3202 41.783 51.1579 42.0283 50.957 42.0283C50.7561 42.0283 50.5937 41.783 50.5937 41.4828V40.119C50.5937 39.8173 50.7561 39.5735 50.957 39.5735C51.1579 39.5735 51.3202 39.8173 51.3202 40.119V41.4828Z" fill="#CCCCCC"/>
<path d="M57.2399 39.356C56.9548 39.2112 56.6453 39.4398 56.5489 39.8679L56.7021 40.098C56.7123 39.8085 56.8726 39.5815 57.0664 39.583C57.2663 39.5845 57.4286 39.8298 57.4276 40.13V41.1875L57.6092 41.4603V40.13C57.6092 39.7811 57.4601 39.4687 57.2399 39.356ZM57.7005 43.4031H57.1557V42.8499C57.315 42.8271 57.4672 42.7402 57.5971 42.5985L57.4662 42.402C57.3515 42.5178 57.2135 42.5848 57.0644 42.5848C56.6636 42.5848 56.3379 42.0957 56.3379 41.4938V41.221C56.3379 41.1967 56.3338 41.1723 56.3247 41.1525C56.3095 41.1129 56.2811 41.0854 56.2476 41.0854C56.2313 41.0854 56.2161 41.0915 56.2029 41.1037C56.1755 41.1266 56.1562 41.1708 56.1562 41.221V41.4938C56.1562 42.1932 56.5104 42.7799 56.9741 42.85V43.4031H56.4292C56.3785 43.4031 56.3379 43.464 56.3379 43.5387C56.3379 43.6149 56.3785 43.6758 56.4292 43.6758H57.7005C57.7503 43.6758 57.7908 43.6149 57.7908 43.5387C57.7908 43.464 57.7503 43.4031 57.7005 43.4031ZM57.8822 41.0854C57.8314 41.0854 57.7908 41.1464 57.7908 41.221V41.4938C57.7908 41.5669 57.7858 41.6401 57.7766 41.7117L57.7858 41.7254L57.9238 41.9342C57.9339 41.8869 57.943 41.8397 57.9501 41.7909C57.9654 41.6949 57.9725 41.5959 57.9725 41.4938V41.221C57.9725 41.1464 57.9319 41.0854 57.8822 41.0854Z" fill="#CCCCCC"/>
<path d="M57.4392 41.5896L56.04 39.4883L55.9111 39.6818L57.0901 41.4524L58.0906 42.9533L58.2184 42.7598L57.4392 41.5896ZM57.1987 42.001C57.013 42.1122 56.802 41.9751 56.7279 41.6947C56.7107 41.6307 56.7015 41.5621 56.7015 41.4936V41.2543L56.5199 40.9816V41.4936C56.5199 41.9446 56.7644 42.3118 57.0648 42.3118C57.1591 42.3118 57.2525 42.2752 57.3347 42.2052L57.1987 42.001Z" fill="#CCCCCC"/>
<path d="M81.6736 71.3777C80.4691 72.7209 79.0313 72.8764 78.4622 71.7251C77.8931 70.5738 78.4083 68.552 79.6133 67.2085C80.0898 66.662 80.6465 66.2947 81.2368 66.1375L86.3881 60.543L88.0848 64.2292L82.8263 69.353C82.5553 70.1565 82.16 70.8508 81.6736 71.3777Z" fill="#FFB6B6"/>
<path d="M84.9192 25.8164C84.9192 25.8164 89.0746 26.0135 89.8621 30.3497C90.6495 34.6859 92.2245 43.9283 91.962 56.7611C91.962 56.7611 93.2745 65.0393 89.8621 64.6451L85.1372 67.7987L81.9873 61.4915L84.6122 56.7611L84.9192 25.8164Z" fill="#00BFA6"/>
</g>
<defs>
<clipPath id="clip0_1216_1105">
<rect width="100" height="100" fill="white"/>
</clipPath>
</defs>
</svg>
