<svg width="100" height="100" viewBox="0 0 100 100" fill="none" xmlns="http://www.w3.org/2000/svg">
<g clip-path="url(#clip0_1216_957)">
<path d="M61.4596 33.3694C63.8443 33.3694 65.7776 30.4601 65.7776 26.8712C65.7776 23.2824 63.8443 20.373 61.4596 20.373C59.0748 20.373 57.1416 23.2824 57.1416 26.8712C57.1416 30.4601 59.0748 33.3694 61.4596 33.3694Z" fill="#F2F2F2"/>
<path d="M35.7917 20.3733C37.779 20.3733 39.39 17.9488 39.39 14.9581C39.39 11.9674 37.779 9.54297 35.7917 9.54297C33.8044 9.54297 32.1934 11.9674 32.1934 14.9581C32.1934 17.9488 33.8044 20.3733 35.7917 20.3733Z" fill="#F2F2F2"/>
<path d="M24.0368 71.637C26.0241 71.637 27.6351 69.2125 27.6351 66.2218C27.6351 63.2311 26.0241 60.8066 24.0368 60.8066C22.0495 60.8066 20.4385 63.2311 20.4385 66.2218C20.4385 69.2125 22.0495 71.637 24.0368 71.637Z" fill="#F2F2F2"/>
<path d="M20.3799 74.5254C21.4222 76.3846 22.5497 89.7881 23.7527 91.4091L80.1959 91.5896C81.3989 89.9686 82.5264 76.5651 83.5687 74.7059L20.3799 74.5254Z" fill="#E6E6E6"/>
<path d="M37.9736 58.7808V77.2935H46.5916V58.7808C46.5919 58.5075 46.4737 58.2659 46.3001 58.1852C46.2603 58.1654 46.2185 58.1556 46.1766 58.1563H38.3898C38.1604 58.1556 37.9741 58.435 37.9736 58.7802L37.9736 58.7808ZM41.3369 65.1419C41.3415 64.3772 41.7572 63.7631 42.2653 63.7701C42.7668 63.7771 43.1722 64.3872 43.1768 65.1419V67.2899C43.1744 68.0545 42.7605 68.6714 42.2525 68.6678C41.7478 68.6642 41.3393 68.0494 41.3369 67.2899V65.1419Z" fill="#3F3D56"/>
<path d="M24.417 30.8884V64.6898C24.4175 65.5867 24.9005 66.3136 25.4965 66.3144H58.7809C59.3769 66.3136 59.8599 65.5867 59.8604 64.6898V30.8884C59.859 29.9923 59.3763 29.2668 58.7809 29.2656H25.4965C24.9011 29.2668 24.4184 29.9923 24.417 30.8884Z" fill="#3F3D56"/>
<path d="M25.1973 31.3095V64.2734C25.1978 64.7526 25.4558 65.1408 25.7742 65.1416H58.5033C58.8217 65.1408 59.0797 64.7526 59.0802 64.2734V31.3095C59.0802 30.8297 58.8221 30.4405 58.5033 30.4395H25.7742C25.4554 30.4405 25.1973 30.8297 25.1973 31.3095Z" fill="#00BFA6" fill-opacity="0.75"/>
<path d="M31.8716 79.2566C31.9391 79.384 32.0416 79.4578 32.1499 79.457H51.6215C51.8194 79.4566 51.9796 79.2149 51.9794 78.9171C51.9794 78.8802 51.9768 78.8434 51.9718 78.8072L51.6695 76.6465C51.6441 76.4675 51.5601 76.3201 51.4464 76.2549C51.4059 76.2309 51.3628 76.2187 51.3193 76.2188H32.4509C32.4074 76.2187 32.3643 76.2309 32.3238 76.2549C32.2101 76.3201 32.1261 76.4675 32.1007 76.6465L31.7984 78.8072C31.7766 78.9659 31.8035 79.131 31.8716 79.2566Z" fill="#3F3D56"/>
<path d="M26.8272 34.9798H57.4517C57.5189 34.9776 57.5723 34.8938 57.5708 34.7926C57.5694 34.6945 57.5169 34.6154 57.4517 34.6133H26.8272C26.7599 34.6155 26.7066 34.6993 26.708 34.8005C26.7095 34.8987 26.762 34.9777 26.8272 34.9798Z" fill="#3F3D56"/>
<path d="M95.4687 70.7943C95.4663 70.7853 95.4651 70.7781 95.4628 70.7709C95.4164 70.5831 95.3623 70.3998 95.3008 70.2222C94.9518 69.2348 95.3212 67.7185 94.9278 66.0434C94.2921 63.3287 93.5173 61.7276 92.3814 60.2925C92.3478 60.2492 92.3142 60.2077 92.2794 60.1644L92.2782 60.1626C91.5202 59.2258 90.6062 58.3503 89.4716 57.2601C89.2353 57.0326 88.4184 57.6897 88.4376 56.5633C88.4592 55.3124 88.482 54.0164 88.0742 53.2077L88.0478 53.1554L88.0058 53.1391C86.6076 52.7229 85.1815 52.5575 83.7574 52.6463H83.7562C83.1516 52.6801 82.5511 52.8127 81.9655 53.0416C81.9223 53.0597 81.8791 53.0778 81.8371 53.0994C81.8047 53.1121 81.7724 53.1283 81.74 53.1445L81.7136 53.159L81.6932 53.1879C81.2986 53.7817 81.2074 54.8467 81.1642 55.9568V55.9586C81.1559 56.1608 81.1487 56.3629 81.1427 56.5651C81.1091 57.6445 79.3783 58.5164 78.7186 59.0055C77.4796 59.9261 77.6664 62.0712 77.6521 62.0712C77.6521 62.0712 75.5689 68.5073 75.5437 75.0254C75.5425 75.3882 75.5409 75.7528 75.5389 76.1192C75.5245 79.1554 75.4861 82.2438 75.335 85.0579C75.269 86.2673 75.1838 87.4243 75.0699 88.5055C74.5157 93.7709 72.0053 89.399 70.8047 92.9026C70.8441 93.2472 70.9106 93.5834 71.0026 93.9044C71.1405 94.0272 71.2821 94.1463 71.4224 94.2654C72.0449 94.7871 72.679 95.2739 73.3247 95.7257C73.3607 95.751 73.3967 95.7763 73.4326 95.7997C74.617 96.6244 75.8377 97.3252 77.0861 97.8972C77.3296 98.0091 77.5731 98.1156 77.819 98.2167C79.994 99.1203 82.2336 99.6252 84.4891 99.7203C84.4983 99.7188 84.5075 99.7182 84.5167 99.7185C87.1841 99.6075 89.8341 99.0327 92.4138 98.0055C92.4498 97.9911 92.4857 97.9767 92.5217 97.9622C92.6908 97.8936 92.8588 97.825 93.0267 97.7528C94.5114 97.1171 95.966 96.3319 97.3807 95.4026C97.3821 95.4819 97.3873 95.5609 97.3962 95.6391C97.3975 95.6646 97.3999 95.6899 97.4034 95.7149C97.4058 95.686 97.4082 95.6572 97.4094 95.6283C97.4166 95.5434 97.4226 95.4568 97.4286 95.3702C98.1627 84.5976 96.6382 75.4514 95.4687 70.7943Z" fill="#CCCCCC"/>
<path d="M84.851 51.7103C88.6978 51.7103 91.8162 47.0173 91.8162 41.2282C91.8162 35.4391 88.6978 30.7461 84.851 30.7461C81.0042 30.7461 77.8857 35.4391 77.8857 41.2282C77.8857 47.0173 81.0042 51.7103 84.851 51.7103Z" fill="#FFB6B6"/>
<path d="M85.3658 51.8981C86.4277 51.6126 87.4715 51.1911 88.4857 50.6381C89.4816 50.0168 91.4702 46.7786 91.9175 45.0496C92.2499 43.765 92.326 41.8888 92.3312 40.5412C92.3536 36.9324 91.3582 33.4786 89.5921 31.0372C89.2503 30.5253 88.8228 30.1621 88.3551 29.9858C88.3142 29.9745 88.2725 29.9662 88.2308 29.9608C87.5742 29.8966 86.9452 29.5385 86.4248 28.9325C86.3231 28.8089 86.2156 28.6964 86.1032 28.596C85.5428 28.1259 84.9164 27.862 84.2752 27.826C83.2338 27.7175 81.8526 28.5332 80.1701 30.2515C79.3248 31.1148 78.2886 31.1958 77.4801 31.17C77.3883 31.1702 77.3033 31.2438 77.2571 31.3632C76.9874 31.9263 76.5861 32.3148 76.1339 32.4508C75.859 32.5504 75.6428 33.2135 75.3887 34.07C75.3311 34.2644 75.2638 34.4913 75.2124 34.6324L75.1732 34.4018L75.0501 34.7079C74.4164 36.2829 74.7512 38.3327 75.7978 39.2862C76.079 39.5425 76.3947 39.7013 76.7218 39.7512C77.0152 39.7811 77.3098 39.7659 77.6011 39.7057C77.7787 39.6782 77.9624 39.6497 78.1413 39.6441C79.316 39.6611 80.3984 40.6056 80.9917 42.1314C81.2384 42.7553 81.7744 42.9602 82.1889 42.589C82.254 42.5307 82.3138 42.4599 82.3668 42.3784C82.6771 41.8425 83.1421 41.569 83.6117 41.6463C83.8206 41.7488 83.9998 41.9563 84.1192 42.234C84.2603 42.5409 84.4589 42.7777 84.6898 42.914C85.4631 43.2533 85.8242 45.6544 85.8324 47.7418C85.8404 49.7539 85.5413 51.2989 85.105 51.4988C84.7691 51.6527 84.7347 51.7008 84.7217 51.7993L84.7101 51.8875L84.7585 51.9526C84.9612 52.0004 85.1683 51.9818 85.3658 51.8981Z" fill="#2F2E41"/>
<path d="M60.7146 84.3059C62.0482 84.3059 63.1293 83.7866 63.1293 83.1461C63.1293 82.5056 62.0482 81.9863 60.7146 81.9863C59.3809 81.9863 58.2998 82.5056 58.2998 83.1461C58.2998 83.7866 59.3809 84.3059 60.7146 84.3059Z" fill="#3F3D56"/>
<path d="M60.7146 83.5325C62.0482 83.5325 63.1293 83.0132 63.1293 82.3727C63.1293 81.7321 62.0482 81.2129 60.7146 81.2129C59.3809 81.2129 58.2998 81.7321 58.2998 82.3727C58.2998 83.0132 59.3809 83.5325 60.7146 83.5325Z" fill="#3F3D56"/>
<path d="M60.2903 83.1514L60.6501 83.1433L60.5508 73.0316C60.5215 69.674 61.6804 66.5461 63.5937 64.8186L70.4616 58.6406L70.277 58.1758L63.4091 64.3539C61.3856 66.1808 60.1599 69.4888 60.191 73.0397L60.2903 83.1514Z" fill="#3F3D56"/>
<path d="M70.2826 63.1977C69.8002 63.1977 69.4092 62.6092 69.4092 61.8833V53.6875C69.4092 52.9615 69.8002 52.373 70.2826 52.373C70.765 52.373 71.156 52.9615 71.156 53.6875V61.8833C71.156 62.6092 70.765 63.1977 70.2826 63.1977Z" fill="#00BFA6" fill-opacity="0.75"/>
<path d="M58.861 69.4133C59.1636 71.0792 60.3063 72.0605 61.4133 71.6051C61.5314 71.5565 61.6463 71.4924 61.7568 71.4134L66.9364 79.3338L67.7378 73.6864L62.6964 67.0309C62.1335 65.5151 60.8607 64.9729 59.8535 65.8199C59.0107 66.5287 58.6003 68.0143 58.861 69.4133Z" fill="#FFB6B6"/>
<path d="M85.9164 61.1438L85.8835 61.1162L82.1069 59.1617C81.137 58.6596 80.0705 58.8087 79.1786 59.5709C78.9739 59.7452 78.7814 59.9501 78.604 60.1824L78.6028 60.1827C78.011 60.9521 77.6032 61.9923 77.4419 63.1438L75.4583 77.3167L71.4699 74.082L69.8447 73.4979L68.3653 71.2636L64.6709 68.9999L64.4658 69.3682L62.6069 72.712L62.4609 72.9748L66.554 81.8863L68.3887 82.1868L68.9027 83.5628L68.939 83.5878L70.4431 84.6081L76.8579 88.9574L79.9643 85.3797L80.4504 84.8181C84.4692 79.2147 86.3478 74.7072 87.1322 71.2741C87.5473 69.4606 87.6566 67.9495 87.6155 66.7313C87.4878 62.9664 85.9802 61.2158 85.9164 61.1438Z" fill="#CCCCCC"/>
<path d="M89.466 64.5977H87.6668C82.4667 64.5977 78.2512 70.9416 78.2512 78.7673C76.5729 81.8908 76.6757 85.813 78.2512 90.3955L73.0942 87.16C72.3598 86.702 71.5178 87.2267 71.2135 88.3319C70.9102 89.4337 71.2557 90.6972 71.9865 91.1585L78.2512 95.089V95.8208C78.2512 98.116 79.4876 99.9767 81.0128 99.9767H96.12C97.6452 99.9767 98.8816 98.116 98.8816 95.8208C100.002 89.6371 100.703 83.6402 98.8816 78.7673C98.8816 70.9416 94.6661 64.5977 89.466 64.5977Z" fill="#3F3D56"/>
<path d="M46.346 52.6843C46.611 52.6843 46.8258 52.361 46.8258 51.9623C46.8258 51.5635 46.611 51.2402 46.346 51.2402C46.081 51.2402 45.8662 51.5635 45.8662 51.9623C45.8662 52.361 46.081 52.6843 46.346 52.6843Z" fill="#F2F2F2"/>
<path d="M48.0257 52.6843C48.2906 52.6843 48.5054 52.361 48.5054 51.9623C48.5054 51.5635 48.2906 51.2402 48.0257 51.2402C47.7607 51.2402 47.5459 51.5635 47.5459 51.9623C47.5459 52.361 47.7607 52.6843 48.0257 52.6843Z" fill="#F2F2F2"/>
<path d="M49.7044 52.6843C49.9694 52.6843 50.1842 52.361 50.1842 51.9623C50.1842 51.5635 49.9694 51.2402 49.7044 51.2402C49.4394 51.2402 49.2246 51.5635 49.2246 51.9623C49.2246 52.361 49.4394 52.6843 49.7044 52.6843Z" fill="#F2F2F2"/>
<path d="M34.2636 44.3872L37.8448 44.4675C37.9442 44.4624 38.022 44.3369 38.0185 44.1874C38.0152 44.0451 37.9394 43.931 37.8448 43.926L34.2636 43.8457C34.1643 43.8509 34.0865 43.9763 34.09 44.1258C34.0932 44.2681 34.1691 44.3823 34.2636 44.3872Z" fill="white"/>
<path d="M38.5781 50.0542C39.0019 50.5464 39.6831 50.1157 39.8013 49.3554C39.9391 48.4693 39.4249 47.6354 38.8414 47.6546C38.1923 47.676 37.7336 48.4976 37.6633 49.4221C37.6083 50.2747 37.8393 51.1124 38.2793 51.6559C38.7473 52.2721 39.3884 52.4975 39.9894 52.2571C40.211 52.1587 40.1166 51.636 39.8937 51.7349C39.1038 52.0414 38.2934 51.3583 38.0545 50.1845C37.9416 49.5458 38.0482 48.7482 38.4438 48.3828C38.7993 48.0543 39.3027 48.1736 39.4382 48.8316C39.5187 49.1782 39.3972 49.5573 39.1669 49.6784C39.0294 49.7507 38.8771 49.7164 38.7597 49.5866C38.6738 49.5122 38.5641 49.5554 38.5135 49.6838C38.4659 49.8134 38.4943 49.9765 38.5781 50.0542Z" fill="white"/>
<path d="M42.2493 47.6102C41.8881 48.2189 41.5646 48.876 41.2828 49.5733L40.8624 47.9007C40.7812 47.5778 40.4332 47.7178 40.5154 48.0446C40.6941 48.7556 40.8728 49.4665 41.0515 50.1774C40.8457 50.7505 40.6678 51.3453 40.5191 51.9571C40.4395 52.2849 40.7872 52.4263 40.8661 52.1011C40.9698 51.6766 41.0886 51.2608 41.222 50.8555C41.3857 51.5068 41.5494 52.158 41.7131 52.8093C41.7943 53.1322 42.1423 52.9922 42.0601 52.6654C41.8553 51.8504 41.6504 51.0354 41.4455 50.2205C41.7441 49.423 42.0988 48.6762 42.5037 47.9931C42.6577 47.7341 42.4041 47.3498 42.2493 47.6102Z" fill="white"/>
<path d="M35.8596 44.1223L36.1112 52.239C36.122 52.586 36.4819 52.588 36.471 52.239L36.2194 44.1223C36.2087 43.7753 35.8488 43.7733 35.8596 44.1223Z" fill="white"/>
<path d="M44.7353 48.3527H43.8289C43.8267 48.0786 43.8242 47.8046 43.8206 47.531C43.8159 47.183 43.4561 47.1818 43.4607 47.531C43.4644 47.8049 43.4681 48.0788 43.4718 48.3527H42.6953C42.5959 48.3578 42.5182 48.4833 42.5216 48.6328C42.5249 48.7751 42.6008 48.8892 42.6953 48.8942H43.479C43.4806 49.0093 43.4821 49.1244 43.4836 49.2395C43.4785 49.7723 43.4937 50.305 43.5291 50.8352C43.6059 51.6863 43.9893 52.6536 44.6442 52.57C44.8733 52.5408 44.8753 51.999 44.6442 52.0285C44.0532 52.1039 43.8835 51.0587 43.8612 50.3744C43.8452 49.8818 43.8384 49.388 43.8336 48.8942H44.7353C44.8346 48.8889 44.9124 48.7635 44.9089 48.6139C44.9056 48.4717 44.8298 48.3576 44.7353 48.3527Z" fill="#F2F2F2"/>
<path d="M9.43607 73.5732C9.31948 73.5739 9.20317 73.5904 9.08855 73.6225L7.18126 55.4517L9.09202 37.9589C9.35432 35.5579 8.27359 33.2914 6.67814 32.8967C5.23834 32.5405 3.84403 33.8341 3.40883 35.9301C2.69254 39.3795 2.33808 42.9759 2.35824 46.5897L2.42488 58.5194L7.50957 76.8411C7.63697 78.4427 8.60302 79.5857 9.6673 79.394C10.7316 79.2022 11.4911 77.7484 11.3637 76.1467C11.2469 74.6781 10.4189 73.5727 9.43607 73.5732Z" fill="#FFB8B8"/>
<path d="M5.94351 31.7344C3.40217 31.7408 1.34308 34.8396 1.33887 38.6641L2.27443 52.8879L2.35839 54.1622L2.40157 54.1659L5.68683 54.4114H5.68803L7.28208 54.5304L7.55556 54.5503L7.86861 52.8879L10.5482 38.6641C10.5454 34.8387 8.48547 31.7385 5.94351 31.7344Z" fill="#E6E6E6"/>
<path d="M6.08469 99.9997L4.57339 93.0214C4.57339 93.0214 1.80269 88.7813 5.35663 77.5251C5.43459 77.276 5.51615 77.025 5.60131 76.7687C5.75004 76.3192 5.90917 75.8583 6.07869 75.386C6.33537 74.7001 6.59565 73.9908 6.88951 73.2578L7.15818 73.3301L7.41246 73.3969L8.28206 73.628H8.28325L20.8762 76.9673C20.8762 76.9673 20.6447 78.5231 20.5199 80.1928C20.4204 81.563 20.388 82.9492 20.6231 83.5359C21.1316 84.8463 20.4444 88.3878 20.4444 88.3878C20.4444 88.3878 20.4827 88.7309 20.5475 89.3372V89.3392C20.6111 89.9294 20.6998 90.7668 20.8006 91.7813C20.8054 91.8499 20.8114 91.9185 20.8186 91.9872C20.9781 93.6297 21.1688 95.7038 21.3391 97.9329C21.3919 98.6098 21.4423 99.3012 21.4903 99.9998L6.08469 99.9997Z" fill="#2F2E41"/>
<path d="M2.49497 35.4131C2.81119 34.1006 3.55 33.1211 4.45503 32.8144C5.11514 32.5319 5.80216 32.4189 6.48724 32.4801C8.49271 32.599 7.98704 25.8375 9.97285 26.2753C9.97285 26.2753 11.8419 25.2715 13.3044 27.111C14.6329 28.782 15.5488 33.3268 15.8897 33.0683C15.9622 33.0144 16.1362 33.0201 16.3797 33.0687C19.2252 33.6371 21.2728 37.4785 21.1037 41.7908L20.9592 45.4771C20.9592 45.4771 21.9808 47.7917 20.4983 51.8778L18.6305 64.4397C18.6305 64.4397 23.3036 78.3689 21.1493 81.2267C18.9949 84.0844 10.5482 79.6284 10.5482 79.6284C10.5482 79.6284 5.81141 77.4248 4.81241 76.4697C2.70221 74.4522 5.39924 69.8522 7.06674 70.069C7.15644 69.5339 7.03834 68.9684 6.76136 68.6067C6.30049 68.1638 6.81687 67.1611 6.85575 67.0692C6.81132 67.136 6.4615 67.6875 6.195 66.526C5.92849 65.3645 6.75025 63.9022 6.75025 63.9022L4.42929 56.3817L2.60252 50.4405L2.38041 49.7553L2.76145 46.0587L2.72579 45.9477C1.91385 43.4002 1.73415 40.4996 2.21918 37.7701C2.39513 36.7663 2.52177 35.8517 2.49497 35.4131Z" fill="#E6E6E6"/>
<path d="M21.4907 100H20.6895C20.9114 99.2839 21.1309 98.5888 21.3396 97.9336C21.3923 98.6105 21.4427 99.3018 21.4907 100Z" fill="#2F2E41"/>
<path d="M37.2177 57.9529C37.1467 58.0921 37.0842 58.2406 37.0309 58.3966L26.3163 49.5415L18.2954 36.5582C17.1945 34.7762 15.342 34.6747 14.1579 36.3315C13.0893 37.8266 12.9154 40.2776 13.7501 42.0786C15.1238 45.0427 16.7964 47.6663 18.7074 49.8548L25.0161 57.0793L37.7552 62.246C38.6747 63.075 39.8667 62.6252 40.4175 61.2414C40.9684 59.8577 40.6695 58.0639 39.75 57.2349C38.9069 56.4747 37.8192 56.7831 37.2177 57.9529Z" fill="#FFB8B8"/>
<path d="M22.7147 54.4424L25.8954 48.8588L26.0725 48.5466L19.5575 35.2595C19.2759 34.9295 18.9692 34.6513 18.6438 34.4305L18.6429 34.4293C16.3282 32.846 13.5988 34.3864 12.5467 37.8699C11.6635 40.7942 12.2318 44.2486 13.9195 46.2151L15.821 48.0095L22.6862 54.4915L22.7147 54.4424Z" fill="#E6E6E6"/>
<path d="M17.0056 20.2005C15.3816 24.6695 11.6577 26.3111 8.68814 23.8672C5.71854 21.4232 4.62771 15.8191 6.25169 11.3501C7.87568 6.88113 11.5995 5.23952 14.5691 7.68348C15.8165 8.71008 16.7879 10.3574 17.317 12.3434C17.345 12.4489 17.3703 12.5545 17.3955 12.6642C17.9881 15.1446 17.8461 17.8881 17.0056 20.2005Z" fill="#FFB6B6"/>
<path d="M17.8866 12.6647C17.6229 11.5543 17.738 12.1327 17.4714 11.0265C17.6454 12.006 17.3704 12.5549 17.3957 12.6647H10.0986V6.28099C12.2364 5.00593 14.3265 3.92088 15.589 6.28099C17.9316 6.28114 19.8307 9.13912 19.8308 12.6647L17.8866 12.6647Z" fill="#2F2E41"/>
<path d="M15.2998 30.4098C15.2941 30.2916 15.2857 30.1692 15.2745 30.051C15.1765 29.1837 15.0175 28.3345 14.8004 27.5177C14.59 26.6269 14.3767 25.7318 14.1635 24.841C14.4381 26.4581 14.3544 28.1658 13.9251 29.7047C12.6934 28.2608 13.4706 24.9592 11.8602 24.9592C7.98867 24.9592 4.00488 20.2348 4.00488 14.4042C4.00488 8.57779 5.66572 4.2207 9.53728 4.2207C13.4117 4.2207 16.5538 6.88899 16.6295 12.7154C11.8602 14.4042 16.2003 29.8187 15.2998 30.4098Z" fill="#2F2E41"/>
<path d="M4.48877 13.5104C6.96784 13.5104 8.97753 10.486 8.97753 6.75521C8.97753 3.02441 6.96784 0 4.48877 0C2.00969 0 0 3.02441 0 6.75521C0 10.486 2.00969 13.5104 4.48877 13.5104Z" fill="#2F2E41"/>
<path d="M28.1532 33.3803C28.4525 33.3803 28.6952 33.007 28.6952 32.5466C28.6952 32.0862 28.4525 31.7129 28.1532 31.7129C27.854 31.7129 27.6113 32.0862 27.6113 32.5466C27.6113 33.007 27.854 33.3803 28.1532 33.3803Z" fill="#3F3D56"/>
<path d="M30.0253 33.3803C30.3246 33.3803 30.5672 33.007 30.5672 32.5466C30.5672 32.0862 30.3246 31.7129 30.0253 31.7129C29.726 31.7129 29.4834 32.0862 29.4834 32.5466C29.4834 33.007 29.726 33.3803 30.0253 33.3803Z" fill="#3F3D56"/>
<path d="M31.8974 33.3803C32.1967 33.3803 32.4393 33.007 32.4393 32.5466C32.4393 32.0862 32.1967 31.7129 31.8974 31.7129C31.5981 31.7129 31.3555 32.0862 31.3555 32.5466C31.3555 33.007 31.5981 33.3803 31.8974 33.3803Z" fill="#3F3D56"/>
<path d="M34.0323 33.2045C34.0156 33.2045 33.999 33.1948 33.9865 33.1755L33.6208 32.613C33.5964 32.5755 33.5964 32.5156 33.6208 32.4782L33.9865 31.9157C34.0113 31.8776 34.0519 31.877 34.0771 31.9142C34.1024 31.9514 34.1028 32.0125 34.0781 32.0505L33.7563 32.5456L34.0781 33.0407C34.1028 33.0787 34.1024 33.1398 34.0771 33.177C34.0646 33.1954 34.0485 33.2045 34.0323 33.2045Z" fill="#3F3D56"/>
<path d="M34.6471 33.2046C34.6309 33.2046 34.6147 33.1955 34.6023 33.1771C34.577 33.1399 34.5765 33.0788 34.6013 33.0407L34.9231 32.5457L34.6013 32.0506C34.5765 32.0126 34.577 31.9515 34.6023 31.9142C34.6275 31.8769 34.6682 31.8777 34.6929 31.9158L35.0585 32.4782C35.0829 32.5157 35.0829 32.5756 35.0585 32.6131L34.6929 33.1756C34.6804 33.1949 34.6637 33.2046 34.6471 33.2046Z" fill="#3F3D56"/>
<path d="M54.9716 31.8086H54.2917C54.2142 31.8086 54.1514 31.9031 54.1514 32.0198V33.044C54.1514 33.1607 54.2142 33.2552 54.2917 33.2552H54.9716C55.0492 33.2552 55.1126 33.1607 55.1126 33.044V32.0198C55.1126 31.9031 55.0492 31.8086 54.9716 31.8086Z" fill="#3F3D56"/>
<path d="M53.3056 31.8086H52.6257C52.5482 31.8086 52.4854 31.9031 52.4854 32.0198V33.044C52.4854 33.1607 52.5482 33.2552 52.6257 33.2552H53.3056C53.3831 33.2552 53.4466 33.1607 53.4466 33.044V32.0198C53.4466 31.9031 53.3831 31.8086 53.3056 31.8086Z" fill="#3F3D56"/>
<path d="M56.5419 31.8574H55.862C55.7845 31.8574 55.7217 31.9519 55.7217 32.0686V33.0928C55.7217 33.2095 55.7845 33.304 55.862 33.304H56.5419C56.6195 33.304 56.6829 33.2095 56.6829 33.0928V32.0686C56.6829 31.9519 56.6195 31.8574 56.5419 31.8574Z" fill="#3F3D56"/>
<path d="M45.2454 32.2461H39.257C39.1622 32.2461 39.0859 32.3618 39.0859 32.5036C39.0859 32.6454 39.1622 32.7611 39.257 32.7611H45.2454C45.3396 32.7611 45.4165 32.6453 45.4165 32.5036C45.4165 32.3618 45.3396 32.2461 45.2454 32.2461Z" fill="#3F3D56"/>
</g>
<defs>
<clipPath id="clip0_1216_957">
<rect width="100" height="100" fill="white"/>
</clipPath>
</defs>
</svg>
