<svg width="100" height="100" viewBox="0 0 100 100" fill="none" xmlns="http://www.w3.org/2000/svg">
<g clip-path="url(#clip0_1216_1622)">
<path d="M6.29049 20.9607C5.04635 20.9607 3.83015 20.346 2.79568 19.1944C1.76122 18.0429 0.95495 16.406 0.478838 14.491C0.00272558 12.576 -0.121847 10.4687 0.120873 8.43574C0.363593 6.40275 0.962705 4.53533 1.84245 3.06963C2.72219 1.60392 3.84304 0.605768 5.06328 0.201382C6.28351 -0.203005 7.54832 0.00454099 8.69776 0.797774C9.84719 1.59101 10.8296 2.9343 11.5208 4.65778C12.212 6.38127 12.581 8.40754 12.581 10.4804C12.5791 13.259 11.9157 15.9228 10.7365 17.8876C9.55717 19.8524 7.95825 20.9576 6.29049 20.9607ZM6.29049 0.436687C5.09819 0.436687 3.93266 1.02574 2.9413 2.12935C1.94994 3.23296 1.17726 4.80157 0.72099 6.63681C0.264716 8.47205 0.145335 10.4915 0.377941 12.4398C0.610548 14.3881 1.18469 16.1777 2.02778 17.5823C2.87086 18.9869 3.94502 19.9435 5.11441 20.331C6.2838 20.7186 7.49591 20.5197 8.59746 19.7595C9.699 18.9993 10.6405 17.712 11.3029 16.0603C11.9653 14.4086 12.3189 12.4668 12.3189 10.4804C12.3171 7.81753 11.6814 5.26464 10.5512 3.38174C9.42105 1.49884 7.88876 0.439705 6.29049 0.436687Z" fill="#F2F2F2"/>
<path d="M49.0134 14.8475C48.3913 14.8475 47.7832 14.5402 47.266 13.9644C46.7488 13.3886 46.3456 12.5702 46.1076 11.6127C45.8695 10.6552 45.8072 9.60155 45.9286 8.58506C46.05 7.56857 46.3495 6.63485 46.7894 5.902C47.2293 5.16915 47.7897 4.67007 48.3998 4.46788C49.0099 4.26569 49.6423 4.36946 50.217 4.76607C50.7918 5.16269 51.283 5.83434 51.6286 6.69608C51.9742 7.55782 52.1587 8.57096 52.1587 9.60737C52.1577 10.9967 51.826 12.3286 51.2364 13.311C50.6467 14.2934 49.8473 14.846 49.0134 14.8475ZM49.0134 4.80387C48.4432 4.80387 47.8858 5.08559 47.4116 5.61341C46.9375 6.14122 46.568 6.89142 46.3497 7.76915C46.1315 8.64687 46.0744 9.61269 46.1857 10.5445C46.2969 11.4763 46.5715 12.3322 46.9747 13.0039C47.3779 13.6757 47.8917 14.1332 48.4509 14.3186C49.0102 14.5039 49.5899 14.4088 50.1167 14.0452C50.6436 13.6816 51.0938 13.066 51.4107 12.276C51.7275 11.4861 51.8966 10.5574 51.8966 9.60737C51.8957 8.33384 51.5917 7.11289 51.0511 6.21237C50.5106 5.31185 49.7778 4.80531 49.0134 4.80387Z" fill="#F2F2F2"/>
<path d="M71.1614 40.392C70.4616 40.392 69.7775 40.0462 69.1956 39.3984C68.6137 38.7507 68.1602 37.83 67.8924 36.7528C67.6246 35.6755 67.5545 34.4902 67.691 33.3467C67.8276 32.2031 68.1646 31.1527 68.6594 30.3282C69.1543 29.5038 69.7848 28.9423 70.4711 28.7148C71.1575 28.4874 71.869 28.6041 72.5155 29.0503C73.1621 29.4965 73.7147 30.2521 74.1035 31.2216C74.4923 32.191 74.6998 33.3308 74.6998 34.4968C74.6988 36.0597 74.3256 37.5582 73.6623 38.6633C72.9989 39.7685 72.0996 40.3902 71.1614 40.392ZM71.1614 29.0382C70.5135 29.0382 69.88 29.3584 69.3412 29.9582C68.8024 30.558 68.3825 31.4105 68.1345 32.4079C67.8866 33.4053 67.8217 34.5028 67.9481 35.5617C68.0745 36.6205 68.3866 37.5931 68.8448 38.3565C69.303 39.1199 69.8867 39.6398 70.5223 39.8504C71.1578 40.061 71.8166 39.9529 72.4152 39.5398C73.0139 39.1266 73.5256 38.427 73.8856 37.5293C74.2456 36.6317 74.4377 35.5764 74.4377 34.4968C74.4368 33.0496 74.0913 31.6621 73.4771 30.6388C72.8628 29.6155 72.0301 29.0399 71.1614 29.0382Z" fill="#F2F2F2"/>
<path d="M99.8687 99.9992H70.382C70.3473 99.9992 70.3139 99.9762 70.2894 99.9352C70.2648 99.8943 70.251 99.8387 70.251 99.7808C70.251 99.7229 70.2648 99.6674 70.2894 99.6265C70.3139 99.5855 70.3473 99.5625 70.382 99.5625H99.8687C99.9034 99.5625 99.9368 99.5855 99.9614 99.6265C99.9859 99.6674 99.9997 99.7229 99.9997 99.7808C99.9997 99.8387 99.9859 99.8943 99.9614 99.9352C99.9368 99.9762 99.9034 99.9992 99.8687 99.9992Z" fill="#CCCCCC"/>
<path d="M83.9932 33.4597C85.7709 33.4597 87.212 31.0588 87.212 28.097C87.212 25.1353 85.7709 22.7344 83.9932 22.7344C82.2155 22.7344 80.7744 25.1353 80.7744 28.097C80.7744 31.0588 82.2155 33.4597 83.9932 33.4597Z" fill="#FFB8B8"/>
<path d="M84.3272 91.7764L82.806 92.6371L80.0889 83.2705L82.3342 82L84.3272 91.7764Z" fill="#FFB8B8"/>
<path d="M81.5719 92.5289L84.5059 90.8686L85.1333 93.9463L80.3521 96.6519C80.2697 96.2478 80.2359 95.8205 80.2526 95.3946C80.2693 94.9686 80.3362 94.5523 80.4495 94.1695C80.5627 93.7866 80.7202 93.4447 80.9127 93.1632C81.1053 92.8817 81.3293 92.6661 81.5719 92.5289Z" fill="#2F2E41"/>
<path d="M87.7643 97.0698L86.1597 97.2041L85.085 86.9563L87.4533 86.7578L87.7643 97.0698Z" fill="#FFB8B8"/>
<path d="M84.9905 96.5361L88.0852 96.2769L88.1831 99.5232L83.1399 99.9455C83.1271 99.5192 83.1647 99.0929 83.2508 98.6908C83.3368 98.2887 83.4695 97.9188 83.6414 97.6022C83.8132 97.2856 84.0208 97.0285 84.2523 96.8456C84.4838 96.6627 84.7346 96.5575 84.9905 96.5361Z" fill="#2F2E41"/>
<path d="M78.2154 63.0206C78.3592 62.8072 78.4733 62.5438 78.5495 62.249C78.6256 61.9541 78.6621 61.6351 78.6562 61.3142C78.6504 60.9934 78.6024 60.6786 78.5156 60.392C78.4289 60.1054 78.3055 59.854 78.1541 59.6555L79.684 52.2812L77.3261 53.2851L76.2348 60.134C76.0515 60.5798 75.9727 61.1222 76.0134 61.6583C76.0541 62.1945 76.2114 62.6871 76.4555 63.0429C76.6996 63.3988 77.0136 63.593 77.338 63.5889C77.6623 63.5848 77.9745 63.3826 78.2154 63.0206Z" fill="#FFB8B8"/>
<path d="M87.6149 93.9798C87.5942 93.9798 87.5734 93.9779 87.5528 93.9743L85.3746 93.59C85.2408 93.5675 85.1157 93.469 85.0203 93.3111C84.9249 93.1531 84.865 92.9453 84.8507 92.7224L83.1674 67.7203L81.9493 74.562L84.2203 88.0081C84.2434 88.145 84.2484 88.2887 84.2349 88.4292C84.2214 88.5696 84.1898 88.7036 84.1423 88.8217C84.0947 88.9398 84.0323 89.0393 83.9594 89.1133C83.8864 89.1873 83.8047 89.2341 83.7199 89.2503L81.512 89.6731C81.3714 89.699 81.2299 89.6403 81.113 89.5075C80.9961 89.3748 80.9116 89.1768 80.8747 88.9492L78.4622 73.8176C78.4423 73.6932 78.4373 73.5636 78.4476 73.436L79.5319 59.8555L87.6196 60.936L88.2044 92.9672C88.2068 93.0987 88.1934 93.2297 88.1648 93.3523C88.1363 93.475 88.0932 93.5869 88.0383 93.6813C87.9833 93.7758 87.9175 93.8508 87.8448 93.9021C87.7721 93.9534 87.6939 93.9798 87.6149 93.9798Z" fill="#2F2E41"/>
<path d="M84.8186 63.2565C82.109 63.2565 79.0413 61.5123 78.8555 61.4051L78.8018 61.3741L81.8585 35.2422L81.9148 35.246C83.1261 35.3279 86.432 35.3699 86.4653 35.3703L86.5246 35.3711L87.7988 58.4319L88.0265 61.805L87.9986 61.8426C87.2192 62.8926 86.0563 63.2565 84.8186 63.2565Z" fill="#00BFA6"/>
<path d="M79.9237 60.9971L78.0117 59.714L78.9862 40.0756C79.0097 39.5914 79.0981 39.1222 79.2449 38.7026C79.3918 38.283 79.5933 37.9237 79.8347 37.6512L80.8408 36.5105C80.8123 36.3492 80.8072 36.179 80.8259 36.0138C80.8446 35.8486 80.8865 35.6931 80.9482 35.5601C81.01 35.4272 81.0898 35.3205 81.1811 35.2489C81.2724 35.1772 81.3725 35.1427 81.4734 35.1481L81.7615 35.1636C81.8163 35.102 81.881 35.0695 81.947 35.0703C82.0131 35.0711 82.0774 35.1051 82.1317 35.168C82.1859 35.2308 82.2275 35.3195 82.2509 35.4224C82.2744 35.5252 82.2786 35.6375 82.2631 35.7445L82.1998 37.8251L79.9237 60.9971Z" fill="#2F2E41"/>
<path d="M78.9592 57.4789L76.4629 57.3037L77.2716 48.6373L77.9417 40.4825C77.9548 40.1897 78.0076 39.9056 78.0959 39.6515C78.1843 39.3975 78.3059 39.1799 78.4518 39.0152C78.5978 38.8504 78.7641 38.7428 78.9385 38.7002C79.1129 38.6577 79.2908 38.6814 79.4589 38.7695C79.7208 38.9064 79.9454 39.1925 80.0933 39.5776C80.2413 39.9627 80.3032 40.4223 80.2681 40.8758L79.5893 49.7115L78.9592 57.4789Z" fill="#2F2E41"/>
<path d="M82.9117 61.2978L82.8948 61.2103C82.8832 61.1503 81.7582 55.1379 83.6407 47.9631L84.5846 40.1409L85.3913 35.2294C85.4065 35.1416 85.4336 35.0609 85.4708 34.9937C85.5079 34.9265 85.5539 34.8746 85.6051 34.8423C85.6653 34.8075 85.7304 34.8031 85.7921 34.8295C85.8538 34.8559 85.9095 34.912 85.9522 34.9908C86.5145 34.7158 87.119 34.8165 87.6375 35.2716L88.7704 36.2659C89.0223 36.487 89.2231 36.8411 89.3412 37.2727C89.4594 37.7043 89.4882 38.189 89.4232 38.6508L87.8748 49.6602L88.6275 59.9434L82.9117 61.2978Z" fill="#2F2E41"/>
<path d="M84.5606 57.0622C84.7521 57.0968 84.9459 57.0611 85.1282 56.9575C85.3106 56.8539 85.4771 56.6849 85.616 56.4625C85.7549 56.2401 85.8628 55.9696 85.9322 55.6702C86.0016 55.3708 86.0307 55.0496 86.0176 54.7294L89.524 50.4018L88.2983 49.4336L84.5173 52.6786C84.1959 52.7511 83.9016 53.0175 83.6902 53.4274C83.4788 53.8372 83.365 54.362 83.3703 54.9024C83.3756 55.4427 83.4997 55.961 83.7191 56.3591C83.9385 56.7572 84.2379 57.0073 84.5606 57.0622Z" fill="#FFB8B8"/>
<path d="M86.7585 55.1227L85.5742 51.4394L88.495 48.2368L87.0697 39.7194C87.0126 39.3784 86.9983 39.0214 87.0277 38.6708C87.0572 38.3202 87.1297 37.9834 87.2407 37.6816C87.3518 37.3798 87.499 37.1193 87.6732 36.9165C87.8473 36.7137 88.0447 36.5729 88.253 36.5029C88.6212 36.3807 89.0034 36.4852 89.3287 36.7969C89.6541 37.1087 89.9005 37.6066 90.0222 38.1982L91.9454 47.6163C91.9851 47.8104 91.9873 48.0203 91.9517 48.2165C91.9162 48.4128 91.8447 48.5856 91.7473 48.7108L86.7585 55.1227Z" fill="#2F2E41"/>
<path d="M84.2214 29.2366C83.8355 29.3203 83.5444 28.6626 83.4095 28.0545C83.2745 27.4465 83.1716 26.7387 82.8361 26.4103C82.3778 25.9616 81.7914 26.5012 81.2673 26.3532C80.6754 26.186 80.2906 25.1409 80.2604 24.142C80.2302 23.1431 80.4688 22.1823 80.703 21.2613L80.7847 22.4059C80.7738 22.0179 80.8228 21.6318 80.927 21.2845C81.0312 20.9371 81.1872 20.6401 81.38 20.4219L81.2747 22.1014C81.2971 21.8697 81.3468 21.6476 81.4208 21.448C81.4949 21.2483 81.5919 21.075 81.7063 20.9379C81.8206 20.8009 81.9501 20.7028 82.0873 20.6494C82.2245 20.5959 82.3666 20.5881 82.5056 20.6264L82.489 21.6271C83.1726 21.4917 83.8622 21.3561 84.5479 21.4592C85.2336 21.5624 85.924 21.9238 86.4437 22.6762C87.221 23.8015 87.5049 25.6546 87.4096 27.3629C87.3143 29.0713 86.891 30.6762 86.4499 32.2265C86.3389 32.6166 86.1853 33.0567 85.928 33.1064C85.6967 33.1511 85.4851 32.829 85.4132 32.4601C85.3578 32.0816 85.36 31.686 85.4195 31.3092C85.4845 30.7334 85.5665 30.1448 85.5053 29.5678C85.4442 28.9908 85.195 28.4206 84.8459 28.3499C84.4968 28.2792 84.1396 28.944 84.3074 29.4589L84.2214 29.2366Z" fill="#2F2E41"/>
<path d="M42.1079 88.1171L40.8549 87.2381L39.9954 76.7734H28.5494L27.6177 87.1953L26.4967 88.1291C26.4431 88.1738 26.4001 88.2474 26.3747 88.3378C26.3493 88.4283 26.343 88.5305 26.3567 88.6277C26.3705 88.7249 26.4036 88.8116 26.4506 88.8736C26.4976 88.9355 26.5558 88.9693 26.6158 88.9693H42.0046C42.0661 88.9693 42.1256 88.9339 42.1732 88.869C42.2208 88.8042 42.2534 88.7139 42.2656 88.6136C42.2777 88.5132 42.2687 88.4089 42.2399 88.3184C42.2112 88.2279 42.1645 88.1568 42.1079 88.1171Z" fill="#E6E6E6"/>
<path d="M62.449 78.1671H6.22278C5.92777 78.166 5.64508 77.9699 5.43671 77.622C5.22835 77.2741 5.11133 76.8027 5.11133 76.3112V63.1016H63.5604V76.3112C63.5604 76.8027 63.4434 77.2741 63.2351 77.622C63.0267 77.9699 62.744 78.166 62.449 78.1671Z" fill="#CCCCCC"/>
<path d="M63.6188 69.3443H5.05957V12.8232C5.05998 12.23 5.2016 11.6614 5.45335 11.2419C5.70511 10.8225 6.04643 10.5866 6.40246 10.5859H62.2759C62.6319 10.5866 62.9732 10.8225 63.225 11.2419C63.4767 11.6614 63.6184 12.23 63.6188 12.8232V69.3443Z" fill="#3F3D56"/>
<path d="M60.1209 65.2413H8.55675C8.28228 65.2408 8.01913 65.059 7.82505 64.7356C7.63097 64.4123 7.52179 63.9739 7.52148 63.5166V16.4124C7.52179 15.9551 7.63096 15.5166 7.82504 15.1933C8.01912 14.8699 8.28227 14.688 8.55675 14.6875H60.1209C60.3954 14.688 60.6586 14.8699 60.8526 15.1933C61.0467 15.5166 61.1559 15.9551 61.1562 16.4124V63.5166C61.1559 63.9739 61.0467 64.4123 60.8526 64.7356C60.6586 65.059 60.3954 65.2408 60.1209 65.2413Z" fill="white"/>
<path d="M59.636 89.0773H9.70527C9.67051 89.0773 9.63718 89.0543 9.6126 89.0134C9.58802 88.9724 9.57422 88.9169 9.57422 88.859C9.57422 88.8011 9.58802 88.7455 9.6126 88.7046C9.63718 88.6636 9.67051 88.6406 9.70527 88.6406H59.636C59.6708 88.6406 59.7041 88.6636 59.7287 88.7046C59.7533 88.7455 59.7671 88.8011 59.7671 88.859C59.7671 88.9169 59.7533 88.9724 59.7287 89.0134C59.7041 89.0543 59.6708 89.0773 59.636 89.0773Z" fill="#CCCCCC"/>
<path d="M55.2773 59.388H13.4016C13.3668 59.388 13.3335 59.365 13.3089 59.324C13.2843 59.2831 13.2705 59.2276 13.2705 59.1696V25.7301C13.2705 25.6722 13.2843 25.6166 13.3089 25.5757C13.3335 25.5347 13.3668 25.5117 13.4016 25.5117C13.4363 25.5117 13.4696 25.5347 13.4942 25.5757C13.5188 25.6166 13.5326 25.6722 13.5326 25.7301V58.9513H55.2773C55.312 58.9513 55.3453 58.9743 55.3699 59.0153C55.3945 59.0562 55.4083 59.1117 55.4083 59.1696C55.4083 59.2276 55.3945 59.2831 55.3699 59.324C55.3453 59.365 55.312 59.388 55.2773 59.388Z" fill="#3F3D56"/>
<path d="M22.3482 56.9851H18.5394C18.4363 56.9849 18.3374 56.9165 18.2645 56.795C18.1915 56.6735 18.1505 56.5088 18.1504 56.337V47.5895C18.1505 47.4177 18.1915 47.2529 18.2645 47.1314C18.3374 47.0099 18.4363 46.9416 18.5394 46.9414H22.3482C22.4513 46.9416 22.5502 47.0099 22.6231 47.1314C22.6961 47.2529 22.7371 47.4177 22.7372 47.5895V56.337C22.7371 56.5088 22.6961 56.6735 22.6231 56.795C22.5502 56.9165 22.4513 56.9849 22.3482 56.9851Z" fill="#00BFA6"/>
<path d="M29.2945 56.9851H25.4857C25.3826 56.985 25.2837 56.9166 25.2108 56.7951C25.1378 56.6736 25.0968 56.5089 25.0967 56.337V39.2926C25.0968 39.1208 25.1378 38.9561 25.2108 38.8346C25.2837 38.7131 25.3826 38.6447 25.4857 38.6445H29.2945C29.3976 38.6447 29.4965 38.7131 29.5694 38.8346C29.6423 38.9561 29.6834 39.1208 29.6835 39.2926V56.337C29.6834 56.5089 29.6423 56.6736 29.5694 56.7951C29.4965 56.9166 29.3976 56.985 29.2945 56.9851Z" fill="#00BFA6"/>
<path d="M36.2398 56.9851H32.431C32.3279 56.9849 32.229 56.9165 32.1561 56.795C32.0831 56.6735 32.0421 56.5088 32.042 56.337V47.5895C32.0421 47.4177 32.0831 47.2529 32.1561 47.1314C32.229 47.0099 32.3279 46.9416 32.431 46.9414H36.2398C36.3429 46.9416 36.4418 47.0099 36.5147 47.1314C36.5877 47.2529 36.6287 47.4177 36.6288 47.5895V56.337C36.6287 56.5088 36.5877 56.6735 36.5147 56.795C36.4418 56.9165 36.3429 56.9849 36.2398 56.9851Z" fill="#00BFA6"/>
<path d="M43.1861 56.987H39.3773C39.2765 56.9906 39.179 56.9275 39.1061 56.8115C39.0331 56.6955 38.9908 56.5361 38.9883 56.3682V35.99C38.9908 35.8221 39.0331 35.6627 39.1061 35.5467C39.179 35.4307 39.2765 35.3676 39.3773 35.3712H43.1861C43.2869 35.3676 43.3844 35.4307 43.4573 35.5467C43.5302 35.6627 43.5726 35.8221 43.5751 35.99V56.3682C43.5726 56.5361 43.5302 56.6955 43.4573 56.8115C43.3844 56.9275 43.2869 56.9906 43.1861 56.987Z" fill="#00BFA6"/>
<path d="M50.1314 56.9875H46.3226C46.2195 56.9873 46.1206 56.9189 46.0477 56.7975C45.9747 56.676 45.9337 56.5112 45.9336 56.3394V30.1247C45.9337 29.9528 45.9747 29.7881 46.0477 29.6666C46.1206 29.5451 46.2195 29.4768 46.3226 29.4766H50.1314C50.2345 29.4768 50.3334 29.5451 50.4063 29.6666C50.4793 29.7881 50.5203 29.9528 50.5204 30.1247V56.3394C50.5203 56.5112 50.4793 56.676 50.4063 56.7975C50.3334 56.9189 50.2345 56.9873 50.1314 56.9875Z" fill="#00BFA6"/>
<path d="M20.4445 44.3232C20.8788 44.3232 21.2308 43.7367 21.2308 43.0132C21.2308 42.2897 20.8788 41.7031 20.4445 41.7031C20.0102 41.7031 19.6582 42.2897 19.6582 43.0132C19.6582 43.7367 20.0102 44.3232 20.4445 44.3232Z" fill="#3F3D56"/>
<path d="M27.3898 35.8076C27.8241 35.8076 28.1761 35.2211 28.1761 34.4975C28.1761 33.774 27.8241 33.1875 27.3898 33.1875C26.9556 33.1875 26.6035 33.774 26.6035 34.4975C26.6035 35.2211 26.9556 35.8076 27.3898 35.8076Z" fill="#3F3D56"/>
<path d="M34.3351 44.3232C34.7694 44.3232 35.1214 43.7367 35.1214 43.0132C35.1214 42.2897 34.7694 41.7031 34.3351 41.7031C33.9009 41.7031 33.5488 42.2897 33.5488 43.0132C33.5488 43.7367 33.9009 44.3232 34.3351 44.3232Z" fill="#3F3D56"/>
<path d="M41.2814 31.6591C41.7157 31.6591 42.0677 31.0726 42.0677 30.3491C42.0677 29.6256 41.7157 29.0391 41.2814 29.0391C40.8472 29.0391 40.4951 29.6256 40.4951 30.3491C40.4951 31.0726 40.8472 31.6591 41.2814 31.6591Z" fill="#3F3D56"/>
<path d="M48.2267 26.8545C48.661 26.8545 49.0131 26.2679 49.0131 25.5444C49.0131 24.8209 48.661 24.2344 48.2267 24.2344C47.7925 24.2344 47.4404 24.8209 47.4404 25.5444C47.4404 26.2679 47.7925 26.8545 48.2267 26.8545Z" fill="#3F3D56"/>
<path d="M34.3519 43.3066L27.3896 34.6184L20.5225 43.1879L20.3652 42.8385L27.3896 34.0728L34.3188 42.7197L41.2044 30.1656L41.2321 30.1468L48.1778 25.4844L48.2759 25.8894L41.3578 30.5333L34.3519 43.3066Z" fill="#3F3D56"/>
</g>
<defs>
<clipPath id="clip0_1216_1622">
<rect width="100" height="100" fill="white"/>
</clipPath>
</defs>
</svg>
