<svg width="100" height="100" viewBox="0 0 100 100" fill="none" xmlns="http://www.w3.org/2000/svg">
<g clip-path="url(#clip0_1216_1658)">
<path d="M92.2643 48.2875H11.1753C10.0884 48.2875 9.2041 46.9373 9.2041 45.2775V3.00987C9.2041 1.35022 10.0884 0 11.1753 0H92.2643C93.3512 0 94.2354 1.35022 94.2354 3.00987V45.2775C94.2354 46.9373 93.3512 48.2875 92.2643 48.2875ZM11.1753 0.358843C10.218 0.358843 9.43911 1.54812 9.43911 3.00987V45.2775C9.43911 46.7393 10.218 47.9287 11.1753 47.9287H92.2643C93.2216 47.9287 94.0004 46.7393 94.0004 45.2775V3.00987C94.0004 1.54812 93.2216 0.358843 92.2643 0.358843H11.1753Z" fill="#3F3D56"/>
<path d="M100 98.7812H0V99.0832H100V98.7812Z" fill="#E6E6E6"/>
<path d="M100 83.3516H0V83.6535H100V83.3516Z" fill="#E6E6E6"/>
<path d="M45.573 49.8402C45.6448 51.2182 46.1686 52.2785 46.7429 52.2086C47.3172 52.1387 47.7244 50.9651 47.6525 49.5866C47.6287 49.0354 47.5188 48.5009 47.3319 48.0278L46.9794 42.1953L45.1904 42.5063L45.7279 48.2231C45.5924 48.7355 45.5393 49.29 45.573 49.8402Z" fill="#FFB6B6"/>
<path d="M43.4355 22.6303C43.4355 22.6303 45.1078 21.2786 45.9558 23.2986C46.8038 25.3186 47.389 47.1654 47.389 47.1654L45.0387 47.5486L44.5932 32.1537L43.4355 22.6303Z" fill="#E6E6E6"/>
<path d="M39.9641 82.2108L41.3257 82.2106L41.9734 74.1914L39.9639 74.1916L39.9641 82.2108Z" fill="#FFB6B6"/>
<path d="M44.6293 82.162C44.6717 82.2711 44.694 82.623 44.694 82.7497C44.694 83.1394 44.4871 83.4554 44.2319 83.4554H40.0153C39.8412 83.4554 39.7001 83.2398 39.7001 82.974V82.7059C39.7001 82.7059 39.4915 81.9003 39.9209 80.9073C39.9209 80.9073 40.4547 81.6848 41.2522 80.467L41.4874 79.8164L43.1899 81.7176L44.1336 81.895C44.34 81.9338 44.5231 81.8889 44.6293 82.162Z" fill="#2F2E41"/>
<path d="M47.844 81.8691L49.1632 81.3543L48.4909 73.3398L46.5439 74.0995L47.844 81.8691Z" fill="#FFB6B6"/>
<path d="M52.3557 80.0619C52.4144 80.1515 52.4931 80.4839 52.5137 80.6068C52.5768 80.9844 52.4276 81.3686 52.1803 81.4651L48.0949 83.0586C47.9262 83.1244 47.7545 82.969 47.7114 82.7114L47.668 82.4517C47.668 82.4517 47.3353 81.7499 47.5904 80.6255C47.5904 80.6255 48.2336 81.1771 48.8089 79.6958L48.9314 78.9766L50.889 80.1752L51.8321 79.9904C52.0384 79.95 52.2085 79.8374 52.3557 80.0619Z" fill="#2F2E41"/>
<path d="M38.838 20.9071L38.7734 20.1917L39.5407 17.3303L41.6489 16.9727L42.1041 21.0691L38.838 20.9071Z" fill="#FFB6B6"/>
<path opacity="0.1" d="M38.838 20.9071L38.7734 20.1917L39.5407 17.3303L41.6489 16.9727L42.1041 21.0691L38.838 20.9071Z" fill="black"/>
<path d="M36.3784 41.1153L35.4414 45.0497L36.1441 47.1958L39.6578 78.3136H41.9938L41.5318 50.7726L46.9194 78.3136H49.2314L47.3722 59.7145L45.9824 42.546L45.1394 41.7509L41.0633 38.2539L36.3784 41.1153Z" fill="#2F2E41"/>
<path d="M42.3517 43.7975L40.9462 44.1552L39.0723 37.3594H43.2887L42.3517 43.7975Z" fill="#E6E6E6"/>
<path d="M45.1629 42.0096L42.3519 43.798L41.415 40.5789L40.9465 44.1557L36.0273 41.7378L36.7301 37.3599L36.0273 23.0528L38.508 20.5276L38.8383 20.1914L41.8834 20.5491L42.1505 20.7708L43.9916 22.3375L44.4601 34.1408L45.1629 42.0096Z" fill="#2F2E41"/>
<path d="M42.1503 20.7708L40.8292 29.3121L38.5078 20.5276L38.8381 20.1914L41.8833 20.5491L42.1503 20.7708Z" fill="#E6E6E6"/>
<path d="M39.8923 20.1914L39.4238 21.4234L39.8923 21.8341L39.6581 29.3344L40.595 31.2794L41.532 28.4047L40.8293 21.8341L41.0635 20.1914H39.8923Z" fill="#2F2E41"/>
<path d="M40.5945 19.4755C41.8235 19.4755 42.8198 17.9542 42.8198 16.0776C42.8198 14.201 41.8235 12.6797 40.5945 12.6797C39.3654 12.6797 38.3691 14.201 38.3691 16.0776C38.3691 17.9542 39.3654 19.4755 40.5945 19.4755Z" fill="#FFB6B6"/>
<path d="M39.1725 16.3767L39.6534 16.6971L39.8632 14.7746C39.8632 14.7746 40.7026 14.1338 41.3321 14.4542C41.9616 14.7746 43.0109 14.4542 43.0109 14.4542C43.0109 14.4542 43.0109 11.25 41.542 11.25C40.0731 11.25 38.6041 11.5704 38.6041 12.5317C38.6041 13.4929 37.9746 14.4542 37.9746 14.4542C37.9746 14.4542 37.1352 16.3767 37.9746 17.6584C38.814 18.94 39.2337 18.94 39.2337 18.94L39.1725 16.3767Z" fill="#2F2E41"/>
<path d="M34.8545 49.7409C34.8301 51.1227 35.2772 52.262 35.8531 52.2855C36.429 52.3091 36.9155 51.2081 36.9398 49.8259C36.9545 49.2739 36.8824 48.7246 36.7295 48.2239L36.7845 42.3672L34.984 42.3864L35.121 48.158C34.9506 48.6456 34.8592 49.1884 34.8545 49.7409Z" fill="#FFB6B6"/>
<path d="M37.0824 22.3293C37.0824 22.3293 35.5598 21.6139 34.857 23.76C34.1543 25.9061 35.0913 47.7243 35.0913 47.7243H37.4549L36.8276 32.3442L37.0824 22.3293Z" fill="#E6E6E6"/>
<path d="M95.4901 62.9768L89.8121 60.3227C89.6865 60.264 89.5548 60.2426 89.4239 60.2596L60.6469 63.9992C60.2366 64.0525 60.1335 64.8975 60.5037 65.1729L61.4255 65.8586H61.4009V98.6841H62.2695V66.4865L65.1584 68.6355C65.3794 68.8 65.6261 68.8671 65.8707 68.8293L66.1781 68.7819V98.6841H67.0467V68.648L89.3043 65.215V98.6841H90.1729V65.0811L93.8644 64.5117V98.6841H94.733V64.3777L95.4064 64.2739C95.8792 64.2009 95.9445 63.1891 95.4901 62.9768Z" fill="#3F3D56"/>
<path d="M69.001 63.871C69.5438 63.871 77.5783 62.3789 77.5783 62.3789L78.7726 64.8657L70.4124 67.3525L69.001 63.871Z" fill="white"/>
<path d="M77.8192 97.4105L76.4233 97.4066L75.7686 89.1836L77.8287 89.1892L77.8192 97.4105Z" fill="#A0616A"/>
<path d="M73.0368 97.3494C72.9932 97.4611 72.9699 97.8218 72.9697 97.9518C72.9693 98.3513 73.181 98.6757 73.4427 98.6764L77.7656 98.6878C77.944 98.6882 78.089 98.4677 78.0893 98.1951L78.0896 97.9203C78.0896 97.9203 78.3044 97.0949 77.8653 96.0757C77.8653 96.0757 77.3172 96.8714 76.5009 95.6207L76.2605 94.9531L74.513 96.8977L73.5453 97.077C73.3336 97.1162 73.146 97.0697 73.0368 97.3494Z" fill="#2F2E41"/>
<path d="M85.3111 93.5879L84.2098 94.8563L80.4814 88.9736L82.1069 87.1016L85.3111 93.5879Z" fill="#A0616A"/>
<path d="M81.5188 97.8976C81.5281 98.0253 81.6506 98.3308 81.7012 98.4333C81.857 98.7485 82.1505 98.8113 82.357 98.5735L85.7675 94.645C85.9083 94.4828 85.9363 94.177 85.8301 93.9619L85.723 93.7451C85.723 93.7451 85.5698 92.8991 84.8256 92.4961C84.8256 92.4961 84.7046 93.6223 83.5729 93.3803L83.1227 93.0732L82.5054 96.1971L81.813 97.2198C81.6615 97.4435 81.4955 97.5778 81.5188 97.8976Z" fill="#2F2E41"/>
<path d="M82.3939 51.0863C82.3939 53.0518 81.3504 54.6452 80.0632 54.6452C78.7759 54.6452 77.7324 53.0518 77.7324 51.0863C77.7324 49.1207 78.7759 47.5273 80.0632 47.5273C81.3504 47.5273 82.3939 49.1207 82.3939 51.0863Z" fill="#A0616A"/>
<path d="M82.1735 71.6073C82.1735 71.6073 73.5919 70.8656 73.1062 72.349C72.6204 73.8324 75.7322 94.2085 75.7322 94.2085L78.5084 93.3201L77.1541 79.0244C77.1541 79.0244 84.3152 81.9202 85.2867 78.4589C86.2582 74.9976 85.9785 73.7088 85.9785 73.7088L82.1735 71.6073Z" fill="#2F2E41"/>
<path d="M84.3728 69.1172C84.3728 69.1172 75.9684 71.8682 75.757 73.495C75.5455 75.1218 82.0765 93.5151 82.0765 93.5151L84.5999 91.5369L80.8172 78.2975C80.8172 78.2975 88.2248 78.1977 88.5621 74.4672C88.8993 70.7368 88.4063 69.6069 88.4063 69.6069L84.3728 69.1172Z" fill="#2F2E41"/>
<path d="M85.3315 55.168H81.2938L78.531 62.0906C78.531 62.0906 77.8834 66.5642 78.531 67.047C79.1787 67.5298 79.1787 72.7217 79.1787 72.7217L85.9792 73.7106C85.9792 73.7106 86.9506 58.1348 86.6268 56.6514C86.303 55.168 85.3315 55.168 85.3315 55.168Z" fill="#00BFA6"/>
<path d="M78.9351 59.7383L78.5303 67.0434L73.9773 64.0929L72.8907 63.2584C72.6778 62.8346 72.4016 62.4948 72.0852 62.2675C71.2982 61.6818 70.4627 61.8269 70.2187 62.5914C69.9747 63.3558 70.4146 64.4501 71.2014 65.0354C71.5137 65.2759 71.8593 65.3987 72.2091 65.3935L75.3886 68.1509L75.3923 68.1401L75.4064 68.1785L80.3923 71.3583L81.5395 61.7684L78.9351 59.7383Z" fill="#A0616A"/>
<path d="M78.4493 51.5813C78.4493 51.5813 76.0206 52.0757 76.9921 48.8617C76.9921 48.8617 76.8439 47.1193 77.5657 47.0016C78.2874 46.8838 79.2589 44.9059 79.2589 44.9059C79.2589 44.9059 81.4862 43.1752 82.6394 44.9059C83.7925 46.6365 87.1928 56.7732 87.1928 56.7732L84.926 60.4817C84.926 60.4817 83.5632 55.0114 81.9777 55.6451C80.3923 56.2787 78.9351 58.168 78.9351 58.168C78.9351 58.168 77.3261 56.9386 78.0496 55.8669C78.7732 54.7953 78.4493 51.5813 78.4493 51.5813Z" fill="#2F2E41"/>
<path d="M81.6883 57.0207C81.6883 57.0207 80.5549 54.7956 79.7453 56.5262C78.9357 58.2569 78.2881 60.482 78.2881 60.482L81.5264 62.2126L81.6883 57.0207Z" fill="#00BFA6"/>
<path d="M93.984 98.1941L90.2217 79.9344L90.2222 79.9343H90.2309L90.2157 79.9044L90.2154 79.9038L89.9474 78.6032L89.9475 78.603C90.3558 78.0659 90.6337 77.2983 90.6891 76.4146L88.9693 61.9715C89.0876 60.0749 88.1354 58.417 86.8879 58.349L83.0075 58.3341C81.9044 58.2745 80.949 59.4913 80.7883 61.1591L80.7025 62.0444L79.5136 74.3937C79.4702 74.838 79.4876 75.2757 79.556 75.6852L78.7004 75.856L78.4409 75.909L77.4149 76.1129L77.4116 76.1146L77.2835 76.1395H77.1445V81.4446H77.1532V98.4011C77.1532 98.5105 77.2118 98.6 77.2835 98.6C77.3563 98.6 77.4149 98.5105 77.4149 98.4011V81.4446H78.9371L80.456 98.3812C80.4658 98.4807 80.5212 98.5536 80.5863 98.5536C80.5917 98.5536 80.5983 98.5536 80.6037 98.552C80.6754 98.537 80.7253 98.4359 80.7155 98.3265L79.202 81.4446H86.5057C87.231 81.4446 87.903 81.0932 88.4501 80.4915L91.346 98.3501C91.361 98.4405 91.4142 98.5005 91.4726 98.5005C91.4833 98.5005 91.4941 98.4986 91.505 98.4944C91.575 98.4672 91.6173 98.3585 91.5995 98.2516L88.6756 80.2203C88.7145 80.1708 88.7534 80.118 88.7901 80.0636L89.9526 79.9592L93.7346 98.314C93.7521 98.3993 93.8037 98.4539 93.8593 98.4539C93.8723 98.4539 93.8855 98.4508 93.8985 98.4446C93.9674 98.4114 94.0057 98.2993 93.984 98.1941ZM89.6989 78.8865C89.7087 78.8782 89.7174 78.8683 89.726 78.86L89.754 78.9955L89.6989 78.8865Z" fill="#E6E6E6"/>
<path d="M20.1592 67.2439L22.6913 64.7852L23.7207 65.7333L20.1592 71.9822V67.2439Z" fill="#FFB6B6"/>
<path d="M16.6969 57.7276C16.6969 57.7276 15.015 58.3318 15.8065 61.8062C16.5979 65.2807 19.1702 72.5317 19.9616 72.0785C20.7531 71.6253 20.852 67.0934 20.852 67.0934C20.852 67.0934 20.7531 67.2445 20.3573 66.6402C19.9616 66.036 19.9616 66.3119 19.9616 65.6453C19.9616 64.9786 19.6379 64.4843 19.6379 64.4843L19.2691 63.3169C19.2691 63.3169 19.2691 57.8786 17.7851 57.5765C16.3012 57.2744 16.6969 57.7276 16.6969 57.7276Z" fill="#E6E6E6"/>
<path d="M24.5548 65.5718C25.2116 64.5689 25.4152 63.2538 25.0095 62.6343C24.6038 62.0149 23.7425 62.3258 23.0857 63.3286C22.4289 64.3315 22.2253 65.6467 22.631 66.2661C23.0367 66.8855 23.898 66.5747 24.5548 65.5718Z" fill="#FFB6B6"/>
<path d="M10.1465 77.7413L11.8743 82.1081L21.9431 81.1983L19.2621 75.9219L10.1465 77.7413Z" fill="#E6E6E6"/>
<path d="M13.1551 98.1633C13.0965 98.1633 13.0454 98.0972 13.0372 98.006L10.0285 64.4529C10.0195 64.3533 10.0651 64.2616 10.1303 64.248C10.1955 64.2336 10.2556 64.3039 10.2646 64.4035L13.2733 97.9566C13.2822 98.0562 13.2366 98.148 13.1714 98.1616C13.1659 98.1627 13.1605 98.1633 13.1551 98.1633Z" fill="#E6E6E6"/>
<path d="M10.1465 98.2071C10.0807 98.2071 10.0273 98.1256 10.0273 98.0251V64.4359C10.0273 64.3354 10.0807 64.2539 10.1465 64.2539C10.2123 64.2539 10.2657 64.3354 10.2657 64.4359V98.0251C10.2657 98.1256 10.2123 98.2071 10.1465 98.2071Z" fill="#E6E6E6"/>
<path d="M25.2496 98.0741C25.1989 98.0741 25.152 98.0243 25.136 97.9467L18.0163 63.3929C17.9965 63.297 18.0314 63.1948 18.0942 63.1646C18.1569 63.1346 18.2239 63.1878 18.2436 63.2836L25.3633 97.8374C25.383 97.9332 25.3481 98.0354 25.2854 98.0656C25.2735 98.0713 25.2614 98.0741 25.2496 98.0741Z" fill="#E6E6E6"/>
<path d="M23.0749 98.1179C23.0217 98.1179 22.9732 98.0631 22.9595 97.9808L18.0144 67.4846C17.9982 67.3873 18.0368 67.2882 18.1006 67.2634C18.1645 67.2388 18.2292 67.2975 18.2454 67.3949L23.1905 97.8911C23.2067 97.9884 23.1681 98.0875 23.1044 98.1123C23.0945 98.1161 23.0846 98.1179 23.0749 98.1179Z" fill="#E6E6E6"/>
<path d="M10.1465 64.9711L18.3982 64.7773L19.9174 78.014H10.2656L10.1465 64.9711Z" fill="#E6E6E6"/>
<path d="M22.8276 84.4336L20.748 90.0241L23.1626 90.8358L24.1693 86.8596L22.8276 84.4336Z" fill="#FFB6B6"/>
<path d="M21.4948 88.9682C21.4948 88.9682 21.414 88.0565 20.9389 88.3458C20.4638 88.6351 19.0928 89.7103 19.0928 89.7103C19.0928 89.7103 22.6689 98.5828 23.3475 98.1695C24.0262 97.7562 23.2138 95.2482 23.2138 95.2482L23.3931 90.8149L21.4948 88.9682Z" fill="#2F2E41"/>
<path d="M13.6303 73.5861C13.6303 73.5861 12.8883 78.7978 15.1637 80.6105C17.4391 82.4233 25.2052 77.9669 25.2052 77.9669L21.6437 86.1154L24.117 87.6349C24.117 87.6349 29.7561 76.3052 29.3604 74.4925C28.9646 72.6797 26.2935 72.5287 26.2935 72.5287L20.2587 72.9819L18.6758 72.2266L13.6303 73.5861Z" fill="#2F2E41"/>
<path d="M19.7507 86.918L16.4814 90.9697L18.537 93.0674L20.4222 89.9231L19.7507 86.918Z" fill="#FFB6B6"/>
<path d="M17.4288 90.4003C17.4288 90.4003 17.5708 89.5062 17.0594 89.5117C16.548 89.5173 15.0146 89.7569 15.0146 89.7569C15.0146 89.7569 16.2312 100.008 16.9618 100C17.6924 99.9924 17.5334 97.2049 17.5334 97.2049L18.7569 93.1752L17.4288 90.4003Z" fill="#2F2E41"/>
<path d="M13.7699 71.7031C13.7699 71.7031 11.8368 76.1452 13.5242 79.098C15.2116 82.0507 23.5073 82.215 23.5073 82.215L18.2481 87.8259L20.1897 90.6155C20.1897 90.6155 28.1422 83.1958 28.2056 81.2874C28.269 79.3791 25.8169 77.7542 25.8169 77.7542L20.0878 74.8232L18.7935 73.2402L13.7699 71.7031Z" fill="#2F2E41"/>
<path d="M18.7356 61.4135C18.7356 61.4135 16.8559 60.3561 15.9656 60.3561C15.8805 60.3561 15.7964 60.3712 15.7123 60.3984C15.1424 60.5827 14.6181 61.3304 14.3668 61.7383C14.2689 61.8984 14.2125 62.0057 14.2125 62.0057C14.2125 62.0057 14.2184 61.9014 14.2303 61.7186C14.2887 60.7579 14.5043 57.6052 14.8912 55.587C15.0297 54.8665 15.1889 54.2909 15.372 54.0115C15.7984 53.3589 15.9952 52.5764 16.0863 51.9933C16.1634 51.4932 16.1634 51.1413 16.1634 51.1413L15.4422 50.6669L15.3087 49.3346C15.2849 49.4917 15.1751 49.7983 14.8061 50.386C14.7744 50.4358 14.7398 50.4781 14.7032 50.5144C14.1709 51.0249 13.0857 50.1367 12.501 49.5778C12.7443 48.2862 13.1856 47.1049 13.9869 46.9115C15.8666 46.4583 15.8666 44.7967 17.0538 46.6094C17.1517 46.759 17.2507 46.9025 17.3496 47.0414C17.7295 48.1502 17.868 49.6367 17.9175 50.67C17.9531 51.3935 17.9442 51.8966 17.9442 51.8966C17.9442 51.8966 18.4388 56.4284 19.2303 57.3348C20.0217 58.2412 18.7356 61.4135 18.7356 61.4135Z" fill="#2F2E41"/>
<path d="M15.075 54.1641L13.7383 57.158L16.7569 58.3938V54.1641H15.075Z" fill="#FFB6B6"/>
<path opacity="0.1" d="M15.075 54.1641L13.7383 57.158L16.7569 58.3938V54.1641H15.075Z" fill="black"/>
<path d="M16.9449 57.0471L14.0759 55.2344C14.0759 55.2344 10.2175 57.8024 10.5143 62.7875C10.8111 67.7725 13.5812 76.3831 13.5812 76.3831L19.1214 72.7576L18.5278 63.0896L16.9449 57.0471Z" fill="#E6E6E6"/>
<path d="M15.7148 55.4994C17.1127 55.4994 18.2459 53.769 18.2459 51.6345C18.2459 49.4999 17.1127 47.7695 15.7148 47.7695C14.3168 47.7695 13.1836 49.4999 13.1836 51.6345C13.1836 53.769 14.3168 55.4994 15.7148 55.4994Z" fill="#FFB6B6"/>
<path d="M19.1308 50.2349C18.6362 50.9902 18.2405 51.7455 18.2405 51.7455L18.0426 50.537C18.0426 50.537 17.9971 50.5884 17.917 50.67C17.6033 50.9962 16.7614 51.8165 16.0857 51.9933C15.785 52.0718 15.5179 52.022 15.3437 51.7455C14.9747 51.1579 14.8649 50.8512 14.8412 50.6941L14.7076 52.0265L13.9864 52.5008C13.9864 52.5008 13.9864 54.1595 14.7779 55.371C14.8164 55.4299 14.854 55.5024 14.8906 55.587C15.2686 56.4571 15.5396 58.5871 15.7118 60.3984C15.8641 62.0087 15.9373 63.3652 15.9373 63.3652C15.9373 63.3652 15.1884 61.9331 14.3663 61.7383C14.3208 61.7277 14.2753 61.7201 14.2298 61.7186C14.2149 61.7156 14.1991 61.7156 14.1843 61.7156C13.2939 61.7156 11.4142 62.7731 11.4142 62.7731C11.4142 62.7731 10.1281 59.6007 10.9195 58.6944C11.711 57.788 12.2056 53.2561 12.2056 53.2561C12.2056 53.2561 12.173 51.3165 12.5005 49.5778C12.7438 48.2862 13.1851 47.1049 13.9864 46.9115C15.8661 46.4583 15.8661 44.7967 17.0533 46.6094C17.1512 46.759 17.2502 46.9025 17.3491 47.0414C18.4551 48.5944 19.5849 49.5415 19.1308 50.2349Z" fill="#2F2E41"/>
<path d="M8.02988 70.5117H7.08984V98.8603H8.02988V70.5117Z" fill="#3F3D56"/>
<path d="M30.8258 70.5117H29.8857V98.8603H30.8258V70.5117Z" fill="#3F3D56"/>
<path d="M24.8332 58.4922H18.6055V68.0015H24.8332V58.4922Z" fill="#00BFA6"/>
<path d="M15.0146 68.6033L17.5467 66.1445L18.5762 67.0927L15.0146 73.3415V68.6033Z" fill="#FFB6B6"/>
<path d="M11.5523 59.087C11.5523 59.087 9.87052 59.6912 10.662 63.1656C11.4534 66.6401 14.0256 73.891 14.8171 73.4379C15.6085 72.9847 15.7075 68.4528 15.7075 68.4528C15.7075 68.4528 15.6085 68.6039 15.2128 67.9996C14.8171 67.3954 14.8171 67.6713 14.8171 67.0046C14.8171 66.3379 14.4934 65.8437 14.4934 65.8437L14.1246 64.6763C14.1246 64.6763 14.1246 59.238 12.6406 58.9359C11.1566 58.6338 11.5523 59.087 11.5523 59.087Z" fill="#E6E6E6"/>
<path d="M19.4102 66.9312C20.067 65.9283 20.2706 64.6131 19.865 63.9937C19.4593 63.3743 18.598 63.6851 17.9412 64.688C17.2844 65.6909 17.0808 67.0061 17.4865 67.6255C17.8921 68.2449 18.7534 67.9341 19.4102 66.9312Z" fill="#FFB6B6"/>
<path d="M32.7055 69.4375H4.26953V72.6671H32.7055V69.4375Z" fill="#3F3D56"/>
<path d="M61.5963 43.5977H57.3967C57.0638 43.5977 56.7939 44.0097 56.7939 44.5181V47.1628C56.7939 47.6711 57.0638 48.0832 57.3967 48.0832H61.5963C61.9293 48.0832 62.1991 47.6711 62.1991 47.1628V44.5181C62.1991 44.0097 61.9293 43.5977 61.5963 43.5977Z" fill="#3F3D56"/>
<path d="M70.4088 46.2422H66.2092C65.8763 46.2422 65.6064 46.6543 65.6064 47.1626V47.1626C65.6064 47.6709 65.8763 48.083 66.2092 48.083H70.4088C70.7418 48.083 71.0116 47.6709 71.0116 47.1626V47.1626C71.0116 46.6543 70.7418 46.2422 70.4088 46.2422Z" fill="#00BFA6"/>
</g>
<defs>
<clipPath id="clip0_1216_1658">
<rect width="100" height="100" fill="white"/>
</clipPath>
</defs>
</svg>
