<svg width="20" height="20" viewBox="0 0 20 20" fill="none" xmlns="http://www.w3.org/2000/svg">
<path d="M14.2857 0H2.85714C2.09938 0 1.37266 0.263392 0.836838 0.732233C0.301019 1.20107 0 1.83696 0 2.5V17.5C0 18.163 0.301019 18.7989 0.836838 19.2678C1.37266 19.7366 2.09938 20 2.85714 20H7.21429C6.79344 19.639 6.44864 19.2158 6.19571 18.75H2.85714C2.47826 18.75 2.1149 18.6183 1.84699 18.3839C1.57908 18.1495 1.42857 17.8315 1.42857 17.5V2.5C1.42857 2.16848 1.57908 1.85054 1.84699 1.61612C2.1149 1.3817 2.47826 1.25 2.85714 1.25H14.2857C14.6646 1.25 15.028 1.3817 15.2959 1.61612C15.5638 1.85054 15.7143 2.16848 15.7143 2.5V12.5H16.4286C16.6714 12.5 16.91 12.515 17.1429 12.5438V2.5C17.1429 1.83696 16.8418 1.20107 16.306 0.732233C15.7702 0.263392 15.0435 0 14.2857 0ZM12.2714 6.24C12.4471 6.21217 12.6044 6.12782 12.7125 6.00354C12.8207 5.87926 12.8717 5.72407 12.8555 5.56853C12.8394 5.41298 12.7573 5.26836 12.6254 5.16314C12.4935 5.05791 12.3214 4.99971 12.1429 5H5L4.87143 5.01C4.69579 5.03783 4.53842 5.12218 4.43031 5.24646C4.32221 5.37074 4.27119 5.52593 4.28732 5.68147C4.30345 5.83702 4.38555 5.98164 4.51745 6.08686C4.64936 6.19209 4.82151 6.25029 5 6.25H12.1429L12.2714 6.24ZM5 10C4.81056 10 4.62888 10.0658 4.49492 10.1831C4.36097 10.3003 4.28571 10.4592 4.28571 10.625C4.28571 10.7908 4.36097 10.9497 4.49492 11.0669C4.62888 11.1842 4.81056 11.25 5 11.25H12.1429C12.3323 11.25 12.514 11.1842 12.6479 11.0669C12.7819 10.9497 12.8571 10.7908 12.8571 10.625C12.8571 10.4592 12.7819 10.3003 12.6479 10.1831C12.514 10.0658 12.3323 10 12.1429 10H5ZM10.7143 13.75C9.76708 13.75 8.85868 14.0792 8.1889 14.6653C7.51913 15.2513 7.14286 16.0462 7.14286 16.875C7.14286 17.7038 7.51913 18.4987 8.1889 19.0847C8.85868 19.6708 9.76708 20 10.7143 20H11.4286C11.618 20 11.7997 19.9342 11.9336 19.8169C12.0676 19.6997 12.1429 19.5408 12.1429 19.375C12.1429 19.2092 12.0676 19.0503 11.9336 18.9331C11.7997 18.8158 11.618 18.75 11.4286 18.75H10.7143C10.146 18.75 9.60092 18.5525 9.19906 18.2008C8.79719 17.8492 8.57143 17.3723 8.57143 16.875C8.57143 16.3777 8.79719 15.9008 9.19906 15.5492C9.60092 15.1975 10.146 15 10.7143 15H11.4286C11.618 15 11.7997 14.9342 11.9336 14.8169C12.0676 14.6997 12.1429 14.5408 12.1429 14.375C12.1429 14.2092 12.0676 14.0503 11.9336 13.9331C11.7997 13.8158 11.618 13.75 11.4286 13.75H10.7143ZM15.7143 13.75C15.5248 13.75 15.3432 13.8158 15.2092 13.9331C15.0753 14.0503 15 14.2092 15 14.375C15 14.5408 15.0753 14.6997 15.2092 14.8169C15.3432 14.9342 15.5248 15 15.7143 15H16.4286C16.9969 15 17.5419 15.1975 17.9438 15.5492C18.3457 15.9008 18.5714 16.3777 18.5714 16.875C18.5714 17.3723 18.3457 17.8492 17.9438 18.2008C17.5419 18.5525 16.9969 18.75 16.4286 18.75H15.7143C15.5248 18.75 15.3432 18.8158 15.2092 18.9331C15.0753 19.0503 15 19.2092 15 19.375C15 19.5408 15.0753 19.6997 15.2092 19.8169C15.3432 19.9342 15.5248 20 15.7143 20H16.4286C17.3758 20 18.2842 19.6708 18.954 19.0847C19.6237 18.4987 20 17.7038 20 16.875C20 16.0462 19.6237 15.2513 18.954 14.6653C18.2842 14.0792 17.3758 13.75 16.4286 13.75H15.7143ZM10 16.875C10 16.7092 10.0753 16.5503 10.2092 16.4331C10.3432 16.3158 10.5248 16.25 10.7143 16.25H16.4286C16.618 16.25 16.7997 16.3158 16.9336 16.4331C17.0676 16.5503 17.1429 16.7092 17.1429 16.875C17.1429 17.0408 17.0676 17.1997 16.9336 17.3169C16.7997 17.4342 16.618 17.5 16.4286 17.5H10.7143C10.5248 17.5 10.3432 17.4342 10.2092 17.3169C10.0753 17.1997 10 17.0408 10 16.875Z" fill="white"/>
</svg>
