<svg width="20" height="20" viewBox="0 0 20 20" fill="none" xmlns="http://www.w3.org/2000/svg">
<path d="M17.6923 2.6087H15.0269L13.7163 0.386957C13.6461 0.267991 13.551 0.170438 13.4395 0.102941C13.328 0.0354437 13.2034 8.58749e-05 13.0769 0H6.92308C6.79657 8.58749e-05 6.67203 0.0354437 6.56049 0.102941C6.44896 0.170438 6.35387 0.267991 6.28365 0.386957L4.97212 2.6087H2.30769C1.69565 2.6087 1.10868 2.88354 0.675907 3.37276C0.243131 3.86199 0 4.52552 0 5.21739V17.3913C0 18.0832 0.243131 18.7467 0.675907 19.2359C1.10868 19.7252 1.69565 20 2.30769 20H17.6923C18.3043 20 18.8913 19.7252 19.3241 19.2359C19.7569 18.7467 20 18.0832 20 17.3913V5.21739C20 4.52552 19.7569 3.86199 19.3241 3.37276C18.8913 2.88354 18.3043 2.6087 17.6923 2.6087ZM13.4615 10.8696C13.4615 11.6435 13.2585 12.4 12.8782 13.0435C12.4978 13.687 11.9572 14.1886 11.3247 14.4847C10.6922 14.7809 9.99616 14.8584 9.32469 14.7074C8.65321 14.5564 8.03643 14.1838 7.55232 13.6365C7.06822 13.0893 6.73854 12.392 6.60497 11.633C6.47141 10.8739 6.53996 10.0871 6.80196 9.37211C7.06395 8.65709 7.50763 8.04596 8.07687 7.61599C8.64612 7.18602 9.31537 6.95652 10 6.95652C10.9181 6.95652 11.7985 7.36879 12.4477 8.10263C13.0968 8.83646 13.4615 9.83176 13.4615 10.8696Z" fill="white"/>
</svg>
