<svg width="18" height="20" viewBox="0 0 18 20" fill="none" xmlns="http://www.w3.org/2000/svg">
<path d="M8.75 15.5C10.7887 15.5 12.5125 14.04 13.2213 12H4.27875C4.97875 14.04 6.71125 15.5 8.75 15.5ZM5.6875 9C6.0356 9 6.36944 8.84196 6.61558 8.56066C6.86172 8.27936 7 7.89782 7 7.5C7 7.10218 6.86172 6.72064 6.61558 6.43934C6.36944 6.15804 6.0356 6 5.6875 6C5.3394 6 5.00556 6.15804 4.75942 6.43934C4.51328 6.72064 4.375 7.10218 4.375 7.5C4.375 7.89782 4.51328 8.27936 4.75942 8.56066C5.00556 8.84196 5.3394 9 5.6875 9ZM11.8125 9C12.1606 9 12.4944 8.84196 12.7406 8.56066C12.9867 8.27936 13.125 7.89782 13.125 7.5C13.125 7.10218 12.9867 6.72064 12.7406 6.43934C12.4944 6.15804 12.1606 6 11.8125 6C11.4644 6 11.1306 6.15804 10.8844 6.43934C10.6383 6.72064 10.5 7.10218 10.5 7.5C10.5 7.89782 10.6383 8.27936 10.8844 8.56066C11.1306 8.84196 11.4644 9 11.8125 9ZM8.75 18C6.89348 18 5.11301 17.1571 3.80025 15.6569C2.4875 14.1566 1.75 12.1217 1.75 10C1.75 7.87827 2.4875 5.84344 3.80025 4.34315C5.11301 2.84285 6.89348 2 8.75 2C10.6065 2 12.387 2.84285 13.6997 4.34315C15.0125 5.84344 15.75 7.87827 15.75 10C15.75 12.1217 15.0125 14.1566 13.6997 15.6569C12.387 17.1571 10.6065 18 8.75 18ZM8.75 0C3.91125 0 0 4.5 0 10C0 12.6522 0.921872 15.1957 2.56282 17.0711C3.37533 17.9997 4.33992 18.7362 5.40152 19.2388C6.46312 19.7413 7.60093 20 8.75 20C11.0706 20 13.2962 18.9464 14.9372 17.0711C16.5781 15.1957 17.5 12.6522 17.5 10C17.5 8.68678 17.2737 7.38642 16.8339 6.17317C16.3942 4.95991 15.7497 3.85752 14.9372 2.92893C14.1247 2.00035 13.1601 1.26375 12.0985 0.761205C11.0369 0.258658 9.89907 0 8.75 0Z" fill="white"/>
</svg>
